<svg width="121" height="108" viewBox="0 0 121 108" fill="none" xmlns="http://www.w3.org/2000/svg"><path opacity=".2" d="M85.032 34.175c-.863-3.103-4.114-4.936-7.223-4.076L63.77 33.986 30.678 27l-3.64 17.152-22.74 6.295c-3.11.86-4.948 4.103-4.085 7.204l12.815 46.062c.864 3.101 4.114 4.936 7.224 4.074l73.51-20.347c3.11-.861 4.948-4.102 4.086-7.205l-2.2-7.907 8.245 1.738c3.128.662 6.229-1.352 6.891-4.472L116 45.009l-29.697-6.268-1.27-4.566zM5.578 55.044l20.344-5.63 48-13.285 5.164-1.431a1.06 1.06 0 0 1 .28-.038c.415 0 .91.272 1.055.79l.607 2.18 1.9 6.828L7.329 65.383l-2.507-9.006a1.097 1.097 0 0 1 .755-1.333zm87.66 26.466c.097.349-.005.638-.108.819-.1.18-.297.417-.647.513l-73.51 20.348a1.087 1.087 0 0 1-.28.038c-.414 0-.91-.272-1.054-.792L10.164 75.57l75.598-20.926 4.61 16.57 2.866 10.296zm23.144-65.583L42.31.127c-3.134-.668-6.24 1.37-6.903 4.528L34 13.771 119.467 32l1.407-9.115c.663-3.158-1.358-6.29-4.492-6.958z" fill="#000"/></svg>