<svg width="121" height="108" viewBox="0 0 121 108" fill="none" xmlns="http://www.w3.org/2000/svg">
<path opacity="0.2" d="M85.0325 34.1747C84.1687 31.0723 80.9182 29.2385 77.8088 30.0987L63.7711 33.9856L30.6778 27L27.0382 44.1521L4.29814 50.4474C1.1889 51.3077 -0.64962 54.5498 0.212721 57.6513L13.0281 103.713C13.8918 106.814 17.1425 108.649 20.2517 107.787L93.7624 87.44C96.8717 86.5785 98.7102 83.3376 97.8478 80.235L95.6481 72.3277L103.893 74.0662C107.021 74.7276 110.122 72.7144 110.784 69.5939L116 45.0091L86.3032 38.7411L85.0325 34.1747ZM5.57735 55.0439L25.9206 49.4149L73.9203 36.1291L79.0854 34.6977C79.1797 34.6724 79.2739 34.6604 79.3658 34.6604C79.7801 34.6604 80.2755 34.9315 80.4203 35.4508L81.0267 37.6291L82.9268 44.4581L7.32886 65.3826L4.82233 56.3765C4.66529 55.8114 5.01094 55.2006 5.57735 55.0439ZM93.238 81.5095C93.3347 81.859 93.2333 82.1481 93.1305 82.3289C93.0291 82.5096 92.8334 82.7459 92.483 82.8421L18.9737 103.19C18.8808 103.215 18.7853 103.228 18.6934 103.228C18.2791 103.228 17.7837 102.956 17.6389 102.436L10.1641 75.5696L85.762 54.6439L90.3728 71.2141L93.238 81.5095Z" fill="black"/>
<path opacity="0.2" d="M116.382 15.9269L42.3104 0.12693C39.1765 -0.541346 36.0703 1.49655 35.4073 4.65527L34 13.7705L119.467 32L120.874 22.8848C121.537 19.7272 119.516 16.5954 116.382 15.9269Z" fill="black"/>
</svg>
