<svg width="93" height="88" viewBox="0 0 93 88" fill="none" xmlns="http://www.w3.org/2000/svg">
<g opacity="0.2">
<path d="M5.81445 46.6299V81.6866C5.81445 84.9119 8.42427 87.5294 11.627 87.5294H40.6895V46.6299H5.81445Z" fill="black"/>
<path d="M87.1875 23.2587H68.7968C70.1162 22.3531 71.2496 21.4533 72.0401 20.647C76.7308 15.9085 76.7308 8.19598 72.0401 3.45747C67.4831 -1.15833 59.5433 -1.14665 54.9921 3.45747C52.4694 5.99909 45.7851 16.3467 46.7093 23.2587H46.2908C47.2091 16.3467 40.5247 5.99909 38.0079 3.45747C33.4509 -1.14665 25.5111 -1.14665 20.9599 3.45747C16.275 8.19598 16.275 15.9085 20.9541 20.647C21.7504 21.4533 22.8838 22.3531 24.2033 23.2587H5.8125C2.60981 23.2587 0 25.8821 0 29.1015V37.8657C0 39.4783 1.302 40.7871 2.90625 40.7871H40.6875V29.1015H52.3125V40.7871H90.0938C91.698 40.7871 93 39.4783 93 37.8657V29.1015C93 25.8821 90.396 23.2587 87.1875 23.2587ZM40.3446 23.0659C40.3446 23.0659 40.1004 23.2587 39.2692 23.2587C35.2528 23.2587 27.5861 19.0636 25.0809 16.5278C22.6455 14.0621 22.6455 10.0423 25.0809 7.57664C26.2609 6.38471 27.8244 5.73032 29.4868 5.73032C31.1434 5.73032 32.7069 6.38471 33.8869 7.57664C37.8045 11.5381 41.6989 21.6578 40.3446 23.0659ZM53.7249 23.2587C52.8996 23.2587 52.6554 23.0717 52.6554 23.0659C51.3011 21.6578 55.1955 11.5381 59.1131 7.57664C61.4556 5.19863 65.5534 5.18694 67.9191 7.57664C70.3603 10.0423 70.3603 14.0621 67.9191 16.5278C65.4139 19.0636 57.7472 23.2587 53.7249 23.2587Z" fill="black"/>
<path d="M52.3135 46.6299V87.5294H81.376C84.5845 87.5294 87.1885 84.9119 87.1885 81.6866V46.6299H52.3135Z" fill="black"/>
</g>
</svg>
