<svg width="93" height="88" viewBox="0 0 93 88" fill="none" xmlns="http://www.w3.org/2000/svg"><path d="M5.814 46.63v35.057c0 3.225 2.61 5.842 5.813 5.842H40.69v-40.9H5.814zm81.374-23.371H68.797c1.32-.906 2.453-1.806 3.243-2.612 4.69-4.738 4.69-12.451 0-17.19-4.557-4.615-12.497-4.604-17.048 0C52.47 6 45.785 16.347 46.71 23.26h-.418C47.21 16.348 40.526 6 38.009 3.458c-4.557-4.604-12.497-4.604-17.048 0-4.685 4.739-4.685 12.451-.006 17.19.796.806 1.93 1.706 3.25 2.612H5.811C2.61 23.259 0 25.882 0 29.102v8.764a2.915 2.915 0 0 0 2.906 2.921h37.782V29.102h11.624v11.685h37.782A2.915 2.915 0 0 0 93 37.866v-8.764c0-3.22-2.604-5.843-5.813-5.843zm-46.843-.193s-.245.193-1.076.193c-4.016 0-11.683-4.195-14.188-6.731-2.436-2.466-2.436-6.486 0-8.951a6.157 6.157 0 0 1 4.406-1.847c1.656 0 3.22.655 4.4 1.847 3.917 3.961 7.812 14.08 6.458 15.489zm13.38.193c-.825 0-1.07-.187-1.07-.193-1.354-1.408 2.54-11.528 6.458-15.49 2.343-2.377 6.44-2.39 8.806 0 2.441 2.466 2.441 6.486 0 8.952-2.505 2.536-10.172 6.73-14.194 6.73zM52.313 46.63v40.9h29.063c3.209 0 5.813-2.618 5.813-5.843V46.63H52.314z" opacity=".2" fill="#000"/></svg>