<svg width="87" height="81" viewBox="0 0 87 81" fill="none" xmlns="http://www.w3.org/2000/svg"><g opacity=".2" fill="#000"><path d="M83.582 38.428h-19.7a3.423 3.423 0 0 0-3.418 3.427v12.592a3.423 3.423 0 0 0 3.418 3.427h19.7A3.423 3.423 0 0 0 87 54.447V41.855a3.423 3.423 0 0 0-3.418-3.427zM70.67 53.098a4.94 4.94 0 0 1-4.933-4.947 4.94 4.94 0 0 1 4.933-4.947 4.94 4.94 0 0 1 4.933 4.947 4.94 4.94 0 0 1-4.933 4.947zM67.958 5.183c-1.304-3.959-5.562-6.108-9.51-4.8l-29.616 9.812h40.777l-1.65-5.012z"/><path d="M63.882 62.029c-4.168 0-7.56-3.402-7.56-7.582V41.855c0-4.18 3.392-7.582 7.56-7.582h19.7c.12 0 .239.003.357.009V21.738c0-3.229-2.61-5.846-5.83-5.846H5.83C2.61 15.892 0 18.51 0 21.738v52.825c0 3.229 2.61 5.847 5.83 5.847h72.28c3.219 0 5.829-2.618 5.829-5.847V62.02a8.416 8.416 0 0 1-.356.009h-19.7z"/></g></svg>