<svg width="87" height="81" viewBox="0 0 87 81" fill="none" xmlns="http://www.w3.org/2000/svg">
<g opacity="0.2">
<path d="M83.5821 38.4277H63.8816C61.9941 38.4277 60.4639 39.9623 60.4639 41.8552V54.447C60.4639 56.3399 61.9941 57.8744 63.8816 57.8744H83.5821C85.4696 57.8744 86.9998 56.34 86.9998 54.447V41.8552C86.9998 39.9621 85.4696 38.4277 83.5821 38.4277ZM70.6701 53.0979C67.9456 53.0979 65.7371 50.8831 65.7371 48.1509C65.7371 45.4187 67.9456 43.2039 70.6701 43.2039C73.3945 43.2039 75.6031 45.4187 75.6031 48.1509C75.6031 50.8831 73.3945 53.0979 70.6701 53.0979Z" fill="black"/>
<path d="M67.9581 5.18307C66.6538 1.22416 62.3963 -0.924825 58.4488 0.38314L28.832 10.1955H69.6094L67.9581 5.18307Z" fill="black"/>
<path d="M63.8824 62.0288C59.7135 62.0286 56.3218 58.6274 56.3218 54.4466V41.8548C56.3218 37.6741 59.7135 34.2729 63.8824 34.2729H83.5829C83.7023 34.2729 83.8209 34.2765 83.9389 34.2818V21.7384C83.9389 18.5095 81.3288 15.8921 78.1092 15.8921H5.82988C2.61003 15.8919 0 18.5094 0 21.7382V74.5631C0 77.7919 2.61003 80.4096 5.82988 80.4096H78.1092C81.3288 80.4096 83.9389 77.7921 83.9389 74.5631V62.0196C83.8209 62.0252 83.7023 62.0288 83.5829 62.0288H63.8824Z" fill="black"/>
</g>
</svg>
