<svg width="180" height="180" viewBox="0 0 180 180" fill="none" xmlns="http://www.w3.org/2000/svg"><path d="M8.571 0H0v8.571h8.571V0z" fill="#000" fill-opacity=".8"/><path d="M17.143 0H8.57v8.571h8.572V0zm8.571 0h-8.571v8.571h8.571V0zm8.572 0h-8.572v8.571h8.572V0zm8.571 0h-8.571v8.571h8.571V0zm8.572 0h-8.572v8.571h8.572V0zM60 0h-8.571v8.571H60V0zm17.143 0H68.57v8.571h8.572V0zm8.571 0h-8.571v8.571h8.571V0zm42.857 0H120v8.571h8.571V0zm8.572 0h-8.572v8.571h8.572V0zm8.571 0h-8.571v8.571h8.571V0zm8.572 0h-8.572v8.571h8.572V0zm8.571 0h-8.571v8.571h8.571V0zm8.572 0h-8.572v8.571h8.572V0zM180 0h-8.571v8.571H180V0z" fill="#000" fill-opacity=".8"/><path d="M8.571 8.571H0v8.572h8.571V8.57zm51.429 0h-8.571v8.572H60V8.57zm25.714 0h-8.571v8.572h8.571V8.57zm8.572 0h-8.572v8.572h8.572V8.57zm17.143 0h-8.572v8.572h8.572V8.57zm17.142 0H120v8.572h8.571V8.57zm51.429 0h-8.571v8.572H180V8.57zM8.571 17.143H0v8.571h8.571v-8.571zm17.143 0h-8.571v8.571h8.571v-8.571zm8.572 0h-8.572v8.571h8.572v-8.571zm8.571 0h-8.571v8.571h8.571v-8.571zm17.143 0h-8.571v8.571H60v-8.571zm17.143 0H68.57v8.571h8.572v-8.571zm8.571 0h-8.571v8.571h8.571v-8.571zm8.572 0h-8.572v8.571h8.572v-8.571zm34.285 0H120v8.571h8.571v-8.571zm17.143 0h-8.571v8.571h8.571v-8.571zm8.572 0h-8.572v8.571h8.572v-8.571zm8.571 0h-8.571v8.571h8.571v-8.571zm17.143 0h-8.571v8.571H180v-8.571zM8.571 25.714H0v8.572h8.571v-8.572zm17.143 0h-8.571v8.572h8.571v-8.572zm8.572 0h-8.572v8.572h8.572v-8.572zm8.571 0h-8.571v8.572h8.571v-8.572zm17.143 0h-8.571v8.572H60v-8.572zm17.143 0H68.57v8.572h8.572v-8.572zm34.286 0h-8.572v8.572h8.572v-8.572zm17.142 0H120v8.572h8.571v-8.572zm17.143 0h-8.571v8.572h8.571v-8.572zm8.572 0h-8.572v8.572h8.572v-8.572zm8.571 0h-8.571v8.572h8.571v-8.572zm17.143 0h-8.571v8.572H180v-8.572zM8.571 34.286H0v8.571h8.571v-8.571zm17.143 0h-8.571v8.571h8.571v-8.571zm8.572 0h-8.572v8.571h8.572v-8.571zm8.571 0h-8.571v8.571h8.571v-8.571zm17.143 0h-8.571v8.571H60v-8.571zm17.143 0H68.57v8.571h8.572v-8.571zm8.571 0h-8.571v8.571h8.571v-8.571zm8.572 0h-8.572v8.571h8.572v-8.571zm8.571 0h-8.571v8.571h8.571v-8.571zm25.714 0H120v8.571h8.571v-8.571zm17.143 0h-8.571v8.571h8.571v-8.571zm8.572 0h-8.572v8.571h8.572v-8.571zm8.571 0h-8.571v8.571h8.571v-8.571zm17.143 0h-8.571v8.571H180v-8.571zM8.571 42.857H0v8.572h8.571v-8.572zm51.429 0h-8.571v8.572H60v-8.572zm17.143 0H68.57v8.572h8.572v-8.572zm25.714 0h-8.571v8.572h8.571v-8.572zm25.714 0H120v8.572h8.571v-8.572zm51.429 0h-8.571v8.572H180v-8.572zM8.571 51.429H0V60h8.571v-8.571z" fill="#000" fill-opacity=".8"/><path d="M17.143 51.429H8.57V60h8.572v-8.571zm8.571 0h-8.571V60h8.571v-8.571zm8.572 0h-8.572V60h8.572v-8.571zm8.571 0h-8.571V60h8.571v-8.571zm8.572 0h-8.572V60h8.572v-8.571zm8.571 0h-8.571V60H60v-8.571zm17.143 0H68.57V60h8.572v-8.571zm17.143 0h-8.572V60h8.572v-8.571zm17.143 0h-8.572V60h8.572v-8.571zm17.142 0H120V60h8.571v-8.571zm8.572 0h-8.572V60h8.572v-8.571zm8.571 0h-8.571V60h8.571v-8.571zm8.572 0h-8.572V60h8.572v-8.571zm8.571 0h-8.571V60h8.571v-8.571zm8.572 0h-8.572V60h8.572v-8.571zm8.571 0h-8.571V60H180v-8.571zM85.714 60h-8.571v8.571h8.571V60zm17.143 0h-8.571v8.571h8.571V60zm8.572 0h-8.572v8.571h8.572V60zm-85.715 8.571h-8.571v8.572h8.571V68.57zm8.572 0h-8.572v8.572h8.572V68.57zm8.571 0h-8.571v8.572h8.571V68.57zm8.572 0h-8.572v8.572h8.572V68.57zm8.571 0h-8.571v8.572H60V68.57zm8.571 0H60v8.572h8.571V68.57z" fill="#000" fill-opacity=".8"/><path d="M111.429 68.571h-8.572v8.572h8.572V68.57zm8.571 0h-8.571v8.572H120V68.57zm17.143 0h-8.572v8.572h8.572V68.57zm8.571 0h-8.571v8.572h8.571V68.57zm8.572 0h-8.572v8.572h8.572V68.57zm8.571 0h-8.571v8.572h8.571V68.57zm17.143 0h-8.571v8.572H180V68.57zM17.143 77.143H8.57v8.571h8.572v-8.571zm94.286 0h-8.572v8.571h8.572v-8.571zm8.571 0h-8.571v8.571H120v-8.571zm8.571 0H120v8.571h8.571v-8.571zm17.143 0h-8.571v8.571h8.571v-8.571zm8.572 0h-8.572v8.571h8.572v-8.571zm17.143 0h-8.572v8.571h8.572v-8.571zM25.714 85.714h-8.571v8.572h8.571v-8.572zm8.572 0h-8.572v8.572h8.572v-8.572zm8.571 0h-8.571v8.572h8.571v-8.572zm17.143 0h-8.571v8.572H60v-8.572zm8.571 0H60v8.572h8.571v-8.572z" fill="#000" fill-opacity=".8"/><path d="M77.143 85.714H68.57v8.572h8.572v-8.572zm8.571 0h-8.571v8.572h8.571v-8.572zm34.286 0h-8.571v8.572H120v-8.572zm17.143 0h-8.572v8.572h8.572v-8.572zm-120 8.572H8.57v8.571h8.572v-8.571zm8.571 0h-8.571v8.571h8.571v-8.571zm25.715 0h-8.572v8.571h8.572v-8.571zm25.714 0H68.57v8.571h8.572v-8.571zm8.571 0h-8.571v8.571h8.571v-8.571zm17.143 0h-8.571v8.571h8.571v-8.571zm25.714 0H120v8.571h8.571v-8.571zm17.143 0h-8.571v8.571h8.571v-8.571zm8.572 0h-8.572v8.571h8.572v-8.571zm17.143 0h-8.572v8.571h8.572v-8.571zm-154.286 8.571H8.57v8.572h8.572v-8.572zm8.571 0h-8.571v8.572h8.571v-8.572zm8.572 0h-8.572v8.572h8.572v-8.572zm8.571 0h-8.571v8.572h8.571v-8.572zm17.143 0h-8.571v8.572H60v-8.572zm25.714 0h-8.571v8.572h8.571v-8.572zm8.572 0h-8.572v8.572h8.572v-8.572zm8.571 0h-8.571v8.572h8.571v-8.572zm8.572 0h-8.572v8.572h8.572v-8.572zm8.571 0h-8.571v8.572H120v-8.572zm34.286 0h-8.572v8.572h8.572v-8.572zm8.571 0h-8.571v8.572h8.571v-8.572zm8.572 0h-8.572v8.572h8.572v-8.572zm8.571 0h-8.571v8.572H180v-8.572zm-94.286 8.572h-8.571V120h8.571v-8.571zm17.143 0h-8.571V120h8.571v-8.571zm25.714 0H120V120h8.571v-8.571zm17.143 0h-8.571V120h8.571v-8.571zm8.572 0h-8.572V120h8.572v-8.571zm17.143 0h-8.572V120h8.572v-8.571zM8.571 120H0v8.571h8.571V120z" fill="#000" fill-opacity=".8"/><path d="M17.143 120H8.57v8.571h8.572V120zm8.571 0h-8.571v8.571h8.571V120zm8.572 0h-8.572v8.571h8.572V120zm8.571 0h-8.571v8.571h8.571V120zm8.572 0h-8.572v8.571h8.572V120zM60 120h-8.571v8.571H60V120zm17.143 0H68.57v8.571h8.572V120zm8.571 0h-8.571v8.571h8.571V120zm8.572 0h-8.572v8.571h8.572V120zm8.571 0h-8.571v8.571h8.571V120zm51.429 0h-8.572v8.571h8.572V120zm8.571 0h-8.571v8.571h8.571V120zm8.572 0h-8.572v8.571h8.572V120zM8.571 128.571H0v8.572h8.571v-8.572zm51.429 0h-8.571v8.572H60v-8.572zm17.143 0H68.57v8.572h8.572v-8.572zm17.143 0h-8.572v8.572h8.572v-8.572zm17.143 0h-8.572v8.572h8.572v-8.572zm8.571 0h-8.571v8.572H120v-8.572zm17.143 0h-8.572v8.572h8.572v-8.572zm17.143 0h-8.572v8.572h8.572v-8.572zm8.571 0h-8.571v8.572h8.571v-8.572zM8.571 137.143H0v8.571h8.571v-8.571zm17.143 0h-8.571v8.571h8.571v-8.571zm8.572 0h-8.572v8.571h8.572v-8.571zm8.571 0h-8.571v8.571h8.571v-8.571zm17.143 0h-8.571v8.571H60v-8.571zm17.143 0H68.57v8.571h8.572v-8.571zm51.428 0H120v8.571h8.571v-8.571zm8.572 0h-8.572v8.571h8.572v-8.571zm8.571 0h-8.571v8.571h8.571v-8.571zm25.715 0h-8.572v8.571h8.572v-8.571zm8.571 0h-8.571v8.571H180v-8.571zM8.571 145.714H0v8.572h8.571v-8.572zm17.143 0h-8.571v8.572h8.571v-8.572zm8.572 0h-8.572v8.572h8.572v-8.572zm8.571 0h-8.571v8.572h8.571v-8.572zm17.143 0h-8.571v8.572H60v-8.572zm17.143 0H68.57v8.572h8.572v-8.572zm8.571 0h-8.571v8.572h8.571v-8.572zm8.572 0h-8.572v8.572h8.572v-8.572zm8.571 0h-8.571v8.572h8.571v-8.572zm17.143 0h-8.571v8.572H120v-8.572zm17.143 0h-8.572v8.572h8.572v-8.572zm17.143 0h-8.572v8.572h8.572v-8.572zm17.143 0h-8.572v8.572h8.572v-8.572zM8.571 154.286H0v8.571h8.571v-8.571zm17.143 0h-8.571v8.571h8.571v-8.571zm8.572 0h-8.572v8.571h8.572v-8.571zm8.571 0h-8.571v8.571h8.571v-8.571zm17.143 0h-8.571v8.571H60v-8.571zm17.143 0H68.57v8.571h8.572v-8.571zm8.571 0h-8.571v8.571h8.571v-8.571zm8.572 0h-8.572v8.571h8.572v-8.571zm8.571 0h-8.571v8.571h8.571v-8.571zm25.714 0H120v8.571h8.571v-8.571zm8.572 0h-8.572v8.571h8.572v-8.571zm25.714 0h-8.571v8.571h8.571v-8.571zm8.572 0h-8.572v8.571h8.572v-8.571zM8.571 162.857H0v8.572h8.571v-8.572zm51.429 0h-8.571v8.572H60v-8.572zm34.286 0h-8.572v8.572h8.572v-8.572zm34.285 0H120v8.572h8.571v-8.572zm8.572 0h-8.572v8.572h8.572v-8.572zm8.571 0h-8.571v8.572h8.571v-8.572zm34.286 0h-8.571v8.572H180v-8.572zM8.571 171.429H0V180h8.571v-8.571z" fill="#000" fill-opacity=".8"/><path d="M17.143 171.429H8.57V180h8.572v-8.571zm8.571 0h-8.571V180h8.571v-8.571zm8.572 0h-8.572V180h8.572v-8.571zm8.571 0h-8.571V180h8.571v-8.571zm8.572 0h-8.572V180h8.572v-8.571zm8.571 0h-8.571V180H60v-8.571zm25.714 0h-8.571V180h8.571v-8.571zm25.715 0h-8.572V180h8.572v-8.571zm8.571 0h-8.571V180H120v-8.571z" fill="#000" fill-opacity=".8"/></svg>