<svg width="180" height="180" viewBox="0 0 180 180" fill="none" xmlns="http://www.w3.org/2000/svg">
<path d="M8.57143 0H0V8.57143H8.57143V0Z" fill="black" fill-opacity="0.8"/>
<path d="M17.1429 0H8.57143V8.57143H17.1429V0Z" fill="black" fill-opacity="0.8"/>
<path d="M25.7143 0H17.1429V8.57143H25.7143V0Z" fill="black" fill-opacity="0.8"/>
<path d="M34.2857 0H25.7143V8.57143H34.2857V0Z" fill="black" fill-opacity="0.8"/>
<path d="M42.8571 0H34.2857V8.57143H42.8571V0Z" fill="black" fill-opacity="0.8"/>
<path d="M51.4286 0H42.8571V8.57143H51.4286V0Z" fill="black" fill-opacity="0.8"/>
<path d="M60 0H51.4286V8.57143H60V0Z" fill="black" fill-opacity="0.8"/>
<path d="M77.1429 0H68.5714V8.57143H77.1429V0Z" fill="black" fill-opacity="0.8"/>
<path d="M85.7143 0H77.1429V8.57143H85.7143V0Z" fill="black" fill-opacity="0.8"/>
<path d="M128.571 0H120V8.57143H128.571V0Z" fill="black" fill-opacity="0.8"/>
<path d="M137.143 0H128.571V8.57143H137.143V0Z" fill="black" fill-opacity="0.8"/>
<path d="M145.714 0H137.143V8.57143H145.714V0Z" fill="black" fill-opacity="0.8"/>
<path d="M154.286 0H145.714V8.57143H154.286V0Z" fill="black" fill-opacity="0.8"/>
<path d="M162.857 0H154.286V8.57143H162.857V0Z" fill="black" fill-opacity="0.8"/>
<path d="M171.429 0H162.857V8.57143H171.429V0Z" fill="black" fill-opacity="0.8"/>
<path d="M180 0H171.429V8.57143H180V0Z" fill="black" fill-opacity="0.8"/>
<path d="M8.57143 8.57143H0V17.1429H8.57143V8.57143Z" fill="black" fill-opacity="0.8"/>
<path d="M60 8.57143H51.4286V17.1429H60V8.57143Z" fill="black" fill-opacity="0.8"/>
<path d="M85.7143 8.57143H77.1429L77.1429 17.1429H85.7143V8.57143Z" fill="black" fill-opacity="0.8"/>
<path d="M94.2857 8.57143H85.7143V17.1429H94.2857V8.57143Z" fill="black" fill-opacity="0.8"/>
<path d="M111.429 8.57143H102.857V17.1429H111.429V8.57143Z" fill="black" fill-opacity="0.8"/>
<path d="M128.571 8.57143H120V17.1429H128.571V8.57143Z" fill="black" fill-opacity="0.8"/>
<path d="M180 8.57143H171.429V17.1429H180V8.57143Z" fill="black" fill-opacity="0.8"/>
<path d="M8.57143 17.1429H0V25.7143H8.57143V17.1429Z" fill="black" fill-opacity="0.8"/>
<path d="M25.7143 17.1429H17.1429V25.7143H25.7143V17.1429Z" fill="black" fill-opacity="0.8"/>
<path d="M34.2857 17.1429H25.7143V25.7143H34.2857V17.1429Z" fill="black" fill-opacity="0.8"/>
<path d="M42.8571 17.1429H34.2857V25.7143H42.8571V17.1429Z" fill="black" fill-opacity="0.8"/>
<path d="M60 17.1429H51.4286V25.7143H60V17.1429Z" fill="black" fill-opacity="0.8"/>
<path d="M77.1429 17.1429H68.5714V25.7143H77.1429L77.1429 17.1429Z" fill="black" fill-opacity="0.8"/>
<path d="M85.7143 17.1429H77.1429L77.1429 25.7143H85.7143V17.1429Z" fill="black" fill-opacity="0.8"/>
<path d="M94.2857 17.1429H85.7143V25.7143H94.2857V17.1429Z" fill="black" fill-opacity="0.8"/>
<path d="M128.571 17.1429H120V25.7143H128.571V17.1429Z" fill="black" fill-opacity="0.8"/>
<path d="M145.714 17.1429H137.143V25.7143H145.714V17.1429Z" fill="black" fill-opacity="0.8"/>
<path d="M154.286 17.1429H145.714V25.7143H154.286V17.1429Z" fill="black" fill-opacity="0.8"/>
<path d="M162.857 17.1429H154.286V25.7143H162.857V17.1429Z" fill="black" fill-opacity="0.8"/>
<path d="M180 17.1429H171.429V25.7143H180V17.1429Z" fill="black" fill-opacity="0.8"/>
<path d="M8.57143 25.7143H0V34.2857H8.57143V25.7143Z" fill="black" fill-opacity="0.8"/>
<path d="M25.7143 25.7143H17.1429V34.2857H25.7143V25.7143Z" fill="black" fill-opacity="0.8"/>
<path d="M34.2857 25.7143H25.7143V34.2857H34.2857V25.7143Z" fill="black" fill-opacity="0.8"/>
<path d="M42.8571 25.7143H34.2857V34.2857H42.8571V25.7143Z" fill="black" fill-opacity="0.8"/>
<path d="M60 25.7143H51.4286V34.2857H60V25.7143Z" fill="black" fill-opacity="0.8"/>
<path d="M77.1429 25.7143H68.5714V34.2857H77.1429V25.7143Z" fill="black" fill-opacity="0.8"/>
<path d="M111.429 25.7143H102.857V34.2857H111.429V25.7143Z" fill="black" fill-opacity="0.8"/>
<path d="M128.571 25.7143H120V34.2857H128.571V25.7143Z" fill="black" fill-opacity="0.8"/>
<path d="M145.714 25.7143H137.143V34.2857H145.714V25.7143Z" fill="black" fill-opacity="0.8"/>
<path d="M154.286 25.7143H145.714V34.2857H154.286V25.7143Z" fill="black" fill-opacity="0.8"/>
<path d="M162.857 25.7143H154.286V34.2857H162.857V25.7143Z" fill="black" fill-opacity="0.8"/>
<path d="M180 25.7143H171.429V34.2857H180V25.7143Z" fill="black" fill-opacity="0.8"/>
<path d="M8.57143 34.2857H0V42.8571H8.57143V34.2857Z" fill="black" fill-opacity="0.8"/>
<path d="M25.7143 34.2857H17.1429V42.8571H25.7143V34.2857Z" fill="black" fill-opacity="0.8"/>
<path d="M34.2857 34.2857H25.7143V42.8571H34.2857V34.2857Z" fill="black" fill-opacity="0.8"/>
<path d="M42.8571 34.2857H34.2857V42.8571H42.8571V34.2857Z" fill="black" fill-opacity="0.8"/>
<path d="M60 34.2857H51.4286V42.8571H60V34.2857Z" fill="black" fill-opacity="0.8"/>
<path d="M77.1429 34.2857H68.5714V42.8571H77.1429V34.2857Z" fill="black" fill-opacity="0.8"/>
<path d="M85.7143 34.2857H77.1429V42.8571H85.7143V34.2857Z" fill="black" fill-opacity="0.8"/>
<path d="M94.2857 34.2857H85.7143V42.8571H94.2857V34.2857Z" fill="black" fill-opacity="0.8"/>
<path d="M102.857 34.2857H94.2857V42.8571H102.857V34.2857Z" fill="black" fill-opacity="0.8"/>
<path d="M128.571 34.2857H120V42.8571H128.571V34.2857Z" fill="black" fill-opacity="0.8"/>
<path d="M145.714 34.2857H137.143V42.8571H145.714V34.2857Z" fill="black" fill-opacity="0.8"/>
<path d="M154.286 34.2857H145.714V42.8571H154.286V34.2857Z" fill="black" fill-opacity="0.8"/>
<path d="M162.857 34.2857H154.286V42.8571H162.857V34.2857Z" fill="black" fill-opacity="0.8"/>
<path d="M180 34.2857H171.429V42.8571H180V34.2857Z" fill="black" fill-opacity="0.8"/>
<path d="M8.57143 42.8571H0V51.4286H8.57143V42.8571Z" fill="black" fill-opacity="0.8"/>
<path d="M60 42.8571H51.4286V51.4286H60V42.8571Z" fill="black" fill-opacity="0.8"/>
<path d="M77.1429 42.8571H68.5714V51.4286H77.1429V42.8571Z" fill="black" fill-opacity="0.8"/>
<path d="M102.857 42.8571H94.2857L94.2857 51.4286H102.857V42.8571Z" fill="black" fill-opacity="0.8"/>
<path d="M128.571 42.8571H120V51.4286H128.571V42.8571Z" fill="black" fill-opacity="0.8"/>
<path d="M180 42.8571H171.429V51.4286H180V42.8571Z" fill="black" fill-opacity="0.8"/>
<path d="M8.57143 51.4286H0V60H8.57143V51.4286Z" fill="black" fill-opacity="0.8"/>
<path d="M17.1429 51.4286H8.57143V60H17.1429V51.4286Z" fill="black" fill-opacity="0.8"/>
<path d="M25.7143 51.4286H17.1429V60H25.7143V51.4286Z" fill="black" fill-opacity="0.8"/>
<path d="M34.2857 51.4286H25.7143V60H34.2857V51.4286Z" fill="black" fill-opacity="0.8"/>
<path d="M42.8571 51.4286H34.2857V60H42.8571V51.4286Z" fill="black" fill-opacity="0.8"/>
<path d="M51.4286 51.4286H42.8571V60H51.4286V51.4286Z" fill="black" fill-opacity="0.8"/>
<path d="M60 51.4286H51.4286V60H60V51.4286Z" fill="black" fill-opacity="0.8"/>
<path d="M77.1429 51.4286H68.5714V60H77.1429V51.4286Z" fill="black" fill-opacity="0.8"/>
<path d="M94.2857 51.4286H85.7143V60H94.2857L94.2857 51.4286Z" fill="black" fill-opacity="0.8"/>
<path d="M111.429 51.4286H102.857V60H111.429V51.4286Z" fill="black" fill-opacity="0.8"/>
<path d="M128.571 51.4286H120V60H128.571V51.4286Z" fill="black" fill-opacity="0.8"/>
<path d="M137.143 51.4286H128.571V60H137.143V51.4286Z" fill="black" fill-opacity="0.8"/>
<path d="M145.714 51.4286H137.143V60H145.714V51.4286Z" fill="black" fill-opacity="0.8"/>
<path d="M154.286 51.4286H145.714V60H154.286V51.4286Z" fill="black" fill-opacity="0.8"/>
<path d="M162.857 51.4286H154.286V60H162.857V51.4286Z" fill="black" fill-opacity="0.8"/>
<path d="M171.429 51.4286H162.857V60H171.429V51.4286Z" fill="black" fill-opacity="0.8"/>
<path d="M180 51.4286H171.429V60H180V51.4286Z" fill="black" fill-opacity="0.8"/>
<path d="M85.7143 60H77.1429L77.1429 68.5714H85.7143L85.7143 60Z" fill="black" fill-opacity="0.8"/>
<path d="M102.857 60H94.2857L94.2857 68.5714H102.857V60Z" fill="black" fill-opacity="0.8"/>
<path d="M111.429 60H102.857V68.5714H111.429V60Z" fill="black" fill-opacity="0.8"/>
<path d="M25.7143 68.5714H17.1429V77.1429H25.7143V68.5714Z" fill="black" fill-opacity="0.8"/>
<path d="M34.2857 68.5714H25.7143V77.1429H34.2857V68.5714Z" fill="black" fill-opacity="0.8"/>
<path d="M42.8571 68.5714H34.2857V77.1429H42.8571V68.5714Z" fill="black" fill-opacity="0.8"/>
<path d="M51.4286 68.5714H42.8571V77.1429H51.4286V68.5714Z" fill="black" fill-opacity="0.8"/>
<path d="M60 68.5714H51.4286V77.1429H60V68.5714Z" fill="black" fill-opacity="0.8"/>
<path d="M68.5714 68.5714H60V77.1429H68.5714V68.5714Z" fill="black" fill-opacity="0.8"/>
<path d="M111.429 68.5714H102.857V77.1429H111.429V68.5714Z" fill="black" fill-opacity="0.8"/>
<path d="M120 68.5714L111.429 68.5714V77.1429H120V68.5714Z" fill="black" fill-opacity="0.8"/>
<path d="M137.143 68.5714H128.571V77.1429H137.143V68.5714Z" fill="black" fill-opacity="0.8"/>
<path d="M145.714 68.5714H137.143V77.1429H145.714V68.5714Z" fill="black" fill-opacity="0.8"/>
<path d="M154.286 68.5714H145.714V77.1429H154.286V68.5714Z" fill="black" fill-opacity="0.8"/>
<path d="M162.857 68.5714H154.286V77.1429H162.857V68.5714Z" fill="black" fill-opacity="0.8"/>
<path d="M180 68.5714H171.429V77.1429H180V68.5714Z" fill="black" fill-opacity="0.8"/>
<path d="M17.1429 77.1429L8.57143 77.1429V85.7143H17.1429V77.1429Z" fill="black" fill-opacity="0.8"/>
<path d="M111.429 77.1429H102.857V85.7143H111.429V77.1429Z" fill="black" fill-opacity="0.8"/>
<path d="M120 77.1429H111.429V85.7143H120V77.1429Z" fill="black" fill-opacity="0.8"/>
<path d="M128.571 77.1429H120V85.7143H128.571V77.1429Z" fill="black" fill-opacity="0.8"/>
<path d="M145.714 77.1429H137.143V85.7143H145.714V77.1429Z" fill="black" fill-opacity="0.8"/>
<path d="M154.286 77.1429H145.714V85.7143H154.286V77.1429Z" fill="black" fill-opacity="0.8"/>
<path d="M171.429 77.1429H162.857V85.7143H171.429V77.1429Z" fill="black" fill-opacity="0.8"/>
<path d="M25.7143 85.7143L17.1429 85.7143V94.2857H25.7143V85.7143Z" fill="black" fill-opacity="0.8"/>
<path d="M34.2857 85.7143H25.7143V94.2857H34.2857V85.7143Z" fill="black" fill-opacity="0.8"/>
<path d="M42.8571 85.7143H34.2857V94.2857H42.8571V85.7143Z" fill="black" fill-opacity="0.8"/>
<path d="M60 85.7143H51.4286V94.2857H60V85.7143Z" fill="black" fill-opacity="0.8"/>
<path d="M68.5714 85.7143H60V94.2857H68.5714V85.7143Z" fill="black" fill-opacity="0.8"/>
<path d="M77.1429 85.7143H68.5714V94.2857H77.1429V85.7143Z" fill="black" fill-opacity="0.8"/>
<path d="M85.7143 85.7143H77.1429V94.2857H85.7143V85.7143Z" fill="black" fill-opacity="0.8"/>
<path d="M120 85.7143H111.429V94.2857H120V85.7143Z" fill="black" fill-opacity="0.8"/>
<path d="M137.143 85.7143H128.571V94.2857H137.143V85.7143Z" fill="black" fill-opacity="0.8"/>
<path d="M17.1429 94.2857L8.57143 94.2857V102.857H17.1429V94.2857Z" fill="black" fill-opacity="0.8"/>
<path d="M25.7143 94.2857H17.1429V102.857H25.7143V94.2857Z" fill="black" fill-opacity="0.8"/>
<path d="M51.4286 94.2857H42.8571V102.857H51.4286V94.2857Z" fill="black" fill-opacity="0.8"/>
<path d="M77.1429 94.2857H68.5714L68.5714 102.857H77.1429V94.2857Z" fill="black" fill-opacity="0.8"/>
<path d="M85.7143 94.2857H77.1429V102.857H85.7143V94.2857Z" fill="black" fill-opacity="0.8"/>
<path d="M102.857 94.2857H94.2857V102.857H102.857V94.2857Z" fill="black" fill-opacity="0.8"/>
<path d="M128.571 94.2857H120V102.857H128.571V94.2857Z" fill="black" fill-opacity="0.8"/>
<path d="M145.714 94.2857L137.143 94.2857V102.857H145.714V94.2857Z" fill="black" fill-opacity="0.8"/>
<path d="M154.286 94.2857H145.714V102.857H154.286V94.2857Z" fill="black" fill-opacity="0.8"/>
<path d="M171.429 94.2857H162.857V102.857H171.429V94.2857Z" fill="black" fill-opacity="0.8"/>
<path d="M17.1429 102.857H8.57143V111.429H17.1429V102.857Z" fill="black" fill-opacity="0.8"/>
<path d="M25.7143 102.857H17.1429V111.429H25.7143V102.857Z" fill="black" fill-opacity="0.8"/>
<path d="M34.2857 102.857H25.7143V111.429H34.2857V102.857Z" fill="black" fill-opacity="0.8"/>
<path d="M42.8571 102.857H34.2857V111.429H42.8571V102.857Z" fill="black" fill-opacity="0.8"/>
<path d="M60 102.857H51.4286V111.429H60V102.857Z" fill="black" fill-opacity="0.8"/>
<path d="M85.7143 102.857H77.1429L77.1429 111.429H85.7143V102.857Z" fill="black" fill-opacity="0.8"/>
<path d="M94.2857 102.857H85.7143V111.429H94.2857L94.2857 102.857Z" fill="black" fill-opacity="0.8"/>
<path d="M102.857 102.857H94.2857L94.2857 111.429H102.857V102.857Z" fill="black" fill-opacity="0.8"/>
<path d="M111.429 102.857H102.857V111.429H111.429V102.857Z" fill="black" fill-opacity="0.8"/>
<path d="M120 102.857H111.429V111.429H120V102.857Z" fill="black" fill-opacity="0.8"/>
<path d="M154.286 102.857H145.714V111.429H154.286V102.857Z" fill="black" fill-opacity="0.8"/>
<path d="M162.857 102.857H154.286V111.429H162.857V102.857Z" fill="black" fill-opacity="0.8"/>
<path d="M171.429 102.857H162.857V111.429H171.429V102.857Z" fill="black" fill-opacity="0.8"/>
<path d="M180 102.857H171.429V111.429H180V102.857Z" fill="black" fill-opacity="0.8"/>
<path d="M85.7143 111.429H77.1429V120H85.7143V111.429Z" fill="black" fill-opacity="0.8"/>
<path d="M102.857 111.429H94.2857L94.2857 120H102.857V111.429Z" fill="black" fill-opacity="0.8"/>
<path d="M128.571 111.429H120V120H128.571V111.429Z" fill="black" fill-opacity="0.8"/>
<path d="M145.714 111.429H137.143V120H145.714V111.429Z" fill="black" fill-opacity="0.8"/>
<path d="M154.286 111.429H145.714V120H154.286V111.429Z" fill="black" fill-opacity="0.8"/>
<path d="M171.429 111.429H162.857V120H171.429V111.429Z" fill="black" fill-opacity="0.8"/>
<path d="M8.57143 120H0V128.571H8.57143V120Z" fill="black" fill-opacity="0.8"/>
<path d="M17.1429 120H8.57143V128.571H17.1429V120Z" fill="black" fill-opacity="0.8"/>
<path d="M25.7143 120H17.1429V128.571H25.7143V120Z" fill="black" fill-opacity="0.8"/>
<path d="M34.2857 120H25.7143V128.571H34.2857V120Z" fill="black" fill-opacity="0.8"/>
<path d="M42.8571 120H34.2857V128.571H42.8571V120Z" fill="black" fill-opacity="0.8"/>
<path d="M51.4286 120H42.8571V128.571H51.4286V120Z" fill="black" fill-opacity="0.8"/>
<path d="M60 120H51.4286V128.571H60V120Z" fill="black" fill-opacity="0.8"/>
<path d="M77.1429 120H68.5714V128.571H77.1429L77.1429 120Z" fill="black" fill-opacity="0.8"/>
<path d="M85.7143 120H77.1429L77.1429 128.571H85.7143V120Z" fill="black" fill-opacity="0.8"/>
<path d="M94.2857 120H85.7143V128.571H94.2857L94.2857 120Z" fill="black" fill-opacity="0.8"/>
<path d="M102.857 120H94.2857L94.2857 128.571H102.857V120Z" fill="black" fill-opacity="0.8"/>
<path d="M154.286 120H145.714V128.571H154.286V120Z" fill="black" fill-opacity="0.8"/>
<path d="M162.857 120H154.286V128.571H162.857V120Z" fill="black" fill-opacity="0.8"/>
<path d="M171.429 120H162.857V128.571H171.429V120Z" fill="black" fill-opacity="0.8"/>
<path d="M8.57143 128.571H0V137.143H8.57143V128.571Z" fill="black" fill-opacity="0.8"/>
<path d="M60 128.571H51.4286V137.143H60V128.571Z" fill="black" fill-opacity="0.8"/>
<path d="M77.1429 128.571H68.5714V137.143H77.1429V128.571Z" fill="black" fill-opacity="0.8"/>
<path d="M94.2857 128.571H85.7143L85.7143 137.143H94.2857V128.571Z" fill="black" fill-opacity="0.8"/>
<path d="M111.429 128.571H102.857V137.143H111.429V128.571Z" fill="black" fill-opacity="0.8"/>
<path d="M120 128.571H111.429V137.143H120V128.571Z" fill="black" fill-opacity="0.8"/>
<path d="M137.143 128.571H128.571V137.143H137.143V128.571Z" fill="black" fill-opacity="0.8"/>
<path d="M154.286 128.571H145.714V137.143H154.286V128.571Z" fill="black" fill-opacity="0.8"/>
<path d="M162.857 128.571H154.286V137.143H162.857V128.571Z" fill="black" fill-opacity="0.8"/>
<path d="M8.57143 137.143H0V145.714H8.57143V137.143Z" fill="black" fill-opacity="0.8"/>
<path d="M25.7143 137.143H17.1429V145.714H25.7143V137.143Z" fill="black" fill-opacity="0.8"/>
<path d="M34.2857 137.143H25.7143V145.714H34.2857V137.143Z" fill="black" fill-opacity="0.8"/>
<path d="M42.8571 137.143H34.2857V145.714H42.8571V137.143Z" fill="black" fill-opacity="0.8"/>
<path d="M60 137.143H51.4286V145.714H60V137.143Z" fill="black" fill-opacity="0.8"/>
<path d="M77.1429 137.143H68.5714V145.714H77.1429V137.143Z" fill="black" fill-opacity="0.8"/>
<path d="M128.571 137.143H120V145.714H128.571V137.143Z" fill="black" fill-opacity="0.8"/>
<path d="M137.143 137.143H128.571V145.714H137.143V137.143Z" fill="black" fill-opacity="0.8"/>
<path d="M145.714 137.143H137.143V145.714H145.714V137.143Z" fill="black" fill-opacity="0.8"/>
<path d="M171.429 137.143H162.857V145.714H171.429V137.143Z" fill="black" fill-opacity="0.8"/>
<path d="M180 137.143H171.429V145.714H180V137.143Z" fill="black" fill-opacity="0.8"/>
<path d="M8.57143 145.714H0V154.286H8.57143V145.714Z" fill="black" fill-opacity="0.8"/>
<path d="M25.7143 145.714H17.1429V154.286H25.7143V145.714Z" fill="black" fill-opacity="0.8"/>
<path d="M34.2857 145.714H25.7143V154.286H34.2857V145.714Z" fill="black" fill-opacity="0.8"/>
<path d="M42.8571 145.714H34.2857V154.286H42.8571V145.714Z" fill="black" fill-opacity="0.8"/>
<path d="M60 145.714H51.4286V154.286H60V145.714Z" fill="black" fill-opacity="0.8"/>
<path d="M77.1429 145.714H68.5714V154.286H77.1429V145.714Z" fill="black" fill-opacity="0.8"/>
<path d="M85.7143 145.714H77.1429V154.286H85.7143V145.714Z" fill="black" fill-opacity="0.8"/>
<path d="M94.2857 145.714H85.7143V154.286H94.2857V145.714Z" fill="black" fill-opacity="0.8"/>
<path d="M102.857 145.714H94.2857V154.286H102.857V145.714Z" fill="black" fill-opacity="0.8"/>
<path d="M120 145.714H111.429V154.286H120V145.714Z" fill="black" fill-opacity="0.8"/>
<path d="M137.143 145.714H128.571V154.286H137.143V145.714Z" fill="black" fill-opacity="0.8"/>
<path d="M154.286 145.714H145.714V154.286H154.286V145.714Z" fill="black" fill-opacity="0.8"/>
<path d="M171.429 145.714H162.857V154.286H171.429V145.714Z" fill="black" fill-opacity="0.8"/>
<path d="M8.57143 154.286H0V162.857H8.57143V154.286Z" fill="black" fill-opacity="0.8"/>
<path d="M25.7143 154.286H17.1429V162.857H25.7143V154.286Z" fill="black" fill-opacity="0.8"/>
<path d="M34.2857 154.286H25.7143V162.857H34.2857V154.286Z" fill="black" fill-opacity="0.8"/>
<path d="M42.8571 154.286H34.2857V162.857H42.8571V154.286Z" fill="black" fill-opacity="0.8"/>
<path d="M60 154.286H51.4286V162.857H60V154.286Z" fill="black" fill-opacity="0.8"/>
<path d="M77.1429 154.286H68.5714V162.857H77.1429V154.286Z" fill="black" fill-opacity="0.8"/>
<path d="M85.7143 154.286H77.1429V162.857H85.7143V154.286Z" fill="black" fill-opacity="0.8"/>
<path d="M94.2857 154.286H85.7143V162.857H94.2857V154.286Z" fill="black" fill-opacity="0.8"/>
<path d="M102.857 154.286H94.2857V162.857H102.857V154.286Z" fill="black" fill-opacity="0.8"/>
<path d="M128.571 154.286H120V162.857H128.571V154.286Z" fill="black" fill-opacity="0.8"/>
<path d="M137.143 154.286H128.571V162.857H137.143V154.286Z" fill="black" fill-opacity="0.8"/>
<path d="M162.857 154.286H154.286V162.857H162.857V154.286Z" fill="black" fill-opacity="0.8"/>
<path d="M171.429 154.286H162.857V162.857H171.429V154.286Z" fill="black" fill-opacity="0.8"/>
<path d="M8.57143 162.857H0V171.429H8.57143V162.857Z" fill="black" fill-opacity="0.8"/>
<path d="M60 162.857H51.4286V171.429H60V162.857Z" fill="black" fill-opacity="0.8"/>
<path d="M94.2857 162.857H85.7143L85.7143 171.429H94.2857V162.857Z" fill="black" fill-opacity="0.8"/>
<path d="M128.571 162.857H120V171.429H128.571V162.857Z" fill="black" fill-opacity="0.8"/>
<path d="M137.143 162.857H128.571V171.429H137.143V162.857Z" fill="black" fill-opacity="0.8"/>
<path d="M145.714 162.857H137.143V171.429H145.714V162.857Z" fill="black" fill-opacity="0.8"/>
<path d="M180 162.857H171.429V171.429H180V162.857Z" fill="black" fill-opacity="0.8"/>
<path d="M8.57143 171.429H0V180H8.57143V171.429Z" fill="black" fill-opacity="0.8"/>
<path d="M17.1429 171.429H8.57143V180H17.1429V171.429Z" fill="black" fill-opacity="0.8"/>
<path d="M25.7143 171.429H17.1429V180H25.7143V171.429Z" fill="black" fill-opacity="0.8"/>
<path d="M34.2857 171.429H25.7143V180H34.2857V171.429Z" fill="black" fill-opacity="0.8"/>
<path d="M42.8571 171.429H34.2857V180H42.8571V171.429Z" fill="black" fill-opacity="0.8"/>
<path d="M51.4286 171.429H42.8571V180H51.4286V171.429Z" fill="black" fill-opacity="0.8"/>
<path d="M60 171.429H51.4286V180H60V171.429Z" fill="black" fill-opacity="0.8"/>
<path d="M85.7143 171.429H77.1429V180H85.7143L85.7143 171.429Z" fill="black" fill-opacity="0.8"/>
<path d="M111.429 171.429H102.857V180H111.429V171.429Z" fill="black" fill-opacity="0.8"/>
<path d="M120 171.429H111.429V180H120V171.429Z" fill="black" fill-opacity="0.8"/>
</svg>
