<svg width="53" height="13" viewBox="0 0 53 13" fill="none" xmlns="http://www.w3.org/2000/svg">
<path d="M46.3453 8.25215C46.4899 7.02367 47.0189 6.02447 47.805 6.02447C48.591 6.02447 48.8957 7.02367 48.7512 8.25215C48.6067 9.48121 48.0619 10.4633 47.2759 10.4633C46.4899 10.4633 46.2008 9.48062 46.3453 8.25215ZM52.5 3.90965C52.5 3.84229 52.4516 3.82515 52.4516 3.82515H49.2107C49.2107 3.82515 49.1128 3.84229 49.1128 3.92679C49.1128 3.92679 49.0481 4.38178 48.9677 5.09085C48.5783 4.14601 47.8654 3.48775 46.7468 3.48775C44.6245 3.48775 43.2302 5.54643 42.9551 7.85743C42.6794 10.1182 43.5386 12.6661 45.5805 12.6661C46.7148 12.6661 47.687 11.8566 48.3679 10.7593C48.4326 11.9577 49.2265 12.6827 50.3451 12.6827C51.252 12.6827 52.2086 12.025 52.4353 11.4849C52.6457 11.03 51.4788 11.6031 51.7871 8.92045C51.9322 7.75639 52.5 3.90965 52.5 3.90965ZM37.8949 10.7806C36.6819 10.7806 37.0478 8.13929 37.1808 7.40835C37.1808 7.40835 37.7123 7.24231 38.144 7.30849C38.9748 7.45798 39.2408 8.03943 39.1912 8.93641C39.1743 9.41858 38.7589 10.7806 37.8949 10.7806ZM39.496 2.66936C39.3575 3.68452 37.6433 4.43318 37.6433 4.43318C37.8163 3.85056 38.3187 2.21969 39.063 2.21969C39.496 2.21969 39.5135 2.45309 39.496 2.66936ZM37.3198 5.63802C44.0906 4.89172 42.9956 -0.0978094 39.6435 0.00146118C35.7599 0.101323 33.6194 4.89172 33.6194 8.50564C33.6194 10.793 34.9799 12.6833 37.4861 12.6833C40.0583 12.6833 42.1824 10.8598 41.9835 8.17415C41.8009 5.82002 39.1289 5.32307 37.237 5.96951L37.3198 5.63802ZM32.9519 4.19564H32.9676C30.4402 3.65793 28.1547 3.69102 25.9193 4.19564C25.903 4.19564 25.854 4.21219 25.854 4.27896C25.854 4.27896 25.5462 6.98408 25.0601 8.29469C24.1368 10.7144 23.1313 10.832 23.0993 11.1511C23.0509 11.5038 23.456 12.9994 24.9628 12.9994C26.2754 12.9994 27.183 12.1255 27.6691 10.1099C27.9932 8.78218 28.1873 7.30317 28.2526 5.74084H29.5647C29.2733 8.22792 28.7545 12.5456 28.7545 12.5456C28.7545 12.6295 28.8198 12.6295 28.8198 12.6295H31.947C31.947 12.6295 32.0117 12.6295 32.0117 12.5456C32.0117 12.5456 32.9519 4.64886 33.0003 4.26241C33.0003 4.21219 32.9676 4.19564 32.9519 4.19564ZM16.0122 8.25156C16.1562 7.02308 16.6846 6.02388 17.4682 6.02388C18.2524 6.02388 18.5566 7.02308 18.4121 8.25156C18.2682 9.48062 17.7246 10.4627 16.9404 10.4627C16.1562 10.4627 15.8683 9.48003 16.0122 8.25156ZM22.1675 3.90906C22.1675 3.8417 22.1185 3.82456 22.1185 3.82456H18.8776C18.8776 3.82456 18.7803 3.8417 18.7803 3.92619C18.7803 3.92619 18.7156 4.38119 18.6346 5.09026C18.2452 4.14542 17.5323 3.48716 16.4143 3.48716C14.2914 3.48716 12.8977 5.54584 12.622 7.85684C12.3469 10.1176 13.2055 12.6656 15.2474 12.6656C16.3817 12.6656 17.3539 11.856 18.0348 10.7587C18.0995 11.9571 18.8934 12.6821 20.012 12.6821C20.9189 12.6821 21.8755 12.0244 22.1022 11.4844C22.3132 11.0294 21.1463 11.6025 21.454 8.91986C21.5997 7.7558 22.1675 3.90906 22.1675 3.90906ZM8.86296 7.03077C11.212 6.31578 12.8475 4.55373 12.8802 2.80763C12.9128 1.32802 11.8922 0.181093 10.2724 0.33059C8.78193 0.463542 8.32845 1.49466 8.44212 1.61047C8.78193 1.94315 9.73787 4.2376 8.06906 5.23562L6.38452 0.829307C6.38452 0.829307 6.35248 0.729445 6.27146 0.729445H2.17319C2.04319 0.729445 2.07645 0.845852 2.07645 0.845852L4.69999 6.21651C2.39993 6.89781 0.601726 8.64391 0.504378 10.3563C0.424566 11.8194 1.4446 13 2.85402 13C4.34446 13 5.1704 11.6368 5.04101 11.4205C4.73264 11.0879 3.87405 9.29212 5.4298 8.16174L7.17902 12.5509C7.17902 12.5509 7.19535 12.6342 7.27577 12.6342H11.6498C11.7465 12.6342 11.6981 12.5515 11.6981 12.5515L8.86296 7.03077Z" fill="#FB795B"/>
</svg>
