<svg width="53" height="13" viewBox="0 0 53 13" fill="none" xmlns="http://www.w3.org/2000/svg"><path d="M46.345 8.252c.145-1.228.674-2.228 1.46-2.228.786 0 1.09 1 .946 2.228-.144 1.23-.69 2.211-1.475 2.211-.786 0-1.075-.982-.93-2.21zM52.5 3.91c0-.068-.048-.085-.048-.085H49.21s-.098.017-.098.102c0 0-.065.455-.145 1.164-.39-.945-1.103-1.603-2.221-1.603-2.123 0-3.517 2.058-3.792 4.37-.276 2.26.584 4.808 2.626 4.808 1.134 0 2.106-.81 2.787-1.907.065 1.199.858 1.924 1.977 1.924.907 0 1.864-.658 2.09-1.198.21-.455-.956.118-.648-2.565.145-1.164.713-5.01.713-5.01zm-14.605 6.87c-1.213 0-.847-2.64-.714-3.372 0 0 .531-.166.963-.1.83.15 1.097.731 1.047 1.628-.017.483-.432 1.845-1.296 1.845zm1.601-8.11c-.139 1.015-1.853 1.763-1.853 1.763.173-.582.676-2.213 1.42-2.213.433 0 .45.233.433.45zM37.32 5.637C44.09 4.891 42.996-.099 39.644 0c-3.884.1-6.025 4.89-6.025 8.505 0 2.287 1.36 4.177 3.867 4.177 2.572 0 4.696-1.823 4.498-4.509-.183-2.354-2.855-2.85-4.747-2.204l.083-.332zm-4.368-1.442h.016c-2.528-.538-4.813-.505-7.049 0-.016 0-.065.016-.065.083 0 0-.308 2.705-.794 4.016-.923 2.42-1.929 2.537-1.96 2.856-.05.353.356 1.848 1.863 1.848 1.312 0 2.22-.873 2.706-2.89.324-1.327.518-2.806.584-4.368h1.312c-.292 2.487-.81 6.805-.81 6.805 0 .084.065.084.065.084h3.127s.065 0 .065-.084c0 0 .94-7.897.988-8.284 0-.05-.032-.066-.048-.066zm-16.94 4.056c.144-1.229.673-2.228 1.456-2.228.784 0 1.089 1 .944 2.228-.144 1.229-.687 2.21-1.472 2.21-.784 0-1.072-.982-.928-2.21zm6.155-4.343c0-.067-.049-.084-.049-.084h-3.24s-.098.017-.098.101c0 0-.064.455-.145 1.164-.39-.945-1.103-1.603-2.22-1.603-2.124 0-3.517 2.059-3.793 4.37-.275 2.26.584 4.809 2.625 4.809 1.135 0 2.107-.81 2.788-1.907.064 1.198.858 1.923 1.977 1.923.907 0 1.863-.658 2.09-1.198.211-.455-.956.118-.648-2.564.146-1.164.713-5.01.713-5.01zM8.864 7.031c2.349-.715 3.985-2.477 4.017-4.223.033-1.48-.988-2.627-2.608-2.477-1.49.133-1.944 1.164-1.83 1.28.34.332 1.296 2.627-.373 3.625L6.385.829s-.033-.1-.114-.1H2.173c-.13 0-.097.117-.097.117L4.7 6.216C2.4 6.899.602 8.645.504 10.357.424 11.82 1.444 13 2.854 13c1.49 0 2.316-1.363 2.187-1.58-.308-.332-1.167-2.128.389-3.258l1.749 4.389s.016.083.097.083h4.374c.096 0 .048-.082.048-.082L8.863 7.03z" fill="#FB795B"/></svg>