<svg width="32" height="27" viewBox="0 0 32 27" fill="none" xmlns="http://www.w3.org/2000/svg">
<path d="M2.8963 0H29.1037C30.4251 0 31.5 1.05152 31.5 2.34392V17.5351C31.5 17.781 31.2963 17.9802 31.045 17.9802C30.7937 17.9802 30.59 17.781 30.59 17.5351V2.34392C30.59 1.54231 29.9233 0.89011 29.1037 0.89011H2.8963C2.07674 0.89011 1.40992 1.54231 1.40992 2.34392V17.5351C1.40992 18.3368 2.07674 18.989 2.8963 18.989H12.6027C12.854 18.989 13.0577 19.1883 13.0577 19.4341C13.0577 19.6798 12.854 19.8791 12.6027 19.8791H2.8963C1.57494 19.8791 0.5 18.8276 0.5 17.5351V2.34392C0.5 1.05152 1.57494 0 2.8963 0Z" fill="url(#paint0_linear_1_14223)" fill-opacity="0.7"/>
<path d="M4.35218 15.6659H13.088C13.3394 15.6659 13.543 15.8652 13.543 16.111C13.543 16.3568 13.3394 16.556 13.088 16.556H4.35218C4.10093 16.556 3.89728 16.3568 3.89728 16.111C3.89728 15.8652 4.10093 15.6659 4.35218 15.6659Z" fill="url(#paint1_linear_1_14223)" fill-opacity="0.7"/>
<path fill-rule="evenodd" clip-rule="evenodd" d="M9.66047 7.56591V5.66702C9.66047 4.8981 9.02094 4.27254 8.23486 4.27254H5.32288C4.5368 4.27254 3.89728 4.8981 3.89728 5.66702V7.56591C3.89728 8.33488 4.5368 8.96044 5.32288 8.96044H8.23486C9.02094 8.96044 9.66047 8.33488 9.66047 7.56591ZM4.8072 7.56591V7.06155H5.32288C5.57413 7.06155 5.7779 6.86228 5.7779 6.61646C5.7779 6.3707 5.57413 6.17144 5.32288 6.17144H4.8072V5.66702C4.8072 5.3889 5.03849 5.16265 5.32288 5.16265H6.32385V8.07033H5.32288C5.03849 8.07033 4.8072 7.84409 4.8072 7.56591ZM8.23486 8.07033H7.23389V5.16265H8.23486C8.51914 5.16265 8.75043 5.3889 8.75043 5.66702V6.17144H8.23486C7.9835 6.17144 7.77984 6.3707 7.77984 6.61646C7.77984 6.86228 7.9835 7.06155 8.23486 7.06155H8.75043V7.56591C8.75043 7.84409 8.51914 8.07033 8.23486 8.07033Z" fill="url(#paint2_linear_1_14223)" fill-opacity="0.7"/>
<path fill-rule="evenodd" clip-rule="evenodd" d="M28.1027 6.61646C28.1027 7.90892 27.0278 8.96044 25.7064 8.96044H22.7946C21.4732 8.96044 20.3982 7.90892 20.3982 6.61646C20.3982 5.32406 21.4732 4.27254 22.7946 4.27254H25.7064C27.0278 4.27254 28.1027 5.32406 28.1027 6.61646ZM22.7946 5.16265C21.975 5.16265 21.3083 5.81485 21.3083 6.61646C21.3083 7.41813 21.975 8.07033 22.7946 8.07033H25.7064C26.526 8.07033 27.1928 7.41813 27.1928 6.61646C27.1928 5.81485 26.526 5.16265 25.7064 5.16265H22.7946Z" fill="url(#paint3_linear_1_14223)" fill-opacity="0.7"/>
<path d="M24.8995 15.7963C25.0771 15.6225 25.3652 15.6225 25.5429 15.7963C25.7205 15.9701 25.7205 16.2519 25.5429 16.4257L18.7483 23.0718C18.6596 23.1587 18.5431 23.2022 18.4267 23.2022C18.3103 23.2022 18.1938 23.1587 18.1049 23.0718C17.9273 22.8981 17.9273 22.6163 18.1049 22.4424L24.8995 15.7963Z" fill="url(#paint4_linear_1_14223)" fill-opacity="0.7"/>
<path fill-rule="evenodd" clip-rule="evenodd" d="M19.6399 18.9297C20.8275 18.9297 21.7935 17.9847 21.7935 16.8231C21.7935 15.6615 20.8275 14.7165 19.6399 14.7165C18.4524 14.7165 17.4863 15.6615 17.4863 16.8231C17.4863 17.9847 18.4524 18.9297 19.6399 18.9297ZM19.6399 15.6066C20.3257 15.6066 20.8835 16.1523 20.8835 16.8231C20.8835 17.4939 20.3257 18.0396 19.6399 18.0396C18.9542 18.0396 18.3963 17.4939 18.3963 16.8231C18.3963 16.1523 18.9542 15.6066 19.6399 15.6066Z" fill="url(#paint5_linear_1_14223)" fill-opacity="0.7"/>
<path fill-rule="evenodd" clip-rule="evenodd" d="M22.3395 21.5703C22.3395 20.4087 23.3056 19.4638 24.4931 19.4638C25.6806 19.4638 26.6467 20.4087 26.6467 21.5703C26.6467 22.7319 25.6806 23.6769 24.4931 23.6769C23.3056 23.6769 22.3395 22.7319 22.3395 21.5703ZM23.2495 21.5703C23.2495 22.2411 23.8073 22.7868 24.4931 22.7868C25.1789 22.7868 25.7368 22.2411 25.7368 21.5703C25.7368 20.8996 25.1789 20.3539 24.4931 20.3539C23.8073 20.3539 23.2495 20.8996 23.2495 21.5703Z" fill="url(#paint6_linear_1_14223)" fill-opacity="0.7"/>
<path fill-rule="evenodd" clip-rule="evenodd" d="M21.8239 11.8681C17.5589 11.8681 14.089 15.2622 14.089 19.4341C14.089 23.606 17.5589 27 21.8239 27C26.0889 27 29.5587 23.606 29.5587 19.4341C29.5587 15.2622 26.0889 11.8681 21.8239 11.8681ZM21.8239 26.1099C18.0607 26.1099 14.999 23.1152 14.999 19.4341C14.999 15.753 18.0607 12.7582 21.8239 12.7582C25.5872 12.7582 28.6487 15.753 28.6487 19.4341C28.6487 23.1152 25.5872 26.1099 21.8239 26.1099Z" fill="url(#paint7_linear_1_14223)" fill-opacity="0.7"/>
<defs>
<linearGradient id="paint0_linear_1_14223" x1="24.4932" y1="19.4637" x2="24.4932" y2="23.6769" gradientUnits="userSpaceOnUse">
<stop stop-color="#3065B7"/>
<stop offset="1" stop-color="#3578A6"/>
</linearGradient>
<linearGradient id="paint1_linear_1_14223" x1="24.4932" y1="19.4637" x2="24.4932" y2="23.6769" gradientUnits="userSpaceOnUse">
<stop stop-color="#3065B7"/>
<stop offset="1" stop-color="#3578A6"/>
</linearGradient>
<linearGradient id="paint2_linear_1_14223" x1="24.4932" y1="19.4637" x2="24.4932" y2="23.6769" gradientUnits="userSpaceOnUse">
<stop stop-color="#3065B7"/>
<stop offset="1" stop-color="#3578A6"/>
</linearGradient>
<linearGradient id="paint3_linear_1_14223" x1="24.4932" y1="19.4637" x2="24.4932" y2="23.6769" gradientUnits="userSpaceOnUse">
<stop stop-color="#3065B7"/>
<stop offset="1" stop-color="#3578A6"/>
</linearGradient>
<linearGradient id="paint4_linear_1_14223" x1="24.4932" y1="19.4637" x2="24.4932" y2="23.6769" gradientUnits="userSpaceOnUse">
<stop stop-color="#3065B7"/>
<stop offset="1" stop-color="#3578A6"/>
</linearGradient>
<linearGradient id="paint5_linear_1_14223" x1="24.4932" y1="19.4637" x2="24.4932" y2="23.6769" gradientUnits="userSpaceOnUse">
<stop stop-color="#3065B7"/>
<stop offset="1" stop-color="#3578A6"/>
</linearGradient>
<linearGradient id="paint6_linear_1_14223" x1="24.4932" y1="19.4637" x2="24.4932" y2="23.6769" gradientUnits="userSpaceOnUse">
<stop stop-color="#3065B7"/>
<stop offset="1" stop-color="#3578A6"/>
</linearGradient>
<linearGradient id="paint7_linear_1_14223" x1="24.4932" y1="19.4637" x2="24.4932" y2="23.6769" gradientUnits="userSpaceOnUse">
<stop stop-color="#3065B7"/>
<stop offset="1" stop-color="#3578A6"/>
</linearGradient>
</defs>
</svg>
