<svg width="32" height="27" viewBox="0 0 32 27" fill="none" xmlns="http://www.w3.org/2000/svg"><path d="M2.896 0h26.208C30.425 0 31.5 1.052 31.5 2.344v15.191a.45.45 0 0 1-.455.445.45.45 0 0 1-.455-.445V2.344c0-.802-.667-1.454-1.486-1.454H2.896c-.82 0-1.486.652-1.486 1.454v15.191c0 .802.667 1.454 1.486 1.454h9.707c.251 0 .455.2.455.445a.45.45 0 0 1-.455.445H2.896C1.575 19.88.5 18.828.5 17.535V2.344C.5 1.052 1.575 0 2.896 0z" fill="url(#a)" fill-opacity=".7"/><path d="M4.352 15.666h8.736c.251 0 .455.2.455.445a.45.45 0 0 1-.455.445H4.352a.45.45 0 0 1-.455-.445.45.45 0 0 1 .455-.445z" fill="url(#b)" fill-opacity=".7"/><path fill-rule="evenodd" clip-rule="evenodd" d="M9.66 7.566V5.667c0-.769-.64-1.394-1.425-1.394H5.323c-.786 0-1.426.625-1.426 1.394v1.899c0 .769.64 1.394 1.426 1.394h2.912c.786 0 1.425-.625 1.425-1.394zm-4.853 0v-.504h.516a.45.45 0 0 0 .455-.446.45.45 0 0 0-.455-.445h-.516v-.504a.51.51 0 0 1 .516-.504h1V8.07h-1a.51.51 0 0 1-.516-.504zm3.428.504H7.234V5.163h1a.51.51 0 0 1 .516.504v.504h-.515a.45.45 0 0 0-.455.445.45.45 0 0 0 .455.446h.515v.504a.51.51 0 0 1-.515.504z" fill="url(#c)" fill-opacity=".7"/><path fill-rule="evenodd" clip-rule="evenodd" d="M28.103 6.616c0 1.293-1.075 2.344-2.397 2.344h-2.911c-1.322 0-2.397-1.051-2.397-2.344 0-1.292 1.075-2.343 2.397-2.343h2.911c1.322 0 2.397 1.051 2.397 2.343zm-5.308-1.453c-.82 0-1.487.652-1.487 1.453 0 .802.667 1.454 1.487 1.454h2.911c.82 0 1.487-.652 1.487-1.454 0-.801-.667-1.453-1.487-1.453h-2.911z" fill="url(#d)" fill-opacity=".7"/><path d="M24.9 15.796a.462.462 0 0 1 .643 0 .438.438 0 0 1 0 .63l-6.795 6.646a.458.458 0 0 1-.643 0 .438.438 0 0 1 0-.63l6.794-6.646z" fill="url(#e)" fill-opacity=".7"/><path fill-rule="evenodd" clip-rule="evenodd" d="M19.64 18.93c1.188 0 2.154-.945 2.154-2.107 0-1.162-.966-2.107-2.154-2.107s-2.154.946-2.154 2.107c0 1.162.966 2.107 2.154 2.107zm0-3.323c.686 0 1.244.545 1.244 1.216 0 .67-.558 1.217-1.244 1.217-.686 0-1.244-.546-1.244-1.217 0-.67.558-1.216 1.244-1.216z" fill="url(#f)" fill-opacity=".7"/><path fill-rule="evenodd" clip-rule="evenodd" d="M22.34 21.57c0-1.161.966-2.106 2.153-2.106 1.188 0 2.154.945 2.154 2.106 0 1.162-.966 2.107-2.154 2.107-1.187 0-2.153-.945-2.153-2.107zm.91 0c0 .671.557 1.217 1.243 1.217s1.244-.546 1.244-1.217c0-.67-.558-1.216-1.244-1.216-.686 0-1.243.546-1.243 1.216z" fill="url(#g)" fill-opacity=".7"/><path fill-rule="evenodd" clip-rule="evenodd" d="M21.824 11.868c-4.265 0-7.735 3.394-7.735 7.566S17.559 27 21.824 27c4.265 0 7.735-3.394 7.735-7.566s-3.47-7.566-7.735-7.566zm0 14.242c-3.763 0-6.825-2.995-6.825-6.676s3.062-6.676 6.825-6.676c3.763 0 6.825 2.995 6.825 6.676s-3.062 6.676-6.825 6.676z" fill="url(#h)" fill-opacity=".7"/><defs><linearGradient id="a" x1="24.493" y1="19.464" x2="24.493" y2="23.677" gradientUnits="userSpaceOnUse"><stop stop-color="#3065B7"/><stop offset="1" stop-color="#3578A6"/></linearGradient><linearGradient id="b" x1="24.493" y1="19.464" x2="24.493" y2="23.677" gradientUnits="userSpaceOnUse"><stop stop-color="#3065B7"/><stop offset="1" stop-color="#3578A6"/></linearGradient><linearGradient id="c" x1="24.493" y1="19.464" x2="24.493" y2="23.677" gradientUnits="userSpaceOnUse"><stop stop-color="#3065B7"/><stop offset="1" stop-color="#3578A6"/></linearGradient><linearGradient id="d" x1="24.493" y1="19.464" x2="24.493" y2="23.677" gradientUnits="userSpaceOnUse"><stop stop-color="#3065B7"/><stop offset="1" stop-color="#3578A6"/></linearGradient><linearGradient id="e" x1="24.493" y1="19.464" x2="24.493" y2="23.677" gradientUnits="userSpaceOnUse"><stop stop-color="#3065B7"/><stop offset="1" stop-color="#3578A6"/></linearGradient><linearGradient id="f" x1="24.493" y1="19.464" x2="24.493" y2="23.677" gradientUnits="userSpaceOnUse"><stop stop-color="#3065B7"/><stop offset="1" stop-color="#3578A6"/></linearGradient><linearGradient id="g" x1="24.493" y1="19.464" x2="24.493" y2="23.677" gradientUnits="userSpaceOnUse"><stop stop-color="#3065B7"/><stop offset="1" stop-color="#3578A6"/></linearGradient><linearGradient id="h" x1="24.493" y1="19.464" x2="24.493" y2="23.677" gradientUnits="userSpaceOnUse"><stop stop-color="#3065B7"/><stop offset="1" stop-color="#3578A6"/></linearGradient></defs></svg>