<svg width="33" height="26" viewBox="0 0 33 26" fill="none" xmlns="http://www.w3.org/2000/svg">
<path d="M15.2043 5.63861C13.7392 5.63861 12.5473 6.83313 12.5473 8.30142V10.181C12.5473 11.6491 13.7393 12.8437 15.2043 12.8437C16.6693 12.8437 17.8613 11.6492 17.8613 10.181V8.30142C17.8613 6.83313 16.6693 5.63861 15.2043 5.63861ZM15.2043 11.9039C14.3083 11.9039 13.5706 11.2133 13.4923 10.3356C13.9551 10.7273 14.5524 10.9642 15.2043 10.9642C15.8561 10.9642 16.4534 10.7273 16.9163 10.3355C16.838 11.2133 16.1003 11.9039 15.2043 11.9039ZM15.2043 10.0243C14.2563 10.0243 13.4851 9.25141 13.4851 8.30142C13.4851 7.35131 14.2563 6.57839 15.2043 6.57839C16.1523 6.57839 16.9235 7.35131 16.9235 8.30142C16.9235 9.25141 16.1523 10.0243 15.2043 10.0243Z" fill="url(#paint0_linear_1_14224)" fill-opacity="0.7"/>
<path d="M23.644 0C21.3171 0 19.4241 1.89709 19.4241 4.22894V6.10724C19.4241 6.10768 19.424 6.10806 19.424 6.1085C19.424 8.44034 21.3171 10.3374 23.6439 10.3374C25.9681 10.3374 27.8593 8.44442 27.8635 6.11608C27.8635 6.11357 27.8638 6.11113 27.8638 6.10862V4.22894C27.8638 1.89709 25.9708 0 23.644 0ZM23.6439 9.39772C22.1581 9.39772 20.9005 8.40283 20.4975 7.04314C21.2709 7.9107 22.3946 8.45807 23.644 8.45807C24.8931 8.45807 26.0168 7.91089 26.79 7.04358C26.387 8.40301 25.1295 9.39772 23.6439 9.39772ZM23.644 7.51829C21.8342 7.51829 20.3618 6.04267 20.3618 4.229C20.3618 2.41534 21.8343 0.939841 23.644 0.939841C25.4538 0.939841 26.9261 2.4154 26.9261 4.229C26.9261 6.04267 25.4538 7.51829 23.644 7.51829Z" fill="url(#paint1_linear_1_14224)" fill-opacity="0.7"/>
<path d="M32.23 15.9006C31.5866 14.7843 30.1595 14.3969 29.042 15.0325C28.8389 15.1328 26.245 16.4103 24.1073 17.3118C23.8686 17.4125 23.7566 17.688 23.857 17.9272C23.9574 18.1664 24.2322 18.2786 24.471 18.1781C26.7122 17.2329 29.4428 15.8823 29.4701 15.8688C29.479 15.8644 29.4879 15.8597 29.4965 15.8547C30.1683 15.4666 31.0303 15.6979 31.418 16.3708C31.867 17.1491 31.1659 18.0036 30.8227 18.3526C28.4949 20.2344 22.0533 25.0602 19.8882 25.0602C17.4883 25.0602 10.7539 23.6304 9.10693 23.2728V15.5975C12.3724 15.1167 14.1024 15.7198 17.7277 16.9859C18.8306 17.3711 20.08 17.8073 21.5987 18.2939C21.825 18.3928 22.4531 18.747 22.2137 19.5478C22.0682 20.0346 21.5992 20.4994 20.9122 20.3706C19.9892 20.197 14.5569 19.4586 14.3261 19.4272C14.0696 19.3922 13.8333 19.5726 13.7986 19.8298C13.7638 20.087 13.9436 20.3237 14.2002 20.3585C14.2565 20.3662 19.8395 21.125 20.7394 21.2943C20.879 21.3205 21.0146 21.3329 21.1457 21.3329C22.1411 21.3329 22.8732 20.6169 23.1122 19.8175C23.3636 18.9763 23.1023 17.9114 21.9537 17.4241C21.9521 17.4233 21.9504 17.4225 21.9487 17.4219C21.9473 17.4212 21.9459 17.4205 21.9444 17.4199C21.9381 17.4173 21.9317 17.4154 21.9253 17.413C21.9188 17.4106 21.9126 17.4079 21.9059 17.4058C20.389 16.9202 19.1392 16.4836 18.0364 16.0986C14.4211 14.836 12.5157 14.1718 9.10699 14.6486V14.2558C9.10699 13.9962 8.89706 13.7859 8.63812 13.7859H7.23187V13.3162C7.23187 13.0567 7.02193 12.8464 6.763 12.8464H0.968875C0.709937 12.8464 0.5 13.0567 0.5 13.3162V23.6505C0.5 23.9101 0.709937 24.1204 0.968875 24.1204C1.22781 24.1204 1.43775 23.9101 1.43775 23.6505V13.7861H6.29412V25.0602H5.35693V24.5906C5.35693 24.331 5.147 24.1207 4.88806 24.1207C4.62912 24.1207 4.41918 24.331 4.41918 24.5906V25.0602H0.968875C0.709937 25.0602 0.5 25.2706 0.5 25.5301C0.5 25.7897 0.709937 26 0.968875 26H6.763C7.02193 26 7.23187 25.7897 7.23187 25.5301V25.0366H8.63806C8.89699 25.0366 9.10693 24.8263 9.10693 24.5667V24.2347C11.0687 24.6595 17.4534 26 19.8882 26C21.1695 26 23.4417 24.8558 26.8342 22.5024C29.2809 20.805 31.4107 19.0846 31.4319 19.0675C31.4449 19.057 31.4572 19.0457 31.469 19.034C32.4877 18.0118 32.7721 16.8404 32.23 15.9006ZM8.16912 23.6433C8.16912 23.6437 8.16912 23.6442 8.16912 23.6445V24.097H7.23187V14.7256H8.16918L8.16912 23.6433Z" fill="url(#paint2_linear_1_14224)" fill-opacity="0.7"/>
<defs>
<linearGradient id="paint0_linear_1_14224" x1="16.5" y1="12.8464" x2="16.5" y2="26" gradientUnits="userSpaceOnUse">
<stop stop-color="#3065B7"/>
<stop offset="1" stop-color="#3578A6"/>
</linearGradient>
<linearGradient id="paint1_linear_1_14224" x1="16.5" y1="12.8464" x2="16.5" y2="26" gradientUnits="userSpaceOnUse">
<stop stop-color="#3065B7"/>
<stop offset="1" stop-color="#3578A6"/>
</linearGradient>
<linearGradient id="paint2_linear_1_14224" x1="16.5" y1="12.8464" x2="16.5" y2="26" gradientUnits="userSpaceOnUse">
<stop stop-color="#3065B7"/>
<stop offset="1" stop-color="#3578A6"/>
</linearGradient>
</defs>
</svg>
