<svg width="33" height="26" viewBox="0 0 33 26" fill="none" xmlns="http://www.w3.org/2000/svg"><path d="M15.204 5.639A2.663 2.663 0 0 0 12.547 8.3v1.88a2.663 2.663 0 0 0 2.657 2.663 2.663 2.663 0 0 0 2.657-2.663V8.3a2.663 2.663 0 0 0-2.657-2.662zm0 6.265c-.896 0-1.633-.69-1.712-1.568a2.642 2.642 0 0 0 3.424 0 1.723 1.723 0 0 1-1.712 1.568zm0-1.88a1.723 1.723 0 0 1 0-3.446 1.723 1.723 0 0 1 0 3.446z" fill="url(#a)" fill-opacity=".7"/><path d="M23.644 0a4.23 4.23 0 0 0-4.22 4.229v1.88a4.23 4.23 0 0 0 4.22 4.228 4.23 4.23 0 0 0 4.22-4.22V4.228A4.23 4.23 0 0 0 23.644 0zm0 9.398a3.289 3.289 0 0 1-3.146-2.355 4.206 4.206 0 0 0 6.292 0 3.288 3.288 0 0 1-3.146 2.355zm0-1.88a3.29 3.29 0 0 1 0-6.578 3.29 3.29 0 0 1 0 6.578z" fill="url(#b)" fill-opacity=".7"/><path d="M32.23 15.9a2.345 2.345 0 0 0-3.188-.867c-.203.1-2.797 1.377-4.935 2.279a.47.47 0 0 0 .364.866c2.241-.945 4.972-2.296 5-2.31a1.407 1.407 0 0 1 1.948.502c.448.78-.253 1.634-.596 1.983-2.328 1.881-8.77 6.707-10.935 6.707-2.4 0-9.134-1.43-10.781-1.787v-7.675c3.265-.481 4.995.122 8.62 1.388 1.104.385 2.353.821 3.872 1.308.226.099.854.453.615 1.254-.146.487-.615.951-1.302.823-.923-.174-6.355-.912-6.586-.944a.469.469 0 0 0-.126.931c.057.008 5.64.767 6.54.936a2.2 2.2 0 0 0 .406.039c.995 0 1.727-.716 1.966-1.515.252-.842-.01-1.907-1.158-2.394a.045.045 0 0 0-.005-.002.056.056 0 0 0-.005-.002l-.019-.007-.02-.007a151.427 151.427 0 0 1-3.869-1.307c-3.615-1.263-5.52-1.927-8.929-1.45v-.393a.47.47 0 0 0-.469-.47H7.232v-.47a.47.47 0 0 0-.469-.47H.969a.47.47 0 0 0-.469.47v10.335a.47.47 0 1 0 .938 0v-9.865h4.856V25.06h-.937v-.47a.47.47 0 1 0-.938 0v.47H.97a.47.47 0 0 0 0 .94h5.794a.47.47 0 0 0 .469-.47v-.493h1.406a.47.47 0 0 0 .469-.47v-.332C11.069 24.66 17.453 26 19.888 26c1.281 0 3.554-1.144 6.946-3.498a88.51 88.51 0 0 0 4.598-3.434.492.492 0 0 0 .037-.034c1.019-1.022 1.303-2.194.761-3.133zM8.17 23.644v.454h-.938v-9.371h.937v8.917z" fill="url(#c)" fill-opacity=".7"/><defs><linearGradient id="a" x1="16.5" y1="12.846" x2="16.5" y2="26" gradientUnits="userSpaceOnUse"><stop stop-color="#3065B7"/><stop offset="1" stop-color="#3578A6"/></linearGradient><linearGradient id="b" x1="16.5" y1="12.846" x2="16.5" y2="26" gradientUnits="userSpaceOnUse"><stop stop-color="#3065B7"/><stop offset="1" stop-color="#3578A6"/></linearGradient><linearGradient id="c" x1="16.5" y1="12.846" x2="16.5" y2="26" gradientUnits="userSpaceOnUse"><stop stop-color="#3065B7"/><stop offset="1" stop-color="#3578A6"/></linearGradient></defs></svg>