<?xml version="1.0" encoding="utf-8"?><svg xmlns="http://www.w3.org/2000/svg" xmlns:xlink="http://www.w3.org/1999/xlink"><symbol viewBox="0 0 16 14" id="arrow-left" xmlns="http://www.w3.org/2000/svg"><path fill-rule="evenodd" clip-rule="evenodd" d="M6.034.64L.324 6.29A1 1 0 000 7.025a.993.993 0 00.325.735l5.709 5.65a1.01 1.01 0 001.726-.706.996.996 0 00-.294-.705L3.432 8h11.56C15.547 8 16 7.552 16 7s-.452-1-1.009-1H3.521l3.945-3.95A.996.996 0 007.138.42a1.016 1.016 0 00-1.104.22z" fill-opacity=".8"/></symbol><symbol viewBox="0 0 20 20" id="attention" xmlns="http://www.w3.org/2000/svg"><path d="M10 5a1 1 0 00-1 1v4a1 1 0 102 0V6a1 1 0 00-1-1zm.92 8.62a.762.762 0 00-.09-.18l-.12-.15a.999.999 0 00-1.09-.21 1.15 1.15 0 00-.33.21 1 1 0 00-.21 1.09.9.9 0 00.54.54.94.94 0 00.76 0 .9.9 0 00.54-.54c.051-.12.078-.25.08-.38a1.362 1.362 0 000-.2.639.639 0 00-.08-.18zM10 0a10 10 0 100 20 10 10 0 000-20zm0 18a8 8 0 110-16 8 8 0 010 16z"/></symbol><symbol viewBox="0 0 23 23" id="basket" xmlns="http://www.w3.org/2000/svg"><path fill-rule="evenodd" clip-rule="evenodd" d="M5 3a.5.5 0 00-.5.5v8h-1v-8A1.5 1.5 0 015 2h13a1.5 1.5 0 011.5 1.5v8h-1v-8A.5.5 0 0018 3H5z"/><path fill-rule="evenodd" clip-rule="evenodd" d="M4 1a1.5 1.5 0 00-1.5 1.5V12h-1V2.5A2.5 2.5 0 014 0h15a2.5 2.5 0 012.5 2.5V12h-1V2.5A1.5 1.5 0 0019 1H4z"/><path fill-rule="evenodd" clip-rule="evenodd" d="M22 12.5H1v9h21v-9zm-21-1a1 1 0 00-1 1v9a1 1 0 001 1h21a1 1 0 001-1v-9a1 1 0 00-1-1H1z"/><path fill-rule="evenodd" clip-rule="evenodd" d="M14.924 4.5l.008.001c1.257.18 2.174 1.252 2.068 2.483a2.275 2.275 0 01-1.325 1.865l-.49 3.516-.623-.029.513-3.737a.323.323 0 01.188-.243l.008-.004a1.665 1.665 0 001.105-1.42c.06-.709-.355-1.369-.99-1.668l.362 1.138a.722.722 0 01-.509.908l-.704.202a.768.768 0 01-.944-.486v-.002l-.402-1.255a1.64 1.64 0 00-.34.862c-.07.737.396 1.452 1.123 1.725.14.053.21.185.201.312v.01l-.513 3.705-.617-.049.489-3.509c-.854-.423-1.386-1.317-1.313-2.254.05-.64.386-1.236.91-1.627l.006-.005a.331.331 0 01.283-.044c.092.03.175.1.204.21l.557 1.737c.013.05.085.096.155.075h.002l.711-.204a.11.11 0 00.078-.136l-.001-.002-.53-1.677a.28.28 0 01.06-.305.348.348 0 01.262-.093h.008zm-7.192-.098h2.52l.085.191c.155.352.388.901.583 1.406.097.252.186.497.251.702.06.189.115.388.115.524 0 .138-.044.29-.094.423a4.102 4.102 0 01-.199.439 8.225 8.225 0 01-.264.472l.14.063c.489.222.636.642.647.877L12 11.517l-.657.085-.488-2.046v-.027c0-.05-.046-.246-.276-.35l-.372-.169-.662.382.553.376.52 1.741-.654.099-.462-1.48-.566-.384-.69.398-.459 1.466-.654-.099.523-1.754 2.44-1.408c.096-.154.205-.342.3-.528.07-.135.13-.264.17-.375a.762.762 0 00.058-.22.61.61 0 00-.02-.108 3.456 3.456 0 00-.067-.239c-.06-.188-.145-.42-.24-.668-.158-.41-.373-.952-.519-1.288h-.571v2.128l-1.821.413c.037.091.086.194.143.3.13.247.415.707.52.86l-.703.428c-.208.092-.245.262-.245.298v.035L6.4 11.615l-.653-.114.693-2.194c.016-.227.162-.613.623-.816l.104-.047a7.435 7.435 0 01-.232-.408 3.84 3.84 0 01-.188-.406 1.177 1.177 0 01-.091-.4c0-.077.019-.166.039-.243.021-.083.051-.18.086-.283.07-.208.166-.46.27-.717.207-.516.45-1.073.596-1.396l.085-.19zm.913 2.24V4.921h-.538a39.93 39.93 0 00-.53 1.247 14.398 14.398 0 00-.29.782l1.358-.308z"/></symbol><symbol viewBox="0 0 9 9" id="bonus" xmlns="http://www.w3.org/2000/svg"><path fill-rule="evenodd" clip-rule="evenodd" d="M9.001 4.5a4.5 4.5 0 01-4.5 4.5h-4.5V4.5a4.5 4.5 0 019 0zm-5.812 0c0-.697.605-1.313 1.415-1.313.4 0 .756.154 1.01.395l.775-.816a2.588 2.588 0 00-1.785-.704c-1.374 0-2.54 1.064-2.54 2.438s1.166 2.438 2.54 2.438a2.59 2.59 0 001.785-.704l-.774-.816c-.255.241-.61.394-1.011.394-.81 0-1.415-.615-1.415-1.312z"/></symbol><symbol viewBox="0 0 20 20" id="cards-row" xmlns="http://www.w3.org/2000/svg"><path d="M20 19V1a1 1 0 00-1-1H1a1 1 0 00-1 1v18a1 1 0 001 1h18a1 1 0 001-1zM2 6V2h16v4H2zm0 6V8h16v4H2zm0 6v-4h16v4H2z"/></symbol><symbol viewBox="0 0 20 20" id="cards-tiles" xmlns="http://www.w3.org/2000/svg"><path d="M8 11H1a1 1 0 00-1 1v7a1 1 0 001 1h7a1 1 0 001-1v-7a1 1 0 00-1-1zm-1 7H2v-5h5v5zM19 0h-7a1 1 0 00-1 1v7a1 1 0 001 1h7a1 1 0 001-1V1a1 1 0 00-1-1zm-1 7h-5V2h5v5zm1 4h-7a1 1 0 00-1 1v7a1 1 0 001 1h7a1 1 0 001-1v-7a1 1 0 00-1-1zm-1 7h-5v-5h5v5zM8 0H1a1 1 0 00-1 1v7a1 1 0 001 1h7a1 1 0 001-1V1a1 1 0 00-1-1zM7 7H2V2h5v5z"/></symbol><symbol viewBox="0 0 21 21" id="cart" xmlns="http://www.w3.org/2000/svg"><path d="M19 14H5a1 1 0 010-2h10.44a3 3 0 002.91-2.27L20 3.24a1 1 0 00-.18-.86A1 1 0 0019 2H4.76a3 3 0 00-2.82-2H1a1 1 0 000 2h.94a1 1 0 011 .76l.06.48L4.73 10A3.003 3.003 0 105 16h.18a3 3 0 105.64 0h2.36a3 3 0 105.64 0H19a1 1 0 000-2zM17.72 4l-1.31 5.24a1 1 0 01-1 .76H6.78l-1.5-6h12.44zM8 18a1 1 0 110-2 1 1 0 010 2zm8 0a1 1 0 110-2 1 1 0 010 2z"/></symbol><symbol viewBox="0 0 25 25" id="catalog" xmlns="http://www.w3.org/2000/svg"><path d="M19.5 20h-14a.5.5 0 010-1h14a.5.5 0 010 1zm0-5h-14a.5.5 0 010-1h14a.5.5 0 010 1zm0-5h-14a.5.5 0 010-1h14a.5.5 0 010 1zm0-5h-14a.5.5 0 010-1h14a.5.5 0 010 1z" opacity=".6" stroke-width=".3"/></symbol><symbol viewBox="0 0 25 25" id="catalog-mob" xmlns="http://www.w3.org/2000/svg"><g opacity=".6"><path d="M19.5 20h-14a.5.5 0 010-1h14a.5.5 0 010 1z"/><path fill-rule="evenodd" clip-rule="evenodd" d="M5.5 19.15a.35.35 0 100 .7h14a.35.35 0 100-.7h-14zm-.65.35a.65.65 0 01.65-.65h14a.65.65 0 110 1.3h-14a.65.65 0 01-.65-.65z"/><path d="M19.5 15h-14a.5.5 0 010-1h14a.5.5 0 010 1z"/><path fill-rule="evenodd" clip-rule="evenodd" d="M5.5 14.15a.35.35 0 100 .7h14a.35.35 0 100-.7h-14zm-.65.35a.65.65 0 01.65-.65h14a.65.65 0 110 1.3h-14a.65.65 0 01-.65-.65z"/><path d="M19.5 10h-14a.5.5 0 010-1h14a.5.5 0 010 1z"/><path fill-rule="evenodd" clip-rule="evenodd" d="M5.5 9.15a.35.35 0 100 .7h14a.35.35 0 100-.7h-14zm-.65.35a.65.65 0 01.65-.65h14a.65.65 0 110 1.3h-14a.65.65 0 01-.65-.65z"/><path d="M19.5 5h-14a.5.5 0 010-1h14a.5.5 0 010 1z"/><path fill-rule="evenodd" clip-rule="evenodd" d="M5.5 4.15a.35.35 0 100 .7h14a.35.35 0 100-.7h-14zm-.65.35a.65.65 0 01.65-.65h14a.65.65 0 110 1.3h-14a.65.65 0 01-.65-.65z"/></g></symbol><symbol viewBox="0 0 14 14" id="chat" xmlns="http://www.w3.org/2000/svg"><path d="M7 .333A6.667 6.667 0 00.333 7a6.593 6.593 0 001.507 4.22L.507 12.553a.667.667 0 00-.14.727.666.666 0 00.633.387h6A6.667 6.667 0 007 .333zm0 12H2.607l.62-.62a.667.667 0 000-.94A5.333 5.333 0 117 12.333z"/></symbol><symbol viewBox="0 0 21 21" id="chats" xmlns="http://www.w3.org/2000/svg"><path d="M19.61 18.19a7 7 0 00-2.74-10.57 8 8 0 10-14.19 6.29l-1.39 1.38a1 1 0 00-.21 1.09A1 1 0 002 17h5.69A7 7 0 0014 21h6a1 1 0 00.92-.62 1 1 0 00-.21-1.09l-1.1-1.1zM7 14c.001.335.028.67.08 1H4.41l.35-.34a1 1 0 000-1.42A5.93 5.93 0 013 9a6 6 0 016-6 5.94 5.94 0 015.65 4H14a7 7 0 00-7 7zm10.54 5l.05.05H14a5 5 0 113.54-1.46 1 1 0 00-.3.7 1 1 0 00.3.71z"/></symbol><symbol viewBox="0 0 6 4" id="chev-down" xmlns="http://www.w3.org/2000/svg"><path d="M.5 1.295l2.145 2.12a.5.5 0 00.71 0l2.12-2.12a.5.5 0 10-.705-.71L3 2.355 1.23.585a.5.5 0 00-.705 0 .5.5 0 00-.025.71z"/></symbol><symbol viewBox="0 0 9 14" id="chev-left" xmlns="http://www.w3.org/2000/svg"><path fill-rule="evenodd" clip-rule="evenodd" d="M3.414 6.569l4.846 5.05-1.443 1.386L.587 6.51 7.08.28l1.385 1.442L3.414 6.57z"/></symbol><symbol viewBox="0 0 9 14" id="chev-right" xmlns="http://www.w3.org/2000/svg"><path fill-rule="evenodd" clip-rule="evenodd" d="M5.9 6.656L.95 1.706 2.364.293l6.364 6.364-6.364 6.364L.95 11.606l4.95-4.95z"/></symbol><symbol viewBox="0 0 23 22" id="compare" xmlns="http://www.w3.org/2000/svg"><path fill-rule="evenodd" clip-rule="evenodd" d="M12.666 3h-1.333v17.333a.667.667 0 001.333 0V3zm-2.333-1v18.333a1.667 1.667 0 103.333 0V2h-3.333z"/><path fill-rule="evenodd" clip-rule="evenodd" d="M15.5 1h-7a.5.5 0 000 1h7a.5.5 0 000-1zM7 1.5A1.5 1.5 0 008.5 3h7a1.5 1.5 0 000-3h-7A1.5 1.5 0 007 1.5zM11.333 13v3h1.334v-3h-1.334zm-1 4h3.334v-5h-3.334v5zM20 9h-1v11.5a.5.5 0 001 0V9zm-2-1v12.5a1.5 1.5 0 003 0V8h-3z"/><path fill-rule="evenodd" clip-rule="evenodd" d="M21.5 7h-4a.5.5 0 000 1h4a.5.5 0 000-1zm-5.5.5A1.5 1.5 0 0017.5 9h4a1.5 1.5 0 000-3h-4A1.5 1.5 0 0016 7.5zm3 5.5v3h1v-3h-1zm-1 4h3v-5h-3v5zM5 13H4v7.5a.5.5 0 001 0V13zm-2-1v8.5a1.5 1.5 0 003 0V12H3z"/><path fill-rule="evenodd" clip-rule="evenodd" d="M7.5 11h-6a.5.5 0 000 1h6a.5.5 0 000-1zm-7.5.5A1.5 1.5 0 001.5 13h6a1.5 1.5 0 000-3h-6A1.5 1.5 0 000 11.5z"/></symbol><symbol viewBox="0 0 22 22" id="context" xmlns="http://www.w3.org/2000/svg"><path fill-rule="evenodd" clip-rule="evenodd" d="M2 11a9 9 0 1018 0 9 9 0 00-18 0zm9-11C4.925 0 0 4.925 0 11s4.925 11 11 11 11-4.925 11-11S17.075 0 11 0z"/><path d="M8 11a1 1 0 11-2 0 1 1 0 012 0zm4 0a1 1 0 11-2 0 1 1 0 012 0zm4 0a1 1 0 11-2 0 1 1 0 012 0z"/></symbol><symbol viewBox="0 0 18 14" id="ctlg-burger" xmlns="http://www.w3.org/2000/svg"><path d="M.224 11.884c0 .36.126.666.378.918s.558.378.918.378h14.274c.36 0 .666-.126.918-.378a1.25 1.25 0 00.378-.918c0-.36-.126-.666-.378-.918a1.25 1.25 0 00-.918-.378H1.52a1.29 1.29 0 00-.918.378c-.264.252-.39.558-.378.918zm0-5.184c0 .36.126.666.378.918s.558.378.918.378h14.274c.36 0 .666-.126.918-.378a1.25 1.25 0 00.378-.918c0-.36-.126-.666-.378-.918a1.25 1.25 0 00-.918-.378H1.52a1.29 1.29 0 00-.918.378c-.264.252-.39.558-.378.918zm0-5.184c0 .36.126.666.378.918s.558.378.918.378h14.274c.36 0 .666-.126.918-.378a1.25 1.25 0 00.378-.918c0-.36-.126-.666-.378-.918a1.25 1.25 0 00-.918-.378H1.52a1.29 1.29 0 00-.918.378c-.264.252-.39.558-.378.918z"/></symbol><symbol viewBox="0 0 14 14" id="ctlg-close" xmlns="http://www.w3.org/2000/svg"><path d="M8.41 7l4.3-4.29a1.004 1.004 0 10-1.42-1.42L7 5.59l-4.29-4.3a1.004 1.004 0 00-1.42 1.42L5.59 7l-4.3 4.29a1 1 0 00.325 1.639 1 1 0 001.095-.219L7 8.41l4.29 4.3a1.002 1.002 0 001.639-.325 1 1 0 00-.219-1.095L8.41 7z"/></symbol><symbol viewBox="0 0 23 22" id="favourites" xmlns="http://www.w3.org/2000/svg"><path fill-rule="evenodd" clip-rule="evenodd" d="M13.82 6.9L11.5 1.523 9.18 6.899a2 2 0 01-1.613 1.195l-5.698.641 4.301 4.052a2 2 0 01.59 1.851l-1.182 5.865 4.898-2.92a2 2 0 012.048 0l4.898 2.92-1.181-5.865a2 2 0 01.589-1.85l4.301-4.053-5.698-.64a2 2 0 01-1.613-1.196zm-1.402-5.772c-.347-.805-1.489-.805-1.836 0l-2.32 5.375a1 1 0 01-.806.598l-5.699.64a1 1 0 00-.574 1.722l4.302 4.052a1 1 0 01.294.926L4.6 20.305c-.172.85.747 1.5 1.492 1.057l4.897-2.92a1 1 0 011.024 0l4.897 2.92c.745.444 1.664-.206 1.493-1.057l-1.181-5.864a1 1 0 01.294-.926l4.302-4.052a1 1 0 00-.574-1.721l-5.7-.642a1 1 0 01-.806-.598l-2.32-5.375z"/></symbol><symbol viewBox="0 0 14 19" id="flame" xmlns="http://www.w3.org/2000/svg"><path fill-rule="evenodd" clip-rule="evenodd" d="M7.487 8.18c.508.604.236.878 1.815 2.196 1.796 1.519 1.343 4.209-.799 5.05-.78.312-1.705.184-2.395-.292-.036-.037-.29-.22-.308-.238l-.255-.275c.744-.366.817-.256 1.343-.823.4-.42.69-.823.744-1.574.11-1.5-.816-2.306-.145-4.044zM2.37 5.856C1.208 6.55.265 8.747.065 10.339c-.798 6.424 5.916 9.937 10.78 7.229 1.342-.75 2.486-2.013 2.94-3.825 1.25-4.923-3.305-6.953-4.43-8.436C7.723 3.166 8.721.97 8.866 0 4.783 1.263 2.57 6.204 3.95 10.101c.49 1.373-.49 1.647-1.071.75-.962-1.445-1.107-3.183-.49-4.995H2.37z"/></symbol><symbol viewBox="0 0 19 20" id="home" xmlns="http://www.w3.org/2000/svg"><path fill-rule="evenodd" clip-rule="evenodd" d="M14.356 20H2.214a2.265 2.265 0 01-1.538-.596A2.085 2.085 0 010 17.874V9.83c0-.314.073-.621.21-.901a2.15 2.15 0 01.514-.669L8.017.545l.05-.04C8.473.173 8.983 0 9.5 0s1.027.174 1.433.504l.05.041 7.293 7.714c.212.186.388.412.514.669.137.28.21.587.21.901v8.046c0 .59-.253 1.137-.676 1.529-.42.39-.975.596-1.538.596h-2.43zm3.231-11.013L10.301 1.28A1.271 1.271 0 009.5 1c-.295 0-.58.1-.801.28L1.413 8.987a1.14 1.14 0 00-.305.38A1.056 1.056 0 001 9.83v8.045c0 .298.128.584.356.796.227.21.536.329.858.329h14.572c.322 0 .63-.119.858-.33.228-.21.356-.497.356-.795V9.83c0-.16-.037-.317-.108-.463a1.135 1.135 0 00-.305-.38z"/><path fill-rule="evenodd" clip-rule="evenodd" d="M14 11H5v5h9v-5zm-9-1a1 1 0 00-1 1v5a1 1 0 001 1h9a1 1 0 001-1v-5a1 1 0 00-1-1H5z"/></symbol><symbol viewBox="0 0 14 14" id="like" xmlns="http://www.w3.org/2000/svg"><path d="M13.2 5.72A2 2 0 0011.667 5h-3.04L9 4.047A2.753 2.753 0 006.407.333.667.667 0 005.8.727L3.9 5H2.333a2 2 0 00-2 2v4.667a2 2 0 002 2h8.487a2 2 0 001.967-1.64l.846-4.667a2 2 0 00-.433-1.64zm-9.533 6.613H2.333a.667.667 0 01-.666-.666V7a.667.667 0 01.666-.667h1.334v6zm8.666-5.213l-.846 4.667a.667.667 0 01-.667.546H5V5.807l1.813-4.08a1.406 1.406 0 01.92 1.853l-.353.953a1.333 1.333 0 001.247 1.8h3.04a.667.667 0 01.513.24.667.667 0 01.153.547z"/></symbol><symbol viewBox="0 0 18 22" id="loc" xmlns="http://www.w3.org/2000/svg"><path d="M9 1a8 8 0 00-8 8c0 5.4 7.05 11.5 7.35 11.76a1 1 0 001.3 0C10 20.5 17 14.4 17 9a8 8 0 00-8-8zm0 17.65c-2.13-2-6-6.31-6-9.65a6 6 0 1112 0c0 3.34-3.87 7.66-6 9.65zM9 5a4 4 0 100 8 4 4 0 000-8zm0 6a2 2 0 110-4 2 2 0 010 4z"/></symbol><symbol viewBox="0 0 21 21" id="m-menu" xmlns="http://www.w3.org/2000/svg"><path d="M10.5 5.574A4.931 4.931 0 005.574 10.5a4.931 4.931 0 004.926 4.926 4.931 4.931 0 004.926-4.926A4.931 4.931 0 0010.5 5.574zm0 9.148A4.227 4.227 0 016.278 10.5 4.227 4.227 0 0110.5 6.278a4.227 4.227 0 014.222 4.222 4.227 4.227 0 01-4.222 4.222z"/><path d="M19.022 8.389h-.71a8.02 8.02 0 00-.796-1.92l.502-.502a.972.972 0 00.287-.692.973.973 0 00-.287-.692l-1.602-1.602a1.003 1.003 0 00-1.384 0l-.501.502a8.042 8.042 0 00-1.92-.795v-.71A.98.98 0 0011.633 1H9.367a.98.98 0 00-.978.978v.71a8.037 8.037 0 00-1.92.795l-.502-.501a1.002 1.002 0 00-1.384 0L2.981 4.584a.972.972 0 00-.286.692c0 .26.102.506.286.691l.502.502a8.01 8.01 0 00-.795 1.92h-.71A.98.98 0 001 9.367v2.265c0 .54.439.979.978.979h.71c.181.672.448 1.316.795 1.92l-.501.502a.972.972 0 00-.287.691c0 .262.102.507.287.692l1.602 1.602a1 1 0 001.383 0l.502-.501a8.05 8.05 0 001.92.795v.71c0 .54.439.978.978.978h2.266a.98.98 0 00.978-.978v-.71a8.04 8.04 0 001.92-.795l.502.502c.37.37 1.014.369 1.383 0l1.602-1.602a.973.973 0 00.287-.693.973.973 0 00-.287-.691l-.501-.502a8.052 8.052 0 00.795-1.92h.71a.98.98 0 00.978-.978V9.367a.98.98 0 00-.978-.978zm.274 3.244a.275.275 0 01-.274.274h-1.264l-.064.272a7.346 7.346 0 01-.919 2.22l-.148.238.894.893a.275.275 0 010 .389l-1.602 1.602a.274.274 0 01-.389 0l-.893-.894-.237.148a7.33 7.33 0 01-2.22.92l-.273.063v1.264a.275.275 0 01-.274.274H9.367a.275.275 0 01-.275-.274v-1.264l-.271-.064a7.347 7.347 0 01-2.221-.919l-.237-.148-.893.894a.275.275 0 01-.389 0L3.48 15.919a.275.275 0 010-.389l.893-.893-.147-.237a7.331 7.331 0 01-.92-2.22l-.063-.273H1.978a.275.275 0 01-.274-.274V9.367c0-.151.123-.275.274-.275h1.264l.063-.271a7.341 7.341 0 01.92-2.221l.147-.237-.893-.893a.275.275 0 010-.389L5.081 3.48a.275.275 0 01.389 0l.893.893.237-.147a7.332 7.332 0 012.22-.92l.272-.063V1.978c0-.151.124-.274.275-.274h2.265c.152 0 .275.123.275.274v1.264l.272.063a7.348 7.348 0 012.22.92l.238.147.893-.893a.275.275 0 01.389 0l1.602 1.602a.275.275 0 010 .389l-.894.893.148.237c.427.686.736 1.433.92 2.22l.063.272h1.264c.15 0 .274.124.274.275v2.266z"/><path fill-rule="evenodd" clip-rule="evenodd" d="M18.018 4.583c.185.185.287.43.287.692a.972.972 0 01-.287.692l-.502.502a8.02 8.02 0 01.796 1.92h.71a.98.98 0 01.978.978v2.266a.98.98 0 01-.978.978h-.71a8.052 8.052 0 01-.795 1.92l.502.502c.184.185.286.43.286.691a.973.973 0 01-.287.692l-1.602 1.602a1 1 0 01-1.383 0l-.502-.501a8.04 8.04 0 01-1.92.795v.71a.98.98 0 01-.978.978H9.367a.98.98 0 01-.978-.978v-.71a8.05 8.05 0 01-1.92-.795l-.502.502a1 1 0 01-1.383 0l-1.602-1.602a.973.973 0 01-.287-.693.97.97 0 01.287-.691l.501-.502a8.039 8.039 0 01-.795-1.92h-.71A.98.98 0 011 11.632V9.367a.98.98 0 01.978-.978h.71a8.01 8.01 0 01.795-1.92l-.502-.502a.973.973 0 01-.286-.691c0-.262.102-.508.286-.692l1.602-1.602c.37-.37 1.014-.37 1.384 0l.502.501a8.037 8.037 0 011.92-.795v-.71A.98.98 0 019.367 1h2.266a.98.98 0 01.978.978v.71a8.042 8.042 0 011.92.795l.501-.502a1.003 1.003 0 011.384 0l1.602 1.602zm-3.522-1.349l.395-.394a1.202 1.202 0 011.667 0l1.602 1.602c.222.222.345.519.345.833 0 .314-.123.611-.345.833l-.395.395c.295.535.529 1.1.698 1.686h.559c.65 0 1.178.528 1.178 1.178v2.266a1.18 1.18 0 01-1.178 1.178h-.558a8.252 8.252 0 01-.699 1.686l.395.394a1.176 1.176 0 010 1.667l-1.602 1.602a1.202 1.202 0 01-1.667 0l-.394-.395a8.24 8.24 0 01-1.686.699v.558a1.18 1.18 0 01-1.178 1.178H9.367a1.18 1.18 0 01-1.178-1.178v-.558a8.255 8.255 0 01-1.686-.699l-.394.395a1.201 1.201 0 01-1.667 0L2.84 16.558a1.173 1.173 0 01-.345-.834c0-.314.123-.61.345-.833l.395-.394a8.234 8.234 0 01-.699-1.686h-.558A1.18 1.18 0 01.8 11.633V9.367c0-.65.528-1.178 1.178-1.178h.558a8.28 8.28 0 01.698-1.686L2.84 6.11a1.173 1.173 0 01-.345-.833c0-.315.123-.612.345-.834L4.442 2.84a1.202 1.202 0 011.666 0l.395.395a8.234 8.234 0 011.686-.699v-.558c0-.65.528-1.178 1.178-1.178h2.266c.65 0 1.178.528 1.178 1.178v.558c.586.17 1.15.404 1.685.698zm3.103 8.473h1.423c.04 0 .074-.033.074-.074V9.367a.075.075 0 00-.074-.075h-1.423l-.1-.426a7.126 7.126 0 00-.894-2.16l-.232-.372 1.006-1.006a.075.075 0 000-.105L15.777 3.62a.075.075 0 00-.105 0l-1.006 1.005-.372-.231a7.149 7.149 0 00-2.16-.895l-.427-.1v-1.42a.075.075 0 00-.075-.074H9.367a.075.075 0 00-.075.074v1.423l-.426.1a7.132 7.132 0 00-2.16.893l-.372.232-1.006-1.005a.075.075 0 00-.105 0L3.62 5.223a.075.075 0 000 .105l1.005 1.006-.232.372a7.14 7.14 0 00-.894 2.16l-.1.426h-1.42a.075.075 0 00-.074.075v2.266c0 .04.033.074.074.074h1.423l.1.427c.177.766.478 1.493.893 2.16l.232.372-1.005 1.006a.075.075 0 000 .105l1.602 1.602c.028.029.076.03.105 0l1.006-1.006.372.232a7.145 7.145 0 002.16.895l.426.099v1.423c0 .04.034.074.075.074h2.266c.04 0 .074-.034.074-.074v-1.423l.427-.1a7.13 7.13 0 002.16-.894l.372-.232 1.006 1.006c.028.029.076.03.105 0l1.602-1.602a.075.075 0 000-.105l-1.006-1.006.232-.372a7.145 7.145 0 00.895-2.16l.099-.427zm-.824 2.693l-.148.237.894.893a.275.275 0 010 .389l-1.602 1.602a.274.274 0 01-.389 0l-.893-.894-.237.148a7.33 7.33 0 01-2.22.92l-.273.063v1.264a.275.275 0 01-.274.274H9.367a.275.275 0 01-.275-.274v-1.264l-.271-.064a7.347 7.347 0 01-2.221-.919l-.237-.148-.893.894a.275.275 0 01-.389 0L3.48 15.919a.275.275 0 010-.389l.893-.893-.147-.237a7.331 7.331 0 01-.92-2.22l-.063-.273H1.978a.275.275 0 01-.274-.274V9.367c0-.151.123-.275.274-.275h1.264l.063-.271a7.341 7.341 0 01.92-2.221l.147-.237-.893-.893a.275.275 0 010-.389L5.081 3.48a.275.275 0 01.389 0l.893.893.237-.147a7.332 7.332 0 012.22-.92l.272-.063V1.978c0-.151.124-.274.275-.274h2.265c.152 0 .275.123.275.274v1.264l.272.063a7.348 7.348 0 012.22.92l.238.147.893-.893a.275.275 0 01.389 0l1.602 1.602a.275.275 0 010 .389l-.894.893.148.237c.427.686.736 1.433.92 2.22l.063.272h1.264c.15 0 .274.124.274.275v2.266a.275.275 0 01-.274.274h-1.264l-.064.272a7.346 7.346 0 01-.919 2.22zM5.374 10.5c0-2.827 2.3-5.126 5.126-5.126 2.827 0 5.126 2.3 5.126 5.126 0 2.827-2.3 5.126-5.126 5.126A5.131 5.131 0 015.374 10.5zm1.104 0a4.027 4.027 0 004.022 4.022 4.027 4.027 0 004.022-4.022A4.027 4.027 0 0010.5 6.478 4.027 4.027 0 006.478 10.5zm-.904 0A4.931 4.931 0 0110.5 5.574a4.931 4.931 0 014.926 4.926 4.931 4.931 0 01-4.926 4.926A4.931 4.931 0 015.574 10.5zm.704 0a4.227 4.227 0 004.222 4.222 4.227 4.227 0 004.222-4.222A4.227 4.227 0 0010.5 6.278 4.227 4.227 0 006.278 10.5z"/></symbol><symbol viewBox="0 0 21 21" id="magnifier" xmlns="http://www.w3.org/2000/svg"><path d="M20.51 19.29l-3.675-3.68a9.058 9.058 0 001.93-6.369 9.03 9.03 0 00-2.936-5.964A8.87 8.87 0 009.634.982a8.878 8.878 0 00-6.061 2.633A9.04 9.04 0 00.964 9.733a9.05 9.05 0 002.273 6.252 8.888 8.888 0 005.91 2.964A8.861 8.861 0 0015.457 17l3.646 3.68a.991.991 0 00.704.296.982.982 0 00.982-.991c0-.26-.1-.508-.279-.695zM9.9 17a6.89 6.89 0 01-3.853-1.18 6.986 6.986 0 01-2.557-3.14 7.06 7.06 0 01-.395-4.045 7.02 7.02 0 011.9-3.585 6.916 6.916 0 013.55-1.915 6.877 6.877 0 014.008.398 6.95 6.95 0 013.113 2.578 7.046 7.046 0 01-.863 8.839A6.903 6.903 0 019.9 17z"/></symbol><symbol viewBox="0 0 13 2" id="minus" xmlns="http://www.w3.org/2000/svg"><path fill-rule="evenodd" clip-rule="evenodd" d="M.435 1.238a.75.75 0 01.75-.75h10.537a.75.75 0 010 1.5H1.185a.75.75 0 01-.75-.75z"/></symbol><symbol viewBox="0 0 19 19" id="percents" xmlns="http://www.w3.org/2000/svg"><path d="M9.5 0C4.262 0 0 4.262 0 9.5S4.262 19 9.5 19 19 14.738 19 9.5 14.738 0 9.5 0zm0 17.131c-4.208 0-7.631-3.423-7.631-7.631S5.292 1.869 9.5 1.869s7.631 3.423 7.631 7.631-3.423 7.631-7.631 7.631z"/><path d="M6.322 9.831a2.269 2.269 0 01-1.689-.685c-.2-.22-.355-.48-.466-.777A2.716 2.716 0 014 7.41c0-.35.056-.673.167-.97a2.41 2.41 0 01.477-.765 2.13 2.13 0 01.734-.491C5.667 5.06 5.98 5 6.322 5A2.325 2.325 0 018 5.685c.207.213.367.469.478.766.118.289.178.609.178.959s-.06.674-.178.97a2.175 2.175 0 01-1.211 1.268 2.354 2.354 0 01-.945.183zm4.921-4.53a.616.616 0 011.059.63l-4.623 7.768a.616.616 0 11-1.058-.63l4.622-7.768zm-4.92 3.297c.34 0 .584-.115.733-.343.148-.236.222-.518.222-.845 0-.343-.078-.624-.234-.845-.148-.229-.388-.343-.722-.343-.333 0-.578.118-.733.354-.148.229-.222.506-.222.834 0 .327.074.609.222.845.155.228.4.343.733.343zm6.344 5.242c-.348 0-.667-.06-.956-.183a2.27 2.27 0 01-.733-.502 2.263 2.263 0 01-.467-.765 2.716 2.716 0 01-.167-.96c0-.358.056-.681.167-.97a2.41 2.41 0 01.478-.766 2.06 2.06 0 01.733-.502c.29-.122.604-.183.945-.183a2.326 2.326 0 011.677.685c.208.213.367.468.478.765.119.297.178.62.178.971 0 .35-.06.674-.178.971-.11.29-.27.54-.478.754-.2.213-.444.38-.733.502a2.355 2.355 0 01-.944.183zm0-1.222c.34 0 .585-.114.733-.343.148-.236.222-.517.222-.845 0-.342-.078-.624-.233-.845-.148-.228-.389-.343-.722-.343-.334 0-.578.118-.734.354-.148.229-.222.507-.222.834 0 .328.074.61.222.845.149.229.393.343.734.343z"/></symbol><symbol viewBox="0 0 22 22" id="phone" xmlns="http://www.w3.org/2000/svg"><path d="M13.94 5.56h3.58l-.79.8a1 1 0 000 1.41 1 1 0 001.41 0l2.5-2.5a1 1 0 000-1.41l-2.5-2.5a1 1 0 00-1.41 1.41l.79.79h-3.58a1 1 0 100 2zm4.5 6.44c-.22 0-.45-.07-.67-.12a9.439 9.439 0 01-1.31-.39 2 2 0 00-2.48 1l-.22.45a12.18 12.18 0 01-2.66-2 12.178 12.178 0 01-2-2.66L9.52 8a2 2 0 001-2.48 10.32 10.32 0 01-.39-1.31c-.05-.22-.09-.45-.12-.68a3 3 0 00-3-2.49h-3a3 3 0 00-3 3.41 19 19 0 0016.52 16.46h.38a3 3 0 002.741-1.778c.173-.388.26-.808.259-1.232v-3a3 3 0 00-2.47-2.9zm.5 6a1 1 0 01-.724.962c-.14.043-.29.056-.436.038A17 17 0 013.07 4.22a1.09 1.09 0 01.25-.82 1 1 0 01.75-.34h3a1 1 0 011 .79c.04.273.09.543.15.81.115.527.27 1.045.46 1.55l-1.4.65a1 1 0 00-.49 1.33 14.49 14.49 0 007 7 1 1 0 00.76 0 1 1 0 00.57-.52l.62-1.4a13.68 13.68 0 001.58.46c.267.06.537.11.81.15a1 1 0 01.79 1l.02 3.12z"/></symbol><symbol viewBox="0 0 22 22" id="phone2" xmlns="http://www.w3.org/2000/svg"><path d="M13.94 5.56h3.58l-.79.8a1 1 0 000 1.41 1 1 0 001.41 0l2.5-2.5a1 1 0 000-1.41l-2.5-2.5a1 1 0 00-1.41 1.41l.79.79h-3.58a1 1 0 100 2zm4.5 6.44c-.22 0-.45-.07-.67-.12a9.443 9.443 0 01-1.31-.39 2 2 0 00-2.48 1l-.22.45a12.18 12.18 0 01-2.66-2 12.181 12.181 0 01-2-2.66L9.52 8a2 2 0 001-2.48 10.32 10.32 0 01-.39-1.31c-.05-.22-.09-.45-.12-.68a3 3 0 00-3-2.49h-3a3 3 0 00-3 3.41 19 19 0 0016.52 16.46h.38a3 3 0 002.742-1.778 3 3 0 00.258-1.232v-3a3 3 0 00-2.47-2.9zm.5 6a1 1 0 01-.724.962c-.14.043-.29.056-.436.038A17 17 0 013.07 4.22a1.09 1.09 0 01.25-.82 1 1 0 01.75-.34h3a1 1 0 011 .79 11.301 11.301 0 00.61 2.36l-1.4.65a1 1 0 00-.49 1.33 14.49 14.49 0 007 7 1 1 0 00.76 0 1.002 1.002 0 00.57-.52l.62-1.4a13.79 13.79 0 001.58.46c.267.06.537.11.81.15a1 1 0 01.79 1l.02 3.12z"/></symbol><symbol viewBox="0 0 11 11" id="plus" xmlns="http://www.w3.org/2000/svg"><path fill-rule="evenodd" clip-rule="evenodd" d="M.873 5.234a.75.75 0 01.75-.75h8.561a.75.75 0 010 1.5H1.623a.75.75 0 01-.75-.75z"/><path fill-rule="evenodd" clip-rule="evenodd" d="M6.653.75v8.973a.75.75 0 01-1.5 0V.75a.75.75 0 011.5 0z"/></symbol><symbol viewBox="0 0 21 21" id="raskhodka" xmlns="http://www.w3.org/2000/svg"><path d="M10.5 5.574A4.931 4.931 0 005.574 10.5a4.931 4.931 0 004.926 4.926 4.931 4.931 0 004.926-4.926A4.931 4.931 0 0010.5 5.574zm0 9.148A4.227 4.227 0 016.278 10.5 4.227 4.227 0 0110.5 6.278a4.227 4.227 0 014.222 4.222 4.227 4.227 0 01-4.222 4.222z"/><path d="M19.021 8.389h-.71a8.02 8.02 0 00-.795-1.92l.502-.502a.972.972 0 00.287-.692.973.973 0 00-.287-.692l-1.602-1.602a1.002 1.002 0 00-1.384 0l-.501.502a8.042 8.042 0 00-1.92-.795v-.71A.98.98 0 0011.633 1H9.367a.98.98 0 00-.978.978v.71a8.037 8.037 0 00-1.92.795l-.502-.501a1.002 1.002 0 00-1.384 0L2.981 4.584a.972.972 0 00-.286.692c0 .26.102.506.286.691l.502.502a8.01 8.01 0 00-.795 1.92h-.71A.98.98 0 001 9.367v2.265c0 .54.439.979.978.979h.71c.181.672.448 1.316.795 1.92l-.501.502a.972.972 0 00-.287.691c0 .262.102.507.287.692l1.602 1.602a1 1 0 001.383 0l.502-.501a8.054 8.054 0 001.92.795v.71c0 .54.439.978.978.978h2.266a.98.98 0 00.978-.978v-.71a8.037 8.037 0 001.92-.795l.502.501a1 1 0 001.383 0l1.602-1.602a.973.973 0 00.287-.692.973.973 0 00-.287-.691l-.501-.502a8.053 8.053 0 00.795-1.92h.71a.98.98 0 00.978-.978V9.367a.98.98 0 00-.979-.978zm.275 3.244a.275.275 0 01-.274.274h-1.264l-.064.272a7.352 7.352 0 01-.919 2.22l-.148.238.893.893a.274.274 0 010 .389l-1.6 1.601a.274.274 0 01-.389 0l-.893-.893-.237.148a7.335 7.335 0 01-2.22.92l-.273.063v1.264a.275.275 0 01-.274.274H9.367a.275.275 0 01-.275-.274v-1.264l-.272-.064a7.352 7.352 0 01-2.22-.919l-.237-.148-.894.893a.275.275 0 01-.388 0l-1.602-1.6a.275.275 0 010-.389l.893-.893-.147-.237a7.332 7.332 0 01-.92-2.22l-.063-.273H1.978a.275.275 0 01-.274-.274V9.367c0-.151.123-.275.274-.275h1.264l.063-.272a7.341 7.341 0 01.92-2.22l.147-.237-.893-.894a.275.275 0 010-.388l1.602-1.602a.275.275 0 01.388 0l.894.893.237-.147a7.332 7.332 0 012.22-.92l.272-.063V1.978c0-.151.124-.274.275-.274h2.265c.152 0 .275.123.275.274v1.264l.272.063a7.349 7.349 0 012.22.92l.238.147.893-.893a.275.275 0 01.389 0l1.601 1.602a.274.274 0 010 .388l-.893.894.148.237c.427.686.736 1.433.92 2.22l.063.272h1.264c.15 0 .274.124.274.275v2.266z"/><path d="M10.5 5.574A4.931 4.931 0 005.574 10.5a4.931 4.931 0 004.926 4.926 4.931 4.931 0 004.926-4.926A4.931 4.931 0 0010.5 5.574zm0 9.148A4.227 4.227 0 016.278 10.5 4.227 4.227 0 0110.5 6.278a4.227 4.227 0 014.222 4.222 4.227 4.227 0 01-4.222 4.222z"/><path d="M19.021 8.389h-.71a8.02 8.02 0 00-.795-1.92l.502-.502a.972.972 0 00.287-.692.973.973 0 00-.287-.692l-1.602-1.602a1.002 1.002 0 00-1.384 0l-.501.502a8.042 8.042 0 00-1.92-.795v-.71A.98.98 0 0011.633 1H9.367a.98.98 0 00-.978.978v.71a8.037 8.037 0 00-1.92.795l-.502-.501a1.002 1.002 0 00-1.384 0L2.981 4.584a.972.972 0 00-.286.692c0 .26.102.506.286.691l.502.502a8.01 8.01 0 00-.795 1.92h-.71A.98.98 0 001 9.367v2.265c0 .54.439.979.978.979h.71c.181.672.448 1.316.795 1.92l-.501.502a.972.972 0 00-.287.691c0 .262.102.507.287.692l1.602 1.602a1 1 0 001.383 0l.502-.501a8.054 8.054 0 001.92.795v.71c0 .54.439.978.978.978h2.266a.98.98 0 00.978-.978v-.71a8.037 8.037 0 001.92-.795l.502.501a1 1 0 001.383 0l1.602-1.602a.973.973 0 00.287-.692.973.973 0 00-.287-.691l-.501-.502a8.053 8.053 0 00.795-1.92h.71a.98.98 0 00.978-.978V9.367a.98.98 0 00-.979-.978zm.275 3.244a.275.275 0 01-.274.274h-1.264l-.064.272a7.352 7.352 0 01-.919 2.22l-.148.238.893.893a.274.274 0 010 .389l-1.6 1.601a.274.274 0 01-.389 0l-.893-.893-.237.148a7.335 7.335 0 01-2.22.92l-.273.063v1.264a.275.275 0 01-.274.274H9.367a.275.275 0 01-.275-.274v-1.264l-.272-.064a7.352 7.352 0 01-2.22-.919l-.237-.148-.894.893a.275.275 0 01-.388 0l-1.602-1.6a.275.275 0 010-.389l.893-.893-.147-.237a7.332 7.332 0 01-.92-2.22l-.063-.273H1.978a.275.275 0 01-.274-.274V9.367c0-.151.123-.275.274-.275h1.264l.063-.272a7.341 7.341 0 01.92-2.22l.147-.237-.893-.894a.275.275 0 010-.388l1.602-1.602a.275.275 0 01.388 0l.894.893.237-.147a7.332 7.332 0 012.22-.92l.272-.063V1.978c0-.151.124-.274.275-.274h2.265c.152 0 .275.123.275.274v1.264l.272.063a7.349 7.349 0 012.22.92l.238.147.893-.893a.275.275 0 01.389 0l1.601 1.602a.274.274 0 010 .388l-.893.894.148.237c.427.686.736 1.433.92 2.22l.063.272h1.264c.15 0 .274.124.274.275v2.266z"/></symbol><symbol viewBox="0 0 18 20" id="remove" xmlns="http://www.w3.org/2000/svg"><path d="M7 16a1 1 0 001-1V9a1 1 0 00-2 0v6a1 1 0 001 1zM17 4h-4V3a3 3 0 00-3-3H8a3 3 0 00-3 3v1H1a1 1 0 000 2h1v11a3 3 0 003 3h8a3 3 0 003-3V6h1a1 1 0 100-2zM7 3a1 1 0 011-1h2a1 1 0 011 1v1H7V3zm7 14a1 1 0 01-1 1H5a1 1 0 01-1-1V6h10v11zm-3-1a1 1 0 001-1V9a1 1 0 00-2 0v6a1 1 0 001 1z" fill-opacity=".8"/></symbol><symbol viewBox="0 0 13 20" id="soc-ok" xmlns="http://www.w3.org/2000/svg"><path d="M11.808 12.34c.445-.446.508-1.082.127-1.718-.318-.509-.89-.763-1.527-.636a2.15 2.15 0 00-.763.382c-1.972 1.335-4.643 1.272-6.615-.064l-.381-.19c-.7-.319-1.4-.191-1.781.445-.445.636-.382 1.335.19 1.908.128.127.255.19.319.318l.063.063c.89.7 1.972 1.145 3.371 1.336l-.827.827-2.162 2.162c-.19.191-.445.51-.445.954 0 .573.318 1.145.89 1.4.191.127.382.127.573.127.318 0 .7-.127.954-.445l2.48-2.48.064-.064s.063 0 .063.063c.51.572 1.082 1.081 1.59 1.654l.764.763c.318.318.572.445.954.445.572.064 1.208-.318 1.463-.89a1.273 1.273 0 00-.318-1.527c-.636-.636-1.272-1.335-1.972-1.971L7.8 14.12c.572-.063 1.208-.19 1.78-.445.955-.318 1.654-.763 2.227-1.336z"/><path d="M6.338 10.559c2.735 0 4.96-2.163 4.96-4.898A5.003 5.003 0 009.837 2.1C8.882 1.145 7.673.636 6.401.636c-2.735 0-4.897 2.227-4.96 4.898 0 1.336.508 2.544 1.462 3.498.89 1.018 2.1 1.527 3.435 1.527zm-1.4-6.36a1.974 1.974 0 011.4-.573c1.145 0 1.972.89 1.972 1.972 0 1.144-.89 1.971-1.972 1.971-1.145 0-1.972-.89-1.972-1.971 0-.51.19-1.018.573-1.4z"/><path d="M11.808 12.34c.445-.446.508-1.082.127-1.718-.318-.509-.89-.763-1.527-.636a2.15 2.15 0 00-.763.382c-1.972 1.335-4.643 1.272-6.615-.064l-.381-.19c-.7-.319-1.4-.191-1.781.445-.445.636-.382 1.335.19 1.908.128.127.255.19.319.318l.063.063c.89.7 1.972 1.145 3.371 1.336l-.827.827-2.162 2.162c-.19.191-.445.51-.445.954 0 .573.318 1.145.89 1.4.191.127.382.127.573.127.318 0 .7-.127.954-.445l2.48-2.48.064-.064s.063 0 .063.063c.51.572 1.082 1.081 1.59 1.654l.764.763c.318.318.572.445.954.445.572.064 1.208-.318 1.463-.89a1.273 1.273 0 00-.318-1.527c-.636-.636-1.272-1.335-1.972-1.971L7.8 14.12c.572-.063 1.208-.19 1.78-.445.955-.318 1.654-.763 2.227-1.336z"/></symbol><symbol viewBox="0 0 17 20" id="soc-pint" xmlns="http://www.w3.org/2000/svg"><path fill-rule="evenodd" clip-rule="evenodd" d="M3.825 18.511c-.03-.754-.007-1.565.144-2.214.223-.96 1.44-6.11 1.44-6.11s-.367-.736-.367-1.824c0-1.71.99-2.985 2.224-2.985 1.049 0 1.555.787 1.555 1.731 0 .673-.273 1.559-.561 2.491a25.361 25.361 0 00-.457 1.601c-.29 1.224.614 2.221 1.82 2.221 2.185 0 3.864-2.303 3.864-5.628 0-2.942-2.115-5-5.134-5-3.497 0-5.55 2.623-5.55 5.334 0 1.056.407 2.189.915 2.805.1.121.115.228.085.352a199.401 199.401 0 01-.341 1.394c-.054.225-.178.273-.411.164C1.516 12.13.556 9.884.556 8.082c0-3.877 2.817-7.438 8.12-7.438 4.264 0 7.578 3.039 7.578 7.099 0 4.236-2.671 7.644-6.378 7.644-1.245 0-2.416-.647-2.817-1.41l-.766 2.92c-.184.71-.576 1.538-.965 2.253a9.904 9.904 0 01-1.503-.639z"/></symbol><symbol viewBox="0 0 17 15" id="soc-tg" xmlns="http://www.w3.org/2000/svg"><path d="M16.818.693l-2.55 13.313s-.357.923-1.337.48L7.048 9.814l-.028-.013c.795-.74 6.958-6.477 7.227-6.738.417-.402.158-.642-.326-.338L4.818 8.712 1.306 7.488S.753 7.284.7 6.842c-.054-.444.624-.683.624-.683L15.641.342s1.177-.535 1.177.35z"/></symbol><symbol viewBox="0 0 18 14" id="soc-twi" xmlns="http://www.w3.org/2000/svg"><path d="M17.479 1.642a7.337 7.337 0 01-1.952.51c.679-.425 1.273-1.104 1.528-1.867-.68.424-1.358.679-2.207.848A3.338 3.338 0 0012.388.03a3.404 3.404 0 00-3.394 3.394c0 .255 0 .51.085.764A10.002 10.002 0 012.036.624c-.254.51-.424 1.103-.424 1.697 0 1.188.594 2.206 1.527 2.8a2.93 2.93 0 01-1.527-.424c0 1.612 1.188 3.054 2.715 3.309-.254.085-.594.085-.933.085-.255 0-.424 0-.679-.085a3.387 3.387 0 003.224 2.376c-1.188.933-2.63 1.442-4.242 1.442-.255 0-.51 0-.849-.085 1.528.934 3.31 1.528 5.261 1.528 6.279 0 9.673-5.176 9.673-9.673V3.17c.679-.255 1.273-.849 1.697-1.528z"/></symbol><symbol viewBox="0 0 20 12" id="soc-vk" xmlns="http://www.w3.org/2000/svg"><path d="M10.803 11.91C4.426 11.91.788 7.45.636.03h3.195c.105 5.446 2.46 7.753 4.326 8.229V.03h3.008v4.697c1.842-.202 3.777-2.342 4.43-4.697h3.008a9.155 9.155 0 01-1.44 3.396 8.957 8.957 0 01-2.652 2.526 9.244 9.244 0 013.023 2.454 9.462 9.462 0 011.769 3.503h-3.311a5.89 5.89 0 00-1.786-2.865 5.707 5.707 0 00-3.041-1.38v4.245h-.362z"/></symbol><symbol viewBox="0 0 20 14" id="soc-youtb" xmlns="http://www.w3.org/2000/svg"><path fill-rule="evenodd" clip-rule="evenodd" d="M2.586 12.957a2.18 2.18 0 01-.885-.51 2.11 2.11 0 01-.545-.852C.533 9.929.35 2.97 1.548 1.597A2.33 2.33 0 013.117.831C6.335.494 16.277.54 17.418.944c.322.102.615.273.859.501.243.228.431.507.549.816.68 1.723.703 7.983-.093 9.638-.21.43-.564.78-1.003.99-1.2.586-13.552.575-15.144.068zm5.11-3.265l5.766-2.927-5.766-2.95v5.877z"/></symbol><symbol viewBox="0 0 14 14" id="unlike" xmlns="http://www.w3.org/2000/svg"><path d="M13.2 8.28a2 2 0 01-1.533.72h-3.04L9 9.953a2.753 2.753 0 01-2.593 3.714.668.668 0 01-.607-.394L3.9 9H2.333a2 2 0 01-2-2V2.333a2 2 0 012-2h8.487a2 2 0 011.967 1.64l.846 4.667a2 2 0 01-.433 1.64zM3.667 1.667H2.333a.667.667 0 00-.666.666V7a.667.667 0 00.666.667h1.334v-6zm8.666 5.213l-.846-4.667a.667.667 0 00-.667-.546H5v6.526l1.813 4.08a1.406 1.406 0 00.92-1.853l-.353-.953a1.333 1.333 0 011.247-1.8h3.04a.667.667 0 00.513-.24.667.667 0 00.153-.547z"/></symbol><symbol viewBox="0 0 20 22" id="user" xmlns="http://www.w3.org/2000/svg"><path fill-rule="evenodd" clip-rule="evenodd" d="M11 12H9a8 8 0 00-8 8v1h18v-1a8 8 0 00-8-8zm-2-1a9 9 0 00-9 9v1a1 1 0 001 1h18a1 1 0 001-1v-1a9 9 0 00-9-9H9z"/><path fill-rule="evenodd" clip-rule="evenodd" d="M6 7h8a4 4 0 01-8 0zm4 5a5 5 0 01-5-5v-.4a.6.6 0 01.6-.6h8.8a.6.6 0 01.6.6V7a5 5 0 01-5 5z"/><path fill-rule="evenodd" clip-rule="evenodd" d="M11.751 1.383a.716.716 0 01.456.007l.455.171c.254.093.43.298.43.522v.29c.76.615 1.234 1.428 1.304 2.247h.473c.079 0 .131.046.131.105v.74c0 .053-.061.535-.131.535H5.13C5.061 6 5 5.518 5 5.465v-.74c0-.053.061-.099.131-.099h.473c.07-.819.543-1.631 1.305-2.246v-.29c0-.218.166-.423.429-.522l.455-.172a.685.685 0 01.526.02c.014.007.027.053.04.123.023.13.044.345.064.543l.012.124c.013.12.024.225.035.284.005.028.01.046.015.052.228-.066.455-.12.683-.159.014-.056.022-.177.032-.324l.008-.117c.018-.242.044-.526.105-.718C9.356 1.09 9.415 1 9.5 1h1c.103 0 .167.132.21.315.041.181.06.413.074.618l.008.12c.01.15.017.273.031.33.236.04.464.093.683.159a.311.311 0 00.031-.103 4.872 4.872 0 00.055-.353c.027-.188.057-.395.09-.535a.445.445 0 01.056-.158.032.032 0 01.013-.01zm-.353-.936a1.03 1.03 0 01.053-.018h.004a1.714 1.714 0 011.104.025l.452.17c.475.176.997.619 1.071 1.294a4.447 4.447 0 011.13 1.758c.388.123.788.453.788 1.05v.739c0 .089-.014.194-.019.233V5.7a4.252 4.252 0 01-.038.238 2.307 2.307 0 01-.077.307c-.017.05-.055.155-.126.268a1.02 1.02 0 01-.87.487H5.13a1.02 1.02 0 01-.871-.487 1.261 1.261 0 01-.126-.268 2.328 2.328 0 01-.077-.307 4.277 4.277 0 01-.038-.238v-.002A1.96 1.96 0 014 5.465v-.74c0-.43.244-.722.437-.867a1.14 1.14 0 01.352-.18 4.464 4.464 0 011.129-1.754c.074-.666.585-1.11 1.067-1.292l.45-.17c.39-.15.81-.136 1.163-.01l.054-.066C8.815.203 9.102 0 9.5 0h1a1.13 1.13 0 01.898.447z"/></symbol></svg>