<?xml version="1.0" encoding="utf-8"?><svg xmlns="http://www.w3.org/2000/svg" xmlns:xlink="http://www.w3.org/1999/xlink"><symbol viewBox="0 0 13 20" id="soc-ok" xmlns="http://www.w3.org/2000/svg"><path d="M11.808 12.34c.445-.446.508-1.082.127-1.718-.318-.509-.89-.763-1.527-.636a2.15 2.15 0 00-.763.382c-1.972 1.335-4.643 1.272-6.615-.064l-.381-.19c-.7-.319-1.4-.191-1.781.445-.445.636-.382 1.335.19 1.908.128.127.255.19.319.318l.063.063c.89.7 1.972 1.145 3.371 1.336l-.827.827-2.162 2.162c-.19.191-.445.51-.445.954 0 .573.318 1.145.89 1.4.191.127.382.127.573.127.318 0 .7-.127.954-.445l2.48-2.48.064-.064s.063 0 .063.063c.51.572 1.082 1.081 1.59 1.654l.764.763c.318.318.572.445.954.445.572.064 1.208-.318 1.463-.89a1.273 1.273 0 00-.318-1.527c-.636-.636-1.272-1.335-1.972-1.971L7.8 14.12c.572-.063 1.208-.19 1.78-.445.955-.318 1.654-.763 2.227-1.336z"/><path d="M6.338 10.559c2.735 0 4.96-2.163 4.96-4.898A5.003 5.003 0 009.837 2.1C8.882 1.145 7.673.636 6.401.636c-2.735 0-4.897 2.227-4.96 4.898 0 1.336.508 2.544 1.462 3.498.89 1.018 2.1 1.527 3.435 1.527zm-1.4-6.36a1.974 1.974 0 011.4-.573c1.145 0 1.972.89 1.972 1.972 0 1.144-.89 1.971-1.972 1.971-1.145 0-1.972-.89-1.972-1.971 0-.51.19-1.018.573-1.4z"/><path d="M11.808 12.34c.445-.446.508-1.082.127-1.718-.318-.509-.89-.763-1.527-.636a2.15 2.15 0 00-.763.382c-1.972 1.335-4.643 1.272-6.615-.064l-.381-.19c-.7-.319-1.4-.191-1.781.445-.445.636-.382 1.335.19 1.908.128.127.255.19.319.318l.063.063c.89.7 1.972 1.145 3.371 1.336l-.827.827-2.162 2.162c-.19.191-.445.51-.445.954 0 .573.318 1.145.89 1.4.191.127.382.127.573.127.318 0 .7-.127.954-.445l2.48-2.48.064-.064s.063 0 .063.063c.51.572 1.082 1.081 1.59 1.654l.764.763c.318.318.572.445.954.445.572.064 1.208-.318 1.463-.89a1.273 1.273 0 00-.318-1.527c-.636-.636-1.272-1.335-1.972-1.971L7.8 14.12c.572-.063 1.208-.19 1.78-.445.955-.318 1.654-.763 2.227-1.336z"/></symbol><symbol viewBox="0 0 17 20" id="soc-pint" xmlns="http://www.w3.org/2000/svg"><path fill-rule="evenodd" clip-rule="evenodd" d="M3.825 18.511c-.03-.754-.007-1.565.144-2.214.223-.96 1.44-6.11 1.44-6.11s-.367-.736-.367-1.824c0-1.71.99-2.985 2.224-2.985 1.049 0 1.555.787 1.555 1.731 0 .673-.273 1.559-.561 2.491a25.361 25.361 0 00-.457 1.601c-.29 1.224.614 2.221 1.82 2.221 2.185 0 3.864-2.303 3.864-5.628 0-2.942-2.115-5-5.134-5-3.497 0-5.55 2.623-5.55 5.334 0 1.056.407 2.189.915 2.805.1.121.115.228.085.352a199.401 199.401 0 01-.341 1.394c-.054.225-.178.273-.411.164C1.516 12.13.556 9.884.556 8.082c0-3.877 2.817-7.438 8.12-7.438 4.264 0 7.578 3.039 7.578 7.099 0 4.236-2.671 7.644-6.378 7.644-1.245 0-2.416-.647-2.817-1.41l-.766 2.92c-.184.71-.576 1.538-.965 2.253a9.904 9.904 0 01-1.503-.639z"/></symbol><symbol viewBox="0 0 17 15" id="soc-tg" xmlns="http://www.w3.org/2000/svg"><path d="M16.818.693l-2.55 13.313s-.357.923-1.337.48L7.048 9.814l-.028-.013c.795-.74 6.958-6.477 7.227-6.738.417-.402.158-.642-.326-.338L4.818 8.712 1.306 7.488S.753 7.284.7 6.842c-.054-.444.624-.683.624-.683L15.641.342s1.177-.535 1.177.35z"/></symbol><symbol viewBox="0 0 18 14" id="soc-twi" xmlns="http://www.w3.org/2000/svg"><path d="M17.479 1.642a7.337 7.337 0 01-1.952.51c.679-.425 1.273-1.104 1.528-1.867-.68.424-1.358.679-2.207.848A3.338 3.338 0 0012.388.03a3.404 3.404 0 00-3.394 3.394c0 .255 0 .51.085.764A10.002 10.002 0 012.036.624c-.254.51-.424 1.103-.424 1.697 0 1.188.594 2.206 1.527 2.8a2.93 2.93 0 01-1.527-.424c0 1.612 1.188 3.054 2.715 3.309-.254.085-.594.085-.933.085-.255 0-.424 0-.679-.085a3.387 3.387 0 003.224 2.376c-1.188.933-2.63 1.442-4.242 1.442-.255 0-.51 0-.849-.085 1.528.934 3.31 1.528 5.261 1.528 6.279 0 9.673-5.176 9.673-9.673V3.17c.679-.255 1.273-.849 1.697-1.528z"/></symbol><symbol viewBox="0 0 20 12" id="soc-vk" xmlns="http://www.w3.org/2000/svg"><path d="M10.803 11.91C4.426 11.91.788 7.45.636.03h3.195c.105 5.446 2.46 7.753 4.326 8.229V.03h3.008v4.697c1.842-.202 3.777-2.342 4.43-4.697h3.008a9.155 9.155 0 01-1.44 3.396 8.957 8.957 0 01-2.652 2.526 9.244 9.244 0 013.023 2.454 9.462 9.462 0 011.769 3.503h-3.311a5.89 5.89 0 00-1.786-2.865 5.707 5.707 0 00-3.041-1.38v4.245h-.362z"/></symbol><symbol viewBox="0 0 20 14" id="soc-youtb" xmlns="http://www.w3.org/2000/svg"><path fill-rule="evenodd" clip-rule="evenodd" d="M2.586 12.957a2.18 2.18 0 01-.885-.51 2.11 2.11 0 01-.545-.852C.533 9.929.35 2.97 1.548 1.597A2.33 2.33 0 013.117.831C6.335.494 16.277.54 17.418.944c.322.102.615.273.859.501.243.228.431.507.549.816.68 1.723.703 7.983-.093 9.638-.21.43-.564.78-1.003.99-1.2.586-13.552.575-15.144.068zm5.11-3.265l5.766-2.927-5.766-2.95v5.877z"/></symbol></svg>