<svg width="67" height="51" viewBox="0 0 67 51" fill="none" xmlns="http://www.w3.org/2000/svg"><path d="M66.138 39.66h-2.093V28.084a6.77 6.77 0 0 0-1.18-3.809L57.62 16.59a6.917 6.917 0 0 0-5.711-3h-8.132c-.957 0-1.723.768-1.723 1.705V39.66H28.735a6.978 6.978 0 0 1 2.386 4.294h14.042c.5-3.383 3.445-5.998 7.003-5.998 3.558 0 6.495 2.615 6.995 5.998h6.977a.86.86 0 0 0 .862-.852v-2.59a.86.86 0 0 0-.862-.852zm-8.58-13.852H46.826a.854.854 0 0 1-.861-.852v-5.887a.86.86 0 0 1 .861-.852h6.538c.285 0 .543.136.707.358l4.195 5.895c.396.563-.009 1.338-.706 1.338zM52.167 39.66c-2.963 0-5.358 2.377-5.358 5.307 0 2.922 2.395 5.3 5.358 5.3 2.955 0 5.358-2.378 5.358-5.3 0-2.93-2.403-5.307-5.358-5.307zm0 7.957c-1.482 0-2.68-1.193-2.68-2.65 0-1.465 1.198-2.65 2.68-2.65 1.482 0 2.68 1.185 2.68 2.65 0 1.457-1.198 2.65-2.68 2.65zM7.492 39.661a.86.86 0 0 0-.862.852v2.59a.86.86 0 0 0 .862.852h9.63A7.008 7.008 0 0 1 19.5 39.66H7.492zm16.626 0c-2.955 0-5.359 2.377-5.359 5.307 0 2.922 2.404 5.3 5.359 5.3 2.963 0 5.358-2.378 5.358-5.3 0-2.93-2.395-5.307-5.358-5.307zm0 7.957c-1.482 0-2.68-1.193-2.68-2.65 0-1.465 1.198-2.65 2.68-2.65 1.481 0 2.679 1.185 2.679 2.65 0 1.457-1.198 2.65-2.68 2.65zm12.887-39.31H27.02c.49 1.44.75 2.982.75 4.576 0 8.042-6.617 14.585-14.749 14.585a15.03 15.03 0 0 1-4.272-.622v9.414a.86.86 0 0 0 .861.852h29.117a.86.86 0 0 0 .861-.852V10.865c0-1.415-1.154-2.556-2.584-2.556zM13.025 0C5.83 0 0 5.767 0 12.88c0 7.115 5.831 12.882 13.024 12.882 7.194 0 13.025-5.767 13.025-12.881S20.218 0 13.024 0zm0 22.83c-5.557 0-10.061-4.454-10.061-9.95 0-5.494 4.504-9.949 10.06-9.949 5.557 0 10.06 4.455 10.06 9.95 0 5.495-4.503 9.95-10.06 9.95zm3.842-7.848c-.111 0-.225-.014-.338-.044l-4.197-1.119a1.28 1.28 0 0 1-.956-1.234v-6.39c0-.705.579-1.277 1.292-1.277.714 0 1.292.572 1.292 1.278v5.41l3.242.864c.69.184 1.097.886.911 1.567a1.29 1.29 0 0 1-1.246.945z" fill="#13B3EB"/></svg>