<svg width="67" height="51" viewBox="0 0 67 51" fill="none" xmlns="http://www.w3.org/2000/svg">
<path d="M66.1384 39.6606H64.0452V28.0827C64.0452 26.728 63.6318 25.3989 62.8651 24.2744L57.6189 16.5898C56.3353 14.7155 54.1991 13.5909 51.9076 13.5909H43.7757C42.8195 13.5909 42.0528 14.3577 42.0528 15.2949V39.6608H28.735C30.0013 40.7426 30.8713 42.2506 31.1211 43.9546H45.1625C45.6621 40.5724 48.6083 37.9568 52.166 37.9568C55.7238 37.9568 58.6613 40.5724 59.161 43.9546H66.1385C66.6123 43.9546 67 43.5712 67 43.1026V40.5127C66.9999 40.0442 66.6123 39.6606 66.1384 39.6606ZM57.5586 25.8079H46.825C46.3513 25.8079 45.9637 25.4329 45.9637 24.9559V19.0689C45.9637 18.6003 46.3513 18.2169 46.825 18.2169H53.3634C53.6478 18.2169 53.9061 18.3532 54.0698 18.5748L58.2649 24.4703C58.6611 25.0327 58.2563 25.8079 57.5586 25.8079ZM52.166 39.6606C49.2027 39.6606 46.8079 42.0375 46.8079 44.9682C46.8079 47.8904 49.2027 50.2673 52.166 50.2673C55.1207 50.2673 57.5241 47.8904 57.5241 44.9682C57.5241 42.0377 55.1207 39.6606 52.166 39.6606ZM52.166 47.618C50.6842 47.618 49.4869 46.4253 49.4869 44.9685C49.4869 43.503 50.6842 42.3188 52.166 42.3188C53.6475 42.3188 54.8451 43.503 54.8451 44.9685C54.8451 46.4253 53.6476 47.618 52.166 47.618ZM7.49195 39.6606C7.01813 39.6606 6.63047 40.0442 6.63047 40.5126V43.1026C6.63047 43.5712 7.01813 43.9546 7.49195 43.9546H17.1227C17.3726 42.2506 18.2426 40.7426 19.5004 39.6608L7.49195 39.6606ZM24.1176 39.6606C21.1629 39.6606 18.7594 42.0375 18.7594 44.9682C18.7594 47.8904 21.1629 50.2673 24.1176 50.2673C27.0809 50.2673 29.4757 47.8904 29.4757 44.9682C29.4758 42.0377 27.081 39.6606 24.1176 39.6606ZM24.1176 47.618C22.6359 47.618 21.4385 46.4253 21.4385 44.9685C21.4385 43.503 22.6359 42.3188 24.1176 42.3188C25.5992 42.3188 26.7967 43.503 26.7967 44.9685C26.7967 46.4253 25.5992 47.618 24.1176 47.618ZM37.0047 8.3087H27.0207C27.5117 9.74851 27.7701 11.2905 27.7701 12.8837C27.7701 20.9262 21.1543 27.4692 13.0224 27.4692C11.5406 27.4692 10.1021 27.2478 8.74962 26.8473V36.2615C8.74962 36.7301 9.13727 37.1135 9.61109 37.1135H38.7276C39.2015 37.1135 39.5891 36.7301 39.5891 36.2615V10.8646C39.5889 9.45033 38.4346 8.3087 37.0047 8.3087ZM13.0244 0C5.83118 0 0 5.76691 0 12.8809C0 19.995 5.83118 25.762 13.0244 25.762C20.2175 25.762 26.0488 19.995 26.0488 12.8809C26.0488 5.76691 20.2175 0 13.0244 0ZM13.0244 22.8307C7.46819 22.8307 2.96387 18.3761 2.96387 12.8809C2.96387 7.38579 7.46819 2.93115 13.0244 2.93115C18.5806 2.93115 23.0849 7.3859 23.0849 12.8809C23.0849 18.3761 18.5806 22.8307 13.0244 22.8307ZM16.8667 14.9823C16.7557 14.9823 16.642 14.9681 16.5293 14.9382L12.3316 13.8192C11.768 13.6686 11.376 13.1629 11.376 12.5854V6.19566C11.376 5.49016 11.9548 4.91773 12.6681 4.91773C13.3815 4.91773 13.9603 5.49016 13.9603 6.19566V11.6061L17.2023 12.4705C17.8914 12.6543 18.2993 13.3558 18.1134 14.0371C17.9578 14.607 17.4363 14.9823 16.8667 14.9823Z" fill="#13B3EB"/>
</svg>
