<svg width="56" height="54" viewBox="0 0 56 54" fill="none" xmlns="http://www.w3.org/2000/svg"><path d="M53.035 8.896L47 1.462A2.858 2.858 0 0 0 44.7.39l-30.085.848a2.859 2.859 0 0 0-2.234 1.2L6.775 10.2c-.586.81-1.042 2.305-1.01 3.422l.157 5.566a3.786 3.786 0 0 1 1.903-1.67c.027-.638.195-1.26.496-1.83a4.057 4.057 0 0 1 2.425-2.02 3.997 3.997 0 0 1 1.061-.179c1.389-.039 2.667.66 3.436 1.794a3.8 3.8 0 0 1 .662-.08 3.665 3.665 0 0 1 1.901.479l3.2-.964a4.714 4.714 0 0 1 1.23-.2c2.23-.062 4.224 1.452 4.85 3.684l7.03 25.09a5.25 5.25 0 0 1-.407 3.881c-.63 1.194-1.67 2.059-2.927 2.438l-2.799.843 23.685-.668c2.001-.056 3.575-1.79 3.517-3.871l-.952-33.761c-.029-1.015-.568-2.481-1.198-3.258zm-44.36 1.186l1.857-2.57 13.152-.371 1.236-2.257-12.75.36 1.371-1.899a1.422 1.422 0 0 1 1.117-.6l30.086-.848c.444-.012.862.183 1.149.536l1.475 1.818-12.976.366.787 2.2 13.953-.394 1.998 2.462-42.455 1.197zm.85 9.267l-.807.243c-.86.26-1.353 1.194-1.102 2.089l.01.033c.25.894 1.15 1.41 2.01 1.15l6.842-2.06c.86-.259 1.353-1.194 1.102-2.088l-.009-.033c-.25-.895-1.15-1.41-2.01-1.152l-.807.243a.811.811 0 0 1-1.008-.577l-.008-.027c-.292-1.043-1.34-1.643-2.342-1.342l-.042.013c-1 .301-1.575 1.39-1.284 2.433l.008.027c.126.45-.122.918-.553 1.048zm2.156-2.423a.816.816 0 0 1 1.015.581c.127.452-.122.924-.556 1.055a.816.816 0 0 1-1.016-.582c-.126-.451.123-.924.557-1.054zm-.261 28.47c1.108 3.954-1.034-3.69 0 0zm-1.376-4.91c1.12 3.994-1.049-3.743 0 0zm21.984 3.435l-7.03-25.091c-.422-1.506-1.937-2.374-3.384-1.938l-3.195.962c.081.161.149.332.2.513.428 1.528-.4 3.096-1.835 3.528l-6.743 2.03c-1.376.415-2.89-.286-3.395-1.683a3.03 3.03 0 0 1-.172-.791l-3.198.963C1.83 22.85 1 24.424 1.421 25.93l7.03 25.092c.422 1.506 1.937 2.374 3.384 1.938l18.338-5.523c1.447-.435 2.277-2.01 1.855-3.516zm-20.957 6.312L4.957 28.414l18.338-5.522L29.41 44.71l-18.34 5.523z" fill="#13B3EB"/><path d="M21.711 32.705l-1.091-.578a.635.635 0 0 0-.481-.05.637.637 0 0 0-.39.287l-3.137 5.09-2.36-1.257a.635.635 0 0 0-.482-.05.638.638 0 0 0-.39.287l-.65 1.054a.56.56 0 0 0-.07.457c.044.16.14.28.29.36l2.905 1.54 1.092.578c.15.08.31.096.48.05a.635.635 0 0 0 .39-.287l.651-1.054 3.463-5.61a.56.56 0 0 0 .07-.457.556.556 0 0 0-.29-.36z" fill="#13B3EB"/></svg>