<svg width="56" height="54" viewBox="0 0 56 54" fill="none" xmlns="http://www.w3.org/2000/svg">
<path d="M53.0346 8.89586L46.9995 1.46166C46.4295 0.759391 45.5836 0.364768 44.7013 0.389637L14.6159 1.23763C13.7337 1.26249 12.9114 1.70413 12.3818 2.43731L6.77505 10.1997C6.18935 11.0107 5.73349 12.5047 5.76498 13.6219L5.92185 19.1876C6.36286 18.4178 7.02262 17.8307 7.82479 17.5172C7.85219 16.8799 8.02012 16.2579 8.32125 15.6872C8.84291 14.6986 9.70424 13.9818 10.7461 13.6681C11.1196 13.5552 11.4629 13.4991 11.8075 13.4894C13.1956 13.4503 14.4742 14.1495 15.2434 15.283C15.4616 15.237 15.6823 15.2102 15.9045 15.2039C16.5861 15.1847 17.2357 15.3615 17.8063 15.6817L21.006 14.7183C21.407 14.5972 21.8206 14.5303 22.2367 14.5186C24.4667 14.4558 26.4602 15.9702 27.0853 18.2019L34.1164 43.2923C34.4832 44.6013 34.338 45.9794 33.7088 47.173C33.079 48.3666 32.0391 49.232 30.7817 49.6108L27.9831 50.4535L51.6683 49.7859C53.669 49.7295 55.2433 47.9964 55.1846 45.9148L54.2329 12.1536C54.2043 11.1385 53.6651 9.67253 53.0346 8.89586ZM8.67542 10.0818L10.5322 7.5112L23.6843 7.1405L24.9196 4.88371L12.1705 5.24306L13.5413 3.3452C13.8076 2.97649 14.2148 2.75781 14.6584 2.74531L44.7439 1.89732C45.1875 1.88482 45.6064 2.0802 45.8929 2.43333L47.3684 4.25097L34.3923 4.61671L35.1794 6.8165L49.132 6.42323L51.1305 8.88521L8.67542 10.0818ZM9.52508 19.3493L8.71822 19.5923C7.85887 19.8511 7.3654 20.7862 7.61605 21.6809L7.62525 21.7136C7.87599 22.6083 8.77588 23.1237 9.63532 22.8649L16.478 20.8042C17.3374 20.5454 17.8308 19.6103 17.5802 18.7155L17.571 18.6827C17.3202 17.7881 16.4203 17.2726 15.561 17.5314L14.7541 17.7744C14.323 17.9042 13.8715 17.6456 13.7457 17.1968L13.738 17.1695C13.4459 16.1271 12.3976 15.5266 11.3964 15.8281L11.3545 15.8407C10.3533 16.1423 9.77851 17.2316 10.0705 18.2739L10.0782 18.3013C10.2038 18.7503 9.95627 19.2194 9.52508 19.3493ZM11.6811 16.9257C12.1151 16.7949 12.5697 17.0554 12.6962 17.5071C12.8228 17.959 12.5736 18.4313 12.1395 18.562C11.7054 18.6926 11.251 18.4323 11.1244 17.9805C10.9978 17.5286 11.247 17.0563 11.6811 16.9257ZM11.4198 45.3956C12.5283 49.3503 10.3865 41.7068 11.4198 45.3956ZM10.0443 40.4865C11.1636 44.4802 8.99542 36.7429 10.0443 40.4865ZM32.0284 43.9211L24.9981 18.8299C24.5761 17.3237 23.061 16.4559 21.6142 16.8916L18.4192 17.8538C18.5 18.0152 18.568 18.1862 18.6188 18.3672C19.0468 19.8949 18.2195 21.4628 16.7835 21.8953L10.0414 23.9257C8.6651 24.3402 7.1509 23.6393 6.64559 22.2423C6.5504 21.9792 6.49546 21.7135 6.47448 21.451L3.27624 22.4142C1.82943 22.8499 0.99871 24.4242 1.42072 25.9303L8.45106 51.0215C8.87316 52.5279 10.3881 53.3956 11.835 52.9599L30.1731 47.4373C31.6198 47.0016 32.4505 45.4273 32.0284 43.9211ZM11.0707 50.2326L4.9574 28.4143L23.2954 22.8917L29.4088 44.71L11.0707 50.2326Z" fill="#13B3EB"/>
<path d="M21.711 32.7054L20.6195 32.1267C20.4698 32.0473 20.3095 32.0309 20.1387 32.0775C19.9679 32.1241 19.8377 32.2197 19.7486 32.3643L16.6123 37.4537L14.2513 36.1967C14.1014 36.1173 13.9412 36.1009 13.7704 36.1475C13.5996 36.1941 13.4696 36.2896 13.3803 36.4343L12.7298 37.4882C12.6405 37.6328 12.6175 37.7852 12.6607 37.9453C12.7039 38.1052 12.8004 38.2251 12.9503 38.3045L15.8554 39.8447L16.9469 40.4233C17.0966 40.5028 17.2569 40.5192 17.4277 40.4726C17.5985 40.426 17.7285 40.3303 17.8178 40.1857L18.4684 39.1319L21.9314 33.5217C22.0206 33.3771 22.0437 33.2247 22.0005 33.0646C21.9574 32.9046 21.8607 32.7848 21.711 32.7054Z" fill="#13B3EB"/>
</svg>
