<svg width="70" height="70" viewBox="0 0 70 70" fill="none" xmlns="http://www.w3.org/2000/svg">
<path d="M58.0346 16.8959L51.9995 9.46166C51.4295 8.75939 50.5836 8.36477 49.7013 8.38964L19.6159 9.23763C18.7337 9.26249 17.9114 9.70413 17.3818 10.4373L11.775 18.1997C11.1893 19.0107 10.7335 20.5047 10.765 21.6219L10.9218 27.1876C11.3629 26.4178 12.0226 25.8307 12.8248 25.5172C12.8522 24.8799 13.0201 24.2579 13.3212 23.6872C13.8429 22.6986 14.7042 21.9818 15.7461 21.6681C16.1196 21.5552 16.4629 21.4991 16.8075 21.4894C18.1956 21.4503 19.4742 22.1495 20.2434 23.283C20.4616 23.237 20.6823 23.2102 20.9045 23.2039C21.5861 23.1847 22.2357 23.3615 22.8063 23.6817L26.006 22.7183C26.407 22.5972 26.8206 22.5303 27.2366 22.5186C29.4667 22.4558 31.4602 23.9702 32.0853 26.2019L39.1164 51.2923C39.4832 52.6013 39.338 53.9794 38.7088 55.173C38.079 56.3666 37.0391 57.232 35.7817 57.6108L32.9831 58.4535L56.6683 57.7859C58.669 57.7295 60.2432 55.9964 60.1846 53.9148L59.2329 20.1536C59.2043 19.1385 58.6651 17.6725 58.0346 16.8959ZM13.6754 18.0818L15.5322 15.5112L28.6843 15.1405L29.9196 12.8837L17.1705 13.2431L18.5413 11.3452C18.8076 10.9765 19.2148 10.7578 19.6584 10.7453L49.7439 9.89732C50.1875 9.88482 50.6063 10.0802 50.8929 10.4333L52.3684 12.251L39.3923 12.6167L40.1794 14.8165L54.1319 14.4232L56.1305 16.8852L13.6754 18.0818ZM14.5251 27.3493L13.7182 27.5923C12.8589 27.8511 12.3654 28.7862 12.616 29.6809L12.6252 29.7136C12.876 30.6083 13.7759 31.1237 14.6353 30.8649L21.478 28.8042C22.3374 28.5454 22.8308 27.6103 22.5802 26.7155L22.571 26.6827C22.3202 25.7881 21.4203 25.2726 20.561 25.5314L19.7541 25.7744C19.323 25.9042 18.8715 25.6456 18.7457 25.1968L18.738 25.1695C18.4459 24.1271 17.3976 23.5266 16.3964 23.8281L16.3545 23.8407C15.3533 24.1423 14.7785 25.2316 15.0705 26.2739L15.0782 26.3013C15.2038 26.7503 14.9563 27.2194 14.5251 27.3493ZM16.6811 24.9257C17.1151 24.7949 17.5696 25.0554 17.6962 25.5071C17.8228 25.959 17.5736 26.4313 17.1395 26.562C16.7054 26.6926 16.251 26.4323 16.1244 25.9805C15.9978 25.5286 16.247 25.0563 16.6811 24.9257ZM16.4198 53.3956C15.3865 49.7068 17.5283 57.3503 16.4198 53.3956V53.3956ZM15.0443 48.4865C13.9954 44.7429 16.1636 52.4802 15.0443 48.4865V48.4865ZM37.0284 51.9211L29.9981 26.8299C29.5761 25.3237 28.061 24.4559 26.6142 24.8916L23.4192 25.8538C23.5 26.0152 23.568 26.1862 23.6188 26.3672C24.0468 27.8949 23.2195 29.4628 21.7835 29.8953L15.0414 31.9257C13.6651 32.3402 12.1509 31.6393 11.6456 30.2423C11.5504 29.9792 11.4955 29.7135 11.4745 29.451L8.27624 30.4142C6.82942 30.8499 5.99871 32.4242 6.42071 33.9303L13.4511 59.0215C13.8732 60.5279 15.3881 61.3957 16.835 60.9599L35.1731 55.4373C36.6198 55.0016 37.4505 53.4273 37.0284 51.9211ZM16.0707 58.2326L9.95739 36.4143L28.2954 30.8917L34.4088 52.71L16.0707 58.2326Z" fill="#13B3EB"/>
<path d="M26.7109 40.7054L25.6195 40.1267C25.4698 40.0473 25.3095 40.0309 25.1387 40.0775C24.9679 40.1241 24.8377 40.2197 24.7486 40.3643L21.6123 45.4537L19.2513 44.1967C19.1014 44.1173 18.9412 44.1009 18.7704 44.1475C18.5996 44.1941 18.4696 44.2896 18.3803 44.4343L17.7298 45.4882C17.6405 45.6328 17.6175 45.7852 17.6607 45.9453C17.7039 46.1052 17.8004 46.2251 17.9503 46.3045L20.8554 47.8447L21.9469 48.4233C22.0966 48.5028 22.2569 48.5192 22.4277 48.4726C22.5985 48.426 22.7285 48.3303 22.8178 48.1857L23.4684 47.1319L26.9314 41.5217C27.0206 41.3771 27.0437 41.2247 27.0005 41.0646C26.9574 40.9046 26.8607 40.7848 26.7109 40.7054Z" fill="#13B3EB"/>
</svg>
