<svg width="56" height="54" viewBox="0 0 56 54" fill="none" xmlns="http://www.w3.org/2000/svg">
<path d="M0 28.9905L23.4335 52.3982L29.157 46.7081L5.69832 23.3256L0 28.9905Z" fill="#13B3EB"/>
<path d="M27.4104 40.8689C27.4104 32.6747 34.0993 26.0075 42.3202 26.0075C44.5585 26.0075 46.6748 26.5155 48.5813 27.3998L52.5706 23.4337V10.2999L42.213 0H29.1623L7.01761 22.0153L27.4934 42.4247C27.4393 41.9129 27.4104 41.3946 27.4104 40.8689ZM39.5386 8.35954C41.5607 8.35954 43.2054 9.99987 43.2054 12.0155C43.2054 14.031 41.5607 15.6704 39.5386 15.6704C37.5164 15.6704 35.8717 14.031 35.8717 12.0155C35.8717 9.99987 37.5164 8.35954 39.5386 8.35954Z" fill="#13B3EB"/>
<ellipse cx="43.1678" cy="41.0246" rx="12.1119" ry="11.9892" fill="#13B3EB"/>
<path d="M47.8175 40.4979L47.4214 40.1174C47.297 39.9977 47.1307 39.9315 46.9537 39.9315C46.7765 39.9315 46.5952 39.9977 46.4708 40.1174L43.9094 42.5622V34.7947C43.9094 34.4444 43.6431 34.1592 43.2784 34.1592H42.7178C42.3532 34.1592 42.0196 34.4444 42.0196 34.7947V42.5899L39.4633 40.1174C39.3387 39.9977 39.182 39.9315 39.0048 39.9315C38.8278 39.9315 38.6661 39.9977 38.5416 40.1174L38.1476 40.4979C37.8898 40.7455 37.8909 41.1484 38.1487 41.3961L42.514 45.5872C42.6383 45.7066 42.8051 45.7727 42.9835 45.7727H42.9854C43.1625 45.7727 43.3289 45.7066 43.4531 45.5872L47.8175 41.3962C48.0756 41.1486 48.0756 40.7455 47.8175 40.4979Z" fill="#13B3EB"/>
</svg>
