<svg width="56" height="54" viewBox="0 0 56 54" fill="none" xmlns="http://www.w3.org/2000/svg"><path d="M0 28.99l23.433 23.408 5.724-5.69L5.698 23.326 0 28.99zm27.41 11.879c0-8.194 6.69-14.861 14.91-14.861 2.239 0 4.355.508 6.261 1.392l3.99-3.966V10.3L42.213 0h-13.05L7.017 22.015l20.475 20.41a14.785 14.785 0 0 1-.083-1.556zm12.13-32.51a3.666 3.666 0 0 1 3.666 3.656 3.665 3.665 0 0 1-3.666 3.655 3.665 3.665 0 0 1-3.667-3.655A3.666 3.666 0 0 1 39.54 8.36z" fill="#13B3EB"/><ellipse cx="43.168" cy="41.025" rx="12.112" ry="11.989" fill="#13B3EB"/><path d="M47.818 40.498l-.397-.38a.67.67 0 0 0-.467-.187.707.707 0 0 0-.483.186l-2.562 2.445v-7.767a.624.624 0 0 0-.63-.636h-.561c-.365 0-.698.285-.698.636v7.795l-2.557-2.473a.66.66 0 0 0-.922 0l-.393.38a.618.618 0 0 0 0 .9l4.366 4.19a.67.67 0 0 0 .47.186h.001a.671.671 0 0 0 .468-.186l4.364-4.19a.618.618 0 0 0 0-.9z" fill="#13B3EB"/></svg>