<svg width="80" height="108" viewBox="0 0 80 108" fill="none" xmlns="http://www.w3.org/2000/svg">
<g opacity="0.2">
<path d="M40 31.8516C28.125 31.8516 18.4615 41.7887 18.4615 54C18.4615 66.2113 28.125 76.1485 40 76.1485C51.875 76.1485 61.5385 66.2113 61.5385 54C61.5385 41.7887 51.875 31.8516 40 31.8516ZM54.4832 49.909L39.0985 65.7293C38.4976 66.3473 37.7099 66.6563 36.9231 66.6563C36.1362 66.6563 35.3486 66.3473 34.7476 65.7293L25.5168 56.2371C24.3149 55.0012 24.3149 52.9989 25.5168 51.7629C26.7187 50.527 28.6659 50.527 29.8678 51.7629L36.9231 59.018L50.1322 45.4348C51.3341 44.1989 53.2812 44.1989 54.4832 45.4348C55.6851 46.6708 55.6851 48.673 54.4832 49.909Z" fill="black"/>
<path d="M76.9231 12.8672H69.7147C59.3117 12.8672 49.5312 8.49106 42.1755 0.926971C40.9736 -0.30899 39.0264 -0.30899 37.8245 0.926971C30.4687 8.49106 20.6883 12.8672 10.2853 12.8672H3.07692C1.3758 12.8672 0 14.282 0 16.0312V54C0 82.4329 20.1202 95.6585 33.4343 104.27C34.6514 105.055 38.7043 108 40 108C41.2925 108 45.238 105.131 46.4511 104.347C59.8109 95.7302 80 82.4914 80 54V16.0312C80 14.282 78.6234 12.8672 76.9231 12.8672ZM40 82.4766C24.7292 82.4766 12.3077 69.7025 12.3077 54C12.3077 38.2967 24.7292 25.5234 40 25.5234C55.27 25.5234 67.6923 38.2967 67.6923 54C67.6923 69.7025 55.27 82.4766 40 82.4766Z" fill="black"/>
</g>
</svg>
