<svg width="80" height="108" viewBox="0 0 80 108" fill="none" xmlns="http://www.w3.org/2000/svg"><g opacity=".2" fill="#000"><path d="M40 31.852c-11.875 0-21.538 9.937-21.538 22.148S28.125 76.148 40 76.148 61.538 66.212 61.538 54 51.876 31.852 40 31.852zm14.483 18.057L39.1 65.729a3.028 3.028 0 0 1-2.176.927 3.025 3.025 0 0 1-2.175-.927l-9.231-9.492a3.227 3.227 0 0 1 0-4.474 3.016 3.016 0 0 1 4.35 0l7.056 7.255 13.21-13.583a3.016 3.016 0 0 1 4.35 0 3.227 3.227 0 0 1 0 4.474z"/><path d="M76.923 12.867h-7.208c-10.403 0-20.184-4.376-27.54-11.94a3.016 3.016 0 0 0-4.35 0c-7.356 7.564-17.137 11.94-27.54 11.94H3.077C1.376 12.867 0 14.282 0 16.031V54c0 28.433 20.12 41.659 33.434 50.27 1.217.785 5.27 3.73 6.566 3.73 1.292 0 5.238-2.869 6.451-3.653C59.811 95.73 80 82.491 80 54V16.031c0-1.749-1.377-3.164-3.077-3.164zM40 82.477c-15.27 0-27.692-12.775-27.692-28.477 0-15.703 12.421-28.477 27.692-28.477 15.27 0 27.692 12.774 27.692 28.477 0 15.703-12.422 28.477-27.692 28.477z"/></g></svg>