<svg width="114" height="88" viewBox="0 0 114 88" fill="none" xmlns="http://www.w3.org/2000/svg">
<g opacity="0.2">
<path d="M109.772 55.7784C107.601 55.6158 103.095 58.0309 101.845 58.6346C97.4326 60.8175 91.3455 64.2311 87.3346 66.948C87.0515 67.1338 86.674 67.3892 86.3909 67.5518C84.5978 68.6896 82.6867 69.4559 80.5633 69.8971C68.9083 72.3354 51.9211 72.6141 51.9211 72.6141L50.9302 72.6605C50.1752 72.707 49.5146 72.1961 49.4202 71.4762C49.3022 70.6867 49.8921 69.9668 50.7178 69.8971L75.9862 67.5285C78.7703 67.2267 80.988 64.6723 80.6813 61.7928C80.3746 58.9133 77.685 56.8001 74.901 57.102L52.4401 56.8233C50.9066 56.8001 48.4529 56.4286 46.9901 56.0106C32.5038 51.8539 24.3405 55.7551 19.9993 57.5664C19.032 55.9874 17.1917 54.9656 15.1391 55.1049L5.44228 55.7319C2.21 55.9409 -0.220108 58.5882 0.0158246 61.6535L1.57298 82.8316C1.78532 85.8969 4.59293 88.1958 7.80161 87.9868L17.4985 87.3598C19.5511 87.2205 21.2026 85.9897 21.934 84.2946L64.4963 86.1059C69.2386 86.5935 73.6741 86.0362 77.8501 83.8766L79.077 83.2496L111.235 64.7187C112.815 63.8131 113.948 62.234 113.995 60.4691C114.089 58.356 112.839 55.9874 109.772 55.7784ZM11.3642 82.9709C9.54752 82.9709 8.06114 81.5776 8.06114 79.836C8.06114 78.0944 9.54752 76.7011 11.3642 76.7011C13.1809 76.7011 14.6673 78.0944 14.6673 79.836C14.6673 81.5776 13.1809 82.9709 11.3642 82.9709Z" fill="black"/>
<path d="M86.8628 62.3733C90.1422 60.1208 96.8663 56.5215 100.665 54.6405C101.821 54.0832 103.024 53.5027 104.322 53.0615C102.67 51.97 100.901 51.9236 99.0605 52.6202C95.4507 54.0368 88.7974 57.1949 85.4 59.0062C85.3764 59.0526 85.3528 59.0991 85.3528 59.1455C85.5887 59.8422 85.7775 60.562 85.8483 61.3051C85.919 61.9089 85.8954 62.4894 85.8719 63.07C86.1786 62.8378 86.5089 62.6055 86.8628 62.3733Z" fill="black"/>
<path d="M95.5451 50.5071C93.8936 49.4621 92.1477 49.4157 90.3546 50.1123C88.1132 50.9715 83.135 52.5738 80.9172 53.7349C81.861 54.3154 82.7103 55.0353 83.4417 55.8713C83.5833 55.7784 83.7248 55.6623 83.89 55.5694L85.5179 54.687C87.8773 53.4098 92.9498 51.6449 95.5451 50.5071Z" fill="black"/>
<path d="M64.3548 50.5303C78.5343 50.5303 90.0243 39.2213 90.0243 25.2651C90.0243 11.3089 78.5343 0 64.3548 0C50.1752 0 38.6853 11.3089 38.6853 25.2651C38.6853 39.2213 50.1752 50.5303 64.3548 50.5303ZM55.3893 35.2504C55.6252 34.4145 55.8612 33.5785 56.1207 32.7657C56.4274 31.8136 56.687 31.6975 57.5835 32.1387C59.1171 32.9283 60.7214 33.3463 62.4201 33.5553C63.5054 33.6946 64.5907 33.5785 65.5816 33.1373C67.4691 32.3245 67.7758 30.1649 66.1715 28.8877C65.6288 28.4465 65.0154 28.1214 64.3784 27.8427C62.7268 27.1229 61.0045 26.5888 59.4238 25.6599C56.8993 24.1737 55.2714 22.107 55.4601 19.0882C55.6724 15.6514 57.6543 13.515 60.8394 12.3771C62.1606 11.9127 62.1606 11.9127 62.1842 10.5658C62.1842 10.1014 62.1842 9.63698 62.1842 9.19577C62.2078 8.17401 62.3965 7.98824 63.411 7.96502C63.7413 7.96502 64.0481 7.96502 64.3784 7.96502C66.5725 7.96502 66.5725 7.96502 66.5961 10.1246C66.5961 11.6573 66.5961 11.6573 68.1533 11.9127C69.333 12.0985 70.489 12.4468 71.5743 12.9112C72.1878 13.1667 72.4001 13.5847 72.2349 14.2116C71.9518 15.1405 71.6923 16.0926 71.3856 17.0215C71.1025 17.9039 70.8193 18.02 69.9464 17.6252C68.2241 16.8125 66.4074 16.4641 64.5199 16.557C64.0245 16.5802 63.529 16.6499 63.0807 16.8589C61.4292 17.5556 61.1697 19.3436 62.5617 20.4583C63.2695 21.0156 64.0716 21.4104 64.921 21.7587C66.3838 22.3624 67.8466 22.9198 69.215 23.6628C73.6269 26.0547 74.8066 31.5118 71.6923 35.204C70.5598 36.5509 69.1206 37.4565 67.4219 37.8977C66.6905 38.1067 66.3366 38.4783 66.3838 39.2446C66.4074 39.9877 66.3838 40.7308 66.3838 41.4739C66.3838 42.1473 66.0299 42.4956 65.3693 42.5188C64.5435 42.542 63.7413 42.542 62.9156 42.5188C62.2078 42.4956 61.8539 42.1008 61.8539 41.4274C61.8539 40.8933 61.8539 40.336 61.8303 39.8019C61.8067 38.5944 61.7831 38.5479 60.6034 38.3621C59.0935 38.1299 57.6307 37.7816 56.2387 37.1314C55.177 36.6437 55.0826 36.3651 55.3893 35.2504Z" fill="black"/>
</g>
</svg>
