<svg width="114" height="88" viewBox="0 0 114 88" fill="none" xmlns="http://www.w3.org/2000/svg"><g opacity=".2" fill="#000"><path d="M109.772 55.778c-2.171-.162-6.677 2.253-7.927 2.857-4.412 2.183-10.5 5.596-14.51 8.313-.283.186-.661.441-.944.604a17.237 17.237 0 0 1-5.828 2.345c-11.655 2.438-28.642 2.717-28.642 2.717l-.99.046c-.756.047-1.416-.464-1.51-1.184-.119-.79.471-1.51 1.297-1.579l25.268-2.369c2.784-.301 5.002-2.856 4.695-5.735-.306-2.88-2.996-4.993-5.78-4.691l-22.46-.279c-1.534-.023-3.988-.394-5.45-.812-14.487-4.157-22.65-.256-26.992 1.555-.967-1.579-2.807-2.6-4.86-2.461l-9.697.627C2.21 55.94-.22 58.588.016 61.654l1.557 21.178c.212 3.065 3.02 5.364 6.229 5.155l9.697-.627c2.052-.14 3.704-1.37 4.435-3.065l42.562 1.81c4.743.489 9.178-.069 13.354-2.228l1.227-.627 32.158-18.531c1.58-.906 2.713-2.485 2.76-4.25.094-2.113-1.156-4.482-4.223-4.69zM11.364 82.971c-1.816 0-3.303-1.393-3.303-3.135 0-1.742 1.487-3.135 3.303-3.135 1.817 0 3.303 1.393 3.303 3.135 0 1.742-1.486 3.135-3.303 3.135z"/><path d="M86.863 62.373c3.28-2.252 10.003-5.851 13.802-7.732 1.156-.558 2.359-1.138 3.657-1.58-1.652-1.091-3.421-1.137-5.261-.44-3.61 1.416-10.264 4.574-13.661 6.385a.326.326 0 0 0-.047.14c.236.696.425 1.416.495 2.16.071.603.047 1.183.024 1.764.307-.232.637-.465.99-.697zm8.682-11.866c-1.651-1.045-3.397-1.091-5.19-.395-2.242.86-7.22 2.462-9.438 3.623.944.58 1.793 1.3 2.525 2.136.141-.093.283-.209.448-.302l1.628-.882c2.36-1.277 7.432-3.042 10.027-4.18zm-31.19.023c14.18 0 25.67-11.309 25.67-25.265C90.024 11.31 78.534 0 64.354 0s-25.67 11.309-25.67 25.265c0 13.956 11.49 25.265 25.67 25.265zm-8.966-15.28c.236-.836.472-1.672.732-2.484.306-.952.566-1.068 1.462-.627 1.534.79 3.138 1.207 4.837 1.416 1.085.14 2.17.023 3.162-.418 1.887-.813 2.194-2.972.59-4.25-.543-.44-1.157-.766-1.794-1.044-1.651-.72-3.373-1.254-4.954-2.183-2.525-1.486-4.153-3.553-3.964-6.572.212-3.437 2.194-5.573 5.38-6.71 1.32-.465 1.32-.465 1.344-1.812v-1.37c.024-1.022.213-1.208 1.227-1.231h.967c2.195 0 2.195 0 2.218 2.16 0 1.532 0 1.532 1.557 1.788a14.46 14.46 0 0 1 3.421.998c.614.256.826.674.66 1.3-.282.93-.542 1.882-.848 2.81-.283.883-.567.999-1.44.604a11.25 11.25 0 0 0-5.426-1.068c-.495.023-.991.093-1.44.302-1.65.697-1.91 2.485-.518 3.6.708.557 1.51.951 2.359 1.3 1.463.603 2.926 1.16 4.294 1.904 4.412 2.392 5.592 7.849 2.477 11.541a8.156 8.156 0 0 1-4.27 2.694c-.731.209-1.085.58-1.038 1.347.023.743 0 1.486 0 2.229 0 .673-.354 1.022-1.015 1.045a43.26 43.26 0 0 1-2.453 0c-.708-.023-1.062-.418-1.062-1.092 0-.534 0-1.091-.024-1.625-.023-1.208-.047-1.254-1.227-1.44-1.51-.232-2.972-.58-4.364-1.23-1.062-.488-1.156-.767-.85-1.882z"/></g></svg>