<svg width="100" height="112" viewBox="0 0 100 112" fill="none" xmlns="http://www.w3.org/2000/svg">
<path opacity="0.2" d="M0.619248 19.3168C-1.50174 12.9824 2.00235 6.12786 8.43161 4.03756C14.8609 1.94726 21.8168 5.40114 23.9378 11.7355L48.063 83.7842C45.8148 83.1994 43.4238 83.0923 41.0368 83.5224L17.6806 13.77C16.6977 10.8346 13.4752 9.23494 10.4963 10.2034C7.51728 11.1719 5.89385 14.3472 6.87671 17.2825C7.44671 18.985 6.50823 20.8209 4.78024 21.3825C3.05244 21.9442 1.18942 21.0193 0.619248 19.3168ZM95.6721 75.8365L56.1445 88.6875C57.5473 90.2568 58.6592 92.1224 59.3654 94.2304C59.3904 94.3057 59.4045 94.3816 59.4285 94.457L97.7368 82.0023C99.4646 81.4407 100.403 79.6048 99.8333 77.9024C99.2631 76.1996 97.3997 75.2746 95.6721 75.8365ZM56.2368 95.2483C58.4765 101.937 54.7893 109.147 48.0017 111.354C41.214 113.561 33.8961 109.928 31.6564 103.24C29.4167 96.5513 33.1039 89.3407 39.8915 87.1338C46.6792 84.9268 53.9973 88.56 56.2368 95.2483ZM50.0917 97.246C48.972 93.9019 45.3132 92.0856 41.919 93.1889C38.5253 94.2921 36.6818 97.8977 37.8015 101.242C38.9212 104.586 42.5802 106.402 45.9742 105.299C49.3679 104.196 51.2114 100.59 50.0917 97.246ZM85.6827 26.965L99.1025 67.0428C99.3875 67.894 98.9182 68.8119 98.0542 69.0929L55.8165 82.8247C54.9527 83.1057 54.0211 82.6432 53.7362 81.7919L40.3164 41.714C40.0313 40.8627 40.5007 39.9449 41.3647 39.664L83.6022 25.9319C84.4662 25.6513 85.3976 26.1136 85.6827 26.965ZM80.0955 50.2459L65.7133 42.449L58.8667 57.1478L63.3997 59.2036L66.36 52.8446L71.7053 68.8087L76.8211 67.1455L71.4765 51.1838L77.6941 54.5561L80.0955 50.2459ZM67.5456 26.336L58.9659 0.712879C58.7837 0.168618 58.188 -0.12712 57.6357 0.0525921L50.2789 2.4443L50.2429 2.50945L50.1812 2.47615L46.2997 3.73816L49.4961 13.2836L45.118 14.707L41.9218 5.16158L38.0391 6.42396L38.0097 6.48691L37.941 6.4558L30.6319 8.83214C30.0794 9.01167 29.7796 9.59857 29.9618 10.1428L38.5418 35.7661C38.724 36.3104 39.3196 36.6061 39.872 36.4264L66.8761 27.6468C67.4279 27.4671 67.728 26.8802 67.5456 26.336Z" fill="black"/>
</svg>
