<svg width="100" height="112" viewBox="0 0 100 112" fill="none" xmlns="http://www.w3.org/2000/svg"><path opacity=".2" d="M.62 19.317c-2.122-6.335 1.382-13.19 7.812-15.28 6.429-2.09 13.385 1.364 15.506 7.699l24.125 72.048a16.355 16.355 0 0 0-7.026-.262L17.68 13.77c-.983-2.935-4.206-4.535-7.185-3.567-2.979.969-4.602 4.144-3.62 7.08.57 1.702-.368 3.538-2.096 4.1-1.728.561-3.59-.364-4.16-2.066zm95.052 56.52l-39.527 12.85a15.854 15.854 0 0 1 3.22 5.543c.025.076.04.152.063.227l38.309-12.455c1.728-.561 2.666-2.397 2.096-4.1-.57-1.702-2.433-2.627-4.16-2.066zM56.237 95.248c2.24 6.689-1.448 13.899-8.235 16.106-6.788 2.207-14.106-1.426-16.346-8.114-2.24-6.689 1.448-13.9 8.236-16.106 6.787-2.207 14.105 1.426 16.345 8.114zm-6.145 1.998c-1.12-3.344-4.779-5.16-8.173-4.057-3.394 1.103-5.237 4.709-4.117 8.053 1.12 3.344 4.778 5.16 8.172 4.057 3.394-1.103 5.237-4.709 4.118-8.053zm35.59-70.281l13.42 40.078a1.618 1.618 0 0 1-1.048 2.05L55.816 82.825a1.652 1.652 0 0 1-2.08-1.033l-13.42-40.078a1.618 1.618 0 0 1 1.049-2.05l42.237-13.732a1.653 1.653 0 0 1 2.08 1.033zm-5.587 23.28L65.713 42.45l-6.846 14.699 4.533 2.056 2.96-6.36 5.345 15.965 5.116-1.663-5.344-15.962 6.217 3.372 2.401-4.31zm-12.55-23.909L58.966.713a1.057 1.057 0 0 0-1.33-.66L50.28 2.444l-.036.065-.062-.033L46.3 3.738l3.196 9.546-4.378 1.423-3.196-9.545-3.883 1.262-.03.063-.068-.031-7.31 2.376c-.552.18-.851.767-.67 1.31l8.58 25.624c.183.544.779.84 1.331.66l27.004-8.78c.552-.179.852-.766.67-1.31z" fill="#000"/></svg>