<svg width="36" height="38" viewBox="0 0 36 38" fill="none" xmlns="http://www.w3.org/2000/svg"><path d="M35.073 10.165L25.536.221A.72.72 0 0 0 25.018 0H10.804a2.893 2.893 0 0 0-2.885 2.894v10.109h-5.76c-1.19 0-2.159.971-2.159 2.165v10.84c0 1.194.968 2.165 2.158 2.165h5.76v6.502a2.89 2.89 0 0 0 2.886 2.889H32.39a2.89 2.89 0 0 0 2.885-2.887v-24.01a.724.724 0 0 0-.202-.502zM25.196 1.95l7.83 8.163h-7.83V1.95zM2.158 26.728a.72.72 0 0 1-.718-.72v-10.84a.72.72 0 0 1 .718-.72h19.44a.72.72 0 0 1 .719.72v10.84a.72.72 0 0 1-.719.72H2.158zm31.677 7.949c0 .795-.649 1.442-1.445 1.442H10.804a1.446 1.446 0 0 1-1.445-1.444v-6.502h12.239c1.19 0 2.158-.971 2.158-2.165v-10.84a2.164 2.164 0 0 0-2.158-2.165H9.358V2.893a1.45 1.45 0 0 1 1.446-1.448h12.952v9.39c0 .4.323.723.72.723h9.359v23.119z" fill="#3065B7"/><path d="M8.606 18.334a1.621 1.621 0 0 0-.89-.607c-.23-.062-.725-.093-1.485-.093H4.228v6.205h1.248v-2.341h.814c.566 0 .997-.03 1.295-.089.22-.048.436-.146.648-.294.212-.148.387-.352.525-.612s.207-.58.207-.96c0-.494-.12-.897-.359-1.209zm-1.07 1.708a.82.82 0 0 1-.39.305c-.165.065-.494.097-.986.097h-.684v-1.76h.603c.45 0 .75.013.899.042.202.036.37.128.502.275a.803.803 0 0 1 .198.558.836.836 0 0 1-.141.483zm7.431-.713a2.714 2.714 0 0 0-.59-1.006 2.066 2.066 0 0 0-.933-.571c-.27-.079-.662-.118-1.177-.118H9.985v6.205h2.35c.46 0 .83-.044 1.105-.132.368-.118.66-.283.877-.495.287-.28.508-.645.662-1.096.127-.37.19-.81.19-1.32 0-.582-.067-1.07-.202-1.467zm-1.215 2.548c-.085.278-.194.478-.327.599a1.15 1.15 0 0 1-.504.258c-.155.04-.406.06-.755.06h-.932v-4.11h.56c.51 0 .851.019 1.026.058.233.051.426.149.578.293.151.144.27.344.354.6.084.257.126.626.126 1.105 0 .48-.042.859-.126 1.137zm6.723-3.194v-1.05h-4.239v6.206h1.249v-2.637h2.581v-1.05h-2.581v-1.469h2.99z" fill="#3065B7"/></svg>