<svg width="36" height="38" viewBox="0 0 36 38" fill="none" xmlns="http://www.w3.org/2000/svg">
<path d="M35.0734 10.1655L25.5365 0.221422C25.4007 0.0799703 25.2134 0 25.0177 0H10.8037C9.21298 0 7.9188 1.29816 7.9188 2.89375V13.0029H2.15839C0.968245 13.0029 0 13.9743 0 15.1682V26.0078C0 27.2017 0.968245 28.173 2.15839 28.173H7.9188V34.6753C7.9188 36.2681 9.21298 37.564 10.8037 37.564H32.3897C33.9804 37.564 35.2746 36.2689 35.2746 34.6769V10.6665C35.2746 10.4797 35.2024 10.3002 35.0734 10.1655ZM25.1961 1.95017L33.0251 10.1134H25.1961V1.95017ZM2.15839 26.7283C1.76211 26.7283 1.43983 26.4051 1.43983 26.0078V15.1682C1.43983 14.7709 1.76219 14.4477 2.15839 14.4477H21.598C21.9943 14.4477 22.3166 14.7709 22.3166 15.1682V26.0078C22.3166 26.4051 21.9942 26.7283 21.598 26.7283H2.15839ZM33.8347 34.6769C33.8347 35.4722 33.1864 36.1193 32.3896 36.1193H10.8037C10.0069 36.1193 9.35855 35.4716 9.35855 34.6754V28.173H21.598C22.7881 28.173 23.7564 27.2017 23.7564 26.0078V15.1682C23.7564 13.9743 22.7881 13.0029 21.598 13.0029H9.35855V2.89375C9.35855 2.09471 10.0069 1.44475 10.8037 1.44475H23.7563V10.8358C23.7563 11.2347 24.0787 11.5581 24.4762 11.5581H33.8347V34.6769Z" fill="#3065B7"/>
<path d="M8.60616 18.334C8.36715 18.0222 8.07045 17.8197 7.71614 17.7266C7.48554 17.6646 6.99064 17.6335 6.23135 17.6335H4.22774V23.8387H5.47631V21.498H6.29043C6.85567 21.498 7.28733 21.4683 7.58542 21.4091C7.80476 21.3611 8.02059 21.2631 8.23291 21.1149C8.44524 20.9667 8.62027 20.7628 8.75809 20.5033C8.89591 20.2437 8.96478 19.9234 8.96478 19.5425C8.96471 19.0486 8.84517 18.6458 8.60616 18.334ZM7.53687 20.0419C7.4427 20.1802 7.31263 20.2818 7.14666 20.3467C6.98069 20.4116 6.65176 20.4441 6.15963 20.4441H5.47631V18.6833H6.07949C6.52944 18.6833 6.82891 18.6973 6.97792 18.7256C7.18037 18.7623 7.34772 18.854 7.47984 19.0007C7.61203 19.1474 7.67813 19.3337 7.67813 19.5594C7.6782 19.7428 7.63104 19.9036 7.53687 20.0419Z" fill="#3065B7"/>
<path d="M14.9667 19.3287C14.8317 18.9323 14.6348 18.5972 14.3761 18.3235C14.1175 18.0497 13.8067 17.8593 13.4439 17.752C13.174 17.673 12.7817 17.6335 12.2671 17.6335H9.98508V23.8387H12.3346C12.7958 23.8387 13.1641 23.795 13.4397 23.7074C13.8081 23.589 14.1006 23.4239 14.3171 23.2122C14.6039 22.9328 14.8246 22.5675 14.9793 22.116C15.1059 21.7463 15.1691 21.3061 15.1691 20.7953C15.1691 20.2141 15.1017 19.7252 14.9667 19.3287ZM13.7518 21.8769C13.6675 22.1548 13.5585 22.3545 13.4249 22.4758C13.2914 22.5971 13.1233 22.6832 12.9209 22.7339C12.7663 22.7735 12.5145 22.7932 12.1658 22.7932H11.2336V18.6833H11.7946C12.3036 18.6833 12.6453 18.703 12.8196 18.7425C13.053 18.7933 13.2457 18.8907 13.3975 19.0346C13.5494 19.1786 13.6675 19.3788 13.7518 19.6356C13.8362 19.8924 13.8784 20.2606 13.8784 20.7404C13.8784 21.2201 13.8362 21.5989 13.7518 21.8769Z" fill="#3065B7"/>
<path d="M20.4752 18.6833V17.6335H16.236V23.8387H17.4846V21.2017H20.0661V20.152H17.4846V18.6833H20.4752Z" fill="#3065B7"/>
</svg>
