<svg width="29" height="22" viewBox="0 0 29 22" fill="none" xmlns="http://www.w3.org/2000/svg">
<path d="M8.14783 21.4585C7.44624 20.7365 7.44624 19.5659 8.14783 18.8439L25.9328 0.541506C26.6344 -0.180502 27.7719 -0.180502 28.4735 0.541506C29.1751 1.26351 29.1751 2.43412 28.4735 3.15613L10.6885 21.4585C9.98695 22.1805 8.84943 22.1805 8.14783 21.4585Z" fill="#003D9E"/>
<path d="M10.6885 21.4585C9.98695 22.1805 8.84943 22.1805 8.14783 21.4585L0.526199 13.6146C-0.1754 12.8926 -0.1754 11.722 0.526199 11C1.2278 10.278 2.36531 10.278 3.06691 11L10.6891 18.8439C11.3907 19.5659 11.3901 20.7365 10.6885 21.4585Z" fill="#003D9E"/>
</svg>
