<svg width="16" height="14" viewBox="0 0 16 14" fill="none" xmlns="http://www.w3.org/2000/svg">
<path fill-rule="evenodd" clip-rule="evenodd" d="M6.03401 0.639548L0.324737 6.28955C0.222347 6.38319 0.140634 6.49684 0.0847445 6.62334C0.0288544 6.74984 9.53674e-07 6.88645 9.53674e-07 7.02455C9.53674e-07 7.16265 0.0288544 7.29926 0.0847445 7.42576C0.140634 7.55225 0.222347 7.66591 0.324737 7.75955L6.03401 13.4095C6.12743 13.504 6.23884 13.5792 6.36177 13.6307C6.48471 13.6822 6.61673 13.709 6.75019 13.7095C6.88365 13.709 7.01567 13.6822 7.13861 13.6307C7.26154 13.5792 7.37295 13.504 7.46637 13.4095C7.65424 13.2222 7.75969 12.9687 7.75969 12.7045C7.75969 12.4404 7.65424 12.1869 7.46637 11.9995L3.432 8H14.9913C15.5484 8 16 7.55228 16 7C16 6.44772 15.5484 6 14.9913 6H3.52138L7.46637 2.04955C7.65424 1.86219 7.75969 1.60873 7.75969 1.34455C7.75969 1.08036 7.65424 0.826911 7.46637 0.639548C7.3726 0.54582 7.26103 0.471426 7.13811 0.420657C7.01519 0.369888 6.88335 0.34375 6.75019 0.34375C6.61703 0.34375 6.48518 0.369888 6.36226 0.420657C6.23934 0.471426 6.12778 0.54582 6.03401 0.639548Z" fill="black" fill-opacity="0.8"/>
</svg>
