<svg width="20" height="20" viewBox="0 0 20 20" fill="none" xmlns="http://www.w3.org/2000/svg">
<path d="M10 5C9.73478 5 9.48043 5.10536 9.29289 5.29289C9.10535 5.48043 9 5.73478 9 6V10C9 10.2652 9.10535 10.5196 9.29289 10.7071C9.48043 10.8946 9.73478 11 10 11C10.2652 11 10.5196 10.8946 10.7071 10.7071C10.8946 10.5196 11 10.2652 11 10V6C11 5.73478 10.8946 5.48043 10.7071 5.29289C10.5196 5.10536 10.2652 5 10 5ZM10.92 13.62C10.8981 13.5563 10.8678 13.4957 10.83 13.44L10.71 13.29C10.5694 13.1512 10.3908 13.0572 10.1968 13.0199C10.0028 12.9825 9.80211 13.0034 9.62 13.08C9.49881 13.1306 9.3872 13.2017 9.29 13.29C9.19732 13.3834 9.12399 13.4943 9.07423 13.6161C9.02446 13.7379 8.99924 13.8684 9 14C9.00158 14.1307 9.02876 14.2598 9.08 14.38C9.12491 14.5041 9.19656 14.6168 9.28988 14.7101C9.3832 14.8034 9.4959 14.8751 9.62 14.92C9.7397 14.9729 9.86913 15.0002 10 15.0002C10.1309 15.0002 10.2603 14.9729 10.38 14.92C10.5041 14.8751 10.6168 14.8034 10.7101 14.7101C10.8034 14.6168 10.8751 14.5041 10.92 14.38C10.9712 14.2598 10.9984 14.1307 11 14C11.0049 13.9334 11.0049 13.8666 11 13.8C10.9828 13.7362 10.9558 13.6755 10.92 13.62V13.62ZM10 0C8.02218 0 6.08879 0.58649 4.44429 1.6853C2.7998 2.78412 1.51808 4.3459 0.761202 6.17317C0.00432521 8.00043 -0.193708 10.0111 0.192144 11.9509C0.577996 13.8907 1.5304 15.6725 2.92893 17.0711C4.32745 18.4696 6.10928 19.422 8.04909 19.8079C9.9889 20.1937 11.9996 19.9957 13.8268 19.2388C15.6541 18.4819 17.2159 17.2002 18.3147 15.5557C19.4135 13.9112 20 11.9778 20 10C20 8.68678 19.7413 7.38642 19.2388 6.17317C18.7362 4.95991 17.9996 3.85752 17.0711 2.92893C16.1425 2.00035 15.0401 1.26375 13.8268 0.761205C12.6136 0.258658 11.3132 0 10 0V0ZM10 18C8.41775 18 6.87103 17.5308 5.55543 16.6518C4.23984 15.7727 3.21446 14.5233 2.60896 13.0615C2.00346 11.5997 1.84503 9.99113 2.15371 8.43928C2.4624 6.88743 3.22432 5.46197 4.34314 4.34315C5.46196 3.22433 6.88743 2.4624 8.43927 2.15372C9.99112 1.84504 11.5997 2.00346 13.0615 2.60896C14.5233 3.21447 15.7727 4.23984 16.6518 5.55544C17.5308 6.87103 18 8.41775 18 10C18 12.1217 17.1571 14.1566 15.6569 15.6569C14.1566 17.1571 12.1217 18 10 18V18Z" fill="#E63600"/>
</svg>
