<svg width="23" height="23" viewBox="0 0 23 23" fill="none" xmlns="http://www.w3.org/2000/svg"><path fill-rule="evenodd" clip-rule="evenodd" d="M5 3a.5.5 0 0 0-.5.5v8h-1v-8A1.5 1.5 0 0 1 5 2h13a1.5 1.5 0 0 1 1.5 1.5v8h-1v-8A.5.5 0 0 0 18 3H5z" fill="#003D9E"/><path fill-rule="evenodd" clip-rule="evenodd" d="M4 1a1.5 1.5 0 0 0-1.5 1.5V12h-1V2.5A2.5 2.5 0 0 1 4 0h15a2.5 2.5 0 0 1 2.5 2.5V12h-1V2.5A1.5 1.5 0 0 0 19 1H4z" fill="#003D9E"/><path fill-rule="evenodd" clip-rule="evenodd" d="M22 12.5H1v9h21v-9zm-21-1a1 1 0 0 0-1 1v9a1 1 0 0 0 1 1h21a1 1 0 0 0 1-1v-9a1 1 0 0 0-1-1H1z" fill="#003D9E"/><path fill-rule="evenodd" clip-rule="evenodd" d="M14.924 4.5l.008.001c1.257.18 2.174 1.252 2.068 2.483a2.275 2.275 0 0 1-1.325 1.865l-.49 3.516-.623-.029.513-3.737a.323.323 0 0 1 .188-.243l.008-.004a1.665 1.665 0 0 0 1.105-1.42c.06-.709-.355-1.369-.99-1.668l.362 1.138a.722.722 0 0 1-.509.908l-.704.202a.768.768 0 0 1-.944-.486v-.002l-.402-1.255a1.64 1.64 0 0 0-.34.862c-.07.737.396 1.452 1.123 1.725.14.053.21.185.201.312v.01l-.513 3.705-.617-.049.489-3.509c-.854-.423-1.386-1.317-1.313-2.254.05-.64.386-1.236.91-1.627l.006-.005a.331.331 0 0 1 .283-.044c.092.03.175.1.204.21l.557 1.737c.013.05.085.096.155.075h.002l.711-.204a.11.11 0 0 0 .078-.136l-.001-.002-.53-1.677a.28.28 0 0 1 .06-.305.348.348 0 0 1 .262-.093h.008zm-7.192-.098h2.52l.085.191c.155.352.388.901.583 1.406.097.252.186.497.251.702.06.189.115.388.115.524 0 .138-.044.29-.094.423a4.102 4.102 0 0 1-.199.439 8.225 8.225 0 0 1-.264.472l.14.063c.489.222.636.642.647.877L12 11.517l-.657.085-.488-2.046v-.027c0-.05-.046-.246-.276-.35l-.372-.169-.662.382.553.376.52 1.741-.654.099-.462-1.48-.566-.384-.69.398-.459 1.466-.654-.099.523-1.754 2.44-1.408c.096-.154.205-.342.3-.528.07-.135.13-.264.17-.375a.762.762 0 0 0 .058-.22.61.61 0 0 0-.02-.108 3.456 3.456 0 0 0-.067-.239c-.06-.188-.145-.42-.24-.668-.158-.41-.373-.952-.519-1.288h-.571v2.128l-1.821.413c.037.091.086.194.143.3.13.247.415.707.52.86l-.703.428c-.208.092-.245.262-.245.298v.035L6.4 11.615l-.653-.114.693-2.194c.016-.227.162-.613.623-.816l.104-.047a7.435 7.435 0 0 1-.232-.408 3.84 3.84 0 0 1-.188-.406 1.177 1.177 0 0 1-.091-.4c0-.077.019-.166.039-.243.021-.083.051-.18.086-.283.07-.208.166-.46.27-.717.207-.516.45-1.073.596-1.396l.085-.19zm.913 2.24V4.921h-.538a39.93 39.93 0 0 0-.53 1.247 14.398 14.398 0 0 0-.29.782l1.358-.308z" fill="#003D9E"/></svg>