<svg width="25" height="25" viewBox="0 0 25 25" fill="none" xmlns="http://www.w3.org/2000/svg">
<g opacity="0.6">
<path d="M5 12V4C5 3.44772 5.44772 3 6 3H19C19.5523 3 20 3.44772 20 4V12" stroke="#003D9E"/>
<path d="M3 12.5V3C3 1.89543 3.89543 1 5 1H20C21.1046 1 22 1.89543 22 3V12.5" stroke="#003D9E"/>
<path d="M17.7796 7.51382C17.8819 6.32653 16.9974 5.28596 15.7758 5.11191L15.7759 5.11149L15.7679 5.11121C15.7027 5.10885 15.6209 5.12314 15.5618 5.18244C15.5028 5.24171 15.4852 5.33119 15.518 5.40805L16.0498 7.08818L16.0498 7.08818L16.0503 7.08947C16.0822 7.18426 16.0226 7.29774 15.9186 7.32213L15.9186 7.32204L15.9151 7.32305L15.2111 7.52463L15.2111 7.52462L15.2098 7.52501C15.1045 7.55725 14.9855 7.49339 14.9605 7.39732L14.9606 7.39729L14.9593 7.39327L14.4046 5.66239C14.3833 5.57975 14.3217 5.52569 14.2495 5.50265C14.1717 5.47779 14.0909 5.49773 14.0311 5.53774L14.0311 5.53766L14.0279 5.54C13.5206 5.91933 13.1958 6.49496 13.1484 7.1127M17.7796 7.51382C17.7239 8.17647 17.3621 8.77682 16.7986 9.15398C16.6885 9.22768 16.5754 9.28133 16.4607 9.33509L15.9848 12.7555L15.9754 12.8232L15.9071 12.8201L15.584 12.8053L15.502 12.8015L15.5132 12.7201L16.0026 9.15148L16.0031 9.14821L16.0031 9.14823C16.0178 9.06777 16.0644 8.99881 16.1486 8.96049L16.1527 8.95862L16.1527 8.95875C16.2844 8.90817 16.4077 8.85001 16.5269 8.77028C16.9738 8.4712 17.2633 7.99366 17.3053 7.4749L17.3053 7.47463C17.3728 6.67618 16.8659 5.9415 16.1202 5.66822L16.53 6.95833L16.5305 6.95978L16.5305 6.95978C16.6127 7.23811 16.5064 7.52696 16.265 7.68857C16.2033 7.72986 16.1447 7.754 16.073 7.77419C16.0729 7.77421 16.0728 7.77422 16.0728 7.77424L15.3692 7.97573L15.3689 7.97582C15.0004 8.07953 14.6308 7.88153 14.5163 7.53834L14.516 7.53744L14.516 7.53744L14.0738 6.15423C13.8163 6.43388 13.6641 6.78077 13.629 7.1605L13.629 7.16067C13.5557 7.93316 14.0437 8.67813 14.8003 8.96242L14.8005 8.96252C14.9074 9.00311 14.9591 9.1019 14.9528 9.19892L14.9524 9.20433L14.9522 9.2043L14.4597 12.7687L14.45 12.8387L14.3794 12.8332L14.0622 12.808L13.9829 12.8017L13.9938 12.7229L14.4677 9.31776C13.6123 8.91796 13.0761 8.03513 13.1484 7.1127M17.7796 7.51382C17.7796 7.51383 17.7796 7.51383 17.7796 7.51384L17.7049 7.5074L17.7796 7.51367C17.7796 7.51372 17.7796 7.51377 17.7796 7.51382ZM13.1484 7.1127C13.1484 7.11268 13.1484 7.11266 13.1484 7.11264L13.2232 7.11851L13.1484 7.11277C13.1484 7.11275 13.1484 7.11273 13.1484 7.1127ZM14.0681 12.7333L14.074 12.6585L14.0785 12.6588L14.0681 12.7333ZM14.0681 12.7333L14.1424 12.7436L14.143 12.7392L14.0681 12.7333ZM16.0046 5.55214L16.0321 5.63842L16.0918 5.57886C16.0631 5.56929 16.034 5.56038 16.0046 5.55214Z" fill="#003D9E" stroke="#003D9E" stroke-width="0.15"/>
<path d="M2 12.5H23C23.2761 12.5 23.5 12.7239 23.5 13V22C23.5 22.2761 23.2761 22.5 23 22.5H2C1.72386 22.5 1.5 22.2761 1.5 22V13C1.5 12.7239 1.72386 12.5 2 12.5Z" stroke="#003D9E"/>
<path d="M8.32188 7.5353C8.31917 7.53997 8.31697 7.54482 8.31527 7.54976C8.31506 7.55036 8.31486 7.55097 8.31467 7.55156C8.31334 7.55384 8.31203 7.5563 8.31081 7.55897C8.30506 7.57152 8.30022 7.59086 8.30615 7.61311C8.30633 7.61382 8.30653 7.61451 8.30673 7.61519L8.30671 7.61999L8.30666 7.63299L8.31098 7.64525L8.69359 8.73073L8.01113 9.47031C7.99589 9.48308 7.98631 9.49734 7.97979 9.51158C7.97717 9.51729 7.97505 9.52307 7.97396 9.52603L7.97366 9.52685L7.97115 9.53318L7.9639 9.549L7.96435 9.5664L7.99842 10.8687L8.00271 11.0315L8.00327 11.0521L8.00338 11.0555L8.00343 11.0566L8.0035 11.058L8.00407 11.0781L8.00844 11.2408L8.04283 12.5431L8.04308 12.5526L8.04569 12.5618C8.0565 12.5996 8.06844 12.6356 8.08843 12.6613C8.10043 12.6768 8.11575 12.6893 8.13496 12.6972C8.15255 12.7045 8.16913 12.706 8.17999 12.7065C8.19056 12.7071 8.19777 12.707 8.20414 12.707C8.21398 12.707 8.22183 12.7069 8.237 12.7089C8.25709 12.7116 8.2859 12.7183 8.32708 12.7368C8.42597 12.7815 8.54029 12.7922 8.65104 12.7891C8.76738 12.8416 8.90504 12.8512 9.02649 12.8311L9.03501 12.8312L9.03501 12.832L9.04596 12.8305C9.07173 12.8269 9.09734 12.8212 9.12242 12.8136C9.19555 12.8018 9.28762 12.7774 9.37491 12.7465C9.46334 12.7152 9.55369 12.6748 9.61573 12.6298C9.65157 12.6038 9.67874 12.586 9.70079 12.5716C9.70698 12.5676 9.71277 12.5638 9.71824 12.5602C9.72998 12.5524 9.74259 12.5438 9.75331 12.5345C9.76431 12.5251 9.77774 12.5113 9.78667 12.4916C9.80469 12.4518 9.79275 12.4125 9.7867 12.3925L9.78625 12.391C9.78369 12.3825 9.78096 12.3741 9.77804 12.365C9.77213 12.3467 9.76541 12.3258 9.75754 12.297L9.70921 11.2573L9.70312 11.1263L9.70236 11.1099L9.70227 11.1079L9.70226 11.1076L9.70225 11.1076L9.70225 11.1075L9.70225 11.1075L9.70225 11.1075L9.70225 11.1075L9.70224 11.1073L9.70215 11.1052L9.70138 11.0888L9.6953 10.9579L9.64877 9.95678L10.1321 9.6921L10.7415 10.0785C10.9072 11.3256 10.9908 11.9266 11.033 12.2158C11.0543 12.3615 11.0652 12.4289 11.0708 12.4601C11.0729 12.4718 11.0749 12.4819 11.0771 12.4897C11.0865 12.5546 11.1015 12.6086 11.1324 12.6476C11.1696 12.6945 11.2186 12.7065 11.2588 12.7115C11.2751 12.7136 11.2915 12.7148 11.3086 12.716C11.3713 12.7205 11.4421 12.7256 11.5459 12.7757L11.5545 12.7798L11.5639 12.7817C11.844 12.8372 12.1994 12.7889 12.4187 12.6298C12.426 12.6245 12.4302 12.6241 12.4375 12.6256C12.4493 12.628 12.463 12.6348 12.4856 12.6474L12.488 12.6488C12.4973 12.654 12.5092 12.6606 12.5207 12.6659C12.5328 12.6714 12.5517 12.679 12.5737 12.6802C12.5993 12.6816 12.6273 12.6739 12.65 12.6521C12.6698 12.6332 12.6796 12.6092 12.6852 12.5891L12.6892 12.5745L12.6873 12.5596L12.52 11.2561L12.4991 11.0932L12.4965 11.0728L12.4962 11.0702L12.4962 11.0699L12.4962 11.0699L12.4962 11.0699L12.4962 11.0699L12.4962 11.0698L12.4961 11.0695L12.4958 11.067L12.4932 11.0466L12.4723 10.8837L12.3051 9.5802L12.3028 9.56266L12.293 9.54803L12.293 9.54802L12.293 9.54801L12.293 9.548L12.293 9.54799L12.293 9.54798L12.293 9.54796L12.2926 9.54747L12.2912 9.54529L12.2862 9.53735C12.2819 9.53028 12.2783 9.52373 12.2766 9.5198L12.2717 9.509L12.2638 9.50021L11.5835 8.74417L11.9754 7.6654L11.9798 7.65315L11.9798 7.6505L8.32188 7.5353ZM8.32188 7.5353L9.10265 5.09338C9.11725 5.04259 9.15385 5.00539 9.19412 4.98206C9.23516 4.95829 9.28465 4.94584 9.33499 4.94628L10.9751 4.96056C11.0784 4.96146 11.1586 5.02121 11.192 5.06267L11.2009 5.07376L11.2052 5.08735L11.9767 7.56147M8.32188 7.5353L11.9767 7.56147M11.9876 7.61221L11.9876 7.61225L11.9126 7.61189L11.9876 7.61221ZM11.9876 7.61221L11.9876 7.60106L11.9877 7.58489L11.9811 7.57013C11.9801 7.56788 11.9788 7.56522 11.9772 7.56235C11.977 7.56206 11.9769 7.56177 11.9767 7.56147M11.9876 7.61221L11.9767 7.56147M8.38185 7.58675L8.36368 7.56176L8.36372 7.56178L8.38185 7.58675ZM11.1362 12.3967C11.1428 12.438 11.1463 12.4566 11.1481 12.4647L11.0771 12.469C11.0751 12.4689 11.0751 12.4689 11.0751 12.4689L11.0751 12.4686L11.0751 12.468L11.0752 12.4666L11.0755 12.4624C11.0757 12.4609 11.076 12.4578 11.0769 12.454L11.0769 12.4539C11.0774 12.4515 11.0796 12.4419 11.0861 12.4313C11.0909 12.4235 11.1074 12.4019 11.1362 12.3967ZM8.68254 12.6377C8.589 12.5943 8.53647 12.5344 8.51928 12.472L8.51902 12.4636L8.51852 12.4471L8.51802 12.4307L8.51753 12.4145L8.51704 12.3984L8.51655 12.3824L8.51607 12.3665L8.51559 12.3508L8.51512 12.3352L8.51465 12.3197L8.51418 12.3044L8.51372 12.2892L8.51326 12.2741L8.5128 12.2591L8.51235 12.2442L8.5119 12.2295L8.51146 12.2149L8.51102 12.2004L8.51058 12.1861L8.51015 12.1718L8.50972 12.1577L8.50929 12.1437L8.50887 12.1298L8.50845 12.116L8.50804 12.1024L8.50762 12.0889L8.50722 12.0754L8.50681 12.0622L8.50641 12.049L8.50601 12.0359L8.50562 12.023L8.50523 12.0101L8.50484 11.9974L8.50446 11.9848L8.50408 11.9723L8.5037 11.9599L8.50333 11.9477L8.50296 11.9355L8.50259 11.9235L8.50223 11.9115L8.50187 11.8997L8.50152 11.888L8.50116 11.8764L8.50081 11.8649L8.50047 11.8535L8.50012 11.8422L8.49978 11.831L8.49945 11.82L8.49911 11.809L8.49878 11.7981L8.49846 11.7874L8.49813 11.7767L8.49781 11.7662L8.49749 11.7557L8.49718 11.7454L8.49687 11.7352L8.49656 11.725L8.49626 11.715L8.49595 11.7051L8.49565 11.6952L8.49536 11.6855L8.49507 11.6759L8.49478 11.6663L8.49449 11.6569L8.4942 11.6476L8.49392 11.6383L8.49365 11.6292L8.49337 11.6201L8.4931 11.6112L8.49283 11.6023L8.49256 11.5936L8.4923 11.5849L8.49204 11.5763L8.49178 11.5678L8.49152 11.5594L8.49127 11.5511L8.49102 11.5429L8.49078 11.5348L8.49053 11.5268L8.49029 11.5189L8.49005 11.511L8.48982 11.5033L8.48958 11.4956L8.48935 11.488L8.48913 11.4805L8.4889 11.4731L8.48868 11.4658L8.48846 11.4586L8.48824 11.4515L8.48803 11.4444L8.48781 11.4374L8.4876 11.4305L8.4874 11.4237L8.48719 11.417L8.48699 11.4104L8.48679 11.4038L8.48659 11.3973L8.4864 11.3909L8.48621 11.3846L8.48602 11.3784L8.48583 11.3722L8.48565 11.3661L8.48546 11.3601L8.48528 11.3542L8.48511 11.3484L8.48493 11.3426L8.48476 11.3369L8.48459 11.3313L8.48442 11.3257L8.48425 11.3203L8.48409 11.3149L8.48393 11.3096L8.48377 11.3043L8.48361 11.2992L8.48345 11.2941L8.4833 11.289L8.48315 11.2841L8.483 11.2792L8.48286 11.2744L8.48271 11.2696L8.48257 11.265L8.48243 11.2604L8.48229 11.2558L8.48216 11.2513L8.48202 11.2469L8.48189 11.2426L8.48176 11.2383L8.48163 11.2341L8.48151 11.23L8.48138 11.2259L8.48126 11.2219L8.48114 11.218L8.48102 11.2141L8.48091 11.2103L8.48079 11.2065L8.48068 11.2028L8.48057 11.1992L8.48046 11.1956L8.48035 11.1921L8.48025 11.1886L8.48014 11.1852L8.48004 11.1819L8.47994 11.1786L8.47985 11.1754L8.47975 11.1722L8.47965 11.1691L8.47956 11.166L8.47947 11.163L8.47938 11.1601L8.47929 11.1572L8.47921 11.1544L8.47912 11.1516L8.47904 11.1489L8.47896 11.1462L8.47888 11.1436L8.4788 11.141L8.47872 11.1385L8.47865 11.136L8.47857 11.1336L8.4785 11.1312L8.47843 11.1289L8.47836 11.1266L8.4783 11.1244L8.47823 11.1222L8.47816 11.1201L8.4781 11.118L8.47804 11.116L8.47798 11.114L8.47792 11.112L8.47786 11.1101L8.4778 11.1083L8.47775 11.1064L8.47769 11.1047L8.47764 11.1029L8.47759 11.1012L8.47754 11.0996L8.47749 11.098L8.47744 11.0964L8.4774 11.0949L8.47735 11.0934L8.47731 11.0919L8.47726 11.0905L8.47722 11.0891L8.47718 11.0878L8.47714 11.0865L8.4771 11.0852L8.47707 11.084L8.47703 11.0828L8.477 11.0817L8.47696 11.0805L8.47693 11.0794L8.4769 11.0784L8.47686 11.0773L8.47683 11.0764L8.4768 11.0754L8.47678 11.0745L8.47675 11.0736L8.47672 11.0727L8.4767 11.0718L8.47667 11.071L8.47665 11.0702L8.47663 11.0695L8.4766 11.0688L8.47658 11.0681L8.47656 11.0674L8.47654 11.0667L8.47652 11.0661L8.4765 11.0655L8.47649 11.0649L8.47647 11.0644L8.47645 11.0639L8.47644 11.0634L8.47642 11.0629L8.47641 11.0624L8.4764 11.062L8.47638 11.0616L8.47637 11.0612L8.47636 11.0608L8.47635 11.0604L8.47634 11.0601L8.47633 11.0598L8.47632 11.0595L8.47631 11.0592L8.4763 11.0589L8.4763 11.0587L8.47629 11.0584L8.47628 11.0582L8.47628 11.058L8.47627 11.0578L8.47626 11.0576L8.47626 11.0575L8.47625 11.0573L8.47625 11.0572L8.47625 11.057L8.47624 11.0569L8.47624 11.0568L8.47624 11.0567L8.47623 11.0566L8.47623 11.0565L8.47623 11.0565L8.47623 11.0564L8.47623 11.0564L8.47622 11.0563L8.47622 11.0563L8.47622 11.0562L8.47622 11.0562L8.47622 11.0562L8.47622 11.0562L8.47622 11.0562L8.47622 11.0561L8.47622 11.0561L8.47622 11.0561L8.47622 11.0561L8.47622 11.0561L8.47622 11.0561L8.47622 11.0561L8.47622 11.0561L8.47622 11.0561L8.47622 11.0561L8.47622 11.056L8.47622 11.056L8.47621 11.056L8.47621 11.0559L8.47621 11.0559L8.47621 11.0558L8.47621 11.0558L8.47621 11.0557L8.4762 11.0556L8.4762 11.0555L8.4762 11.0554L8.4762 11.0553L8.47619 11.0552L8.47619 11.0551L8.47618 11.055L8.47618 11.0548L8.47617 11.0546L8.47617 11.0545L8.47616 11.0543L8.47616 11.0541L8.47615 11.0538L8.47614 11.0536L8.47613 11.0533L8.47613 11.0531L8.47612 11.0528L8.47611 11.0525L8.4761 11.0522L8.47609 11.0518L8.47608 11.0515L8.47607 11.0511L8.47605 11.0507L8.47604 11.0503L8.47603 11.0498L8.47601 11.0494L8.476 11.0489L8.47598 11.0484L8.47597 11.0479L8.47595 11.0473L8.47593 11.0467L8.47592 11.0461L8.4759 11.0455L8.47588 11.0449L8.47586 11.0442L8.47583 11.0435L8.47581 11.0428L8.47579 11.042L8.47577 11.0412L8.47574 11.0404L8.47572 11.0396L8.47569 11.0387L8.47566 11.0378L8.47563 11.0369L8.4756 11.0359L8.47557 11.0349L8.47554 11.0339L8.47551 11.0328L8.47548 11.0317L8.47544 11.0306L8.47541 11.0294L8.47537 11.0282L8.47533 11.027L8.4753 11.0257L8.47526 11.0244L8.47521 11.0231L8.47517 11.0217L8.47513 11.0203L8.47509 11.0189L8.47504 11.0174L8.47499 11.0158L8.47495 11.0143L8.4749 11.0127L8.47485 11.011L8.4748 11.0093L8.47474 11.0076L8.47469 11.0058L8.47463 11.004L8.47458 11.0021L8.47452 11.0002L8.47446 10.9983L8.4744 10.9963L8.47434 10.9942L8.47427 10.9922L8.47421 10.99L8.47414 10.9879L8.47408 10.9856L8.47401 10.9834L8.47394 10.981L8.47386 10.9787L8.47379 10.9762L8.47371 10.9738L8.47364 10.9712L8.47356 10.9687L8.47348 10.966L8.4734 10.9634L8.47332 10.9606L8.47323 10.9579L8.47314 10.955L8.47306 10.9521L8.47297 10.9492L8.47288 10.9462L8.47278 10.9432L8.47269 10.94L8.47259 10.9369L8.47249 10.9337L8.47239 10.9304L8.47229 10.927L8.47219 10.9236L8.47208 10.9202L8.47198 10.9167L8.47187 10.9131L8.47176 10.9095L8.47165 10.9058L8.47153 10.902L8.47142 10.8982L8.4713 10.8943L8.47118 10.8903L8.47106 10.8863L8.47093 10.8823L8.47081 10.8781L8.47068 10.8739L8.47055 10.8696L8.47042 10.8653L8.47028 10.8609L8.47015 10.8564L8.47001 10.8519L8.46987 10.8473L8.46973 10.8426L8.46958 10.8379L8.46944 10.8331L8.46929 10.8282L8.46914 10.8232L8.46898 10.8182L8.46883 10.8131L8.46867 10.8079L8.46851 10.8027L8.46835 10.7974L8.46819 10.792L8.46802 10.7865L8.46785 10.781L8.46768 10.7753L8.46751 10.7697L8.46733 10.7639L8.46715 10.758L8.46697 10.7521L8.46679 10.7461L8.46661 10.74L8.46642 10.7339L8.46623 10.7276L8.46604 10.7213L8.46584 10.7149L8.46565 10.7085L8.46545 10.7019L8.46524 10.6953L8.46504 10.6885L8.46483 10.6817L8.46462 10.6748L8.46441 10.6679L8.4642 10.6608L8.46398 10.6537L8.46376 10.6464L8.46354 10.6391L8.46331 10.6317L8.46308 10.6242L8.46285 10.6166L8.46262 10.609L8.46239 10.6012L8.46215 10.5934L8.46191 10.5854L8.46166 10.5774L8.46141 10.5693L8.46117 10.5611L8.46091 10.5528L8.46066 10.5444L8.4604 10.5359L8.46014 10.5274L8.45988 10.5187L8.45961 10.5099L8.45934 10.5011L8.45907 10.4921L8.45879 10.4831L8.45851 10.4739L8.45823 10.4647L8.45795 10.4554L8.45766 10.4459L8.45737 10.4364L8.45708 10.4268L8.45678 10.417L8.45648 10.4072L8.45618 10.3973L8.45588 10.3872L8.45557 10.3771L8.45526 10.3668L8.45494 10.3565L8.45463 10.3461L8.45431 10.3355L8.45398 10.3249L8.45365 10.3141L8.45332 10.3033L8.45299 10.2923L8.45265 10.2812L8.45231 10.2701L8.45197 10.2588L8.45162 10.2474L8.45128 10.2359L8.45092 10.2243L8.45057 10.2126L8.45021 10.2007L8.44984 10.1888L8.44948 10.1767L8.44911 10.1646L8.44873 10.1523L8.44836 10.1399L8.44798 10.1274L8.44759 10.1148L8.44721 10.1021L8.44682 10.0893L8.44642 10.0763L8.44603 10.0633L8.44563 10.0501L8.44522 10.0368L8.44481 10.0234L8.4444 10.0099L8.44399 9.99621L8.44357 9.98245L8.44315 9.96857L8.44272 9.95456L8.44229 9.94044L8.44186 9.9262L8.44142 9.91183L8.44098 9.89735L8.44054 9.88274L8.44009 9.86802L8.43964 9.85316L8.43918 9.83819L8.43872 9.82309L8.43826 9.80787L8.43779 9.79252L8.43732 9.77705L8.43685 9.76145L8.43637 9.74573L8.43589 9.72987L8.4354 9.7139L8.43491 9.69779L8.43442 9.68155L8.43392 9.66519L8.43385 9.663L9.16026 8.8864L9.16037 8.8865L9.16336 8.88287C9.19079 8.84959 9.2292 8.78591 9.19857 8.71293L8.85317 7.73108L10.2116 7.46917L10.228 7.46602L10.2415 7.45623L10.2456 7.45322C10.255 7.45032 10.2639 7.44681 10.2728 7.44224C10.2846 7.43613 10.2944 7.42896 10.3011 7.42409C10.3016 7.42378 10.302 7.42348 10.3024 7.42318C10.3028 7.42287 10.3033 7.42253 10.3038 7.42218C10.3102 7.41753 10.3206 7.41 10.3299 7.40051C10.3363 7.39408 10.3416 7.38734 10.3462 7.3802L10.3564 7.37279L10.3646 7.35491C10.3791 7.32347 10.3792 7.29935 10.3792 7.28488L10.3875 5.34604L10.789 5.34953L11.4993 7.61844L11.1176 8.6735C11.0132 8.73401 10.7314 8.89118 10.0085 9.29248C10.0085 9.29249 10.0084 9.29251 10.0084 9.29252L9.30843 9.67796L9.30814 9.67744L9.30054 9.68296L9.29937 9.68381C9.28854 9.69167 9.27153 9.70401 9.2562 9.71887C9.24074 9.73387 9.22031 9.75762 9.21128 9.79029L9.20822 9.80137L9.20862 9.81285L9.24707 10.9267L9.25188 11.066L9.25248 11.0834L9.25255 11.0855L9.25256 11.0858L9.25256 11.0858L9.25256 11.0858L9.25257 11.0859L9.25257 11.0862L9.25265 11.0883L9.25325 11.1057L9.25806 11.245L9.29651 12.3588L9.2968 12.3673L9.299 12.3756C9.32001 12.4544 9.28904 12.5465 9.20459 12.6078C9.18038 12.6254 9.15343 12.6408 9.12523 12.6531L9.08946 12.6162L9.06266 12.5886L9.0246 12.5943C9.0047 12.5973 8.98453 12.6004 8.96417 12.6035C8.8729 12.6176 8.7776 12.6323 8.68385 12.6376C8.68341 12.6376 8.68298 12.6377 8.68254 12.6377ZM11.154 9.87706L11.149 9.84309L11.1201 9.82464L10.541 9.45559C10.5433 9.45444 10.5456 9.45329 10.548 9.45214L10.5481 9.45227L10.5521 9.45003C10.8871 9.26266 11.0927 9.14691 11.2297 9.06975L11.2299 9.07019L11.237 9.0651C11.2423 9.06124 11.2478 9.05775 11.2535 9.05442L11.8481 9.70455C11.9415 10.3485 11.9872 10.659 12.0088 10.8051L12.0226 10.8983C12.0226 10.8986 12.0226 10.8988 12.0226 10.8989C12.0224 10.9028 12.0226 10.9062 12.0226 10.9078C12.0228 10.9117 12.0232 10.9163 12.0236 10.9212C12.0255 10.9411 12.0304 10.9843 12.0413 11.0717C12.0626 11.2426 12.1073 11.5859 12.198 12.2632C12.1972 12.2634 12.1963 12.2637 12.1955 12.2639C12.1731 12.27 12.1446 12.2752 12.1109 12.2792C12.0436 12.2873 11.9611 12.2901 11.8754 12.2891C11.7334 12.2874 11.5895 12.2753 11.5002 12.2621C11.3643 11.4875 11.3641 11.4846 11.3567 11.3956L11.3565 11.3936C11.3483 11.2935 11.3318 11.0965 11.154 9.87706ZM8.87979 7.33015L9.51699 5.33846L9.91858 5.34196L9.91096 7.13035L8.87979 7.33015Z" fill="#003D9E" stroke="#003D9E" stroke-width="0.15"/>
</g>
</svg>
