<svg width="23" height="23" viewBox="0 0 23 23" fill="none" xmlns="http://www.w3.org/2000/svg">
<path fill-rule="evenodd" clip-rule="evenodd" d="M5 3C4.72386 3 4.5 3.22386 4.5 3.5V11.5H3.5V3.5C3.5 2.67157 4.17157 2 5 2H18C18.8284 2 19.5 2.67157 19.5 3.5V11.5H18.5V3.5C18.5 3.22386 18.2761 3 18 3H5Z" fill="#003D9E"/>
<path fill-rule="evenodd" clip-rule="evenodd" d="M4 1C3.17157 1 2.5 1.67157 2.5 2.5V12H1.5V2.5C1.5 1.11929 2.61929 0 4 0H19C20.3807 0 21.5 1.11929 21.5 2.5V12H20.5V2.5C20.5 1.67157 19.8284 1 19 1H4Z" fill="#003D9E"/>
<path fill-rule="evenodd" clip-rule="evenodd" d="M22 12.5H1L1 21.5H22V12.5ZM1 11.5C0.447715 11.5 0 11.9477 0 12.5V21.5C0 22.0523 0.447715 22.5 1 22.5H22C22.5523 22.5 23 22.0523 23 21.5V12.5C23 11.9477 22.5523 11.5 22 11.5H1Z" fill="#003D9E"/>
<path fill-rule="evenodd" clip-rule="evenodd" d="M14.9242 4.50029L14.932 4.50141C16.1894 4.68055 17.1059 5.75344 17 6.98386C16.9423 7.67006 16.5677 8.29068 15.9859 8.68005C15.8831 8.74889 15.7778 8.80091 15.6751 8.84943L15.1859 12.365L14.5622 12.3364L15.0748 8.59851C15.0935 8.49605 15.1546 8.40536 15.2631 8.35598L15.2714 8.35223C15.3997 8.30295 15.5177 8.2474 15.6308 8.1717C16.0597 7.88465 16.3361 7.4273 16.3761 6.93259C16.4361 6.22336 16.021 5.56335 15.3863 5.26359L15.7481 6.40227C15.8397 6.71247 15.7207 7.03503 15.4523 7.21465C15.3826 7.26133 15.3163 7.28833 15.2391 7.31009L14.5355 7.51158C14.1294 7.62585 13.7183 7.40796 13.5908 7.02584L13.5901 7.02403L13.189 5.76936C12.9945 6.01751 12.8788 6.31198 12.8493 6.63116C12.7794 7.36757 13.2451 8.08272 13.9723 8.35597C14.1127 8.40927 14.1815 8.54062 14.1732 8.66755L14.1725 8.67837L13.6602 12.3828L13.0432 12.334L13.5315 8.82534C12.6784 8.40234 12.1458 7.50759 12.2193 6.57065C12.2684 5.93047 12.6048 5.33541 13.1286 4.94369L13.1349 4.93899C13.2098 4.88887 13.3143 4.86182 13.418 4.89496C13.5103 4.92444 13.5931 4.99528 13.6223 5.10519L14.179 6.84217C14.1919 6.89215 14.2641 6.93829 14.3335 6.91704L14.3361 6.91625L15.047 6.71269C15.1075 6.69851 15.1428 6.63055 15.1248 6.57714L15.1239 6.57457L14.5932 4.89763C14.5503 4.79328 14.5748 4.67309 14.6543 4.59324C14.7341 4.51319 14.8404 4.49727 14.9163 4.5L14.9242 4.50029Z" fill="#003D9E"/>
<path fill-rule="evenodd" clip-rule="evenodd" d="M7.73221 4.4017H10.2526L10.3369 4.59302C10.4923 4.94507 10.7252 5.49423 10.9199 5.99908C11.0171 6.25119 11.1061 6.4957 11.1713 6.70061C11.2314 6.88991 11.2861 7.0885 11.2861 7.2249C11.2861 7.36258 11.2416 7.51464 11.1918 7.64831C11.1393 7.78911 11.0687 7.94059 10.9935 8.08699C10.9092 8.25111 10.8159 8.41493 10.7292 8.55906L10.8686 8.62228C11.3577 8.84402 11.5047 9.26437 11.5163 9.49861L12 11.5171L11.343 11.6022L10.855 9.55579V9.52915C10.855 9.47837 10.8089 9.28321 10.5794 9.17916L10.2072 9.01041L9.54546 9.39226L10.0982 9.76818L10.6186 11.5091L9.96422 11.608L9.50221 10.1284L8.93646 9.74367L8.24648 10.1418L7.78742 11.608L7.13313 11.5091L7.65637 9.7548L10.0963 8.34692C10.1916 8.19288 10.3012 8.00473 10.3968 7.81868C10.466 7.68403 10.5253 7.55533 10.5667 7.44433C10.6108 7.32601 10.624 7.25471 10.624 7.2249C10.624 7.21306 10.6197 7.17906 10.6048 7.11625C10.5905 7.05625 10.5683 6.97657 10.5367 6.87724C10.4767 6.68852 10.3924 6.45647 10.2971 6.20932C10.139 5.79931 9.92375 5.25718 9.77809 4.92066H9.20687V7.04937L7.38596 7.46215C7.42306 7.55315 7.4722 7.65566 7.52853 7.7627C7.65807 8.00889 7.94431 8.469 8.04819 8.62228L7.34617 9.05019C7.13775 9.14245 7.10051 9.31244 7.10051 9.34798V9.38344L6.39951 11.6154L5.74707 11.5007L6.43991 9.30703C6.45554 9.07999 6.6025 8.69445 7.06252 8.49082L7.16746 8.44437C7.0904 8.31829 7.00881 8.17743 6.93453 8.03625C6.86346 7.90119 6.79646 7.76093 6.74652 7.6301C6.69938 7.50662 6.6559 7.36273 6.6559 7.23057C6.6559 7.15263 6.67499 7.06384 6.69473 6.98743C6.71624 6.90413 6.74621 6.80755 6.78131 6.70376C6.85164 6.49578 6.94735 6.24489 7.0507 5.98719C7.25765 5.47111 7.50064 4.91421 7.64686 4.59059L7.73221 4.4017ZM8.64483 6.6424V4.92066H8.1072C7.96193 5.24658 7.75592 5.72326 7.57774 6.16758C7.47917 6.41337 7.38996 6.64718 7.32438 6.83918C7.32215 6.84571 7.31995 6.85219 7.31778 6.85862C7.30696 6.8906 7.29692 6.92111 7.2877 6.95004L8.64483 6.6424Z" fill="#003D9E"/>
</svg>
