<svg width="20" height="15" viewBox="0 0 20 15" fill="none" xmlns="http://www.w3.org/2000/svg">
<path d="M5.61925 14.6308C5.13538 14.1385 5.13538 13.3404 5.61925 12.8481L17.8849 0.369209C18.3687 -0.12307 19.1532 -0.12307 19.6371 0.369209C20.121 0.861487 20.121 1.65963 19.6371 2.15191L7.37148 14.6308C6.88762 15.1231 6.10311 15.1231 5.61925 14.6308Z" fill="#003D9E"/>
<path d="M7.37148 14.6308C6.88762 15.1231 6.10311 15.1231 5.61925 14.6308L0.362899 9.2827C-0.120966 8.79042 -0.120966 7.99228 0.362899 7.5C0.846765 7.00772 1.63127 7.00772 2.11513 7.5L7.37183 12.8481C7.8557 13.3404 7.85535 14.1385 7.37148 14.6308Z" fill="#003D9E"/>
</svg>
