<svg width="9" height="9" viewBox="0 0 9 9" fill="none" xmlns="http://www.w3.org/2000/svg">
<path fill-rule="evenodd" clip-rule="evenodd" d="M9.00098 4.5C9.00098 6.98528 6.98626 9 4.50098 9H0.000976562V4.5C0.000976562 2.01472 2.0157 0 4.50098 0C6.98626 0 9.00098 2.01472 9.00098 4.5ZM3.18945 4.5C3.18945 3.80284 3.7943 3.1875 4.60398 3.1875C5.00426 3.1875 5.36042 3.34099 5.61488 3.58231L6.38903 2.76604C5.92794 2.32874 5.29559 2.0625 4.60398 2.0625C3.22989 2.0625 2.06445 3.12609 2.06445 4.5C2.06445 5.87391 3.22989 6.9375 4.60398 6.9375C5.29559 6.9375 5.92794 6.67126 6.38903 6.23396L5.61488 5.41769C5.36042 5.65901 5.00426 5.8125 4.60398 5.8125C3.7943 5.8125 3.18945 5.19716 3.18945 4.5Z" fill="#A9A9A9"/>
</svg>
