<svg width="20" height="20" viewBox="0 0 20 20" fill="none" xmlns="http://www.w3.org/2000/svg">
<path d="M20 19L20 1C20 0.734784 19.8946 0.48043 19.7071 0.292893C19.5196 0.105357 19.2652 -3.21184e-08 19 -4.37114e-08L1 -8.30516e-07C0.734784 -8.42109e-07 0.480429 0.105356 0.292892 0.292892C0.105356 0.480429 -3.21184e-08 0.734783 -4.37114e-08 0.999999L-8.30516e-07 19C-8.42109e-07 19.2652 0.105355 19.5196 0.292892 19.7071C0.480428 19.8946 0.734783 20 0.999999 20L19 20C19.2652 20 19.5196 19.8946 19.7071 19.7071C19.8946 19.5196 20 19.2652 20 19V19ZM2 6L2 2L18 2L18 6L2 6ZM2 12L2 8L18 8L18 12L2 12ZM2 18L2 14L18 14L18 18L2 18Z" fill="#A9A9A9"/>
</svg>
