<svg width="25" height="25" viewBox="0 0 25 25" fill="none" xmlns="http://www.w3.org/2000/svg">
<g opacity="0.6">
<path d="M19.5 20H5.5C5.22386 20 5 19.7761 5 19.5C5 19.2239 5.22386 19 5.5 19H19.5C19.7761 19 20 19.2239 20 19.5C20 19.7761 19.7761 20 19.5 20Z" fill="#003D9E" stroke="#003D9E" stroke-width="0.3"/>
<path d="M19.5 15H5.5C5.22386 15 5 14.7761 5 14.5C5 14.2239 5.22386 14 5.5 14H19.5C19.7761 14 20 14.2239 20 14.5C20 14.7761 19.7761 15 19.5 15Z" fill="#003D9E" stroke="#003D9E" stroke-width="0.3"/>
<path d="M19.5 10H5.5C5.22386 10 5 9.77614 5 9.5C5 9.22386 5.22386 9 5.5 9H19.5C19.7761 9 20 9.22386 20 9.5C20 9.77614 19.7761 10 19.5 10Z" fill="#003D9E" stroke="#003D9E" stroke-width="0.3"/>
<path d="M19.5 5H5.5C5.22386 5 5 4.77614 5 4.5C5 4.22386 5.22386 4 5.5 4H19.5C19.7761 4 20 4.22386 20 4.5C20 4.77614 19.7761 5 19.5 5Z" fill="#003D9E" stroke="#003D9E" stroke-width="0.3"/>
</g>
</svg>
