<svg width="25" height="25" viewBox="0 0 25 25" fill="none" xmlns="http://www.w3.org/2000/svg"><g opacity=".6" fill="#003D9E"><path d="M19.5 20h-14a.5.5 0 0 1 0-1h14a.5.5 0 0 1 0 1z"/><path fill-rule="evenodd" clip-rule="evenodd" d="M5.5 19.15a.35.35 0 1 0 0 .7h14a.35.35 0 1 0 0-.7h-14zm-.65.35a.65.65 0 0 1 .65-.65h14a.65.65 0 1 1 0 1.3h-14a.65.65 0 0 1-.65-.65z"/><path d="M19.5 15h-14a.5.5 0 0 1 0-1h14a.5.5 0 0 1 0 1z"/><path fill-rule="evenodd" clip-rule="evenodd" d="M5.5 14.15a.35.35 0 1 0 0 .7h14a.35.35 0 1 0 0-.7h-14zm-.65.35a.65.65 0 0 1 .65-.65h14a.65.65 0 1 1 0 1.3h-14a.65.65 0 0 1-.65-.65z"/><path d="M19.5 10h-14a.5.5 0 0 1 0-1h14a.5.5 0 0 1 0 1z"/><path fill-rule="evenodd" clip-rule="evenodd" d="M5.5 9.15a.35.35 0 1 0 0 .7h14a.35.35 0 1 0 0-.7h-14zm-.65.35a.65.65 0 0 1 .65-.65h14a.65.65 0 1 1 0 1.3h-14a.65.65 0 0 1-.65-.65z"/><path d="M19.5 5h-14a.5.5 0 0 1 0-1h14a.5.5 0 0 1 0 1z"/><path fill-rule="evenodd" clip-rule="evenodd" d="M5.5 4.15a.35.35 0 1 0 0 .7h14a.35.35 0 1 0 0-.7h-14zm-.65.35a.65.65 0 0 1 .65-.65h14a.65.65 0 1 1 0 1.3h-14a.65.65 0 0 1-.65-.65z"/></g></svg>