<svg width="25" height="25" viewBox="0 0 25 25" fill="none" xmlns="http://www.w3.org/2000/svg">
<g opacity="0.6">
<path d="M19.5 20H5.5C5.22386 20 5 19.7761 5 19.5C5 19.2239 5.22386 19 5.5 19H19.5C19.7761 19 20 19.2239 20 19.5C20 19.7761 19.7761 20 19.5 20Z" fill="#003D9E"/>
<path fill-rule="evenodd" clip-rule="evenodd" d="M5.49998 19.15C5.30668 19.15 5.14998 19.3067 5.14998 19.5C5.14998 19.6933 5.30668 19.85 5.49998 19.85H19.5C19.6933 19.85 19.85 19.6933 19.85 19.5C19.85 19.3067 19.6933 19.15 19.5 19.15H5.49998ZM4.84998 19.5C4.84998 19.141 5.14099 18.85 5.49998 18.85H19.5C19.859 18.85 20.15 19.141 20.15 19.5C20.15 19.859 19.859 20.15 19.5 20.15H5.49998C5.14099 20.15 4.84998 19.859 4.84998 19.5Z" fill="#003D9E"/>
<path d="M19.5 15H5.5C5.22386 15 5 14.7761 5 14.5C5 14.2239 5.22386 14 5.5 14H19.5C19.7761 14 20 14.2239 20 14.5C20 14.7761 19.7761 15 19.5 15Z" fill="#003D9E"/>
<path fill-rule="evenodd" clip-rule="evenodd" d="M5.49998 14.15C5.30668 14.15 5.14998 14.3067 5.14998 14.5C5.14998 14.6933 5.30668 14.85 5.49998 14.85H19.5C19.6933 14.85 19.85 14.6933 19.85 14.5C19.85 14.3067 19.6933 14.15 19.5 14.15H5.49998ZM4.84998 14.5C4.84998 14.141 5.14099 13.85 5.49998 13.85H19.5C19.859 13.85 20.15 14.141 20.15 14.5C20.15 14.859 19.859 15.15 19.5 15.15H5.49998C5.14099 15.15 4.84998 14.859 4.84998 14.5Z" fill="#003D9E"/>
<path d="M19.5 10H5.5C5.22386 10 5 9.77614 5 9.5C5 9.22386 5.22386 9 5.5 9H19.5C19.7761 9 20 9.22386 20 9.5C20 9.77614 19.7761 10 19.5 10Z" fill="#003D9E"/>
<path fill-rule="evenodd" clip-rule="evenodd" d="M5.49998 9.14998C5.30668 9.14998 5.14998 9.30668 5.14998 9.49998C5.14998 9.69328 5.30668 9.84998 5.49998 9.84998H19.5C19.6933 9.84998 19.85 9.69328 19.85 9.49998C19.85 9.30668 19.6933 9.14998 19.5 9.14998H5.49998ZM4.84998 9.49998C4.84998 9.14099 5.14099 8.84998 5.49998 8.84998H19.5C19.859 8.84998 20.15 9.14099 20.15 9.49998C20.15 9.85896 19.859 10.15 19.5 10.15H5.49998C5.14099 10.15 4.84998 9.85896 4.84998 9.49998Z" fill="#003D9E"/>
<path d="M19.5 5H5.5C5.22386 5 5 4.77614 5 4.5C5 4.22386 5.22386 4 5.5 4H19.5C19.7761 4 20 4.22386 20 4.5C20 4.77614 19.7761 5 19.5 5Z" fill="#003D9E"/>
<path fill-rule="evenodd" clip-rule="evenodd" d="M5.49998 4.14998C5.30668 4.14998 5.14998 4.30668 5.14998 4.49998C5.14998 4.69328 5.30668 4.84998 5.49998 4.84998H19.5C19.6933 4.84998 19.85 4.69328 19.85 4.49998C19.85 4.30668 19.6933 4.14998 19.5 4.14998H5.49998ZM4.84998 4.49998C4.84998 4.14099 5.14099 3.84998 5.49998 3.84998H19.5C19.859 3.84998 20.15 4.14099 20.15 4.49998C20.15 4.85896 19.859 5.14998 19.5 5.14998H5.49998C5.14099 5.14998 4.84998 4.85896 4.84998 4.49998Z" fill="#003D9E"/>
</g>
</svg>
