<svg width="14" height="14" viewBox="0 0 14 14" fill="none" xmlns="http://www.w3.org/2000/svg">
<path d="M7 0.333344C6.12452 0.333344 5.25762 0.505782 4.44878 0.840813C3.63994 1.17584 2.90501 1.66691 2.28596 2.28597C1.03571 3.53621 0.333336 5.2319 0.333336 7.00001C0.327507 8.53943 0.860531 10.0324 1.84 11.22L0.506669 12.5533C0.414164 12.6471 0.3515 12.7661 0.326584 12.8955C0.301667 13.0248 0.315616 13.1586 0.366669 13.28C0.422041 13.4 0.511805 13.5008 0.624567 13.5696C0.737329 13.6384 0.868003 13.6722 1 13.6667H7C8.76811 13.6667 10.4638 12.9643 11.714 11.7141C12.9643 10.4638 13.6667 8.76812 13.6667 7.00001C13.6667 5.2319 12.9643 3.53621 11.714 2.28597C10.4638 1.03572 8.76811 0.333344 7 0.333344V0.333344ZM7 12.3333H2.60667L3.22667 11.7133C3.35084 11.5884 3.42053 11.4195 3.42053 11.2433C3.42053 11.0672 3.35084 10.8983 3.22667 10.7733C2.35373 9.90137 1.81012 8.7537 1.68846 7.52587C1.56681 6.29804 1.87463 5.06601 2.55949 4.03969C3.24434 3.01337 4.26386 2.25625 5.44435 1.89733C6.62483 1.5384 7.89324 1.59988 9.03348 2.07129C10.1737 2.54269 11.1152 3.39486 11.6976 4.4826C12.28 5.57035 12.4672 6.82637 12.2274 8.03668C11.9876 9.24699 11.3355 10.3367 10.3824 11.1202C9.42918 11.9036 8.23384 12.3324 7 12.3333V12.3333Z" fill="#A9A9A9"/>
</svg>
