<svg width="21" height="21" viewBox="0 0 21 21" fill="none" xmlns="http://www.w3.org/2000/svg">
<path d="M19.61 18.19C20.2367 17.3499 20.6668 16.3799 20.8685 15.3514C21.0702 14.3229 21.0383 13.2623 20.7753 12.2478C20.5124 11.2332 20.0249 10.2907 19.349 9.48974C18.673 8.68877 17.8259 8.0498 16.87 7.61999C16.6618 6.42209 16.1833 5.28741 15.4708 4.30216C14.7584 3.31691 13.8307 2.50702 12.7583 1.93402C11.686 1.36102 10.4971 1.04 9.28205 0.99533C8.06702 0.950664 6.85778 1.18354 5.74623 1.67625C4.63468 2.16897 3.65007 2.90856 2.86719 3.83884C2.08432 4.76912 1.52379 5.86561 1.22819 7.04499C0.932596 8.22437 0.909711 9.45561 1.16128 10.6452C1.41284 11.8347 1.93224 12.9513 2.68 13.91L1.29 15.29C1.15124 15.4306 1.05724 15.6092 1.01987 15.8032C0.982496 15.9972 1.00342 16.1979 1.08 16.38C1.15502 16.5626 1.28242 16.7189 1.44614 16.8293C1.60986 16.9396 1.80257 16.999 2 17H7.69C8.25664 18.1946 9.15003 19.2043 10.2667 19.9122C11.3835 20.6201 12.6778 20.9972 14 21H20C20.1974 20.999 20.3901 20.9396 20.5539 20.8293C20.7176 20.7189 20.845 20.5626 20.92 20.38C20.9966 20.1979 21.0175 19.9972 20.9801 19.8032C20.9428 19.6092 20.8488 19.4306 20.71 19.29L19.61 18.19ZM7 14C7.00137 14.3349 7.02812 14.6692 7.08 15H4.41L4.76 14.66C4.85373 14.567 4.92812 14.4564 4.97889 14.3346C5.02966 14.2127 5.0558 14.082 5.0558 13.95C5.0558 13.818 5.02966 13.6873 4.97889 13.5654C4.92812 13.4436 4.85373 13.333 4.76 13.24C4.19956 12.6857 3.75525 12.0252 3.45305 11.2972C3.15086 10.5692 2.99684 9.78823 3 8.99999C3 7.40869 3.63214 5.88257 4.75736 4.75735C5.88258 3.63213 7.4087 2.99999 9 2.99999C10.2417 2.99253 11.4545 3.37438 12.4679 4.09186C13.4814 4.80934 14.2445 5.82637 14.65 6.99999C14.43 6.99999 14.22 6.99999 14 6.99999C12.1435 6.99999 10.363 7.73749 9.05025 9.05025C7.7375 10.363 7 12.1435 7 14ZM17.54 19L17.59 19.05H14C12.8433 19.0479 11.7232 18.6449 10.8303 17.9096C9.93747 17.1743 9.32717 16.1521 9.10339 15.0173C8.87962 13.8825 9.05621 12.7052 9.60307 11.686C10.1499 10.6668 11.0333 9.8687 12.1026 9.42769C13.1718 8.98669 14.361 8.93005 15.4673 9.26742C16.5737 9.6048 17.5289 10.3153 18.1701 11.2779C18.8114 12.2406 19.0991 13.3957 18.9842 14.5467C18.8693 15.6976 18.3589 16.7731 17.54 17.59C17.3516 17.7746 17.2438 18.0262 17.24 18.29C17.2405 18.4223 17.2673 18.5532 17.3188 18.6751C17.3703 18.7969 17.4455 18.9074 17.54 19V19Z" fill="white"/>
</svg>
