<svg width="20" height="20" viewBox="0 0 20 20" fill="none" xmlns="http://www.w3.org/2000/svg">
<path d="M8.21 12.75C8.30296 12.8437 8.41356 12.9181 8.53542 12.9689C8.65728 13.0197 8.78799 13.0458 8.92 13.0458C9.05201 13.0458 9.18272 13.0197 9.30458 12.9689C9.42644 12.9181 9.53704 12.8437 9.63 12.75L13.71 8.67C13.8983 8.4817 14.0041 8.2263 14.0041 7.96C14.0041 7.6937 13.8983 7.4383 13.71 7.25C13.5217 7.0617 13.2663 6.95591 13 6.95591C12.7337 6.95591 12.4783 7.0617 12.29 7.25L8.92 10.63L7.71 9.41C7.5217 9.2217 7.2663 9.11591 7 9.11591C6.7337 9.11591 6.4783 9.2217 6.29 9.41C6.1017 9.5983 5.99591 9.8537 5.99591 10.12C5.99591 10.3863 6.1017 10.6417 6.29 10.83L8.21 12.75ZM19 0H1C0.734784 0 0.48043 0.105357 0.292893 0.292893C0.105357 0.48043 0 0.734784 0 1V19C0 19.2652 0.105357 19.5196 0.292893 19.7071C0.48043 19.8946 0.734784 20 1 20H19C19.2652 20 19.5196 19.8946 19.7071 19.7071C19.8946 19.5196 20 19.2652 20 19V1C20 0.734784 19.8946 0.48043 19.7071 0.292893C19.5196 0.105357 19.2652 0 19 0V0ZM18 18H2V2H18V18Z" fill="black"/>
</svg>
