<svg width="6" height="4" viewBox="0 0 6 4" fill="none" xmlns="http://www.w3.org/2000/svg">
<path d="M0.500147 1.29509L2.64515 3.41509C2.69163 3.46195 2.74693 3.49915 2.80786 3.52453C2.86879 3.54992 2.93414 3.56299 3.00015 3.56299C3.06615 3.56299 3.13151 3.54992 3.19244 3.52453C3.25337 3.49915 3.30867 3.46195 3.35515 3.41509L5.47515 1.29509C5.52201 1.24861 5.55921 1.19331 5.58459 1.13238C5.60998 1.07145 5.62305 1.0061 5.62305 0.940089C5.62305 0.874083 5.60998 0.80873 5.58459 0.747801C5.55921 0.686871 5.52201 0.631571 5.47515 0.585089C5.38147 0.491964 5.25474 0.439693 5.12265 0.439693C4.99056 0.439693 4.86383 0.491964 4.77015 0.585089L3.00015 2.35509L1.23015 0.585089C1.13702 0.492717 1.01132 0.440641 0.880148 0.440089C0.814344 0.439708 0.749113 0.452321 0.688194 0.477203C0.627275 0.502085 0.571867 0.538748 0.525147 0.585089C0.47661 0.629898 0.437433 0.683881 0.409879 0.743918C0.382326 0.803956 0.366942 0.868859 0.364618 0.934876C0.362293 1.00089 0.373074 1.06672 0.396336 1.12854C0.419599 1.19037 0.454882 1.24698 0.500147 1.29509Z" fill="black"/>
</svg>
