<svg width="23" height="22" viewBox="0 0 23 22" fill="none" xmlns="http://www.w3.org/2000/svg">
<path fill-rule="evenodd" clip-rule="evenodd" d="M12.6663 3H11.333V20.3333C11.333 20.7015 11.6315 21 11.9997 21C12.3679 21 12.6663 20.7015 12.6663 20.3333V3ZM10.333 2V20.3333C10.333 21.2538 11.0792 22 11.9997 22C12.9201 22 13.6663 21.2538 13.6663 20.3333V2H10.333Z" fill="#003D9E"/>
<path fill-rule="evenodd" clip-rule="evenodd" d="M15.5 1L8.5 1C8.22386 1 8 1.22386 8 1.5C8 1.77614 8.22386 2 8.5 2L15.5 2C15.7761 2 16 1.77614 16 1.5C16 1.22386 15.7761 1 15.5 1ZM7 1.5C7 2.32843 7.67157 3 8.5 3L15.5 3C16.3284 3 17 2.32843 17 1.5C17 0.671573 16.3284 0 15.5 0L8.5 0C7.67157 0 7 0.671573 7 1.5Z" fill="#003D9E"/>
<path fill-rule="evenodd" clip-rule="evenodd" d="M11.3333 13V16H12.6667V13H11.3333ZM10.3333 17H13.6667V12H10.3333V17Z" fill="#003D9E"/>
<path fill-rule="evenodd" clip-rule="evenodd" d="M20 9H19V20.5C19 20.7761 19.2239 21 19.5 21C19.7761 21 20 20.7761 20 20.5V9ZM18 8V20.5C18 21.3284 18.6716 22 19.5 22C20.3284 22 21 21.3284 21 20.5V8H18Z" fill="#003D9E"/>
<path fill-rule="evenodd" clip-rule="evenodd" d="M21.5 7H17.5C17.2239 7 17 7.22386 17 7.5C17 7.77614 17.2239 8 17.5 8H21.5C21.7761 8 22 7.77614 22 7.5C22 7.22386 21.7761 7 21.5 7ZM16 7.5C16 8.32843 16.6716 9 17.5 9H21.5C22.3284 9 23 8.32843 23 7.5C23 6.67157 22.3284 6 21.5 6H17.5C16.6716 6 16 6.67157 16 7.5Z" fill="#003D9E"/>
<path fill-rule="evenodd" clip-rule="evenodd" d="M19 13V16H20V13H19ZM18 17H21V12H18V17Z" fill="#003D9E"/>
<path fill-rule="evenodd" clip-rule="evenodd" d="M5 13H4V20.5C4 20.7761 4.22386 21 4.5 21C4.77614 21 5 20.7761 5 20.5V13ZM3 12V20.5C3 21.3284 3.67157 22 4.5 22C5.32843 22 6 21.3284 6 20.5V12H3Z" fill="#003D9E"/>
<path fill-rule="evenodd" clip-rule="evenodd" d="M7.5 11H1.5C1.22386 11 1 11.2239 1 11.5C1 11.7761 1.22386 12 1.5 12H7.5C7.77614 12 8 11.7761 8 11.5C8 11.2239 7.77614 11 7.5 11ZM0 11.5C0 12.3284 0.671573 13 1.5 13H7.5C8.32843 13 9 12.3284 9 11.5C9 10.6716 8.32843 10 7.5 10H1.5C0.671573 10 0 10.6716 0 11.5Z" fill="#003D9E"/>
</svg>
