<svg width="18" height="14" viewBox="0 0 18 14" fill="none" xmlns="http://www.w3.org/2000/svg">
<path d="M0.223988 11.884C0.223988 12.244 0.349988 12.55 0.601988 12.802C0.853988 13.054 1.15999 13.18 1.51999 13.18H15.794C16.154 13.18 16.46 13.054 16.712 12.802C16.964 12.55 17.09 12.244 17.09 11.884C17.09 11.524 16.964 11.218 16.712 10.966C16.46 10.714 16.154 10.588 15.794 10.588H1.51999C1.17199 10.588 0.865988 10.714 0.601988 10.966C0.337988 11.218 0.211988 11.524 0.223988 11.884ZM0.223988 6.7C0.223988 7.06 0.349988 7.366 0.601988 7.618C0.853988 7.87 1.15999 7.996 1.51999 7.996H15.794C16.154 7.996 16.46 7.87 16.712 7.618C16.964 7.366 17.09 7.06 17.09 6.7C17.09 6.34 16.964 6.034 16.712 5.782C16.46 5.53 16.154 5.404 15.794 5.404H1.51999C1.17199 5.404 0.865988 5.53 0.601988 5.782C0.337988 6.034 0.211988 6.34 0.223988 6.7ZM0.223988 1.516C0.223988 1.876 0.349988 2.182 0.601988 2.434C0.853988 2.686 1.15999 2.812 1.51999 2.812H15.794C16.154 2.812 16.46 2.686 16.712 2.434C16.964 2.182 17.09 1.876 17.09 1.516C17.09 1.156 16.964 0.850001 16.712 0.598002C16.46 0.346001 16.154 0.220001 15.794 0.220001H1.51999C1.17199 0.220001 0.865988 0.346001 0.601988 0.598002C0.337988 0.850001 0.211988 1.156 0.223988 1.516Z" fill="white"/>
</svg>
