<svg width="18" height="14" viewBox="0 0 18 14" fill="none" xmlns="http://www.w3.org/2000/svg"><path d="M.224 11.884c0 .36.126.666.378.918s.558.378.918.378h14.274c.36 0 .666-.126.918-.378a1.25 1.25 0 0 0 .378-.918c0-.36-.126-.666-.378-.918a1.25 1.25 0 0 0-.918-.378H1.52a1.29 1.29 0 0 0-.918.378c-.264.252-.39.558-.378.918zm0-5.184c0 .36.126.666.378.918s.558.378.918.378h14.274c.36 0 .666-.126.918-.378a1.25 1.25 0 0 0 .378-.918c0-.36-.126-.666-.378-.918a1.25 1.25 0 0 0-.918-.378H1.52a1.29 1.29 0 0 0-.918.378c-.264.252-.39.558-.378.918zm0-5.184c0 .36.126.666.378.918s.558.378.918.378h14.274c.36 0 .666-.126.918-.378a1.25 1.25 0 0 0 .378-.918c0-.36-.126-.666-.378-.918a1.25 1.25 0 0 0-.918-.378H1.52a1.29 1.29 0 0 0-.918.378c-.264.252-.39.558-.378.918z" fill="#fff"/></svg>