<svg width="23" height="22" viewBox="0 0 23 22" fill="none" xmlns="http://www.w3.org/2000/svg">
<path fill-rule="evenodd" clip-rule="evenodd" d="M13.8199 6.89943L11.5 1.52376L9.18009 6.89943C8.89578 7.55823 8.28034 8.01425 7.56729 8.09443L1.86889 8.73525L6.17022 12.7874C6.67305 13.2611 6.89582 13.9608 6.75944 14.638L5.57842 20.5028L10.4757 17.5825C11.1067 17.2062 11.8933 17.2062 12.5243 17.5825L17.4216 20.5028L16.2405 14.638C16.1042 13.9608 16.3269 13.2611 16.8298 12.7874L21.1311 8.73525L15.4327 8.09443C14.7197 8.01425 14.1042 7.55824 13.8199 6.89943ZM12.4181 1.12753C12.0707 0.322503 10.9293 0.322502 10.5818 1.12752L8.26194 6.5032C8.11978 6.8326 7.81206 7.06061 7.45554 7.1007L1.75713 7.74152C0.910651 7.83671 0.563159 8.87903 1.18318 9.46313L5.48451 13.5153C5.73593 13.7521 5.84731 14.102 5.77912 14.4406L4.5981 20.3053C4.42685 21.1557 5.34551 21.8059 6.09058 21.3616L10.9878 18.4414C11.3034 18.2533 11.6966 18.2533 12.0122 18.4414L16.9094 21.3616C17.6545 21.8059 18.5731 21.1557 18.4019 20.3053L17.2209 14.4406C17.1527 14.102 17.2641 13.7521 17.5155 13.5153L21.8168 9.46313C22.4368 8.87903 22.0893 7.83671 21.2429 7.74152L15.5444 7.1007C15.1879 7.06061 14.8802 6.8326 14.7381 6.5032L12.4181 1.12753Z" fill="#003D9E"/>
</svg>
