<svg width="23" height="22" viewBox="0 0 23 22" fill="none" xmlns="http://www.w3.org/2000/svg"><path fill-rule="evenodd" clip-rule="evenodd" d="M13.82 6.9L11.5 1.523 9.18 6.899a2 2 0 0 1-1.613 1.195l-5.698.641 4.301 4.052a2 2 0 0 1 .59 1.851l-1.182 5.865 4.898-2.92a2 2 0 0 1 2.048 0l4.898 2.92-1.181-5.865a2 2 0 0 1 .589-1.85l4.301-4.053-5.698-.64a2 2 0 0 1-1.613-1.196zm-1.402-5.772c-.347-.805-1.489-.805-1.836 0l-2.32 5.375a1 1 0 0 1-.806.598l-5.699.64a1 1 0 0 0-.574 1.722l4.302 4.052a1 1 0 0 1 .294.926L4.6 20.305c-.172.85.747 1.5 1.492 1.057l4.897-2.92a1 1 0 0 1 1.024 0l4.897 2.92c.745.444 1.664-.206 1.493-1.057l-1.181-5.864a1 1 0 0 1 .294-.926l4.302-4.052a1 1 0 0 0-.574-1.721l-5.7-.642a1 1 0 0 1-.806-.598l-2.32-5.375z" fill="#003D9E"/></svg>