<svg width="14" height="19" viewBox="0 0 14 19" fill="none" xmlns="http://www.w3.org/2000/svg"><path fill-rule="evenodd" clip-rule="evenodd" d="M7.487 8.18c.508.604.236.878 1.815 2.196 1.796 1.519 1.343 4.209-.799 5.05-.78.312-1.705.184-2.395-.292-.036-.037-.29-.22-.308-.238l-.255-.275c.744-.366.817-.256 1.343-.823.4-.42.69-.823.744-1.574.11-1.5-.816-2.306-.145-4.044zM2.37 5.856C1.208 6.55.265 8.747.065 10.339c-.798 6.424 5.916 9.937 10.78 7.229 1.342-.75 2.486-2.013 2.94-3.825 1.25-4.923-3.305-6.953-4.43-8.436C7.723 3.166 8.721.97 8.866 0 4.783 1.263 2.57 6.204 3.95 10.101c.49 1.373-.49 1.647-1.071.75-.962-1.445-1.107-3.183-.49-4.995H2.37z" fill="#13B3EB"/></svg>