<svg width="14" height="19" viewBox="0 0 14 19" fill="none" xmlns="http://www.w3.org/2000/svg">
<path fill-rule="evenodd" clip-rule="evenodd" d="M7.48717 8.17998C7.99529 8.78387 7.72308 9.05837 9.30186 10.3759C11.0984 11.8948 10.6447 14.5849 8.5034 15.4267C7.72308 15.7378 6.7976 15.6097 6.10802 15.1339C6.07172 15.0973 5.81767 14.9143 5.79952 14.896L5.54546 14.6215C6.28948 14.2555 6.36207 14.3653 6.88833 13.798C7.28756 13.3771 7.57791 12.9745 7.63235 12.2242C7.74123 10.7236 6.81574 9.91846 7.48717 8.17998ZM2.36977 5.85592C1.20838 6.5513 0.26474 8.74727 0.0651253 10.3393C-0.733335 16.7626 5.98099 20.2761 10.8443 17.5677C12.1872 16.8175 13.3305 15.5548 13.7841 13.7431C15.0363 8.82047 10.4814 6.7892 9.3563 5.30692C7.72308 3.16585 8.72116 0.969886 8.86633 0C4.7833 1.26268 2.56939 6.20361 3.94854 10.1015C4.43851 11.4739 3.45858 11.7484 2.87788 10.8517C1.9161 9.40606 1.77093 7.66759 2.38792 5.85592H2.36977Z" fill="#13B3EB"/>
</svg>
