<svg width="25" height="25" viewBox="0 0 25 25" fill="none" xmlns="http://www.w3.org/2000/svg">
<g opacity="0.6">
<path d="M17.3567 21.5H17.3571H19.7857C20.2286 21.5 20.6603 21.3373 20.9842 21.0372C21.3094 20.7359 21.5 20.3188 21.5 19.8749V11.8304V11.8297C21.4997 11.5929 21.4449 11.3602 21.3408 11.1475C21.242 10.9456 21.1015 10.7671 20.93 10.6215L13.6648 2.93636L13.6424 2.91266L13.6171 2.89207C13.3032 2.6366 12.9059 2.5 12.5 2.5C12.0941 2.5 11.6968 2.6366 11.3829 2.89207L11.3576 2.91266L11.3352 2.93636L4.06995 10.6215C3.89849 10.7671 3.75802 10.9456 3.65921 11.1475C3.55513 11.3602 3.50032 11.5929 3.5 11.8297V11.8304V19.8749C3.5 20.3188 3.69064 20.7359 4.01583 21.0372C4.33974 21.3373 4.77142 21.5 5.21429 21.5H7.64286H7.64309C8.85304 21.4994 8.85709 21.4994 10.0589 21.4994H10.0713C10.6784 21.4994 10.9766 21.4996 11.2438 21.4997L11.2892 21.4997C11.5388 21.4999 11.775 21.5 12.2307 21.5C12.6798 21.5 13.0172 21.4999 13.3783 21.4998L13.4611 21.4997C13.8544 21.4996 14.2872 21.4994 14.9285 21.4994H14.9415C16.2149 21.4994 16.7518 21.4994 17.3567 21.5Z" stroke="#003D9E"/>
<path d="M8 12.5H17C17.2761 12.5 17.5 12.7239 17.5 13V18C17.5 18.2761 17.2761 18.5 17 18.5H8C7.72386 18.5 7.5 18.2761 7.5 18V13C7.5 12.7239 7.72386 12.5 8 12.5Z" fill="white" stroke="#003D9E"/>
</g>
</svg>
