<svg width="19" height="20" viewBox="0 0 19 20" fill="none" xmlns="http://www.w3.org/2000/svg">
<path fill-rule="evenodd" clip-rule="evenodd" d="M14.3562 20C13.7516 19.9994 13.215 19.9994 11.9415 19.9994H11.9285C11.2873 19.9994 10.8545 19.9996 10.4612 19.9997L10.3787 19.9998C10.0175 19.9999 9.67996 20 9.23071 20C8.77482 20 8.53855 19.9999 8.28885 19.9997L8.24354 19.9997C7.97639 19.9996 7.67825 19.9994 7.07131 19.9994H7.05892C5.85716 19.9994 5.85319 19.9994 4.64331 20H2.21429C1.6506 20 1.09609 19.7932 0.676004 19.404C0.253348 19.0124 0 18.4642 0 17.8749V9.82902C0.000429809 9.51522 0.0731199 9.20772 0.210087 8.92778C0.335743 8.67096 0.511743 8.4448 0.724173 8.2594L8.0167 0.545473L8.06728 0.504298C8.47339 0.173732 8.98313 0 9.5 0C10.0169 0 10.5266 0.173732 10.9327 0.504298L10.9833 0.545473L18.2758 8.2594C18.4883 8.4448 18.6643 8.67097 18.7899 8.92778C18.9269 9.20772 18.9996 9.51521 19 9.82902V17.8749C19 18.4642 18.7466 19.0124 18.324 19.404C17.9039 19.7932 17.3494 20 16.7857 20H14.3562ZM17.5871 8.98657L10.3014 1.27985C10.0798 1.09947 9.79496 1 9.5 1C9.20504 1 8.92016 1.09947 8.69857 1.27985L1.41286 8.98657C1.28333 9.092 1.17952 9.22178 1.10834 9.36727C1.03715 9.51277 1.00022 9.67064 1 9.83038V17.8749C1 18.1733 1.12793 18.4595 1.35566 18.6705C1.58338 18.8815 1.89224 19 2.21429 19H4.64286C5.85288 18.9994 5.85701 18.9994 7.05892 18.9994H7.07131C7.71312 18.9994 8.00982 18.9996 8.28959 18.9997C8.53914 18.9999 8.77521 19 9.23071 19C9.67961 19 10.0169 18.9999 10.3779 18.9998C10.794 18.9996 11.2417 18.9994 11.9285 18.9994H11.9415C13.2148 18.9994 13.752 18.9994 14.3571 19H16.7857C17.1078 19 17.4166 18.8815 17.6443 18.6705C17.8721 18.4595 18 18.1733 18 17.8749V9.83038C17.9998 9.67064 17.9628 9.51277 17.8917 9.36727C17.8205 9.22178 17.7167 9.092 17.5871 8.98657Z" fill="#003D9E"/>
<path fill-rule="evenodd" clip-rule="evenodd" d="M14 11H5L5 16H14V11ZM5 10C4.44772 10 4 10.4477 4 11V16C4 16.5523 4.44771 17 5 17H14C14.5523 17 15 16.5523 15 16V11C15 10.4477 14.5523 10 14 10H5Z" fill="#003D9E"/>
</svg>
