<svg width="19" height="20" viewBox="0 0 19 20" fill="none" xmlns="http://www.w3.org/2000/svg"><path fill-rule="evenodd" clip-rule="evenodd" d="M14.356 20H2.214a2.265 2.265 0 0 1-1.538-.596A2.085 2.085 0 0 1 0 17.874V9.83c0-.314.073-.621.21-.901a2.15 2.15 0 0 1 .514-.669L8.017.545l.05-.04C8.473.173 8.983 0 9.5 0s1.027.174 1.433.504l.05.041 7.293 7.714c.212.186.388.412.514.669.137.28.21.587.21.901v8.046c0 .59-.253 1.137-.676 1.529-.42.39-.975.596-1.538.596h-2.43zm3.231-11.013L10.301 1.28A1.271 1.271 0 0 0 9.5 1c-.295 0-.58.1-.801.28L1.413 8.987a1.14 1.14 0 0 0-.305.38A1.056 1.056 0 0 0 1 9.83v8.045c0 .298.128.584.356.796.227.21.536.329.858.329h14.572c.322 0 .63-.119.858-.33.228-.21.356-.497.356-.795V9.83c0-.16-.037-.317-.108-.463a1.135 1.135 0 0 0-.305-.38z" fill="#003D9E"/><path fill-rule="evenodd" clip-rule="evenodd" d="M14 11H5v5h9v-5zm-9-1a1 1 0 0 0-1 1v5a1 1 0 0 0 1 1h9a1 1 0 0 0 1-1v-5a1 1 0 0 0-1-1H5z" fill="#003D9E"/></svg>