<svg width="20" height="12" viewBox="0 0 20 12" fill="none" xmlns="http://www.w3.org/2000/svg">
<path d="M3 2H17C17.2652 2 17.5196 1.89464 17.7071 1.70711C17.8946 1.51957 18 1.26522 18 1C18 0.734784 17.8946 0.48043 17.7071 0.292893C17.5196 0.105357 17.2652 0 17 0H3C2.73478 0 2.48043 0.105357 2.29289 0.292893C2.10536 0.48043 2 0.734784 2 1C2 1.26522 2.10536 1.51957 2.29289 1.70711C2.48043 1.89464 2.73478 2 3 2ZM19 5H1C0.734784 5 0.48043 5.10536 0.292893 5.29289C0.105357 5.48043 0 5.73478 0 6C0 6.26522 0.105357 6.51957 0.292893 6.70711C0.48043 6.89464 0.734784 7 1 7H19C19.2652 7 19.5196 6.89464 19.7071 6.70711C19.8946 6.51957 20 6.26522 20 6C20 5.73478 19.8946 5.48043 19.7071 5.29289C19.5196 5.10536 19.2652 5 19 5ZM17 10H3C2.73478 10 2.48043 10.1054 2.29289 10.2929C2.10536 10.4804 2 10.7348 2 11C2 11.2652 2.10536 11.5196 2.29289 11.7071C2.48043 11.8946 2.73478 12 3 12H17C17.2652 12 17.5196 11.8946 17.7071 11.7071C17.8946 11.5196 18 11.2652 18 11C18 10.7348 17.8946 10.4804 17.7071 10.2929C17.5196 10.1054 17.2652 10 17 10Z" fill="#003D9E"/>
</svg>
