<svg width="14" height="14" viewBox="0 0 14 14" fill="none" xmlns="http://www.w3.org/2000/svg"><path d="M13.2 5.72A2 2 0 0 0 11.667 5h-3.04L9 4.047A2.753 2.753 0 0 0 6.407.333.667.667 0 0 0 5.8.727L3.9 5H2.333a2 2 0 0 0-2 2v4.667a2 2 0 0 0 2 2h8.487a2 2 0 0 0 1.967-1.64l.846-4.667a2 2 0 0 0-.433-1.64zm-9.533 6.613H2.333a.667.667 0 0 1-.666-.666V7a.667.667 0 0 1 .666-.667h1.334v6zm8.666-5.213l-.846 4.667a.667.667 0 0 1-.667.546H5V5.807l1.813-4.08a1.406 1.406 0 0 1 .92 1.853l-.353.953a1.333 1.333 0 0 0 1.247 1.8h3.04a.667.667 0 0 1 .513.24.667.667 0 0 1 .153.547z" fill="#A9A9A9"/></svg>