<svg width="18" height="22" viewBox="0 0 18 22" fill="none" xmlns="http://www.w3.org/2000/svg">
<path d="M9 1C6.87827 1 4.84344 1.84285 3.34315 3.34315C1.84285 4.84344 1 6.87827 1 9C1 14.4 8.05 20.5 8.35 20.76C8.53113 20.9149 8.76165 21.0001 9 21.0001C9.23835 21.0001 9.46887 20.9149 9.65 20.76C10 20.5 17 14.4 17 9C17 6.87827 16.1571 4.84344 14.6569 3.34315C13.1566 1.84285 11.1217 1 9 1V1ZM9 18.65C6.87 16.65 3 12.34 3 9C3 7.4087 3.63214 5.88258 4.75736 4.75736C5.88258 3.63214 7.4087 3 9 3C10.5913 3 12.1174 3.63214 13.2426 4.75736C14.3679 5.88258 15 7.4087 15 9C15 12.34 11.13 16.66 9 18.65ZM9 5C8.20887 5 7.43552 5.2346 6.77772 5.67412C6.11992 6.11365 5.60723 6.73836 5.30448 7.46927C5.00173 8.20017 4.92252 9.00444 5.07686 9.78036C5.2312 10.5563 5.61216 11.269 6.17157 11.8284C6.73098 12.3878 7.44371 12.7688 8.21964 12.9231C8.99556 13.0775 9.79983 12.9983 10.5307 12.6955C11.2616 12.3928 11.8864 11.8801 12.3259 11.2223C12.7654 10.5645 13 9.79113 13 9C13 7.93913 12.5786 6.92172 11.8284 6.17157C11.0783 5.42143 10.0609 5 9 5ZM9 11C8.60444 11 8.21776 10.8827 7.88886 10.6629C7.55996 10.4432 7.30362 10.1308 7.15224 9.76537C7.00087 9.39991 6.96126 8.99778 7.03843 8.60982C7.1156 8.22186 7.30608 7.86549 7.58579 7.58579C7.86549 7.30608 8.22186 7.1156 8.60982 7.03843C8.99778 6.96126 9.39991 7.00087 9.76537 7.15224C10.1308 7.30362 10.4432 7.55996 10.6629 7.88886C10.8827 8.21776 11 8.60444 11 9C11 9.53043 10.7893 10.0391 10.4142 10.4142C10.0391 10.7893 9.53043 11 9 11Z" fill="#003D9E" stroke="white"/>
</svg>
