<svg width="21" height="21" viewBox="0 0 21 21" fill="none" xmlns="http://www.w3.org/2000/svg"><path d="M10.5 5.574A4.931 4.931 0 0 0 5.574 10.5a4.931 4.931 0 0 0 4.926 4.926 4.931 4.931 0 0 0 4.926-4.926A4.931 4.931 0 0 0 10.5 5.574zm0 9.148A4.227 4.227 0 0 1 6.278 10.5 4.227 4.227 0 0 1 10.5 6.278a4.227 4.227 0 0 1 4.222 4.222 4.227 4.227 0 0 1-4.222 4.222z" fill="#003D9E"/><path d="M19.022 8.389h-.71a8.02 8.02 0 0 0-.796-1.92l.502-.502a.972.972 0 0 0 .287-.692.973.973 0 0 0-.287-.692l-1.602-1.602a1.003 1.003 0 0 0-1.384 0l-.501.502a8.042 8.042 0 0 0-1.92-.795v-.71A.98.98 0 0 0 11.633 1H9.367a.98.98 0 0 0-.978.978v.71a8.037 8.037 0 0 0-1.92.795l-.502-.501a1.002 1.002 0 0 0-1.384 0L2.981 4.584a.972.972 0 0 0-.286.692c0 .26.102.506.286.691l.502.502a8.01 8.01 0 0 0-.795 1.92h-.71A.98.98 0 0 0 1 9.367v2.265c0 .54.439.979.978.979h.71c.181.672.448 1.316.795 1.92l-.501.502a.972.972 0 0 0-.287.691c0 .262.102.507.287.692l1.602 1.602a1 1 0 0 0 1.383 0l.502-.501a8.05 8.05 0 0 0 1.92.795v.71c0 .54.439.978.978.978h2.266a.98.98 0 0 0 .978-.978v-.71a8.04 8.04 0 0 0 1.92-.795l.502.502c.37.37 1.014.369 1.383 0l1.602-1.602a.973.973 0 0 0 .287-.693.973.973 0 0 0-.287-.691l-.501-.502a8.052 8.052 0 0 0 .795-1.92h.71a.98.98 0 0 0 .978-.978V9.367a.98.98 0 0 0-.978-.978zm.274 3.244a.275.275 0 0 1-.274.274h-1.264l-.064.272a7.346 7.346 0 0 1-.919 2.22l-.148.238.894.893a.275.275 0 0 1 0 .389l-1.602 1.602a.274.274 0 0 1-.389 0l-.893-.894-.237.148a7.33 7.33 0 0 1-2.22.92l-.273.063v1.264a.275.275 0 0 1-.274.274H9.367a.275.275 0 0 1-.275-.274v-1.264l-.271-.064a7.347 7.347 0 0 1-2.221-.919l-.237-.148-.893.894a.275.275 0 0 1-.389 0L3.48 15.919a.275.275 0 0 1 0-.389l.893-.893-.147-.237a7.331 7.331 0 0 1-.92-2.22l-.063-.273H1.978a.275.275 0 0 1-.274-.274V9.367c0-.151.123-.275.274-.275h1.264l.063-.271a7.341 7.341 0 0 1 .92-2.221l.147-.237-.893-.893a.275.275 0 0 1 0-.389L5.081 3.48a.275.275 0 0 1 .389 0l.893.893.237-.147a7.332 7.332 0 0 1 2.22-.92l.272-.063V1.978c0-.151.124-.274.275-.274h2.265c.152 0 .275.123.275.274v1.264l.272.063a7.348 7.348 0 0 1 2.22.92l.238.147.893-.893a.275.275 0 0 1 .389 0l1.602 1.602a.275.275 0 0 1 0 .389l-.894.893.148.237c.427.686.736 1.433.92 2.22l.063.272h1.264c.15 0 .274.124.274.275v2.266z" fill="#003D9E"/><path fill-rule="evenodd" clip-rule="evenodd" d="M18.018 4.583c.185.185.287.43.287.692a.972.972 0 0 1-.287.692l-.502.502a8.02 8.02 0 0 1 .796 1.92h.71a.98.98 0 0 1 .978.978v2.266a.98.98 0 0 1-.978.978h-.71a8.052 8.052 0 0 1-.795 1.92l.502.502c.184.185.286.43.286.691a.973.973 0 0 1-.287.692l-1.602 1.602a1 1 0 0 1-1.383 0l-.502-.501a8.04 8.04 0 0 1-1.92.795v.71a.98.98 0 0 1-.978.978H9.367a.98.98 0 0 1-.978-.978v-.71a8.05 8.05 0 0 1-1.92-.795l-.502.502a1 1 0 0 1-1.383 0l-1.602-1.602a.973.973 0 0 1-.287-.693.97.97 0 0 1 .287-.691l.501-.502a8.039 8.039 0 0 1-.795-1.92h-.71A.98.98 0 0 1 1 11.632V9.367a.98.98 0 0 1 .978-.978h.71a8.01 8.01 0 0 1 .795-1.92l-.502-.502a.973.973 0 0 1-.286-.691c0-.262.102-.508.286-.692l1.602-1.602c.37-.37 1.014-.37 1.384 0l.502.501a8.037 8.037 0 0 1 1.92-.795v-.71A.98.98 0 0 1 9.367 1h2.266a.98.98 0 0 1 .978.978v.71a8.042 8.042 0 0 1 1.92.795l.501-.502a1.003 1.003 0 0 1 1.384 0l1.602 1.602zm-3.522-1.349l.395-.394a1.202 1.202 0 0 1 1.667 0l1.602 1.602c.222.222.345.519.345.833 0 .314-.123.611-.345.833l-.395.395c.295.535.529 1.1.698 1.686h.559c.65 0 1.178.528 1.178 1.178v2.266a1.18 1.18 0 0 1-1.178 1.178h-.558a8.252 8.252 0 0 1-.699 1.686l.395.394a1.176 1.176 0 0 1 0 1.667l-1.602 1.602a1.202 1.202 0 0 1-1.667 0l-.394-.395a8.24 8.24 0 0 1-1.686.699v.558a1.18 1.18 0 0 1-1.178 1.178H9.367a1.18 1.18 0 0 1-1.178-1.178v-.558a8.255 8.255 0 0 1-1.686-.699l-.394.395a1.201 1.201 0 0 1-1.667 0L2.84 16.558a1.173 1.173 0 0 1-.345-.834c0-.314.123-.61.345-.833l.395-.394a8.234 8.234 0 0 1-.699-1.686h-.558A1.18 1.18 0 0 1 .8 11.633V9.367c0-.65.528-1.178 1.178-1.178h.558a8.28 8.28 0 0 1 .698-1.686L2.84 6.11a1.173 1.173 0 0 1-.345-.833c0-.315.123-.612.345-.834L4.442 2.84a1.202 1.202 0 0 1 1.666 0l.395.395a8.234 8.234 0 0 1 1.686-.699v-.558c0-.65.528-1.178 1.178-1.178h2.266c.65 0 1.178.528 1.178 1.178v.558c.586.17 1.15.404 1.685.698zm3.103 8.473h1.423c.04 0 .074-.033.074-.074V9.367a.075.075 0 0 0-.074-.075h-1.423l-.1-.426a7.126 7.126 0 0 0-.894-2.16l-.232-.372 1.006-1.006a.075.075 0 0 0 0-.105L15.777 3.62a.075.075 0 0 0-.105 0l-1.006 1.005-.372-.231a7.149 7.149 0 0 0-2.16-.895l-.427-.1v-1.42a.075.075 0 0 0-.075-.074H9.367a.075.075 0 0 0-.075.074v1.423l-.426.1a7.132 7.132 0 0 0-2.16.893l-.372.232-1.006-1.005a.075.075 0 0 0-.105 0L3.62 5.223a.075.075 0 0 0 0 .105l1.005 1.006-.232.372a7.14 7.14 0 0 0-.894 2.16l-.1.426h-1.42a.075.075 0 0 0-.074.075v2.266c0 .04.033.074.074.074h1.423l.1.427c.177.766.478 1.493.893 2.16l.232.372-1.005 1.006a.075.075 0 0 0 0 .105l1.602 1.602c.028.029.076.03.105 0l1.006-1.006.372.232a7.145 7.145 0 0 0 2.16.895l.426.099v1.423c0 .04.034.074.075.074h2.266c.04 0 .074-.034.074-.074v-1.423l.427-.1a7.13 7.13 0 0 0 2.16-.894l.372-.232 1.006 1.006c.028.029.076.03.105 0l1.602-1.602a.075.075 0 0 0 0-.105l-1.006-1.006.232-.372a7.145 7.145 0 0 0 .895-2.16l.099-.427zm-.824 2.693l-.148.237.894.893a.275.275 0 0 1 0 .389l-1.602 1.602a.274.274 0 0 1-.389 0l-.893-.894-.237.148a7.33 7.33 0 0 1-2.22.92l-.273.063v1.264a.275.275 0 0 1-.274.274H9.367a.275.275 0 0 1-.275-.274v-1.264l-.271-.064a7.347 7.347 0 0 1-2.221-.919l-.237-.148-.893.894a.275.275 0 0 1-.389 0L3.48 15.919a.275.275 0 0 1 0-.389l.893-.893-.147-.237a7.331 7.331 0 0 1-.92-2.22l-.063-.273H1.978a.275.275 0 0 1-.274-.274V9.367c0-.151.123-.275.274-.275h1.264l.063-.271a7.341 7.341 0 0 1 .92-2.221l.147-.237-.893-.893a.275.275 0 0 1 0-.389L5.081 3.48a.275.275 0 0 1 .389 0l.893.893.237-.147a7.332 7.332 0 0 1 2.22-.92l.272-.063V1.978c0-.151.124-.274.275-.274h2.265c.152 0 .275.123.275.274v1.264l.272.063a7.348 7.348 0 0 1 2.22.92l.238.147.893-.893a.275.275 0 0 1 .389 0l1.602 1.602a.275.275 0 0 1 0 .389l-.894.893.148.237c.427.686.736 1.433.92 2.22l.063.272h1.264c.15 0 .274.124.274.275v2.266a.275.275 0 0 1-.274.274h-1.264l-.064.272a7.346 7.346 0 0 1-.919 2.22zM5.374 10.5c0-2.827 2.3-5.126 5.126-5.126 2.827 0 5.126 2.3 5.126 5.126 0 2.827-2.3 5.126-5.126 5.126A5.131 5.131 0 0 1 5.374 10.5zm1.104 0a4.027 4.027 0 0 0 4.022 4.022 4.027 4.027 0 0 0 4.022-4.022A4.027 4.027 0 0 0 10.5 6.478 4.027 4.027 0 0 0 6.478 10.5zm-.904 0A4.931 4.931 0 0 1 10.5 5.574a4.931 4.931 0 0 1 4.926 4.926 4.931 4.931 0 0 1-4.926 4.926A4.931 4.931 0 0 1 5.574 10.5zm.704 0a4.227 4.227 0 0 0 4.222 4.222 4.227 4.227 0 0 0 4.222-4.222A4.227 4.227 0 0 0 10.5 6.278 4.227 4.227 0 0 0 6.278 10.5z" fill="#003D9E"/></svg>