<svg width="21" height="21" viewBox="0 0 21 21" fill="none" xmlns="http://www.w3.org/2000/svg">
<path d="M10.4999 5.57404C7.78363 5.57404 5.57404 7.78363 5.57404 10.4999C5.57404 13.2161 7.78363 15.4257 10.4999 15.4257C13.2161 15.4257 15.4257 13.2161 15.4257 10.4999C15.4257 7.78363 13.2161 5.57404 10.4999 5.57404ZM10.4999 14.722C8.17171 14.722 6.27773 12.828 6.27773 10.4999C6.27773 8.17171 8.17171 6.27773 10.4999 6.27773C12.828 6.27773 14.722 8.17171 14.722 10.4999C14.722 12.828 12.828 14.722 10.4999 14.722Z" fill="#003D9E"/>
<path d="M19.0216 8.3888H18.3115C18.1303 7.71607 17.864 7.0722 17.5164 6.46878L18.0181 5.96705C18.2028 5.78233 18.3045 5.53639 18.3045 5.27532C18.3045 5.0139 18.2028 4.76831 18.0181 4.58324L16.4162 2.98129C16.0467 2.6122 15.4025 2.6115 15.0323 2.98129L14.5306 3.48302C13.9268 3.13575 13.2833 2.8694 12.6109 2.6882V1.97818C12.6109 1.4388 12.1722 1.00005 11.6328 1.00005H9.36693C8.82755 1.00005 8.3888 1.4388 8.3888 1.97818V2.6882C7.71642 2.8694 7.0729 3.13575 6.46878 3.48337L5.96705 2.98164C5.59726 2.6115 4.95268 2.6122 4.58324 2.98164L2.98129 4.58359C2.79657 4.76831 2.69489 5.01425 2.69489 5.27567C2.69489 5.53674 2.79657 5.78233 2.98129 5.9674L3.48302 6.46913C3.13575 7.0722 2.86905 7.71607 2.6882 8.3888H1.97818C1.4388 8.3888 1.00005 8.82755 1.00005 9.36693V11.6325C1.00005 12.1722 1.4388 12.6109 1.97818 12.6109H2.6882C2.8694 13.2833 3.13575 13.9268 3.48337 14.531L2.98164 15.0327C2.79692 15.2174 2.69524 15.4634 2.69524 15.7244C2.69524 15.9858 2.79692 16.2314 2.98164 16.4165L4.58359 18.0185C4.95303 18.3882 5.59761 18.3886 5.9674 18.0185L6.46913 17.5167C7.07325 17.864 7.71678 18.1307 8.38915 18.3119V19.0219C8.38915 19.5613 8.8279 20 9.36728 20H11.6328C12.1722 20 12.6109 19.5613 12.6109 19.0219V18.3119C13.2833 18.1307 13.9268 17.8643 14.531 17.5167L15.0327 18.0185C15.4028 18.3886 16.0467 18.3879 16.4165 18.0185L18.0185 16.4165C18.2032 16.2318 18.3049 15.9858 18.3049 15.7244C18.3049 15.4634 18.2032 15.2178 18.0185 15.0327L17.5167 14.531C17.864 13.9268 18.1307 13.2833 18.3119 12.6109H19.0219C19.5613 12.6109 20 12.1722 20 11.6328V9.36693C19.9997 8.82755 19.5609 8.3888 19.0216 8.3888ZM19.296 11.6328C19.296 11.7841 19.1729 11.9073 19.0216 11.9073H17.7577L17.6944 12.1792C17.5111 12.9663 17.2022 13.7133 16.775 14.3997L16.6273 14.6369L17.5206 15.5302C17.6279 15.6375 17.6279 15.8117 17.5206 15.9186L15.9186 17.5206C15.8117 17.6276 15.6375 17.6283 15.5302 17.5206L14.6369 16.6273L14.3997 16.775C13.7136 17.2022 12.9667 17.5114 12.1792 17.6944L11.9073 17.7577V19.0216C11.9073 19.1729 11.7841 19.296 11.6328 19.296H9.36693C9.21564 19.296 9.09249 19.1729 9.09249 19.0216V17.7577L8.82052 17.6944C8.03344 17.5111 7.28647 17.2022 6.60002 16.775L6.36287 16.6273L5.46954 17.5206C5.36188 17.6283 5.18771 17.6276 5.0811 17.5206L3.47915 15.9186C3.37184 15.8113 3.37184 15.6372 3.47915 15.5302L4.37249 14.6369L4.22471 14.3997C3.79757 13.7136 3.4883 12.9667 3.30534 12.1792L3.24201 11.9073H1.97818C1.82689 11.9073 1.70374 11.7841 1.70374 11.6328V9.36693C1.70374 9.21564 1.82689 9.09249 1.97818 9.09249H3.24201L3.30534 8.82052C3.48865 8.03309 3.79757 7.28612 4.22471 6.60002L4.37249 6.36287L3.47915 5.46954C3.37184 5.36223 3.37184 5.18806 3.47915 5.0811L5.0811 3.47915C5.18806 3.37219 5.36223 3.37149 5.46954 3.47915L6.36287 4.37249L6.60002 4.22471C7.28612 3.79757 8.03309 3.4883 8.82052 3.30534L9.09249 3.24201V1.97818C9.09249 1.82689 9.21564 1.70374 9.36693 1.70374H11.6325C11.7841 1.70374 11.9073 1.82689 11.9073 1.97818V3.24201L12.1792 3.30534C12.9663 3.48865 13.7133 3.79757 14.3997 4.22471L14.6369 4.37249L15.5302 3.47915C15.6379 3.37149 15.812 3.37219 15.9186 3.47915L17.5206 5.0811C17.6279 5.18842 17.6279 5.36258 17.5206 5.46954L16.6273 6.36287L16.775 6.60002C17.2022 7.28577 17.5114 8.03273 17.6944 8.82052L17.7577 9.09249H19.0216C19.1729 9.09249 19.296 9.21564 19.296 9.36693V11.6328Z" fill="#003D9E"/>
<path fill-rule="evenodd" clip-rule="evenodd" d="M18.0181 4.58324C18.2028 4.76831 18.3045 5.0139 18.3045 5.27532C18.3045 5.53639 18.2028 5.78233 18.0181 5.96705L17.5164 6.46878C17.864 7.0722 18.1303 7.71607 18.3115 8.3888H19.0216C19.5609 8.3888 19.9997 8.82755 20 9.36693V11.6328C20 12.1722 19.5613 12.6109 19.0219 12.6109H18.3119C18.1307 13.2833 17.864 13.9268 17.5167 14.531L18.0185 15.0327C18.2032 15.2178 18.3049 15.4634 18.3049 15.7244C18.3049 15.9858 18.2032 16.2318 18.0185 16.4165L16.4165 18.0185C16.0467 18.3879 15.4028 18.3886 15.0327 18.0185L14.531 17.5167C13.9268 17.8643 13.2833 18.1307 12.6109 18.3119V19.0219C12.6109 19.5613 12.1722 20 11.6328 20H9.36728C8.8279 20 8.38915 19.5613 8.38915 19.0219V18.3119C7.71678 18.1307 7.07325 17.864 6.46913 17.5167L5.9674 18.0185C5.59761 18.3886 4.95303 18.3882 4.58359 18.0185L2.98164 16.4165C2.79692 16.2314 2.69524 15.9858 2.69524 15.7244C2.69524 15.4634 2.79692 15.2174 2.98164 15.0327L3.48337 14.531C3.13575 13.9268 2.8694 13.2833 2.6882 12.6109H1.97818C1.4388 12.6109 1.00005 12.1722 1.00005 11.6325V9.36693C1.00005 8.82755 1.4388 8.3888 1.97818 8.3888H2.6882C2.86905 7.71607 3.13575 7.0722 3.48302 6.46913L2.98129 5.9674C2.79657 5.78233 2.69489 5.53674 2.69489 5.27567C2.69489 5.01425 2.79657 4.76831 2.98129 4.58359L4.58324 2.98164C4.95268 2.6122 5.59726 2.6115 5.96705 2.98164L6.46878 3.48337C7.0729 3.13575 7.71642 2.8694 8.3888 2.6882V1.97818C8.3888 1.4388 8.82755 1.00005 9.36693 1.00005H11.6328C12.1722 1.00005 12.6109 1.4388 12.6109 1.97818V2.6882C13.2833 2.8694 13.9268 3.13575 14.5306 3.48302L15.0323 2.98129C15.4025 2.6115 16.0467 2.6122 16.4162 2.98129L18.0181 4.58324ZM14.4965 3.23431L14.8909 2.83987C15.3392 2.39197 16.1101 2.39279 16.5575 2.8398L18.1595 4.44182C18.3816 4.66435 18.5045 4.96087 18.5045 5.27532C18.5045 5.58935 18.3818 5.88619 18.1595 6.10847L17.7652 6.50284C18.06 7.03758 18.2936 7.60209 18.4633 8.1888H19.0216C19.6714 8.1888 20.1996 8.71709 20.2001 9.3668V11.6328C20.2001 12.2827 19.6718 12.8109 19.0219 12.8109H18.4637C18.2938 13.3975 18.06 13.9617 17.7654 14.4968L18.1599 14.8913C18.382 15.1138 18.5049 15.4103 18.5049 15.7244C18.5049 16.0388 18.3822 16.3356 18.1599 16.5579L16.5579 18.1599C16.1102 18.6072 15.3397 18.6083 14.8913 18.1599L14.4969 17.7655C13.9617 18.0603 13.3974 18.2939 12.8109 18.4637V19.0219C12.8109 19.6718 12.2827 20.2001 11.6328 20.2001H9.36728C8.71745 20.2001 8.18915 19.6718 8.18915 19.0219V18.4637C7.60264 18.2938 7.0384 18.06 6.50328 17.7654L6.10889 18.1598C5.66096 18.6082 4.88969 18.6077 4.44217 18.1599C4.44215 18.1599 4.4422 18.1599 4.44217 18.1599L2.84022 16.5579C2.61812 16.3354 2.49524 16.0389 2.49524 15.7244C2.49524 15.4104 2.61794 15.1136 2.84022 14.8913L3.23464 14.4969C2.93977 13.9617 2.70619 13.3974 2.53644 12.8109H1.97818C1.3283 12.8109 0.800049 12.2826 0.800049 11.6325V9.36693C0.800049 8.7171 1.32834 8.1888 1.97818 8.1888H2.53635C2.70588 7.60205 2.93965 7.0376 3.23426 6.50321L2.83987 6.10882C2.61779 5.88632 2.49489 5.58981 2.49489 5.27567C2.49489 4.96133 2.61756 4.66448 2.83987 4.44217L4.44182 2.84022C4.88921 2.39283 5.66042 2.39182 6.10847 2.84022C6.10849 2.84024 6.10845 2.8402 6.10847 2.84022L6.50289 3.23464C7.03807 2.93977 7.60234 2.70619 8.1888 2.53644V1.97818C8.1888 1.32834 8.7171 0.800049 9.36693 0.800049H11.6328C12.2827 0.800049 12.8109 1.32834 12.8109 1.97818V2.53644C13.3974 2.70618 13.9616 2.93972 14.4965 3.23431ZM17.599 11.7073H19.0216C19.0624 11.7073 19.096 11.6737 19.096 11.6328V9.36693C19.096 9.32609 19.0624 9.29249 19.0216 9.29249H17.599L17.4996 8.86587C17.3216 8.09947 17.0208 7.37284 16.6053 6.70576L16.3735 6.3338L17.3792 5.32812C17.4079 5.29944 17.4085 5.25186 17.3792 5.22252L15.7772 3.62057C15.7486 3.59182 15.701 3.59122 15.6716 3.62057L14.6659 4.62626L14.2941 4.39452C13.6263 3.97899 12.8997 3.67849 12.1339 3.50013C12.1339 3.50013 12.1339 3.50013 12.1339 3.50013L11.7073 3.40079V1.97818C11.7073 1.93751 11.6738 1.90374 11.6325 1.90374H9.36693C9.32609 1.90374 9.29249 1.93734 9.29249 1.97818V3.40079L8.86587 3.50013C8.09982 3.67812 7.37318 3.97896 6.70572 4.3945L6.3338 4.62626L5.32812 3.62057C5.29942 3.59178 5.25184 3.59125 5.22252 3.62057L3.62057 5.22252C3.5918 5.2512 3.59124 5.29878 3.62057 5.32812L4.62626 6.3338L4.3945 6.70572C3.97899 7.37313 3.67849 8.0997 3.50013 8.86586L3.40079 9.29249H1.97818C1.93734 9.29249 1.90374 9.32609 1.90374 9.36693V11.6328C1.90374 11.6737 1.93734 11.7073 1.97818 11.7073H3.40079L3.50013 12.1339C3.67812 12.8999 3.97896 13.6266 4.3945 14.294L4.62626 14.6659L3.62057 15.6716C3.5918 15.7003 3.59124 15.7479 3.62057 15.7772L5.22252 17.3792C5.25118 17.4079 5.29876 17.4085 5.32812 17.3792L6.3338 16.3735L6.70568 16.6052C7.37348 17.0208 8.10006 17.3213 8.86587 17.4996L9.29249 17.599V19.0216C9.29249 19.0624 9.32609 19.096 9.36693 19.096H11.6328C11.6737 19.096 11.7073 19.0624 11.7073 19.0216V17.599L12.1339 17.4996C12.8999 17.3216 13.6266 17.0208 14.294 16.6052L14.6659 16.3735L15.6716 17.3792C15.7003 17.408 15.7479 17.4085 15.7772 17.3792L17.3792 15.7772C17.4079 15.7485 17.4085 15.701 17.3792 15.6716L16.3735 14.6659L16.6052 14.2941C17.0208 13.6263 17.3213 12.8997 17.4996 12.1339L17.599 11.7073ZM16.775 14.3997L16.6273 14.6369L17.5206 15.5302C17.6279 15.6375 17.6279 15.8117 17.5206 15.9186L15.9186 17.5206C15.8117 17.6276 15.6375 17.6283 15.5302 17.5206L14.6369 16.6273L14.3997 16.775C13.7136 17.2022 12.9667 17.5114 12.1792 17.6944L11.9073 17.7577V19.0216C11.9073 19.1729 11.7841 19.296 11.6328 19.296H9.36693C9.21564 19.296 9.09249 19.1729 9.09249 19.0216V17.7577L8.82052 17.6944C8.03344 17.5111 7.28647 17.2022 6.60002 16.775L6.36287 16.6273L5.46954 17.5206C5.36188 17.6283 5.18771 17.6276 5.0811 17.5206L3.47915 15.9186C3.37184 15.8113 3.37184 15.6372 3.47915 15.5302L4.37249 14.6369L4.22471 14.3997C3.79757 13.7136 3.4883 12.9667 3.30534 12.1792L3.24201 11.9073H1.97818C1.82689 11.9073 1.70374 11.7841 1.70374 11.6328V9.36693C1.70374 9.21564 1.82689 9.09249 1.97818 9.09249H3.24201L3.30534 8.82052C3.48865 8.03309 3.79757 7.28612 4.22471 6.60002L4.37249 6.36287L3.47915 5.46954C3.37184 5.36223 3.37184 5.18806 3.47915 5.0811L5.0811 3.47915C5.18806 3.37219 5.36223 3.37149 5.46954 3.47915L6.36287 4.37249L6.60002 4.22471C7.28612 3.79757 8.03309 3.4883 8.82052 3.30534L9.09249 3.24201V1.97818C9.09249 1.82689 9.21564 1.70374 9.36693 1.70374H11.6325C11.7841 1.70374 11.9073 1.82689 11.9073 1.97818V3.24201L12.1792 3.30534C12.9663 3.48865 13.7133 3.79757 14.3997 4.22471L14.6369 4.37249L15.5302 3.47915C15.6379 3.37149 15.812 3.37219 15.9186 3.47915L17.5206 5.0811C17.6279 5.18842 17.6279 5.36258 17.5206 5.46954L16.6273 6.36287L16.775 6.60002C17.2022 7.28577 17.5114 8.03273 17.6944 8.82052L17.7577 9.09249H19.0216C19.1729 9.09249 19.296 9.21564 19.296 9.36693V11.6328C19.296 11.7841 19.1729 11.9073 19.0216 11.9073H17.7577L17.6944 12.1792C17.5111 12.9663 17.2022 13.7133 16.775 14.3997ZM5.37404 10.4999C5.37404 7.67317 7.67317 5.37404 10.4999 5.37404C13.3266 5.37404 15.6257 7.67317 15.6257 10.4999C15.6257 13.3266 13.3266 15.6257 10.4999 15.6257C7.67317 15.6257 5.37404 13.3266 5.37404 10.4999ZM6.47773 10.4999C6.47773 12.7176 8.28217 14.522 10.4999 14.522C12.7176 14.522 14.522 12.7176 14.522 10.4999C14.522 8.28217 12.7176 6.47773 10.4999 6.47773C8.28217 6.47773 6.47773 8.28217 6.47773 10.4999ZM5.57404 10.4999C5.57404 7.78363 7.78363 5.57404 10.4999 5.57404C13.2161 5.57404 15.4257 7.78363 15.4257 10.4999C15.4257 13.2161 13.2161 15.4257 10.4999 15.4257C7.78363 15.4257 5.57404 13.2161 5.57404 10.4999ZM6.27773 10.4999C6.27773 12.828 8.17171 14.722 10.4999 14.722C12.828 14.722 14.722 12.828 14.722 10.4999C14.722 8.17171 12.828 6.27773 10.4999 6.27773C8.17171 6.27773 6.27773 8.17171 6.27773 10.4999Z" fill="#003D9E"/>
</svg>
