<svg width="21" height="21" viewBox="0 0 21 21" fill="none" xmlns="http://www.w3.org/2000/svg"><path d="M20.51 19.29l-3.675-3.68a9.058 9.058 0 0 0 1.93-6.369 9.03 9.03 0 0 0-2.936-5.964A8.87 8.87 0 0 0 9.634.982a8.878 8.878 0 0 0-6.061 2.633A9.04 9.04 0 0 0 .964 9.733a9.05 9.05 0 0 0 2.273 6.252 8.888 8.888 0 0 0 5.91 2.964A8.861 8.861 0 0 0 15.457 17l3.646 3.68a.991.991 0 0 0 .704.296.982.982 0 0 0 .982-.991c0-.26-.1-.508-.279-.695zM9.9 17a6.89 6.89 0 0 1-3.853-1.18 6.986 6.986 0 0 1-2.557-3.14 7.06 7.06 0 0 1-.395-4.045 7.02 7.02 0 0 1 1.9-3.585 6.916 6.916 0 0 1 3.55-1.915 6.877 6.877 0 0 1 4.008.398 6.95 6.95 0 0 1 3.113 2.578 7.046 7.046 0 0 1-.863 8.839A6.903 6.903 0 0 1 9.9 17z" fill="#A9A9A9"/></svg>