<svg width="21" height="21" viewBox="0 0 21 21" fill="none" xmlns="http://www.w3.org/2000/svg">
<path d="M20.5105 19.29L16.8346 15.61C18.2614 13.8144 18.9524 11.5353 18.7655 9.2413C18.5785 6.9473 17.5278 4.81278 15.8294 3.27664C14.131 1.7405 11.914 0.919506 9.63427 0.982466C7.35454 1.04543 5.18534 1.98756 3.57272 3.61514C1.9601 5.24272 1.02663 7.43203 0.964247 9.73292C0.901865 12.0338 1.71532 14.2714 3.23733 15.9855C4.75935 17.6997 6.87425 18.7601 9.14717 18.9488C11.4201 19.1375 13.6782 18.4401 15.4573 17L19.1035 20.68C19.1956 20.7737 19.3052 20.8481 19.4259 20.8989C19.5467 20.9497 19.6762 20.9758 19.807 20.9758C19.9378 20.9758 20.0673 20.9497 20.188 20.8989C20.3088 20.8481 20.4183 20.7737 20.5105 20.68C20.689 20.4935 20.7889 20.2443 20.7889 19.985C20.7889 19.7257 20.689 19.4765 20.5105 19.29ZM9.89889 17C8.52715 17 7.18621 16.5895 6.04565 15.8203C4.90508 15.0511 4.01612 13.9579 3.49118 12.6788C2.96623 11.3997 2.82889 9.99223 3.0965 8.63436C3.36411 7.2765 4.02467 6.02922 4.99464 5.05025C5.96461 4.07128 7.20043 3.4046 8.54581 3.1345C9.8912 2.8644 11.2857 3.00303 12.5531 3.53284C13.8204 4.06265 14.9036 4.95986 15.6657 6.111C16.4278 7.26215 16.8346 8.61553 16.8346 10C16.8346 11.8565 16.1038 13.637 14.8031 14.9497C13.5025 16.2625 11.7383 17 9.89889 17Z" fill="#A9A9A9"/>
</svg>
