<svg width="19" height="19" viewBox="0 0 19 19" fill="none" xmlns="http://www.w3.org/2000/svg"><path d="M9.5 0C4.262 0 0 4.262 0 9.5S4.262 19 9.5 19 19 14.738 19 9.5 14.738 0 9.5 0zm0 17.131c-4.208 0-7.631-3.423-7.631-7.631S5.292 1.869 9.5 1.869s7.631 3.423 7.631 7.631-3.423 7.631-7.631 7.631z" fill="#E63600"/><path d="M6.322 9.831a2.269 2.269 0 0 1-1.689-.685c-.2-.22-.355-.48-.466-.777A2.716 2.716 0 0 1 4 7.41c0-.35.056-.673.167-.97a2.41 2.41 0 0 1 .477-.765 2.13 2.13 0 0 1 .734-.491C5.667 5.06 5.98 5 6.322 5A2.325 2.325 0 0 1 8 5.685c.207.213.367.469.478.766.118.289.178.609.178.959s-.06.674-.178.97a2.175 2.175 0 0 1-1.211 1.268 2.354 2.354 0 0 1-.945.183zm4.921-4.53a.616.616 0 0 1 1.059.63l-4.623 7.768a.616.616 0 1 1-1.058-.63l4.622-7.768zm-4.92 3.297c.34 0 .584-.115.733-.343.148-.236.222-.518.222-.845 0-.343-.078-.624-.234-.845-.148-.229-.388-.343-.722-.343-.333 0-.578.118-.733.354-.148.229-.222.506-.222.834 0 .327.074.609.222.845.155.228.4.343.733.343zm6.344 5.242c-.348 0-.667-.06-.956-.183a2.27 2.27 0 0 1-.733-.502 2.263 2.263 0 0 1-.467-.765 2.716 2.716 0 0 1-.167-.96c0-.358.056-.681.167-.97a2.41 2.41 0 0 1 .478-.766 2.06 2.06 0 0 1 .733-.502c.29-.122.604-.183.945-.183a2.326 2.326 0 0 1 1.677.685c.208.213.367.468.478.765.119.297.178.62.178.971 0 .35-.06.674-.178.971-.11.29-.27.54-.478.754-.2.213-.444.38-.733.502a2.355 2.355 0 0 1-.944.183zm0-1.222c.34 0 .585-.114.733-.343.148-.236.222-.517.222-.845 0-.342-.078-.624-.233-.845-.148-.228-.389-.343-.722-.343-.334 0-.578.118-.734.354-.148.229-.222.507-.222.834 0 .328.074.61.222.845.149.229.393.343.734.343z" fill="#E63600"/></svg>