<svg width="19" height="19" viewBox="0 0 19 19" fill="none" xmlns="http://www.w3.org/2000/svg">
<path d="M9.5 0C4.26161 0 0 4.26161 0 9.5C0 14.7384 4.26161 19 9.5 19C14.7384 19 19 14.7384 19 9.5C19 4.26161 14.7384 0 9.5 0ZM9.5 17.1311C5.29197 17.1311 1.86885 13.708 1.86885 9.5C1.86885 5.29197 5.29197 1.86885 9.5 1.86885C13.708 1.86885 17.1311 5.29197 17.1311 9.5C17.1311 13.708 13.708 17.1311 9.5 17.1311Z" fill="#E63600"/>
<path d="M6.32222 9.83122C5.97407 9.83122 5.65556 9.7703 5.36667 9.64848C5.08519 9.52665 4.84074 9.35914 4.63333 9.14594C4.43333 8.92513 4.27778 8.66624 4.16667 8.36929C4.05556 8.07234 4 7.75254 4 7.4099C4 7.05964 4.05556 6.73604 4.16667 6.43909C4.28518 6.14213 4.44444 5.88706 4.64444 5.67386C4.85185 5.46066 5.0963 5.29695 5.37778 5.18274C5.66667 5.06091 5.98148 5 6.32222 5C6.66296 5 6.97407 5.06091 7.25556 5.18274C7.54444 5.30457 7.79259 5.47208 8 5.68528C8.20741 5.89848 8.36667 6.15355 8.47778 6.45051C8.5963 6.73985 8.65556 7.05964 8.65556 7.4099C8.65556 7.76015 8.5963 8.08376 8.47778 8.38071C8.36667 8.67766 8.20741 8.93274 8 9.14594C7.8 9.35914 7.55556 9.52665 7.26667 9.64848C6.98519 9.7703 6.67037 9.83122 6.32222 9.83122ZM11.2431 5.30093C11.3542 5.11434 11.5553 5 11.7724 5C12.2501 5 12.546 5.52029 12.3017 5.93082L7.67907 13.6991C7.56804 13.8857 7.36695 14 7.14982 14C6.6721 14 6.37627 13.4797 6.62056 13.0692L11.2431 5.30093ZM6.32222 8.59772C6.66296 8.59772 6.90741 8.4835 7.05556 8.25508C7.2037 8.01904 7.27778 7.73731 7.27778 7.4099C7.27778 7.06726 7.2 6.78553 7.04444 6.56472C6.8963 6.33629 6.65556 6.22208 6.32222 6.22208C5.98889 6.22208 5.74444 6.3401 5.58889 6.57614C5.44074 6.80457 5.36667 7.08249 5.36667 7.4099C5.36667 7.73731 5.44074 8.01904 5.58889 8.25508C5.74444 8.4835 5.98889 8.59772 6.32222 8.59772ZM12.6667 13.8401C12.3185 13.8401 12 13.7792 11.7111 13.6574C11.4296 13.5355 11.1852 13.368 10.9778 13.1548C10.7778 12.9416 10.6222 12.6865 10.5111 12.3896C10.4 12.0926 10.3444 11.7728 10.3444 11.4302C10.3444 11.0723 10.4 10.7487 10.5111 10.4594C10.6296 10.1624 10.7889 9.90736 10.9889 9.69416C11.1963 9.47335 11.4407 9.30584 11.7222 9.19162C12.0111 9.0698 12.3259 9.00888 12.6667 9.00888C13.0074 9.00888 13.3185 9.0698 13.6 9.19162C13.8889 9.31345 14.137 9.48096 14.3444 9.69416C14.5519 9.90736 14.7111 10.1624 14.8222 10.4594C14.9407 10.7563 15 11.0799 15 11.4302C15 11.7805 14.9407 12.1041 14.8222 12.401C14.7111 12.6904 14.5519 12.9416 14.3444 13.1548C14.1444 13.368 13.9 13.5355 13.6111 13.6574C13.3296 13.7792 13.0148 13.8401 12.6667 13.8401ZM12.6667 12.618C13.0074 12.618 13.2519 12.5038 13.4 12.2754C13.5481 12.0393 13.6222 11.7576 13.6222 11.4302C13.6222 11.0876 13.5444 10.8058 13.3889 10.585C13.2407 10.3566 13 10.2424 12.6667 10.2424C12.3333 10.2424 12.0889 10.3604 11.9333 10.5964C11.7852 10.8249 11.7111 11.1028 11.7111 11.4302C11.7111 11.7576 11.7852 12.0393 11.9333 12.2754C12.0815 12.5038 12.3259 12.618 12.6667 12.618Z" fill="#E63600"/>
</svg>
