<svg width="22" height="22" viewBox="0 0 22 22" fill="none" xmlns="http://www.w3.org/2000/svg">
<path d="M13.9401 5.55999H17.5201L16.7301 6.35999C16.5438 6.54735 16.4393 6.8008 16.4393 7.06499C16.4393 7.32918 16.5438 7.58263 16.7301 7.76999C16.9175 7.95624 17.1709 8.06078 17.4351 8.06078C17.6993 8.06078 17.9527 7.95624 18.1401 7.76999L20.6401 5.26999C20.8264 5.08263 20.9309 4.82918 20.9309 4.56499C20.9309 4.3008 20.8264 4.04735 20.6401 3.85999L18.1401 1.35999C17.9488 1.19616 17.7027 1.11056 17.451 1.12028C17.1994 1.13 16.9606 1.23433 16.7825 1.41243C16.6044 1.59052 16.5001 1.82926 16.4904 2.08094C16.4807 2.33261 16.5663 2.57869 16.7301 2.76999L17.5201 3.55999H13.9401C13.6749 3.55999 13.4205 3.66535 13.233 3.85288C13.0455 4.04042 12.9401 4.29477 12.9401 4.55999C12.9401 4.82521 13.0455 5.07956 13.233 5.2671C13.4205 5.45463 13.6749 5.55999 13.9401 5.55999ZM18.4401 12C18.2201 12 17.9901 11.93 17.7701 11.88C17.3246 11.7818 16.8868 11.6515 16.4601 11.49C15.9962 11.3212 15.4862 11.33 15.0284 11.5146C14.5706 11.6992 14.1972 12.0466 13.9801 12.49L13.7601 12.94C12.7861 12.3982 11.8911 11.7252 11.1001 10.94C10.3149 10.149 9.64192 9.25399 9.1001 8.27999L9.5201 7.99999C9.96347 7.78291 10.3109 7.40952 10.4955 6.95168C10.6801 6.49384 10.6889 5.9839 10.5201 5.51999C10.3613 5.09241 10.231 4.65479 10.1301 4.20999C10.0801 3.98999 10.0401 3.75999 10.0101 3.52999C9.88867 2.82561 9.51973 2.18773 8.96972 1.73123C8.41972 1.27473 7.7248 1.0296 7.0101 1.03999H4.0101C3.57913 1.03594 3.15235 1.1248 2.75881 1.30052C2.36527 1.47624 2.01421 1.73469 1.72953 2.05827C1.44485 2.38186 1.23324 2.76298 1.10909 3.1757C0.984942 3.58842 0.95118 4.02305 1.0101 4.44999C1.54284 8.63937 3.45613 12.5319 6.44775 15.5126C9.43938 18.4934 13.3388 20.3925 17.5301 20.91H17.9101C18.6475 20.9111 19.3595 20.6405 19.9101 20.15C20.2265 19.867 20.4792 19.5202 20.6516 19.1323C20.8239 18.7444 20.9121 18.3244 20.9101 17.9V14.9C20.8979 14.2054 20.6449 13.5365 20.1944 13.0077C19.744 12.4788 19.1239 12.1226 18.4401 12ZM18.9401 18C18.9399 18.142 18.9095 18.2823 18.8509 18.4116C18.7923 18.5409 18.7068 18.6563 18.6001 18.75C18.4884 18.8465 18.3577 18.9185 18.2165 18.9616C18.0753 19.0046 17.9267 19.0177 17.7801 19C14.035 18.5198 10.5563 16.8065 7.89282 14.1303C5.2293 11.4541 3.53251 7.96733 3.0701 4.21999C3.05419 4.07351 3.06813 3.92532 3.1111 3.78438C3.15407 3.64344 3.22517 3.51268 3.3201 3.39999C3.41381 3.29332 3.52916 3.20783 3.65848 3.14921C3.7878 3.09058 3.92812 3.06017 4.0701 3.05999H7.0701C7.30265 3.05482 7.52972 3.13087 7.71224 3.27506C7.89476 3.41925 8.02131 3.62256 8.0701 3.84999C8.1101 4.12332 8.1601 4.39332 8.2201 4.65999C8.33562 5.18713 8.48936 5.70517 8.6801 6.20999L7.2801 6.85999C7.1604 6.91491 7.05272 6.99294 6.96326 7.08959C6.87379 7.18623 6.8043 7.2996 6.75877 7.42318C6.71324 7.54677 6.69257 7.67812 6.69795 7.80971C6.70332 7.9413 6.73464 8.07054 6.7901 8.18999C8.2293 11.2727 10.7073 13.7508 13.7901 15.19C14.0336 15.29 14.3066 15.29 14.5501 15.19C14.6748 15.1454 14.7894 15.0764 14.8873 14.9872C14.9851 14.8979 15.0643 14.7901 15.1201 14.67L15.7401 13.27C16.2571 13.4549 16.7847 13.6085 17.3201 13.73C17.5868 13.79 17.8568 13.84 18.1301 13.88C18.3575 13.9288 18.5608 14.0553 18.705 14.2378C18.8492 14.4204 18.9253 14.6474 18.9201 14.88L18.9401 18Z" fill="#003D9E" stroke="white"/>
</svg>
