<svg width="22" height="22" viewBox="0 0 22 22" fill="none" xmlns="http://www.w3.org/2000/svg">
<path d="M13.94 5.55999H17.52L16.73 6.35999C16.5437 6.54735 16.4392 6.8008 16.4392 7.06499C16.4392 7.32918 16.5437 7.58263 16.73 7.76999C16.9173 7.95624 17.1708 8.06078 17.435 8.06078C17.6992 8.06078 17.9526 7.95624 18.14 7.76999L20.64 5.26999C20.8262 5.08263 20.9308 4.82918 20.9308 4.56499C20.9308 4.3008 20.8262 4.04735 20.64 3.85999L18.14 1.35999C17.9487 1.19616 17.7026 1.11056 17.4509 1.12028C17.1992 1.13 16.9605 1.23433 16.7824 1.41243C16.6043 1.59052 16.5 1.82926 16.4903 2.08094C16.4805 2.33261 16.5662 2.57869 16.73 2.76999L17.52 3.55999H13.94C13.6748 3.55999 13.4204 3.66535 13.2329 3.85288C13.0453 4.04042 12.94 4.29477 12.94 4.55999C12.94 4.82521 13.0453 5.07956 13.2329 5.2671C13.4204 5.45463 13.6748 5.55999 13.94 5.55999V5.55999ZM18.44 12C18.22 12 17.99 11.93 17.77 11.88C17.3245 11.7818 16.8866 11.6515 16.46 11.49C15.9961 11.3212 15.4861 11.33 15.0283 11.5146C14.5704 11.6992 14.1971 12.0466 13.98 12.49L13.76 12.94C12.786 12.3982 11.891 11.7252 11.1 10.94C10.3147 10.149 9.6418 9.25399 9.09998 8.27999L9.51998 7.99999C9.96334 7.78291 10.3108 7.40952 10.4954 6.95168C10.68 6.49384 10.6887 5.9839 10.52 5.51999C10.3612 5.09241 10.2309 4.65479 10.13 4.20999C10.08 3.98999 10.04 3.75999 10.01 3.52999C9.88854 2.82561 9.5196 2.18773 8.9696 1.73123C8.4196 1.27473 7.72467 1.0296 7.00998 1.03999H4.00998C3.57901 1.03594 3.15223 1.1248 2.75869 1.30052C2.36515 1.47624 2.01409 1.73469 1.72941 2.05827C1.44473 2.38186 1.23311 2.76298 1.10897 3.1757C0.98482 3.58842 0.951058 4.02305 1.00998 4.44999C1.54272 8.63937 3.45601 12.5319 6.44763 15.5126C9.43925 18.4934 13.3387 20.3925 17.53 20.91H17.91C18.6474 20.9111 19.3594 20.6405 19.91 20.15C20.2263 19.867 20.4791 19.5202 20.6514 19.1323C20.8238 18.7444 20.9119 18.3244 20.91 17.9V14.9C20.8977 14.2054 20.6448 13.5365 20.1943 13.0077C19.7439 12.4788 19.1238 12.1226 18.44 12V12ZM18.94 18C18.9398 18.142 18.9094 18.2823 18.8508 18.4116C18.7921 18.5409 18.7066 18.6563 18.6 18.75C18.4882 18.8465 18.3576 18.9185 18.2164 18.9616C18.0752 19.0046 17.9265 19.0177 17.78 19C14.0349 18.5198 10.5562 16.8065 7.89269 14.1303C5.22917 11.4541 3.53239 7.96733 3.06998 4.21999C3.05406 4.07351 3.06801 3.92532 3.11098 3.78438C3.15395 3.64344 3.22505 3.51268 3.31998 3.39999C3.41369 3.29332 3.52904 3.20783 3.65836 3.14921C3.78767 3.09058 3.92799 3.06017 4.06998 3.05999H7.06998C7.30253 3.05482 7.5296 3.13087 7.71212 3.27506C7.89464 3.41925 8.02119 3.62256 8.06998 3.84999C8.10998 4.12332 8.15998 4.39332 8.21998 4.65999C8.3355 5.18713 8.48924 5.70517 8.67998 6.20999L7.27998 6.85999C7.16028 6.91491 7.0526 6.99294 6.96314 7.08959C6.87367 7.18624 6.80418 7.2996 6.75865 7.42318C6.71312 7.54677 6.69245 7.67812 6.69783 7.80971C6.7032 7.9413 6.73452 8.07054 6.78998 8.18999C8.22918 11.2727 10.7072 13.7508 13.79 15.19C14.0334 15.29 14.3065 15.29 14.55 15.19C14.6747 15.1454 14.7893 15.0764 14.8871 14.9872C14.985 14.8979 15.0641 14.7901 15.12 14.67L15.74 13.27C16.2569 13.4549 16.7846 13.6085 17.32 13.73C17.5866 13.79 17.8566 13.84 18.13 13.88C18.3574 13.9288 18.5607 14.0553 18.7049 14.2378C18.8491 14.4204 18.9252 14.6474 18.92 14.88L18.94 18Z" fill="#003D9E" stroke="white"/>
</svg>
