<svg width="22" height="22" viewBox="0 0 22 22" fill="none" xmlns="http://www.w3.org/2000/svg"><path d="M13.94 5.56h3.58l-.79.8a1 1 0 0 0 0 1.41 1 1 0 0 0 1.41 0l2.5-2.5a1 1 0 0 0 0-1.41l-2.5-2.5a1 1 0 0 0-1.41 1.41l.79.79h-3.58a1 1 0 1 0 0 2zm4.5 6.44c-.22 0-.45-.07-.67-.12a9.439 9.439 0 0 1-1.31-.39 2 2 0 0 0-2.48 1l-.22.45a12.18 12.18 0 0 1-2.66-2 12.178 12.178 0 0 1-2-2.66L9.52 8a2 2 0 0 0 1-2.48 10.32 10.32 0 0 1-.39-1.31c-.05-.22-.09-.45-.12-.68a3 3 0 0 0-3-2.49h-3a3 3 0 0 0-3 3.41 19 19 0 0 0 16.52 16.46h.38a3 3 0 0 0 2.741-1.778c.173-.388.26-.808.259-1.232v-3a3 3 0 0 0-2.47-2.9zm.5 6a1 1 0 0 1-.724.962c-.14.043-.29.056-.436.038A17 17 0 0 1 3.07 4.22a1.09 1.09 0 0 1 .25-.82 1 1 0 0 1 .75-.34h3a1 1 0 0 1 1 .79c.04.273.09.543.15.81.115.527.27 1.045.46 1.55l-1.4.65a1 1 0 0 0-.49 1.33 14.49 14.49 0 0 0 7 7 1 1 0 0 0 .76 0 1 1 0 0 0 .57-.52l.62-1.4a13.68 13.68 0 0 0 1.58.46c.267.06.537.11.81.15a1 1 0 0 1 .79 1l.02 3.12z" fill="#003D9E" stroke="#fff"/></svg>