<svg width="11" height="11" viewBox="0 0 11 11" fill="none" xmlns="http://www.w3.org/2000/svg">
<path fill-rule="evenodd" clip-rule="evenodd" d="M0.872803 5.23438C0.872803 4.82016 1.20859 4.48438 1.6228 4.48438H10.184C10.5982 4.48438 10.934 4.82016 10.934 5.23438C10.934 5.64859 10.5982 5.98438 10.184 5.98438H1.6228C1.20859 5.98438 0.872803 5.64859 0.872803 5.23438Z" fill="black"/>
<path fill-rule="evenodd" clip-rule="evenodd" d="M6.65332 0.75L6.65332 9.72283C6.65332 10.137 6.31753 10.4728 5.90332 10.4728C5.48911 10.4728 5.15332 10.137 5.15332 9.72283L5.15332 0.75C5.15332 0.335786 5.48911 1.32252e-08 5.90332 -2.98781e-08C6.31753 -7.29816e-08 6.65332 0.335786 6.65332 0.75Z" fill="black"/>
</svg>
