<svg width="21" height="21" viewBox="0 0 21 21" fill="none" xmlns="http://www.w3.org/2000/svg"><path d="M10.5 5.574A4.931 4.931 0 0 0 5.574 10.5a4.931 4.931 0 0 0 4.926 4.926 4.931 4.931 0 0 0 4.926-4.926A4.931 4.931 0 0 0 10.5 5.574zm0 9.148A4.227 4.227 0 0 1 6.278 10.5 4.227 4.227 0 0 1 10.5 6.278a4.227 4.227 0 0 1 4.222 4.222 4.227 4.227 0 0 1-4.222 4.222z" fill="#003D9E"/><path d="M19.021 8.389h-.71a8.02 8.02 0 0 0-.795-1.92l.502-.502a.972.972 0 0 0 .287-.692.973.973 0 0 0-.287-.692l-1.602-1.602a1.002 1.002 0 0 0-1.384 0l-.501.502a8.042 8.042 0 0 0-1.92-.795v-.71A.98.98 0 0 0 11.633 1H9.367a.98.98 0 0 0-.978.978v.71a8.037 8.037 0 0 0-1.92.795l-.502-.501a1.002 1.002 0 0 0-1.384 0L2.981 4.584a.972.972 0 0 0-.286.692c0 .26.102.506.286.691l.502.502a8.01 8.01 0 0 0-.795 1.92h-.71A.98.98 0 0 0 1 9.367v2.265c0 .54.439.979.978.979h.71c.181.672.448 1.316.795 1.92l-.501.502a.972.972 0 0 0-.287.691c0 .262.102.507.287.692l1.602 1.602a1 1 0 0 0 1.383 0l.502-.501a8.054 8.054 0 0 0 1.92.795v.71c0 .54.439.978.978.978h2.266a.98.98 0 0 0 .978-.978v-.71a8.037 8.037 0 0 0 1.92-.795l.502.501a1 1 0 0 0 1.383 0l1.602-1.602a.973.973 0 0 0 .287-.692.973.973 0 0 0-.287-.691l-.501-.502a8.053 8.053 0 0 0 .795-1.92h.71a.98.98 0 0 0 .978-.978V9.367a.98.98 0 0 0-.979-.978zm.275 3.244a.275.275 0 0 1-.274.274h-1.264l-.064.272a7.352 7.352 0 0 1-.919 2.22l-.148.238.893.893a.274.274 0 0 1 0 .389l-1.6 1.601a.274.274 0 0 1-.389 0l-.893-.893-.237.148a7.335 7.335 0 0 1-2.22.92l-.273.063v1.264a.275.275 0 0 1-.274.274H9.367a.275.275 0 0 1-.275-.274v-1.264l-.272-.064a7.352 7.352 0 0 1-2.22-.919l-.237-.148-.894.893a.275.275 0 0 1-.388 0l-1.602-1.6a.275.275 0 0 1 0-.389l.893-.893-.147-.237a7.332 7.332 0 0 1-.92-2.22l-.063-.273H1.978a.275.275 0 0 1-.274-.274V9.367c0-.151.123-.275.274-.275h1.264l.063-.272a7.341 7.341 0 0 1 .92-2.22l.147-.237-.893-.894a.275.275 0 0 1 0-.388l1.602-1.602a.275.275 0 0 1 .388 0l.894.893.237-.147a7.332 7.332 0 0 1 2.22-.92l.272-.063V1.978c0-.151.124-.274.275-.274h2.265c.152 0 .275.123.275.274v1.264l.272.063a7.349 7.349 0 0 1 2.22.92l.238.147.893-.893a.275.275 0 0 1 .389 0l1.601 1.602a.274.274 0 0 1 0 .388l-.893.894.148.237c.427.686.736 1.433.92 2.22l.063.272h1.264c.15 0 .274.124.274.275v2.266z" fill="#003D9E"/><path d="M10.5 5.574A4.931 4.931 0 0 0 5.574 10.5a4.931 4.931 0 0 0 4.926 4.926 4.931 4.931 0 0 0 4.926-4.926A4.931 4.931 0 0 0 10.5 5.574zm0 9.148A4.227 4.227 0 0 1 6.278 10.5 4.227 4.227 0 0 1 10.5 6.278a4.227 4.227 0 0 1 4.222 4.222 4.227 4.227 0 0 1-4.222 4.222z" stroke="#003D9E" stroke-width=".3"/><path d="M19.021 8.389h-.71a8.02 8.02 0 0 0-.795-1.92l.502-.502a.972.972 0 0 0 .287-.692.973.973 0 0 0-.287-.692l-1.602-1.602a1.002 1.002 0 0 0-1.384 0l-.501.502a8.042 8.042 0 0 0-1.92-.795v-.71A.98.98 0 0 0 11.633 1H9.367a.98.98 0 0 0-.978.978v.71a8.037 8.037 0 0 0-1.92.795l-.502-.501a1.002 1.002 0 0 0-1.384 0L2.981 4.584a.972.972 0 0 0-.286.692c0 .26.102.506.286.691l.502.502a8.01 8.01 0 0 0-.795 1.92h-.71A.98.98 0 0 0 1 9.367v2.265c0 .54.439.979.978.979h.71c.181.672.448 1.316.795 1.92l-.501.502a.972.972 0 0 0-.287.691c0 .262.102.507.287.692l1.602 1.602a1 1 0 0 0 1.383 0l.502-.501a8.054 8.054 0 0 0 1.92.795v.71c0 .54.439.978.978.978h2.266a.98.98 0 0 0 .978-.978v-.71a8.037 8.037 0 0 0 1.92-.795l.502.501a1 1 0 0 0 1.383 0l1.602-1.602a.973.973 0 0 0 .287-.692.973.973 0 0 0-.287-.691l-.501-.502a8.053 8.053 0 0 0 .795-1.92h.71a.98.98 0 0 0 .978-.978V9.367a.98.98 0 0 0-.979-.978zm.275 3.244a.275.275 0 0 1-.274.274h-1.264l-.064.272a7.352 7.352 0 0 1-.919 2.22l-.148.238.893.893a.274.274 0 0 1 0 .389l-1.6 1.601a.274.274 0 0 1-.389 0l-.893-.893-.237.148a7.335 7.335 0 0 1-2.22.92l-.273.063v1.264a.275.275 0 0 1-.274.274H9.367a.275.275 0 0 1-.275-.274v-1.264l-.272-.064a7.352 7.352 0 0 1-2.22-.919l-.237-.148-.894.893a.275.275 0 0 1-.388 0l-1.602-1.6a.275.275 0 0 1 0-.389l.893-.893-.147-.237a7.332 7.332 0 0 1-.92-2.22l-.063-.273H1.978a.275.275 0 0 1-.274-.274V9.367c0-.151.123-.275.274-.275h1.264l.063-.272a7.341 7.341 0 0 1 .92-2.22l.147-.237-.893-.894a.275.275 0 0 1 0-.388l1.602-1.602a.275.275 0 0 1 .388 0l.894.893.237-.147a7.332 7.332 0 0 1 2.22-.92l.272-.063V1.978c0-.151.124-.274.275-.274h2.265c.152 0 .275.123.275.274v1.264l.272.063a7.349 7.349 0 0 1 2.22.92l.238.147.893-.893a.275.275 0 0 1 .389 0l1.601 1.602a.274.274 0 0 1 0 .388l-.893.894.148.237c.427.686.736 1.433.92 2.22l.063.272h1.264c.15 0 .274.124.274.275v2.266z" stroke="#003D9E" stroke-width=".3"/></svg>