<svg width="21" height="21" viewBox="0 0 21 21" fill="none" xmlns="http://www.w3.org/2000/svg">
<path d="M10.4998 5.57399C7.78358 5.57399 5.57399 7.78358 5.57399 10.4998C5.57399 13.2161 7.78358 15.4257 10.4998 15.4257C13.2161 15.4257 15.4257 13.2161 15.4257 10.4998C15.4257 7.78358 13.2161 5.57399 10.4998 5.57399ZM10.4998 14.722C8.17166 14.722 6.27768 12.828 6.27768 10.4998C6.27768 8.17166 8.17166 6.27768 10.4998 6.27768C12.828 6.27768 14.722 8.17166 14.722 10.4998C14.722 12.828 12.828 14.722 10.4998 14.722Z" fill="#003D9E"/>
<path d="M19.0215 8.38875H18.3115C18.1303 7.71602 17.8639 7.07215 17.5163 6.46873L18.0181 5.967C18.2028 5.78228 18.3045 5.53634 18.3045 5.27527C18.3045 5.01385 18.2028 4.76826 18.0181 4.58319L16.4161 2.98124C16.0467 2.61216 15.4024 2.61145 15.0323 2.98124L14.5306 3.48297C13.9268 3.1357 13.2833 2.86935 12.6109 2.68815V1.97813C12.6109 1.43875 12.1721 1 11.6328 1H9.36688C8.8275 1 8.38875 1.43875 8.38875 1.97813V2.68815C7.71638 2.86935 7.07285 3.1357 6.46873 3.48332L5.967 2.98159C5.59721 2.61145 4.95263 2.61216 4.58319 2.98159L2.98124 4.58354C2.79652 4.76826 2.69484 5.0142 2.69484 5.27563C2.69484 5.53669 2.79652 5.78228 2.98124 5.96735L3.48297 6.46908C3.1357 7.07215 2.869 7.71602 2.68815 8.38875H1.97813C1.43875 8.38875 1 8.8275 1 9.36688V11.6324C1 12.1721 1.43875 12.6109 1.97813 12.6109H2.68815C2.86935 13.2833 3.1357 13.9268 3.48332 14.5309L2.98159 15.0326C2.79687 15.2174 2.69519 15.4633 2.69519 15.7244C2.69519 15.9858 2.79687 16.2314 2.98159 16.4165L4.58354 18.0184C4.95298 18.3882 5.59756 18.3885 5.96735 18.0184L6.46908 17.5167C7.0732 17.8639 7.71673 18.1306 8.3891 18.3118V19.0219C8.3891 19.5613 8.82786 20 9.36723 20H11.6328C12.1721 20 12.6109 19.5613 12.6109 19.0219V18.3118C13.2833 18.1306 13.9268 17.8643 14.5309 17.5167L15.0326 18.0184C15.4028 18.3885 16.0467 18.3878 16.4165 18.0184L18.0184 16.4165C18.2031 16.2317 18.3048 15.9858 18.3048 15.7244C18.3048 15.4633 18.2031 15.2177 18.0184 15.0326L17.5167 14.5309C17.8639 13.9268 18.1306 13.2833 18.3118 12.6109H19.0219C19.5613 12.6109 20 12.1721 20 11.6328V9.36688C19.9996 8.8275 19.5609 8.38875 19.0215 8.38875ZM19.296 11.6328C19.296 11.7841 19.1728 11.9072 19.0215 11.9072H17.7577L17.6944 12.1792C17.511 12.9663 17.2021 13.7132 16.775 14.3997L16.6272 14.6368L17.5205 15.5302C17.6279 15.6375 17.6279 15.8116 17.5205 15.9186L15.9186 17.5205C15.8116 17.6275 15.6375 17.6282 15.5302 17.5205L14.6368 16.6272L14.3997 16.775C13.7136 17.2021 12.9666 17.5114 12.1792 17.6944L11.9072 17.7577V19.0215C11.9072 19.1728 11.7841 19.296 11.6328 19.296H9.36688C9.21559 19.296 9.09244 19.1728 9.09244 19.0215V17.7577L8.82047 17.6944C8.03339 17.511 7.28642 17.2021 6.59997 16.775L6.36283 16.6272L5.46949 17.5205C5.36183 17.6282 5.18766 17.6275 5.08105 17.5205L3.4791 15.9186C3.37179 15.8113 3.37179 15.6371 3.4791 15.5302L4.37244 14.6368L4.22466 14.3997C3.79752 13.7136 3.48825 12.9666 3.30529 12.1792L3.24196 11.9072H1.97813C1.82684 11.9072 1.70369 11.7841 1.70369 11.6328V9.36688C1.70369 9.21559 1.82684 9.09244 1.97813 9.09244H3.24196L3.30529 8.82047C3.4886 8.03304 3.79752 7.28607 4.22466 6.59997L4.37244 6.36283L3.4791 5.46949C3.37179 5.36218 3.37179 5.18802 3.4791 5.08105L5.08105 3.4791C5.18802 3.37214 5.36218 3.37144 5.46949 3.4791L6.36283 4.37244L6.59997 4.22466C7.28607 3.79752 8.03304 3.48825 8.82047 3.30529L9.09244 3.24196V1.97813C9.09244 1.82684 9.21559 1.70369 9.36688 1.70369H11.6324C11.7841 1.70369 11.9072 1.82684 11.9072 1.97813V3.24196L12.1792 3.30529C12.9663 3.4886 13.7132 3.79752 14.3997 4.22466L14.6368 4.37244L15.5302 3.4791C15.6378 3.37144 15.812 3.37214 15.9186 3.4791L17.5205 5.08105C17.6279 5.18837 17.6279 5.36253 17.5205 5.46949L16.6272 6.36283L16.775 6.59997C17.2021 7.28572 17.5114 8.03268 17.6944 8.82047L17.7577 9.09244H19.0215C19.1728 9.09244 19.296 9.21559 19.296 9.36688V11.6328Z" fill="#003D9E"/>
<path d="M10.4998 5.57399C7.78358 5.57399 5.57399 7.78358 5.57399 10.4998C5.57399 13.2161 7.78358 15.4257 10.4998 15.4257C13.2161 15.4257 15.4257 13.2161 15.4257 10.4998C15.4257 7.78358 13.2161 5.57399 10.4998 5.57399ZM10.4998 14.722C8.17166 14.722 6.27768 12.828 6.27768 10.4998C6.27768 8.17166 8.17166 6.27768 10.4998 6.27768C12.828 6.27768 14.722 8.17166 14.722 10.4998C14.722 12.828 12.828 14.722 10.4998 14.722Z" stroke="#003D9E" stroke-width="0.3"/>
<path d="M19.0215 8.38875H18.3115C18.1303 7.71602 17.8639 7.07215 17.5163 6.46873L18.0181 5.967C18.2028 5.78228 18.3045 5.53634 18.3045 5.27527C18.3045 5.01385 18.2028 4.76826 18.0181 4.58319L16.4161 2.98124C16.0467 2.61216 15.4024 2.61145 15.0323 2.98124L14.5306 3.48297C13.9268 3.1357 13.2833 2.86935 12.6109 2.68815V1.97813C12.6109 1.43875 12.1721 1 11.6328 1H9.36688C8.8275 1 8.38875 1.43875 8.38875 1.97813V2.68815C7.71638 2.86935 7.07285 3.1357 6.46873 3.48332L5.967 2.98159C5.59721 2.61145 4.95263 2.61216 4.58319 2.98159L2.98124 4.58354C2.79652 4.76826 2.69484 5.0142 2.69484 5.27563C2.69484 5.53669 2.79652 5.78228 2.98124 5.96735L3.48297 6.46908C3.1357 7.07215 2.869 7.71602 2.68815 8.38875H1.97813C1.43875 8.38875 1 8.8275 1 9.36688V11.6324C1 12.1721 1.43875 12.6109 1.97813 12.6109H2.68815C2.86935 13.2833 3.1357 13.9268 3.48332 14.5309L2.98159 15.0326C2.79687 15.2174 2.69519 15.4633 2.69519 15.7244C2.69519 15.9858 2.79687 16.2314 2.98159 16.4165L4.58354 18.0184C4.95298 18.3882 5.59756 18.3885 5.96735 18.0184L6.46908 17.5167C7.0732 17.8639 7.71673 18.1306 8.3891 18.3118V19.0219C8.3891 19.5613 8.82786 20 9.36723 20H11.6328C12.1721 20 12.6109 19.5613 12.6109 19.0219V18.3118C13.2833 18.1306 13.9268 17.8643 14.5309 17.5167L15.0326 18.0184C15.4028 18.3885 16.0467 18.3878 16.4165 18.0184L18.0184 16.4165C18.2031 16.2317 18.3048 15.9858 18.3048 15.7244C18.3048 15.4633 18.2031 15.2177 18.0184 15.0326L17.5167 14.5309C17.8639 13.9268 18.1306 13.2833 18.3118 12.6109H19.0219C19.5613 12.6109 20 12.1721 20 11.6328V9.36688C19.9996 8.8275 19.5609 8.38875 19.0215 8.38875ZM19.296 11.6328C19.296 11.7841 19.1728 11.9072 19.0215 11.9072H17.7577L17.6944 12.1792C17.511 12.9663 17.2021 13.7132 16.775 14.3997L16.6272 14.6368L17.5205 15.5302C17.6279 15.6375 17.6279 15.8116 17.5205 15.9186L15.9186 17.5205C15.8116 17.6275 15.6375 17.6282 15.5302 17.5205L14.6368 16.6272L14.3997 16.775C13.7136 17.2021 12.9666 17.5114 12.1792 17.6944L11.9072 17.7577V19.0215C11.9072 19.1728 11.7841 19.296 11.6328 19.296H9.36688C9.21559 19.296 9.09244 19.1728 9.09244 19.0215V17.7577L8.82047 17.6944C8.03339 17.511 7.28642 17.2021 6.59997 16.775L6.36283 16.6272L5.46949 17.5205C5.36183 17.6282 5.18766 17.6275 5.08105 17.5205L3.4791 15.9186C3.37179 15.8113 3.37179 15.6371 3.4791 15.5302L4.37244 14.6368L4.22466 14.3997C3.79752 13.7136 3.48825 12.9666 3.30529 12.1792L3.24196 11.9072H1.97813C1.82684 11.9072 1.70369 11.7841 1.70369 11.6328V9.36688C1.70369 9.21559 1.82684 9.09244 1.97813 9.09244H3.24196L3.30529 8.82047C3.4886 8.03304 3.79752 7.28607 4.22466 6.59997L4.37244 6.36283L3.4791 5.46949C3.37179 5.36218 3.37179 5.18802 3.4791 5.08105L5.08105 3.4791C5.18802 3.37214 5.36218 3.37144 5.46949 3.4791L6.36283 4.37244L6.59997 4.22466C7.28607 3.79752 8.03304 3.48825 8.82047 3.30529L9.09244 3.24196V1.97813C9.09244 1.82684 9.21559 1.70369 9.36688 1.70369H11.6324C11.7841 1.70369 11.9072 1.82684 11.9072 1.97813V3.24196L12.1792 3.30529C12.9663 3.4886 13.7132 3.79752 14.3997 4.22466L14.6368 4.37244L15.5302 3.4791C15.6378 3.37144 15.812 3.37214 15.9186 3.4791L17.5205 5.08105C17.6279 5.18837 17.6279 5.36253 17.5205 5.46949L16.6272 6.36283L16.775 6.59997C17.2021 7.28572 17.5114 8.03268 17.6944 8.82047L17.7577 9.09244H19.0215C19.1728 9.09244 19.296 9.21559 19.296 9.36688V11.6328Z" stroke="#003D9E" stroke-width="0.3"/>
</svg>
