<svg width="16" height="20" viewBox="0 0 16 20" fill="none" xmlns="http://www.w3.org/2000/svg"><path d="M5 8h1a1 1 0 0 0 0-2H5a1 1 0 0 0 0 2zm0 2a1 1 0 0 0 0 2h6a1 1 0 0 0 0-2H5zm11-3.06a1.307 1.307 0 0 0-.06-.27v-.09a1.07 1.07 0 0 0-.19-.28l-6-6a1.07 1.07 0 0 0-.28-.19.32.32 0 0 0-.09 0A.88.88 0 0 0 9.05 0H3a3 3 0 0 0-3 3v14a3 3 0 0 0 3 3h10a3 3 0 0 0 3-3V6.94zm-6-3.53L12.59 6H11a1 1 0 0 1-1-1V3.41zM14 17a1 1 0 0 1-1 1H3a1 1 0 0 1-1-1V3a1 1 0 0 1 1-1h5v3a3 3 0 0 0 3 3h3v9zm-3-3H5a1 1 0 0 0 0 2h6a1 1 0 0 0 0-2z" fill="#A9A9A9"/></svg>