<svg width="18" height="14" viewBox="0 0 18 14" fill="none" xmlns="http://www.w3.org/2000/svg"><path d="M17.479 1.642a7.337 7.337 0 0 1-1.952.51c.679-.425 1.273-1.104 1.528-1.867-.68.424-1.358.679-2.207.848A3.338 3.338 0 0 0 12.388.03a3.404 3.404 0 0 0-3.394 3.394c0 .255 0 .51.085.764A10.002 10.002 0 0 1 2.036.624c-.254.51-.424 1.103-.424 1.697 0 1.188.594 2.206 1.527 2.8a2.93 2.93 0 0 1-1.527-.424c0 1.612 1.188 3.054 2.715 3.309-.254.085-.594.085-.933.085-.255 0-.424 0-.679-.085a3.387 3.387 0 0 0 3.224 2.376c-1.188.933-2.63 1.442-4.242 1.442-.255 0-.51 0-.849-.085 1.528.934 3.31 1.528 5.261 1.528 6.279 0 9.673-5.176 9.673-9.673V3.17c.679-.255 1.273-.849 1.697-1.528z" fill="#fff"/></svg>