<svg width="17" height="20" viewBox="0 0 17 20" fill="none" xmlns="http://www.w3.org/2000/svg"><path fill-rule="evenodd" clip-rule="evenodd" d="M3.825 18.511c-.03-.754-.007-1.565.144-2.214.223-.96 1.44-6.11 1.44-6.11s-.367-.736-.367-1.824c0-1.71.99-2.985 2.224-2.985 1.049 0 1.555.787 1.555 1.731 0 .673-.273 1.559-.561 2.491a25.361 25.361 0 0 0-.457 1.601c-.29 1.224.614 2.221 1.82 2.221 2.185 0 3.864-2.303 3.864-5.628 0-2.942-2.115-5-5.134-5-3.497 0-5.55 2.623-5.55 5.334 0 1.056.407 2.189.915 2.805.1.121.115.228.085.352a199.401 199.401 0 0 1-.341 1.394c-.054.225-.178.273-.411.164C1.516 12.13.556 9.884.556 8.082c0-3.877 2.817-7.438 8.12-7.438 4.264 0 7.578 3.039 7.578 7.099 0 4.236-2.671 7.644-6.378 7.644-1.245 0-2.416-.647-2.817-1.41l-.766 2.92c-.184.71-.576 1.538-.965 2.253a9.904 9.904 0 0 1-1.503-.639z" fill="#fff"/></svg>