<svg width="13" height="20" viewBox="0 0 13 20" fill="none" xmlns="http://www.w3.org/2000/svg">
<path d="M11.8077 12.3395C12.2529 11.8943 12.3165 11.2582 11.9349 10.6222C11.6169 10.1134 11.0444 9.85896 10.4084 9.98616C10.154 10.0498 9.89958 10.177 9.64517 10.3678C7.67347 11.7035 5.00213 11.6398 3.03043 10.3042C2.90323 10.2406 2.77602 10.177 2.64881 10.1134C1.94917 9.79535 1.24954 9.92256 0.867925 10.5586C0.422702 11.1946 0.486298 11.8943 1.05873 12.4667C1.18593 12.5939 1.31314 12.6575 1.37674 12.7847L1.44035 12.8483C2.3308 13.5479 3.41205 13.9932 4.81133 14.184L3.98448 15.0108C3.28485 15.7105 2.52161 16.4737 1.82197 17.1733C1.63116 17.3641 1.37674 17.6822 1.37674 18.1274C1.37674 18.6998 1.69477 19.2722 2.2672 19.5267C2.45801 19.6539 2.64881 19.6539 2.83962 19.6539C3.15764 19.6539 3.53926 19.5267 3.79367 19.2086C4.74772 18.2546 5.51096 17.4914 6.2742 16.7281C6.33781 16.6645 6.3378 16.6645 6.3378 16.6645C6.3378 16.6645 6.40141 16.6645 6.40141 16.7281C6.91023 17.3005 7.48266 17.8094 7.99149 18.3818C8.2459 18.6362 8.50031 18.8906 8.75473 19.145C9.07274 19.4631 9.32716 19.5903 9.70878 19.5903C10.2812 19.6539 10.9172 19.2722 11.1717 18.6998C11.4261 18.191 11.2989 17.555 10.8536 17.1733C10.2176 16.5373 9.58157 15.8377 8.88193 15.2016L7.80068 14.1204C8.37311 14.0568 9.00914 13.9296 9.58157 13.6752C10.5356 13.3571 11.2353 12.9119 11.8077 12.3395Z" fill="white"/>
<path d="M6.3378 10.5586C9.07274 10.5586 11.2989 8.39607 11.2989 5.66113C11.2989 4.32546 10.79 3.0534 9.83598 2.09935C8.88193 1.1453 7.67347 0.636475 6.40141 0.636475C3.66647 0.636475 1.50395 2.86259 1.44035 5.53392C1.44035 6.86959 1.94918 8.07806 2.90323 9.0321C3.79367 10.0498 5.00213 10.5586 6.3378 10.5586ZM4.93853 4.19826C5.32015 3.81664 5.82897 3.62583 6.3378 3.62583C7.48266 3.62583 8.30951 4.51628 8.30951 5.59753C8.30951 6.74239 7.41906 7.56923 6.3378 7.56923C5.19294 7.56923 4.3661 6.67879 4.3661 5.59753C4.3661 5.08871 4.55691 4.57988 4.93853 4.19826Z" fill="white"/>
<path d="M11.8077 12.3395C12.2529 11.8943 12.3165 11.2582 11.9349 10.6222C11.6169 10.1134 11.0444 9.85896 10.4084 9.98616C10.154 10.0498 9.89958 10.177 9.64517 10.3678C7.67347 11.7035 5.00213 11.6398 3.03043 10.3042C2.90323 10.2406 2.77602 10.177 2.64881 10.1134C1.94917 9.79535 1.24954 9.92256 0.867925 10.5586C0.422702 11.1946 0.486298 11.8943 1.05873 12.4667C1.18593 12.5939 1.31314 12.6575 1.37674 12.7847L1.44035 12.8483C2.3308 13.5479 3.41205 13.9932 4.81133 14.184L3.98448 15.0108C3.28485 15.7105 2.52161 16.4737 1.82197 17.1733C1.63116 17.3641 1.37674 17.6822 1.37674 18.1274C1.37674 18.6998 1.69477 19.2722 2.2672 19.5267C2.45801 19.6539 2.64881 19.6539 2.83962 19.6539C3.15764 19.6539 3.53926 19.5267 3.79367 19.2086C4.74772 18.2546 5.51096 17.4914 6.2742 16.7281C6.33781 16.6645 6.3378 16.6645 6.3378 16.6645C6.3378 16.6645 6.40141 16.6645 6.40141 16.7281C6.91023 17.3005 7.48266 17.8094 7.99149 18.3818C8.2459 18.6362 8.50031 18.8906 8.75473 19.145C9.07274 19.4631 9.32716 19.5903 9.70878 19.5903C10.2812 19.6539 10.9172 19.2722 11.1717 18.6998C11.4261 18.191 11.2989 17.555 10.8536 17.1733C10.2176 16.5373 9.58157 15.8377 8.88193 15.2016L7.80068 14.1204C8.37311 14.0568 9.00914 13.9296 9.58157 13.6752C10.5356 13.3571 11.2353 12.9119 11.8077 12.3395Z" fill="white"/>
</svg>
