<svg width="20" height="14" viewBox="0 0 20 14" fill="none" xmlns="http://www.w3.org/2000/svg">
<path fill-rule="evenodd" clip-rule="evenodd" d="M2.58631 12.9572C2.25348 12.8587 1.9498 12.6835 1.70089 12.4464C1.45198 12.2093 1.26515 11.9173 1.15616 11.5949C0.533347 9.92857 0.34881 2.97063 1.5483 1.59705C1.94751 1.15022 2.51114 0.875112 3.11686 0.83145C6.33471 0.493685 16.2766 0.538721 17.4184 0.944038C17.7396 1.04575 18.033 1.21708 18.2767 1.44521C18.5203 1.67334 18.708 1.95235 18.8255 2.26132C19.506 3.98392 19.5291 10.2438 18.7332 11.8989C18.5221 12.3297 18.1687 12.6787 17.7298 12.8896C16.5303 13.4751 4.17794 13.4638 2.58631 12.9572V12.9572ZM7.69566 9.69214L13.4624 6.76485L7.69566 3.81504V9.69214Z" fill="white"/>
</svg>
