<svg width="13" height="20" viewBox="0 0 13 20" fill="none" xmlns="http://www.w3.org/2000/svg"><path d="M11.808 12.34c.445-.446.508-1.082.127-1.718-.318-.509-.89-.763-1.527-.636a2.15 2.15 0 0 0-.763.382c-1.972 1.335-4.643 1.272-6.615-.064l-.381-.19c-.7-.319-1.4-.191-1.781.445-.445.636-.382 1.335.19 1.908.128.127.255.19.319.318l.063.063c.89.7 1.972 1.145 3.371 1.336l-.827.827-2.162 2.162c-.19.191-.445.51-.445.954 0 .573.318 1.145.89 1.4.191.127.382.127.573.127.318 0 .7-.127.954-.445l2.48-2.48.064-.064s.063 0 .063.063c.51.572 1.082 1.081 1.59 1.654l.764.763c.318.318.572.445.954.445.572.064 1.208-.318 1.463-.89a1.273 1.273 0 0 0-.318-1.527c-.636-.636-1.272-1.335-1.972-1.971L7.8 14.12c.572-.063 1.208-.19 1.78-.445.955-.318 1.654-.763 2.227-1.336z" fill="#fff"/><path d="M6.338 10.559c2.735 0 4.96-2.163 4.96-4.898A5.003 5.003 0 0 0 9.837 2.1C8.882 1.145 7.673.636 6.401.636c-2.735 0-4.897 2.227-4.96 4.898 0 1.336.508 2.544 1.462 3.498.89 1.018 2.1 1.527 3.435 1.527zm-1.4-6.36a1.974 1.974 0 0 1 1.4-.573c1.145 0 1.972.89 1.972 1.972 0 1.144-.89 1.971-1.972 1.971-1.145 0-1.972-.89-1.972-1.971 0-.51.19-1.018.573-1.4z" fill="#fff"/><path d="M11.808 12.34c.445-.446.508-1.082.127-1.718-.318-.509-.89-.763-1.527-.636a2.15 2.15 0 0 0-.763.382c-1.972 1.335-4.643 1.272-6.615-.064l-.381-.19c-.7-.319-1.4-.191-1.781.445-.445.636-.382 1.335.19 1.908.128.127.255.19.319.318l.063.063c.89.7 1.972 1.145 3.371 1.336l-.827.827-2.162 2.162c-.19.191-.445.51-.445.954 0 .573.318 1.145.89 1.4.191.127.382.127.573.127.318 0 .7-.127.954-.445l2.48-2.48.064-.064s.063 0 .063.063c.51.572 1.082 1.081 1.59 1.654l.764.763c.318.318.572.445.954.445.572.064 1.208-.318 1.463-.89a1.273 1.273 0 0 0-.318-1.527c-.636-.636-1.272-1.335-1.972-1.971L7.8 14.12c.572-.063 1.208-.19 1.78-.445.955-.318 1.654-.763 2.227-1.336z" fill="#fff"/></svg>