<svg width="18" height="14" viewBox="0 0 18 14" fill="none" xmlns="http://www.w3.org/2000/svg">
<path d="M17.4787 1.64239C16.8848 1.89693 16.206 2.06664 15.5272 2.15149C16.206 1.72724 16.8 1.04846 17.0545 0.284821C16.3757 0.709064 15.6969 0.963609 14.8484 1.13331C14.2545 0.454518 13.3212 0.0302734 12.3878 0.0302734C10.5212 0.0302734 8.9939 1.55755 8.9939 3.42421C8.9939 3.67876 8.9939 3.9333 9.07875 4.18784C6.27875 4.01815 3.73329 2.66057 2.03632 0.62421C1.78178 1.1333 1.61208 1.72724 1.61208 2.32118C1.61208 3.50906 2.20602 4.52724 3.13936 5.12118C2.54542 5.12118 2.03632 4.95149 1.61208 4.69694C1.61208 6.30906 2.79996 7.75148 4.32723 8.00603C4.07268 8.09087 3.7333 8.09088 3.3939 8.09088C3.13936 8.09088 2.96966 8.09087 2.71511 8.00603C3.13936 9.3636 4.41209 10.3818 5.93936 10.3818C4.75148 11.3151 3.30906 11.8242 1.69693 11.8242C1.44239 11.8242 1.18784 11.8242 0.84845 11.7394C2.37572 12.6727 4.15754 13.2666 6.10905 13.2666C12.3878 13.2666 15.7818 8.09088 15.7818 3.59391V3.16966C16.4606 2.91512 17.0545 2.32118 17.4787 1.64239Z" fill="white"/>
</svg>
