<svg width="17" height="20" viewBox="0 0 17 20" fill="none" xmlns="http://www.w3.org/2000/svg">
<path fill-rule="evenodd" clip-rule="evenodd" d="M3.82498 18.5113C3.79507 17.7567 3.81751 16.9457 3.96857 16.2968C4.19193 15.3376 5.40977 10.1876 5.40977 10.1876C5.40977 10.1876 5.04214 9.45136 5.04214 8.36288C5.04214 6.65389 6.03269 5.37802 7.26604 5.37802C8.31462 5.37802 8.82108 6.16526 8.82108 7.10927C8.82108 7.78227 8.54763 8.6679 8.2597 9.60044C8.09646 10.1291 7.92858 10.6728 7.80322 11.2015C7.51368 12.4247 8.41668 13.4223 9.62323 13.4223C11.8076 13.4223 13.4868 11.119 13.4868 7.79426C13.4868 4.85151 11.3723 2.79404 8.353 2.79404C4.85596 2.79404 2.80333 5.41701 2.80333 8.12773C2.80333 9.18407 3.21024 10.3168 3.71801 10.9326C3.81846 11.0543 3.83317 11.1608 3.80325 11.2851C3.75065 11.5039 3.66179 11.8648 3.58699 12.1685C3.52912 12.4035 3.47967 12.6044 3.46191 12.6789C3.40832 12.9039 3.28379 12.9516 3.05086 12.8432C1.51587 12.1287 0.556152 9.88447 0.556152 8.08189C0.556152 4.20491 3.37305 0.644379 8.67691 0.644379C12.9404 0.644379 16.2537 3.68253 16.2537 7.74277C16.2537 11.9785 13.583 15.3874 9.8761 15.3874C8.63066 15.3874 7.45988 14.7404 7.0591 13.9761C7.0591 13.9761 6.44283 16.3228 6.29342 16.8978C6.10922 17.6066 5.71717 18.4345 5.32783 19.1499C4.80776 18.9781 4.30559 18.764 3.82498 18.5113Z" fill="white"/>
</svg>
