<svg width="20" height="12" viewBox="0 0 20 12" fill="none" xmlns="http://www.w3.org/2000/svg">
<path d="M10.8033 11.9091C4.42565 11.9091 0.787924 7.45006 0.636353 0.0302734H3.83102C3.93596 5.4762 6.29115 7.783 8.15665 8.25862V0.0302734H11.1648V4.72709C13.007 4.52495 14.9424 2.38463 15.5953 0.0302734H18.6035C18.3574 1.25131 17.867 2.40743 17.1628 3.42634C16.4586 4.44524 15.5559 5.30499 14.511 5.95183C15.6773 6.54287 16.7075 7.37942 17.5335 8.4063C18.3595 9.43318 18.9626 10.627 19.303 11.9091H15.9918C15.6862 10.7955 15.0652 9.79872 14.2065 9.04358C13.3478 8.28844 12.2897 7.80857 11.1648 7.66409V11.9091H10.8033V11.9091Z" fill="white"/>
</svg>
