<svg width="14" height="14" viewBox="0 0 14 14" fill="none" xmlns="http://www.w3.org/2000/svg">
<path d="M13.2 8.27999C13.0127 8.50489 12.7783 8.68594 12.5133 8.81034C12.2484 8.93475 11.9594 8.99949 11.6667 8.99999H8.62668L9.00001 9.95332C9.1553 10.3707 9.20701 10.8196 9.15072 11.2614C9.09443 11.7032 8.9318 12.1247 8.6768 12.4898C8.4218 12.855 8.08203 13.1528 7.68664 13.3578C7.29125 13.5627 6.85203 13.6687 6.40668 13.6667C6.27844 13.6664 6.15299 13.6291 6.04539 13.5594C5.93779 13.4896 5.85259 13.3903 5.80001 13.2733L3.90001 8.99999H2.33334C1.80291 8.99999 1.2942 8.78928 0.91913 8.4142C0.544057 8.03913 0.333344 7.53042 0.333344 6.99999V2.33332C0.333344 1.80289 0.544057 1.29418 0.91913 0.91911C1.2942 0.544037 1.80291 0.333324 2.33334 0.333324H10.82C11.2879 0.33348 11.7409 0.497663 12.1002 0.797308C12.4596 1.09695 12.7025 1.51309 12.7867 1.97332L13.6333 6.63999C13.6857 6.9284 13.674 7.2248 13.5992 7.50821C13.5243 7.79161 13.388 8.05509 13.2 8.27999ZM3.66668 1.66666H2.33334C2.15653 1.66666 1.98696 1.73689 1.86194 1.86192C1.73691 1.98694 1.66668 2.15651 1.66668 2.33332V6.99999C1.66668 7.1768 1.73691 7.34637 1.86194 7.47139C1.98696 7.59642 2.15653 7.66666 2.33334 7.66666H3.66668V1.66666ZM12.3333 6.87999L11.4867 2.21332C11.4583 2.05802 11.3757 1.91783 11.2536 1.81772C11.1315 1.71761 10.9779 1.66408 10.82 1.66666H5.00001V8.19332L6.81334 12.2733C7 12.2189 7.17335 12.1264 7.32245 12.0016C7.47155 11.8768 7.59316 11.7225 7.67961 11.5483C7.76606 11.3742 7.81547 11.184 7.82471 10.9898C7.83396 10.7956 7.80285 10.6016 7.73334 10.42L7.38001 9.46666C7.30472 9.26515 7.2793 9.04843 7.30593 8.83497C7.33255 8.62151 7.41042 8.41767 7.5329 8.24083C7.65538 8.06399 7.81882 7.91941 8.00928 7.81943C8.19974 7.71945 8.41157 7.66703 8.62668 7.66666H11.6667C11.7646 7.66682 11.8614 7.64539 11.9501 7.60391C12.0388 7.56243 12.1173 7.50191 12.18 7.42666C12.2442 7.35244 12.2913 7.26496 12.3178 7.17046C12.3443 7.07596 12.3496 6.97678 12.3333 6.87999Z" fill="#A9A9A9"/>
</svg>
