<svg width="14" height="14" viewBox="0 0 14 14" fill="none" xmlns="http://www.w3.org/2000/svg"><path d="M13.2 8.28a2 2 0 0 1-1.533.72h-3.04L9 9.953a2.753 2.753 0 0 1-2.593 3.714.668.668 0 0 1-.607-.394L3.9 9H2.333a2 2 0 0 1-2-2V2.333a2 2 0 0 1 2-2h8.487a2 2 0 0 1 1.967 1.64l.846 4.667a2 2 0 0 1-.433 1.64zM3.667 1.667H2.333a.667.667 0 0 0-.666.666V7a.667.667 0 0 0 .666.667h1.334v-6zm8.666 5.213l-.846-4.667a.667.667 0 0 0-.667-.546H5v6.526l1.813 4.08a1.406 1.406 0 0 0 .92-1.853l-.353-.953a1.333 1.333 0 0 1 1.247-1.8h3.04a.667.667 0 0 0 .513-.24.667.667 0 0 0 .153-.547z" fill="#A9A9A9"/></svg>