<svg width="20" height="22" viewBox="0 0 20 22" fill="none" xmlns="http://www.w3.org/2000/svg"><path fill-rule="evenodd" clip-rule="evenodd" d="M11 12H9a8 8 0 0 0-8 8v1h18v-1a8 8 0 0 0-8-8zm-2-1a9 9 0 0 0-9 9v1a1 1 0 0 0 1 1h18a1 1 0 0 0 1-1v-1a9 9 0 0 0-9-9H9z" fill="#003D9E"/><path fill-rule="evenodd" clip-rule="evenodd" d="M6 7h8a4 4 0 0 1-8 0zm4 5a5 5 0 0 1-5-5v-.4a.6.6 0 0 1 .6-.6h8.8a.6.6 0 0 1 .6.6V7a5 5 0 0 1-5 5z" fill="#003D9E"/><path fill-rule="evenodd" clip-rule="evenodd" d="M11.751 1.383a.716.716 0 0 1 .456.007l.455.171c.254.093.43.298.43.522v.29c.76.615 1.234 1.428 1.304 2.247h.473c.079 0 .131.046.131.105v.74c0 .053-.061.535-.131.535H5.13C5.061 6 5 5.518 5 5.465v-.74c0-.053.061-.099.131-.099h.473c.07-.819.543-1.631 1.305-2.246v-.29c0-.218.166-.423.429-.522l.455-.172a.685.685 0 0 1 .526.02c.014.007.027.053.04.123.023.13.044.345.064.543l.012.124c.013.12.024.225.035.284.005.028.01.046.015.052.228-.066.455-.12.683-.159.014-.056.022-.177.032-.324l.008-.117c.018-.242.044-.526.105-.718C9.356 1.09 9.415 1 9.5 1h1c.103 0 .167.132.21.315.041.181.06.413.074.618l.008.12c.01.15.017.273.031.33.236.04.464.093.683.159a.311.311 0 0 0 .031-.103 4.872 4.872 0 0 0 .055-.353c.027-.188.057-.395.09-.535a.445.445 0 0 1 .056-.158.032.032 0 0 1 .013-.01zm-.353-.936a1.03 1.03 0 0 1 .053-.018h.004a1.714 1.714 0 0 1 1.104.025l.452.17c.475.176.997.619 1.071 1.294a4.447 4.447 0 0 1 1.13 1.758c.388.123.788.453.788 1.05v.739c0 .089-.014.194-.019.233V5.7a4.252 4.252 0 0 1-.038.238 2.307 2.307 0 0 1-.077.307c-.017.05-.055.155-.126.268a1.02 1.02 0 0 1-.87.487H5.13a1.02 1.02 0 0 1-.871-.487 1.261 1.261 0 0 1-.126-.268 2.328 2.328 0 0 1-.077-.307 4.277 4.277 0 0 1-.038-.238v-.002A1.96 1.96 0 0 1 4 5.465v-.74c0-.43.244-.722.437-.867a1.14 1.14 0 0 1 .352-.18 4.464 4.464 0 0 1 1.129-1.754c.074-.666.585-1.11 1.067-1.292l.45-.17c.39-.15.81-.136 1.163-.01l.054-.066C8.815.203 9.102 0 9.5 0h1a1.13 1.13 0 0 1 .898.447z" fill="#003D9E"/></svg>