<svg width="20" height="22" viewBox="0 0 20 22" fill="none" xmlns="http://www.w3.org/2000/svg">
<path fill-rule="evenodd" clip-rule="evenodd" d="M11 12H9C4.58172 12 1 15.5817 1 20V21H19V20C19 15.5817 15.4183 12 11 12ZM9 11C4.02944 11 0 15.0294 0 20V21C0 21.5523 0.447715 22 1 22H19C19.5523 22 20 21.5523 20 21V20C20 15.0294 15.9706 11 11 11H9Z" fill="#003D9E"/>
<path fill-rule="evenodd" clip-rule="evenodd" d="M6 7H14C14 9.20914 12.2091 11 10 11C7.79086 11 6 9.20914 6 7ZM10 12C7.23858 12 5 9.76142 5 7V6.6C5 6.26863 5.26863 6 5.6 6H14.4C14.7314 6 15 6.26863 15 6.6V7C15 9.76142 12.7614 12 10 12Z" fill="#003D9E"/>
<path fill-rule="evenodd" clip-rule="evenodd" d="M11.7513 1.38309C11.9002 1.33685 12.0666 1.33686 12.2067 1.3897L12.662 1.56143C12.9159 1.6539 13.0911 1.85865 13.0911 2.08322V2.37385C13.8529 2.98811 14.3257 3.80053 14.3958 4.61955H14.8687C14.9475 4.61955 15 4.66579 15 4.72523V5.46499C15 5.51783 14.9387 6 14.8687 6H13.4939H5.13135C5.0613 6 5 5.51783 5 5.46499V4.72523C5 4.67239 5.0613 4.62615 5.13135 4.62615H5.6042C5.67426 3.80713 6.14711 2.99472 6.90893 2.38045V2.08983C6.90893 1.87186 7.07531 1.66711 7.338 1.56803L7.79334 1.3963C7.93924 1.33838 8.11207 1.34141 8.25869 1.39202C8.27927 1.39913 8.29934 1.40717 8.31874 1.41611C8.33262 1.42266 8.34582 1.46874 8.35839 1.53884C8.38188 1.66976 8.4032 1.88444 8.42281 2.08183C8.42705 2.12451 8.43121 2.16639 8.43529 2.20644C8.44756 2.32674 8.45914 2.43052 8.47016 2.49008C8.47526 2.51764 8.48024 2.53573 8.48511 2.54161C8.71278 2.47556 8.94046 2.42272 9.16813 2.38309C9.18175 2.32658 9.19001 2.20639 9.20013 2.05936C9.2027 2.0219 9.2054 1.98269 9.20833 1.94236C9.22598 1.69986 9.25226 1.41637 9.31306 1.22415C9.35556 1.08978 9.41493 1 9.5 1H10.5C10.603 1 10.6673 1.13164 10.7094 1.3147C10.751 1.49623 10.7707 1.72832 10.7844 1.93276C10.7872 1.97447 10.7898 2.01504 10.7922 2.05378C10.8016 2.20335 10.8093 2.32586 10.8231 2.38309C11.0595 2.42272 11.2872 2.47556 11.5061 2.54161C11.516 2.52996 11.5262 2.49309 11.537 2.43926C11.5493 2.37799 11.5622 2.29474 11.5757 2.20168C11.5812 2.16444 11.5867 2.12564 11.5923 2.08605C11.6192 1.89762 11.6487 1.69129 11.6811 1.55106C11.699 1.47338 11.7179 1.41598 11.7376 1.39314C11.7422 1.38794 11.7467 1.38454 11.7513 1.38309ZM11.3981 0.447486C11.4154 0.44099 11.4332 0.434844 11.4515 0.429096L11.4547 0.428086C11.7897 0.324031 12.1866 0.313382 12.5595 0.454031L13.0108 0.624207C13.4859 0.799555 14.0077 1.24254 14.0821 1.91759C14.5964 2.4193 14.993 3.02034 15.2127 3.67582C15.5996 3.79862 16 4.12851 16 4.72523V5.46499C16 5.55357 15.9863 5.65862 15.9812 5.69785L15.981 5.69977C15.9722 5.76731 15.9595 5.85207 15.9431 5.93839C15.9285 6.01576 15.9041 6.13198 15.8658 6.24478C15.8491 6.29421 15.8111 6.40031 15.7402 6.51264C15.7049 6.56867 15.6346 6.66984 15.518 6.766C15.3976 6.86531 15.1756 7 14.8687 7H13.4939H5.13135C4.82442 7 4.60242 6.86531 4.48202 6.766C4.36543 6.66984 4.2951 6.56867 4.25976 6.51264C4.18892 6.40031 4.15093 6.29422 4.13417 6.24478C4.09595 6.13198 4.07152 6.01576 4.05687 5.9384C4.04052 5.85207 4.02779 5.76732 4.01901 5.69977L4.01877 5.69786C4.01366 5.65864 4 5.55358 4 5.46499V4.72523C4 4.29536 4.24409 4.00321 4.43718 3.85755C4.54418 3.77684 4.66347 3.71663 4.78884 3.67788C5.00887 3.02415 5.40484 2.42472 5.91798 1.92416C5.99166 1.25815 6.50272 0.8143 6.98512 0.632365L7.43438 0.462929C7.82414 0.311275 8.24482 0.326354 8.59832 0.451492C8.61521 0.429633 8.63322 0.407811 8.65242 0.386203C8.81529 0.202939 9.10183 0 9.5 0H10.5C10.8991 0 11.1865 0.203828 11.35 0.389317C11.3669 0.408583 11.383 0.428013 11.3981 0.447486Z" fill="#003D9E"/>
</svg>
