<svg width="13" height="12" viewBox="0 0 13 12" fill="none" xmlns="http://www.w3.org/2000/svg">
<path d="M12.7676 10.3915C12.5028 11.1329 11.4518 11.7479 10.6134 11.9275C10.0399 12.0486 9.29069 12.1452 6.76867 11.1084C3.54283 9.78332 1.46543 6.53308 1.30352 6.32223C1.14847 6.11137 0 4.60117 0 3.03937C0 1.4775 0.799949 0.716982 1.1224 0.390461C1.38722 0.122446 1.82493 0 2.2448 0C2.38064 0 2.50276 0.0068053 2.61253 0.0122478C2.93498 0.0258504 3.09687 0.0448953 3.3096 0.549642C3.57437 1.18227 4.21931 2.74409 4.29612 2.90469C4.37437 3.06521 4.45254 3.28291 4.34276 3.49376C4.23988 3.71146 4.14933 3.80802 3.98743 3.99304C3.82546 4.17805 3.67183 4.31959 3.50986 4.51823C3.36171 4.69096 3.19434 4.87605 3.38094 5.19575C3.56753 5.50868 4.2124 6.55214 5.1619 7.39025C6.38721 8.47183 7.38064 8.81737 7.73604 8.96434C8.00088 9.07319 8.31648 9.04728 8.50991 8.8432C8.75553 8.58068 9.05874 8.14528 9.36751 7.71673C9.58707 7.40924 9.86423 7.37119 10.1551 7.48004C10.4515 7.58204 12.0198 8.3507 12.3422 8.50988C12.6647 8.67047 12.8774 8.74664 12.9556 8.88132C13.0325 9.01601 13.0325 9.64864 12.7676 10.3915Z" fill="#FAFAFA"/>
</svg>
