<svg width="13" height="12" viewBox="0 0 13 12" fill="none" xmlns="http://www.w3.org/2000/svg"><path d="M12.768 10.392c-.265.74-1.316 1.356-2.155 1.536-.573.12-1.322.217-3.844-.82-3.226-1.325-5.304-4.575-5.465-4.786C1.148 6.112 0 4.602 0 3.04 0 1.477.8.717 1.122.39 1.387.122 1.825 0 2.245 0c.136 0 .258.007.368.012.322.014.484.033.697.538.264.632.91 2.194.986 2.355.078.16.157.378.047.589-.103.217-.194.314-.356.499-.162.185-.315.327-.477.525-.148.173-.316.358-.13.678.188.313.832 1.356 1.782 2.194C6.387 8.472 7.38 8.817 7.736 8.964c.265.11.58.083.774-.12.246-.263.549-.699.858-1.127.22-.308.496-.346.787-.237.296.102 1.865.87 2.187 1.03.323.16.535.237.614.371.077.135.077.768-.188 1.51z" fill="#FAFAFA"/></svg>