<svg width="14" height="13" viewBox="0 0 14 13" fill="none" xmlns="http://www.w3.org/2000/svg">
<path d="M6.97258 0C6.56122 0 6.56122 0.587078 6.97258 0.591965C10.1637 0.614474 12.7918 2.65162 12.8207 6.38835C12.8207 6.78266 13.451 6.77776 13.4457 6.38345H13.4446C13.4104 2.35711 10.5408 0.0225011 6.97258 0Z" fill="white"/>
<path d="M11.1717 5.7679C11.162 6.1573 11.7913 6.17595 11.7967 5.78156C11.849 3.56148 10.3544 1.73274 7.5457 1.53998C7.13434 1.51259 7.09165 2.10455 7.50188 2.13195C9.93769 2.30123 11.2208 3.82367 11.1717 5.7679Z" fill="white"/>
<path d="M10.4972 8.29591C9.96941 8.01607 9.432 8.19019 9.2098 8.46513L8.74507 9.01604C8.50897 9.29587 8.06771 9.25865 8.06771 9.25865C4.8477 8.47887 3.98664 5.39279 3.98664 5.39279C3.98664 5.39279 3.94709 4.97501 4.24196 4.75088L4.8231 4.31059C5.11371 4.09924 5.29748 3.59047 5.00156 3.09048C4.21093 1.78228 3.67996 1.33121 3.40969 0.984841C3.12552 0.659014 2.69817 0.585626 2.25374 0.805781H2.24412C1.32 1.30088 0.308267 2.22748 0.63198 3.18147C1.18432 4.18735 2.19925 7.39369 5.43422 9.8164C6.95447 10.9622 9.36045 12.1363 10.3818 12.4074L10.3914 12.421C11.3978 12.7283 12.3764 11.7654 12.8988 10.8937V10.8868C13.1306 10.4651 13.0537 10.0659 12.715 9.80466C12.1146 9.26846 11.2087 8.67647 10.4972 8.29591Z" fill="white"/>
<path d="M7.98503 3.7254C9.01169 3.78023 9.50954 4.27141 9.56292 5.28014C9.58222 5.67453 10.2072 5.64712 10.188 5.25281C10.1195 3.93578 9.36959 3.20193 8.0192 3.13344C7.60785 3.11094 7.56942 3.7029 7.98503 3.7254Z" fill="white"/>
</svg>
