<svg width="14" height="13" viewBox="0 0 14 13" fill="none" xmlns="http://www.w3.org/2000/svg"><path d="M6.973 0c-.412 0-.412.587 0 .592 3.19.022 5.819 2.06 5.848 5.796 0 .395.63.39.625-.005h-.001C13.41 2.357 10.54.023 6.973 0z" fill="#fff"/><path d="M11.172 5.768c-.01.39.62.408.625.014.052-2.22-1.443-4.05-4.251-4.242-.412-.027-.454.565-.044.592 2.436.17 3.719 1.692 3.67 3.636zm-.675 2.528c-.528-.28-1.065-.106-1.287.17l-.465.55c-.236.28-.677.243-.677.243-3.22-.78-4.081-3.866-4.081-3.866s-.04-.418.255-.642l.581-.44c.29-.212.474-.72.179-1.22C4.21 1.781 3.68 1.33 3.41.984c-.284-.326-.712-.4-1.156-.18h-.01C1.32 1.302.308 2.228.632 3.182c.552 1.006 1.567 4.213 4.802 6.635 1.52 1.146 3.926 2.32 4.948 2.591l.01.014c1.006.307 1.984-.656 2.507-1.527v-.007c.232-.422.155-.821-.184-1.082-.6-.537-1.506-1.129-2.218-1.51z" fill="#fff"/><path d="M7.985 3.725c1.027.055 1.525.546 1.578 1.555.02.395.644.367.625-.027-.069-1.317-.818-2.051-2.169-2.12-.411-.022-.45.57-.034.592z" fill="#fff"/></svg>