<svg width="125" height="34" viewBox="0 0 125 34" fill="none" xmlns="http://www.w3.org/2000/svg"><g clip-path="url(#a)" fill-rule="evenodd" clip-rule="evenodd"><path d="M.026.021h124.948V33.98H.026V.02z" fill="#01392E" stroke="#2B2A29" stroke-width=".076"/><path d="M10.575 25.075h103.796v2.516H10.575v-2.516zm9.516-18.671l-3.165 7.45 3.772 7.953 6.868-.005-4.683-7.958 4.054-7.446H20.09v.006zm-9.521.005v15.398l8.988-.005-3.921-7.958 3.335-7.45-8.402.01v.005zm88.404 13.032H97.92V11.12h1.055v8.32zm-5.493 0v.352l2.915 2.009 4.406-.006 2.605-2.013v-.235h.005v-8.653h-.005v-.106l-2.605-2.014-4.407-.005-2.914 2.008v8.673-.01zm-7.464 0h-1.055V11.12h1.055v8.32zm-5.493 0v.352l2.914 2.009 4.406-.006 2.606-2.013v-.235h.005v-8.653h-.005v-.106l-2.606-2.014-4.406-.005-2.914 2.008v8.673-.01zm-33.288-3.835h.996l-1.737-6.815 4.56-.043 3.299 13.059-4.54.01-.783-3.065h-1.039l.736 3.055h-5.51l2.771-11.36 1.242 5.16h.005zm20.773-3.023V8.77h10.09v3.813h-2.87v9.224H70.88v-9.224h-2.872zM30.347 8.77h6.739v.005l3.027 1.97-.027 3.366-2.254 1.26 2.28 1.314v5.122h-4.304V17h-1.12v4.807h-4.347V8.77h.006zm5.471 2.387H34.7v2.852h1.118v-2.852zM106.39 8.77h4.348v9.218h3.692v3.814h-8.04V8.77zM61.6 12.583v.93h4.049v3.813h-4.05v4.48h-4.347V8.77h8.402v3.813H61.6zM10.575 23.457h103.796v.897H10.575v-.897z" fill="#FFDB01"/></g><defs><clipPath id="a"><path fill="#fff" d="M0 0h125v34H0z"/></clipPath></defs></svg>