<svg width="125" height="34" viewBox="0 0 125 34" fill="none" xmlns="http://www.w3.org/2000/svg">
<g clip-path="url(#clip0_18_9588)">
<path fill-rule="evenodd" clip-rule="evenodd" d="M0.0264893 0.0214844H124.974V33.9788H0.0264893V0.0214844Z" fill="#01392E" stroke="#2B2A29" stroke-width="0.076195"/>
<path fill-rule="evenodd" clip-rule="evenodd" d="M10.5753 25.0754H114.371V27.591H10.5753V25.0754ZM20.0907 6.40375L16.926 13.8543L20.6981 21.8068L27.5656 21.8015L22.8825 13.8436L26.9369 6.39841H20.0907V6.40375ZM10.5699 6.40909V21.8068L19.5579 21.8015L15.6367 13.8436L18.9719 6.39307L10.5699 6.40375V6.40909ZM98.9741 19.4408H97.9192V11.1197H98.9741V19.4408ZM93.4811 19.4408V19.5423V19.7933L96.3955 21.8015L100.802 21.7961L103.407 19.7826V19.5476H103.412V10.8954H103.407V10.7886L100.802 8.7751L96.3955 8.76975L93.4811 10.7779V10.8954V11.1304V19.4515V19.4408ZM86.0169 19.4408H84.962V11.1197H86.0169V19.4408ZM80.5239 19.4408V19.5423V19.7933L83.4382 21.8015L87.8443 21.7961L90.4496 19.7826V19.5476H90.455V10.8954H90.4496V10.7886L87.8443 8.7751L83.4382 8.76975L80.5239 10.7779V10.8954V11.1304V19.4515V19.4408ZM47.2359 15.6061H48.2322L46.4953 8.79112L51.0559 8.74839L54.3538 21.8068L49.8145 21.8175L49.0313 18.7518H47.9924L48.7276 21.8068H43.2187L45.9892 10.4468L47.2305 15.6061H47.2359ZM68.0089 12.5831V8.76975H78.0998V12.5831H75.2281V21.8068H70.8806V12.5831H68.0089ZM30.3467 8.76975H34.6942H35.8131H37.0811H37.0864V8.7751L40.1126 10.7459L40.0859 14.1106L37.8323 15.3711L40.1126 16.6849V21.8068H35.8077V17H34.6889V21.8068H30.3414V11.1571V8.76975H30.3467ZM35.8184 11.1571H34.6995V14.0092H35.8184V11.1571ZM106.39 8.76975H110.738V17.9881H114.43V21.8015H110.738H106.39V17.9881V8.76975ZM61.5996 12.5831V13.5124H65.6487V17.3258H61.5996V21.8068H57.2521V17.3258V13.5124V12.5831V8.76975H65.6541V12.5831H61.6049H61.5996ZM10.5753 23.4572H114.371V24.3544H10.5753V23.4572Z" fill="#FFDB01"/>
</g>
<defs>
<clipPath id="clip0_18_9588">
<rect width="125" height="34" fill="white"/>
</clipPath>
</defs>
</svg>
