<svg width="116" height="57" viewBox="0 0 116 57" fill="none" xmlns="http://www.w3.org/2000/svg"><path fill-rule="evenodd" clip-rule="evenodd" d="M57.661 0L116 28.798l-58.339 27.74L0 28.798 57.661 0z" fill="#EC1B24"/><path fill-rule="evenodd" clip-rule="evenodd" d="M25.931 28.092l4.092-7.187h3.765l-4.443 6.859 4.443 7.54h-4.116l-3.74-7.212z" fill="#fff"/><path d="M22.167 35.304h3.764v-14.4h-3.764v14.4z" fill="#fff"/><path fill-rule="evenodd" clip-rule="evenodd" d="M47.07 35.304h-3.064l-4.443-7.893v7.893h-3.39v-14.4h3.39l3.765 6.86.35-6.86h3.391v14.4z" fill="#fff"/><path d="M51.184 35.304h4.092v-14.4h-4.092v14.4z" fill="#fff"/><path fill-rule="evenodd" clip-rule="evenodd" d="M69.259 25.697c0 1.385-.35 2.395-1.029 3.1-.678 1.034-2.034 2.044-4.092 2.044H62.08v4.463h-3.39v-14.4h4.77c1.707 0 4.092.682 4.77 1.715.678.682 1.029 1.715 1.029 3.078zm-3.063 0c0-1.01-1.38-2.044-2.736-2.044h-1.38v4.44h1.38c1.356 0 2.736-1.363 2.736-2.396zm13.632 9.607h-8.862v-14.4h8.862v2.749h-5.121v2.748h4.442v2.725h-4.442v3.1h5.12v3.078zm15.362 0h-3.765l-2.712-5.145-3.087 5.145h-3.741l4.092-7.54-3.765-6.86h4.092l2.409 4.464 2.034-4.463h3.764l-3.764 6.859 4.443 7.54z" fill="#fff"/><path fill-rule="evenodd" clip-rule="evenodd" d="M94.161 11.25c0 1.621 1.31 2.96 2.946 2.96 1.637 0 2.946-1.339 2.946-2.96 0-1.62-1.31-2.959-2.946-2.959a2.956 2.956 0 0 0-2.946 2.96zm.561 0c0-1.385 1.076-2.513 2.385-2.513 1.31 0 2.385 1.128 2.385 2.514s-1.052 2.513-2.385 2.513c-1.31 0-2.385-1.127-2.385-2.513zm1.31 1.457h.537v-1.222h.445c.631 0 .631.282.654.54.024.494 0 .564.117.682h.538c-.093-.165-.07-.258-.093-.705-.024-.305-.047-.634-.445-.704v-.024c.445-.164.515-.47.515-.681 0-.752-.655-.846-.982-.846h-1.286v2.96zm.537-2.56h.562c.374 0 .608.094.608.446 0 .211-.094.47-.538.47h-.632v-.916z" fill="#EC1B24"/></svg>