<svg width="116" height="57" viewBox="0 0 116 57" fill="none" xmlns="http://www.w3.org/2000/svg">
<path fill-rule="evenodd" clip-rule="evenodd" d="M57.661 0L116 28.7976L57.661 56.5382L0 28.7976L57.661 0Z" fill="#EC1B24"/>
<path fill-rule="evenodd" clip-rule="evenodd" d="M25.9312 28.0924L30.0231 20.9048H33.7876L29.345 27.7636L33.7876 35.3036H29.6723L25.9312 28.0924Z" fill="white"/>
<path d="M22.1669 35.3036H25.9314V20.9048H22.1669V35.3036Z" fill="white"/>
<path fill-rule="evenodd" clip-rule="evenodd" d="M47.0691 35.3036H44.006L39.5633 27.4113V35.3036H36.1729V20.9048H39.5633L43.3279 27.7636L43.6786 20.9048H47.0691V35.3036Z" fill="white"/>
<path d="M51.184 35.3036H55.2759V20.9048H51.184V35.3036Z" fill="white"/>
<path fill-rule="evenodd" clip-rule="evenodd" d="M69.2589 25.6966C69.2589 27.0824 68.9082 28.0924 68.2301 28.7971C67.552 29.8306 66.1958 30.8407 64.1382 30.8407H62.0805V35.3036H58.6901V20.9048H63.4601C65.167 20.9048 67.552 21.586 68.2301 22.6195C68.9082 23.3007 69.2589 24.3342 69.2589 25.6966ZM66.1958 25.6966C66.1958 24.6865 64.8163 23.653 63.4601 23.653H62.0805V28.0924H63.4601C64.8163 28.0924 66.1958 26.7301 66.1958 25.6966Z" fill="white"/>
<path fill-rule="evenodd" clip-rule="evenodd" d="M79.8275 35.3036H70.9656V20.9048H79.8275V23.653H74.7068V26.4012H79.1494V29.126H74.7068V32.2265H79.8275V35.3036Z" fill="white"/>
<path fill-rule="evenodd" clip-rule="evenodd" d="M95.1896 35.3036H91.425L88.7127 30.1595L85.6262 35.3036H81.885L85.9769 27.7636L82.2124 20.9048H86.3043L88.7127 25.3677L90.7469 20.9048H94.5115L90.7469 27.7636L95.1896 35.3036Z" fill="white"/>
<path fill-rule="evenodd" clip-rule="evenodd" d="M94.161 11.2506C94.161 12.8714 95.4704 14.2103 97.1072 14.2103C98.7439 14.2103 100.053 12.8714 100.053 11.2506C100.053 9.62989 98.7439 8.29102 97.1072 8.29102C95.4704 8.29102 94.161 9.62989 94.161 11.2506ZM94.7222 11.2506C94.7222 9.86478 95.7978 8.73731 97.1072 8.73731C98.4166 8.73731 99.4922 9.86478 99.4922 11.2506C99.4922 12.6365 98.44 13.764 97.1072 13.764C95.7978 13.764 94.7222 12.6365 94.7222 11.2506ZM96.0316 12.707H96.5694V11.4855H97.0137C97.645 11.4855 97.645 11.7674 97.6684 12.0258C97.6917 12.519 97.6684 12.5895 97.7853 12.707H98.3231C98.2295 12.5425 98.2529 12.4486 98.2295 12.0023C98.2061 11.6969 98.1828 11.3681 97.7853 11.2976V11.2741C98.2295 11.1097 98.2997 10.8043 98.2997 10.5929C98.2997 9.84129 97.645 9.74734 97.3176 9.74734H96.0316V12.707ZM96.5694 10.1467H97.1306C97.5047 10.1467 97.7385 10.2406 97.7385 10.5929C97.7385 10.8043 97.645 11.0627 97.2007 11.0627H96.5694V10.1467Z" fill="#EC1B24"/>
</svg>
