<svg width="119" height="56" viewBox="0 0 119 56" fill="none" xmlns="http://www.w3.org/2000/svg">
<path fill-rule="evenodd" clip-rule="evenodd" d="M111.102 0C115.393 0.0662019 118.868 3.34317 119 7.4246V48.4519C118.866 52.5755 115.322 55.8787 110.97 55.8787H8.03424C3.59734 55.8787 0 52.446 0 48.2109V7.66558C0 3.47298 3.52635 0.0675794 7.90236 0H111.102ZM8.03424 2.79442H110.97C113.789 2.79442 116.073 4.97496 116.073 7.66558V48.2109C116.073 50.9013 113.789 53.0823 110.97 53.0823H8.03424C5.21514 53.0823 2.93033 50.9013 2.93033 48.2109V7.66558C2.93033 4.97496 5.21514 2.79442 8.03424 2.79442Z" fill="#006AB3"/>
<path fill-rule="evenodd" clip-rule="evenodd" d="M109.995 8.43164H69.4736L62.3795 15.197H11.9135L9.99756 17.0463H63.195L70.2758 10.2812H108.045L109.995 8.43164Z" fill="#006AB3"/>
<path fill-rule="evenodd" clip-rule="evenodd" d="M107.562 10.7773H70.5119L63.4119 17.5425H9.4602L7.47974 19.3917H64.226L71.3197 12.6268H105.62L107.562 10.7773Z" fill="#BACEE9"/>
<path fill-rule="evenodd" clip-rule="evenodd" d="M110.924 9.87381H111.421C111.674 9.87381 111.951 9.92063 111.951 10.2261C111.951 10.5902 111.647 10.6056 111.316 10.6056H110.924V9.87381ZM110.549 11.8856H110.924V10.8952H111.321L111.978 11.8856H112.381L111.691 10.8693C112.05 10.8323 112.326 10.6582 112.326 10.2424C112.326 9.79982 112.055 9.58411 111.481 9.58411H110.549V11.8856ZM109.649 10.7268C109.649 9.78393 110.389 9.05717 111.354 9.05717C112.31 9.05717 113.048 9.78393 113.048 10.7268C113.048 11.6907 112.31 12.4173 111.354 12.4173C110.389 12.4173 109.649 11.6907 109.649 10.7268ZM109.274 10.7268C109.274 11.859 110.223 12.707 111.354 12.707C112.48 12.707 113.424 11.859 113.424 10.7268C113.424 9.61579 112.48 8.76758 111.354 8.76758C110.223 8.76758 109.274 9.61579 109.274 10.7268Z" fill="#006AB3"/>
<path fill-rule="evenodd" clip-rule="evenodd" d="M8.90593 23.7406H13.7573C13.7573 23.7349 15.1498 23.7766 15.1498 25.1691L15.1583 30.865L17.8253 25.1691C18.326 23.7969 19.1386 23.7969 19.2845 23.7406H24.474C24.4766 23.778 25.7387 23.6974 25.7387 25.1691C25.7387 25.1691 21.0522 34.5768 21.0614 34.5768L21.0563 34.9742C21.0563 34.9742 25.7415 45.8324 25.7389 45.8731C25.7389 45.8731 26.183 46.867 24.8962 47.268H19.5913C18.505 47.268 18.1387 45.9418 18.0965 45.8731C18.064 45.8182 15.0956 39.071 15.0956 39.071C15.0956 39.1912 15.0956 45.8731 15.0956 45.8731C15.0567 45.8755 15.3248 47.268 13.5951 47.268L9.01021 47.2648C7.50577 47.2648 7.50577 45.8848 7.51588 45.8731V25.1613C7.51588 23.7406 8.90619 23.7406 8.90619 23.7406H8.90593Z" fill="#006AB3"/>
<path fill-rule="evenodd" clip-rule="evenodd" d="M28.4694 23.7168H38.2949C38.2983 23.7537 39.5263 23.7168 41.5921 25.1682C43.0283 26.1777 46.6873 31.3458 41.1791 36.9225L41.1867 37.4391C41.2228 37.4511 45.3708 45.8722 45.3754 45.8722C45.3754 45.8722 45.7535 46.707 44.648 47.2245H38.4602C37.5205 47.2245 37.0954 45.8722 37.08 45.8564C37.0619 45.8722 34.7269 40.7703 34.7269 40.7703C34.7269 40.7703 34.7358 45.8722 34.7243 45.8722C34.7128 45.8722 34.6668 47.2245 33.1713 47.2245H28.6672C27.0911 47.2245 27.0682 45.8722 27.069 45.8564L27.0583 25.2312C27.0583 23.7793 28.4694 23.7168 28.4694 23.7168Z" fill="#006AB3"/>
<path fill-rule="evenodd" clip-rule="evenodd" d="M34.7337 33.223C35.2964 33.223 35.2695 33.2238 35.2698 33.223C35.2766 33.2104 38.396 30.9197 35.2964 28.608C35.2861 28.5999 34.7442 28.5986 34.7337 28.6088C34.7573 28.7455 34.6974 33.0835 34.7337 33.2226V33.223Z" fill="white"/>
<path fill-rule="evenodd" clip-rule="evenodd" d="M52.578 23.7168H57.7613C57.7639 23.7452 58.7201 23.7168 59.26 25.1682C59.26 25.4 64.3049 45.8722 64.2842 45.8722C64.2842 45.8722 64.5343 47.2245 63.3257 47.2245C63.2533 47.2245 58.9492 47.2245 58.9492 47.2245C58.1737 47.2245 57.8653 45.8722 57.8653 45.8722C57.8764 45.884 57.4487 44.5396 57.4564 44.5444C57.4564 44.5444 57.3858 44.1772 57.0479 44.1772H53.989C53.9856 44.2072 53.6692 44.1344 53.6344 44.4516C53.6327 44.4753 53.226 45.8722 53.2325 45.8722C53.2385 45.8722 52.8801 47.2245 51.9409 47.2245C51.8576 47.2245 47.012 47.2245 47.012 47.2245C45.7151 47.2245 46.1111 45.8722 46.1144 45.8722C46.1144 45.8722 51.2491 25.1719 51.2684 25.1177C51.7575 23.7168 52.578 23.7168 52.578 23.7168Z" fill="#006AB3"/>
<path fill-rule="evenodd" clip-rule="evenodd" d="M54.464 38.5922C54.6307 39.3086 55.9441 39.3481 56.152 38.5922C56.1554 38.5791 55.959 37.3151 55.2534 34.0628C55.2509 34.0512 55.2173 34.0528 55.2063 34.0628C55.2297 34.1998 54.4447 38.6138 54.464 38.5922Z" fill="white"/>
<path fill-rule="evenodd" clip-rule="evenodd" d="M80.1193 23.7168C80.1218 23.7453 81.6196 23.7692 81.6196 25.3075C81.6196 25.4882 81.6196 39.8256 81.6196 39.8256C81.6196 47.2196 73.4085 47.2245 73.4085 47.2245C73.3969 47.2498 72.9923 47.2245 72.3248 47.2245C72.3248 47.2245 64.28 47.2196 64.28 39.5075L64.2826 25.1682C64.2826 23.7168 65.5699 23.7538 65.5732 23.7168H70.2823C70.2857 23.7538 71.6169 23.7168 71.6169 25.1682C71.6169 25.1682 71.5775 40.3796 71.6169 40.3826C71.6169 41.4962 74.2003 41.4567 74.2003 40.4627V25.1682C74.2003 23.7168 75.4098 23.7168 75.4098 23.7168C75.4211 23.6904 80.1195 23.7168 80.1195 23.7168H80.1193Z" fill="#006AB3"/>
<path fill-rule="evenodd" clip-rule="evenodd" d="M90.2689 23.5606H91.8125C92.9811 23.6165 93.8855 23.8006 93.8855 23.8006C96.4855 24.422 96.6518 26.1107 96.6713 26.1768V29.3739C96.6713 29.3739 96.6622 30.0315 96.3122 30.1564C96.3122 30.1564 96.0277 30.3225 95.508 30.1186C95.4062 30.0788 94.8839 29.8368 94.7693 29.7306C94.7592 29.7205 94.1767 29.3234 93.3174 29.1952C93.3174 29.1952 91.7633 28.8962 91.185 29.8884C91.1248 29.9913 91.0466 30.1769 91.0559 30.4486C91.0559 30.4486 91.0253 30.75 91.3056 31.2351C91.5554 31.652 92.0445 32.0698 92.1904 32.1688C92.3052 32.2456 93.6254 33.2537 94.4908 33.7342C95.3205 34.193 95.8486 34.7191 95.9293 34.785C96.3709 35.1465 96.7657 35.7013 96.8191 35.7679C97.3278 36.4278 97.6029 37.1478 97.6055 37.155C98.1081 38.3492 98.0462 38.9379 98.0852 38.941V40.1081C98.0852 47.2203 90.1576 47.1792 90.1543 47.2155L89.1115 47.2196C87.3953 47.1902 86.058 46.7907 86.058 46.7907C85.0244 46.4432 84.7473 46.1915 84.7392 46.1878C84.2856 45.9584 84.1198 45.7445 83.9969 45.6503C83.8907 45.512 83.8835 45.5056 83.8285 45.405C83.7241 45.2112 83.6926 45.1232 83.637 44.958C83.637 44.958 83.4432 44.5995 83.4453 43.9063V40.3518C83.5268 38.9948 85.0388 39.8262 85.1943 39.9268C85.7097 40.2631 85.8746 40.3375 86.3449 40.5304C87.566 41.0321 88.5408 41.1931 89.7152 41.0275C89.7093 41.0242 90.6017 40.8408 90.7351 40.1644C90.7351 40.1603 90.978 39.2692 89.4112 38.4288C89.4112 38.4288 87.431 37.0392 87.352 36.9801C87.042 36.7465 85.2894 35.5342 84.8261 34.9907C84.7772 34.9329 84.3692 34.5933 83.953 33.8455C83.8296 33.6092 83.4538 32.7781 83.4453 31.3861V29.4742C83.4453 29.4742 83.4649 28.5563 83.9969 27.4285C84.0353 27.3465 84.4108 26.6249 84.8355 26.0872C84.9471 25.945 85.663 25.136 86.536 24.6116C86.6261 24.5576 87.7282 23.781 89.3094 23.587L90.2689 23.5605V23.5606Z" fill="#006AB3"/>
<path fill-rule="evenodd" clip-rule="evenodd" d="M101.219 24.0138H110.115C111.923 24.0138 111.992 25.6306 112.031 25.6336V28.1098C112.031 29.6622 110.16 29.6602 110.16 29.6602H107.955C107.937 29.6618 106.901 29.592 106.901 30.6292V31.7688C106.897 31.7919 106.918 32.5554 107.937 32.5554L110.084 32.553C111.996 32.553 111.978 34.2295 112.017 34.2327V36.4658C112.017 36.4625 111.944 38.1407 110.081 38.1407H107.927C107.917 38.1407 106.803 38.1001 106.803 39.3055V40.3506C106.813 40.36 106.689 41.2044 107.917 41.2044H110.081C112.006 41.2044 112.014 43.2695 112.006 43.2736C112.006 43.2736 112.032 45.442 111.996 45.453C111.996 45.453 111.944 47.2214 110.091 47.2214H101.205C99.4356 47.2214 99.405 45.2272 99.4356 45.232L99.445 25.7955C99.445 24.0565 101.205 24.0137 101.219 24.0137V24.0138Z" fill="#006AB3"/>
</svg>
