<svg width="119" height="56" viewBox="0 0 119 56" fill="none" xmlns="http://www.w3.org/2000/svg"><path fill-rule="evenodd" clip-rule="evenodd" d="M111.102 0c4.291.066 7.766 3.343 7.898 7.425v41.027c-.134 4.123-3.678 7.427-8.03 7.427H8.034C3.597 55.879 0 52.446 0 48.21V7.666C0 3.473 3.526.068 7.902 0h103.2zM8.034 2.794H110.97c2.819 0 5.103 2.181 5.103 4.872V48.21c0 2.69-2.284 4.871-5.103 4.871H8.034c-2.819 0-5.104-2.18-5.104-4.871V7.666c0-2.691 2.285-4.872 5.104-4.872z" fill="#006AB3"/><path fill-rule="evenodd" clip-rule="evenodd" d="M109.995 8.432H69.474l-7.095 6.765H11.914l-1.916 1.85h53.197l7.08-6.766h37.77l1.95-1.85z" fill="#006AB3"/><path fill-rule="evenodd" clip-rule="evenodd" d="M107.562 10.777h-37.05l-7.1 6.766H9.46l-1.98 1.849h56.746l7.094-6.765h34.3l1.942-1.85z" fill="#BACEE9"/><path fill-rule="evenodd" clip-rule="evenodd" d="M110.924 9.874h.497c.253 0 .53.047.53.352 0 .364-.304.38-.635.38h-.392v-.732zm-.375 2.012h.375v-.99h.397l.657.99h.403l-.69-1.017c.359-.037.635-.21.635-.627 0-.442-.271-.658-.845-.658h-.932v2.302zm-.9-1.16c0-.942.74-1.669 1.705-1.669.956 0 1.694.727 1.694 1.67 0 .964-.738 1.69-1.694 1.69-.965 0-1.705-.726-1.705-1.69zm-.375 0c0 1.133.949 1.981 2.08 1.981 1.126 0 2.07-.848 2.07-1.98 0-1.111-.944-1.96-2.07-1.96-1.131 0-2.08.849-2.08 1.96zM8.906 23.74h4.851c0-.005 1.393.037 1.393 1.43l.008 5.695 2.667-5.696c.501-1.372 1.314-1.372 1.46-1.428h5.189c.003.037 1.265-.044 1.265 1.428 0 0-4.687 9.408-4.678 9.408l-.005.397s4.685 10.858 4.683 10.9c0 0 .444.993-.843 1.394h-5.305c-1.086 0-1.452-1.326-1.495-1.395-.032-.055-3-6.802-3-6.802v6.802c-.04.003.229 1.395-1.5 1.395l-4.586-.003c-1.504 0-1.504-1.38-1.494-1.392V25.161c0-1.42 1.39-1.42 1.39-1.42zm19.564-.023h9.825c.003.037 1.231 0 3.297 1.451 1.436 1.01 5.095 6.178-.413 11.755l.008.516c.036.012 4.184 8.433 4.188 8.433 0 0 .379.835-.727 1.352H38.46c-.94 0-1.365-1.352-1.38-1.368-.018.016-2.353-5.086-2.353-5.086s.009 5.102-.003 5.102c-.011 0-.057 1.352-1.553 1.352h-4.504c-1.576 0-1.599-1.352-1.598-1.368l-.01-20.625c0-1.452 1.41-1.514 1.41-1.514z" fill="#006AB3"/><path fill-rule="evenodd" clip-rule="evenodd" d="M34.734 33.223h.536c.007-.013 3.126-2.303.026-4.615a5.771 5.771 0 0 0-.562 0c.023.137-.037 4.476 0 4.615z" fill="#fff"/><path fill-rule="evenodd" clip-rule="evenodd" d="M52.578 23.717h5.183c.003.028.96 0 1.499 1.451 0 .232 5.045 20.704 5.024 20.704 0 0 .25 1.352-.958 1.352h-4.377c-.775 0-1.084-1.352-1.084-1.352.011.012-.416-1.332-.409-1.328 0 0-.07-.367-.408-.367h-3.059c-.003.03-.32-.043-.355.275-.001.023-.408 1.42-.401 1.42.006 0-.353 1.352-1.292 1.352h-4.929c-1.297 0-.9-1.352-.898-1.352 0 0 5.135-20.7 5.154-20.754.49-1.401 1.31-1.401 1.31-1.401z" fill="#006AB3"/><path fill-rule="evenodd" clip-rule="evenodd" d="M54.464 38.592c.167.717 1.48.756 1.688 0 .003-.013-.193-1.277-.899-4.53-.002-.01-.036-.01-.047 0 .024.138-.761 4.552-.742 4.53z" fill="#fff"/><path fill-rule="evenodd" clip-rule="evenodd" d="M80.12 23.717c.002.028 1.5.052 1.5 1.59v14.519c0 7.394-8.212 7.398-8.212 7.398-.011.026-.416 0-1.083 0 0 0-8.045-.004-8.045-7.716l.003-14.34c0-1.451 1.287-1.414 1.29-1.451h4.71c.003.037 1.334 0 1.334 1.451 0 0-.04 15.212 0 15.215 0 1.113 2.583 1.074 2.583.08V25.168c0-1.451 1.21-1.451 1.21-1.451.011-.027 4.71 0 4.71 0zm10.149-.157h1.543c1.17.056 2.073.24 2.073.24 2.6.622 2.767 2.31 2.786 2.377v3.197s-.009.658-.359.782c0 0-.284.167-.804-.037-.102-.04-.624-.282-.739-.388a3.69 3.69 0 0 0-1.452-.536s-1.554-.299-2.132.693c-.06.103-.138.289-.13.56 0 0-.03.302.25.787.25.417.74.835.885.934.115.077 1.435 1.085 2.3 1.565.83.459 1.359.985 1.44 1.051.44.362.836.916.89.983.508.66.783 1.38.786 1.387.502 1.194.44 1.783.48 1.786v1.167c0 7.112-7.928 7.071-7.932 7.108l-1.042.004a12.579 12.579 0 0 1-3.054-.43c-1.034-.347-1.31-.599-1.319-.602-.453-.23-.62-.444-.742-.538-.106-.138-.114-.144-.168-.245a2.341 2.341 0 0 1-.192-.447s-.194-.358-.192-1.052v-3.554c.082-1.357 1.594-.526 1.75-.425.515.336.68.41 1.15.603 1.221.502 2.196.663 3.37.498-.006-.004.887-.187 1.02-.864 0-.004.243-.895-1.324-1.735 0 0-1.98-1.39-2.059-1.449-.31-.233-2.063-1.446-2.526-1.99-.049-.057-.457-.397-.873-1.145-.123-.236-.5-1.067-.508-2.459v-1.912s.02-.918.552-2.046c.038-.082.414-.803.838-1.34.112-.143.828-.952 1.701-1.476.09-.054 1.192-.831 2.773-1.025l.96-.026zm10.95.454h8.896c1.808 0 1.877 1.617 1.916 1.62v2.476c0 1.552-1.871 1.55-1.871 1.55h-2.205c-.018.002-1.054-.068-1.054.97v1.139c-.004.023.017.786 1.036.786l2.147-.002c1.912 0 1.894 1.677 1.933 1.68v2.233c0-.004-.073 1.675-1.936 1.675h-2.154c-.01 0-1.124-.04-1.124 1.165v1.045c.01.009-.114.853 1.114.853h2.164c1.925 0 1.933 2.066 1.925 2.07 0 0 .026 2.168-.01 2.179 0 0-.052 1.768-1.905 1.768h-8.886c-1.77 0-1.8-1.994-1.77-1.989l.01-19.436c0-1.74 1.76-1.782 1.774-1.782z" fill="#006AB3"/></svg>