<svg width="125" height="29" viewBox="0 0 125 29" fill="none" xmlns="http://www.w3.org/2000/svg"><path d="M95.205 16.238c-1.312-.417-2.703-.655-3.935-.874-1.073-.179-2.008-.338-2.564-.576-.418-.18-.815-.438-.815-.915 0-.934.715-1.371 2.166-1.371.617 0 1.173.179 1.61.537.517.337.795.814.835 1.351v.08H99.4v-.08c-.199-5.247-6.042-6.042-9.52-6.042-1.352 0-3.956.159-6.083 1.212-2.106 1.054-3.16 2.683-3.16 4.85 0 3.32 2.326 5.048 8.01 6.003 3.538.596 4.015.934 4.015 1.927 0 1.014-1.45 1.372-2.445 1.372-.834 0-1.55-.199-1.928-.537-.556-.457-.834-.994-.874-1.63v-.06h-6.778c-.02-2.583-1.57-4.292-4.69-5.266-1.312-.418-2.704-.656-3.936-.875-1.073-.179-2.007-.338-2.564-.576-.417-.18-.815-.438-.815-.915 0-.934.716-1.371 2.167-1.371.616 0 1.172.179 1.61.537.516.338.795.815.834 1.351v.08h6.838v-.08c-.2-5.247-6.043-6.042-9.52-6.042-1.352 0-3.956.159-6.083 1.212-2.107 1.054-3.16 2.684-3.16 4.85 0 3.32 2.325 5.049 8.01 6.003 3.538.596 4.015.934 4.015 1.927 0 1.014-1.451 1.372-2.445 1.372-.835 0-1.55-.199-1.928-.537-.556-.457-.835-.994-.874-1.63v-.06H54.46l-.02.04c-.815 1.352-1.908 2.008-3.3 2.008-2.027 0-3.299-1.292-3.517-3.538h13.535v-.08c0-7.473-3.558-11.269-10.594-11.269-3.677 0-6.857 1.789-8.566 4.83V9.262l-.06-.02c-.855-.159-1.73-.119-2.564-.04-2.266.2-4.234 1.57-4.73 1.948V9.421h-6.858v17.65L17.77 13.516 27.806 0h-9.242L8.527 13.078V.06H0v27.748h8.527V14.23l9.68 13.516.02.04 16.317.04h.08V20.63c.08-3.021.874-5.148 4.531-5.724.815-.14 1.51-.06 2.127.258a10.294 10.294 0 0 0-.556 3.38c0 5.902 4.094 9.738 10.434 9.738 4.631 0 8.09-2.166 9.78-6.122 1.132 5.128 5.883 6.202 9.699 6.202 7.294 0 9.262-3.081 9.759-5.128 1.073 3.776 5.585 5.128 9.52 5.128 1.908 0 4.631-.239 6.758-1.372s3.22-2.941 3.22-5.346c0-2.683-1.53-4.413-4.69-5.407zm-47.563.06c.338-1.928 1.57-2.961 3.538-2.961 1.71 0 2.982 1.272 3.021 2.961h-6.559zm57.938-6.996v18.504h3.876l1.312-1.053 1.63-1.292v2.345h5.585v-2.345l1.63 1.292 1.311 1.053h3.876V9.302h-19.22zm1.054 1.053h5.764v7.95l-5.764 4.612V10.355zm17.133 13.874v2.504h-2.445l-1.928-1.53-2.445-1.948v3.478h-3.498v-3.478l-1.888 1.51-2.465 1.968h-2.444v-2.504l6.817-5.446v-8.448L116.969 13v5.784l6.798 5.446zm0-1.332l-5.764-4.611v-5.804l-2.803-2.147h8.587v12.562h-.02z" fill="#CE0E2D"/><path d="M31.006 5.445h3.598v.477H30.45V.08h4.114v.477h-3.558v2.107h3.32v.477h-3.32v2.305zm4.89.477h.517V.08h-.517v5.843zM41.4 3.935h-3.319c0 .755.418 1.67 1.411 1.67.776 0 1.193-.438 1.352-1.074h.537c-.219.954-.795 1.51-1.889 1.51-1.371 0-1.947-1.033-1.947-2.246 0-1.113.576-2.245 1.947-2.245 1.392.02 1.948 1.192 1.908 2.385zm-.536-.438c-.02-.775-.517-1.51-1.372-1.51-.854 0-1.331.735-1.41 1.51h2.782zm5.188-1.808h-.696l-2.385 2.047V.059h-.517v5.843h.517v-1.61l.854-.695 1.71 2.305h.656L44.224 3.24l1.829-1.55zM47.8.417h-.516v1.272h-.755v.437h.755v2.882c0 .715.238.954.934.954.159 0 .318-.02.477-.02v-.437c-.16.02-.298.02-.457.02-.378-.02-.418-.219-.418-.557V2.106h.875V1.67h-.875V.417h-.02zm2.465 2.265l-.02-.993h-.477v4.233h.517V3.676c0-.874.656-1.57 1.61-1.51v-.537c-.775-.04-1.352.358-1.63 1.053zm6.261 1.113c0 1.213-.715 2.246-2.047 2.246-1.312 0-2.047-1.033-2.047-2.246 0-1.212.715-2.245 2.047-2.245 1.332.02 2.047 1.033 2.047 2.245zm-.517 0c0-.894-.497-1.808-1.51-1.808-1.014 0-1.51.894-1.51 1.808 0 .895.496 1.81 1.51 1.81 1.013 0 1.51-.895 1.51-1.81zm5.466 1.511l-1.073-3.617h-.596l-1.054 3.617h-.02L57.62 1.689h-.556l1.391 4.233h.576l1.054-3.558h.02l1.053 3.558h.576l1.392-4.233h-.537l-1.113 3.617zm6.201-1.371h-3.319c0 .755.417 1.67 1.411 1.67.775 0 1.193-.438 1.352-1.074h.537c-.22.954-.796 1.51-1.889 1.51-1.371 0-1.948-1.033-1.948-2.246 0-1.113.577-2.245 1.948-2.245 1.392.02 1.948 1.192 1.908 2.385zm-.516-.438c-.02-.775-.517-1.51-1.372-1.51-.855 0-1.332.735-1.411 1.51h2.783zm2.067-.815l-.02-.993h-.477v4.233h.536V3.676c0-.874.656-1.57 1.61-1.51v-.537c-.795-.04-1.39.358-1.65 1.053zm6.082-.993h-.696l-2.385 2.047V.059h-.537v5.843h.537v-1.61l.855-.695 1.709 2.305h.656L73.48 3.24l1.829-1.55zm4.015.357V1.67h-3.3v.437h2.624l-2.823 3.379v.417h3.598v-.437h-2.962l2.863-3.419zm4.65 1.889h-3.319c0 .755.418 1.67 1.411 1.67.776 0 1.193-.438 1.352-1.074h.537c-.219.954-.795 1.51-1.889 1.51-1.371 0-1.947-1.033-1.947-2.246 0-1.113.576-2.245 1.947-2.245 1.392.02 1.948 1.192 1.909 2.385zm-.516-.438c-.02-.775-.517-1.51-1.372-1.51-.854 0-1.331.735-1.41 1.51h2.782zm4.531.418c0 .854-.397 1.69-1.291 1.69-.835 0-1.133-.398-1.153-1.173V1.669h-.517v2.743c0 .993.417 1.61 1.51 1.61.636 0 1.213-.318 1.491-.895h.02v.755h.477V1.65h-.517v2.266h-.02zm4.87-2.226h.517v3.875c0 1.272-.497 2.028-1.908 2.028-.855 0-1.71-.378-1.79-1.272h.518c.119.616.675.835 1.252.835.974 0 1.391-.557 1.391-1.59v-.577h-.02a1.5 1.5 0 0 1-1.371.875c-1.372 0-1.948-.974-1.948-2.167 0-1.173.696-2.127 1.948-2.127.636 0 1.153.378 1.371.855h.02V1.69h.02zm0 2.067c0-.835-.397-1.75-1.391-1.75s-1.411.875-1.411 1.75c0 .854.457 1.69 1.41 1.69.915-.02 1.392-.836 1.392-1.69zm5.506.179h-3.32c0 .755.418 1.67 1.412 1.67.775 0 1.192-.438 1.351-1.074h.517c-.219.954-.795 1.51-1.888 1.51-1.372 0-1.948-1.033-1.948-2.246 0-1.113.576-2.245 1.948-2.245 1.41.02 1.967 1.192 1.928 2.385zm-.537-.438c-.02-.775-.517-1.51-1.371-1.51-.855 0-1.332.735-1.412 1.51h2.783zm5.625-1.292l.695 1.034h-.337l-.656-1.034h-.477V3.24h-.279V.913h.895c.517 0 .755.22.755.637-.02.417-.278.596-.596.655zm.298-.655c0-.318-.278-.398-.557-.398h-.516v.815h.377c.338 0 .696-.02.696-.417zm1.371.516a1.977 1.977 0 0 1-2.007 2.008 1.978 1.978 0 0 1-2.008-2.008c0-1.133.875-2.007 2.008-2.007s2.007.874 2.007 2.007zm-.318 0c0-.954-.715-1.729-1.689-1.729-.974 0-1.689.755-1.689 1.73 0 .953.715 1.728 1.689 1.728.974 0 1.689-.755 1.689-1.729z" fill="#000"/></svg>