<svg width="125" height="29" viewBox="0 0 125 29" fill="none" xmlns="http://www.w3.org/2000/svg">
<path d="M95.2052 16.2385C93.8934 15.8212 92.5021 15.5826 91.2698 15.364C90.1965 15.1851 89.2623 15.0261 88.7058 14.7876C88.2884 14.6087 87.8909 14.3503 87.8909 13.8733C87.8909 12.9392 88.6064 12.5019 90.0573 12.5019C90.6735 12.5019 91.23 12.6808 91.6673 13.0385C92.1841 13.3764 92.4623 13.8534 92.5021 14.3901V14.4696H99.399V14.3901C99.2002 9.14288 93.3567 8.34785 89.8785 8.34785C88.5269 8.34785 85.9232 8.50685 83.7965 9.56027C81.6896 10.6137 80.6362 12.2435 80.6362 14.41C80.6362 17.7292 82.9617 19.4584 88.6461 20.4125C92.184 21.0087 92.6611 21.3466 92.6611 22.3404C92.6611 23.3541 91.2101 23.7119 90.2163 23.7119C89.3816 23.7119 88.666 23.5131 88.2884 23.1752C87.7319 22.7181 87.4536 22.1814 87.4139 21.5454V21.4858H80.6362C80.6163 18.9019 79.066 17.1926 75.9455 16.2187C74.6337 15.8013 73.2424 15.5628 72.0101 15.3441C70.9368 15.1653 70.0026 15.0062 69.4461 14.7677C69.0287 14.5889 68.6312 14.3305 68.6312 13.8534C68.6312 12.9193 69.3467 12.482 70.7977 12.482C71.4138 12.482 71.9703 12.6609 72.4076 13.0187C72.9244 13.3566 73.2026 13.8336 73.2424 14.3702V14.4497H80.0797V14.3702C79.8809 9.123 74.0374 8.32797 70.5592 8.32797C69.2076 8.32797 66.6039 8.48698 64.4772 9.54039C62.3703 10.5938 61.3169 12.2236 61.3169 14.3901C61.3169 17.7094 63.6424 19.4386 69.3269 20.3926C72.8648 20.9889 73.3418 21.3268 73.3418 22.3205C73.3418 23.3342 71.8908 23.692 70.897 23.692C70.0623 23.692 69.3467 23.4932 68.9691 23.1553C68.4126 22.6982 68.1343 22.1615 68.0946 21.5255V21.4659H54.4597L54.4399 21.5056C53.625 22.8572 52.5318 23.5131 51.1405 23.5131C49.1132 23.5131 47.8411 22.2212 47.6225 19.9752H61.1579V19.8957C61.1579 12.4224 57.6001 8.62611 50.5641 8.62611C46.8871 8.62611 43.7069 10.4149 41.9976 13.4559V9.26213L41.938 9.24226C41.0833 9.08325 40.2088 9.123 39.374 9.20251C37.1082 9.40126 35.1404 10.7727 34.6436 11.1503V9.42114H27.7864V27.0709L17.769 13.5156L27.8063 0H18.564L8.52673 13.0783V0.13913V0.0596281H0V27.7268V27.8063H8.52673V14.2311L18.2063 27.7466L18.2261 27.7864L34.5442 27.8261H34.6237V20.6311C34.7032 17.61 35.4982 15.4833 39.1554 14.9069C39.9703 14.7677 40.6659 14.8472 41.2821 15.1653C40.9044 16.2584 40.7256 17.3913 40.7256 18.5441C40.7256 24.4473 44.82 28.2833 51.1604 28.2833C55.7914 28.2833 59.2498 26.1168 60.9393 22.1615C62.0722 27.2895 66.8225 28.3628 70.6387 28.3628C77.9331 28.3628 79.9008 25.282 80.3977 23.2348C81.471 27.0112 85.9828 28.3628 89.9182 28.3628C91.8263 28.3628 94.5493 28.1243 96.676 26.9914C98.8027 25.8584 99.8959 24.0497 99.8959 21.6448C99.8959 18.9615 98.3654 17.2323 95.2052 16.2385ZM47.6423 16.2982C47.9802 14.3702 49.2125 13.3367 51.1802 13.3367C52.8895 13.3367 54.1616 14.6087 54.2014 16.2982H47.6423ZM105.58 9.30188V27.8063H109.456L110.768 26.7529L112.398 25.4609V26.7529V27.8063H117.983V26.7529V25.4609L119.613 26.7529L120.924 27.8063H124.8V9.30188H105.58ZM106.634 10.3553H112.398V18.3056L106.634 22.9168V10.3553ZM123.767 24.2286V26.733H121.322L119.394 25.2025L116.949 23.2547V26.733H113.451V23.2547L111.563 24.7653L109.098 26.733H106.654V24.2286L113.471 18.7827V10.3354L116.969 12.9988V18.7827L123.767 24.2286ZM123.767 22.8969L118.003 18.2858V12.482L115.2 10.3354H123.787V22.8969H123.767Z" fill="#CE0E2D"/>
<path d="M31.0065 5.44518H34.604V5.92221H30.45V0.0787119H34.5642V0.555733H31.0065V2.66257H34.3257V3.13959H31.0065V5.44518ZM35.8959 5.92221H36.4127V0.0787119H35.8959V5.92221ZM41.4015 3.93462H38.0823C38.0823 4.6899 38.4997 5.60419 39.4935 5.60419C40.2686 5.60419 40.686 5.16692 40.845 4.5309H41.3817C41.163 5.48494 40.5866 6.04146 39.4935 6.04146C38.122 6.04146 37.5456 5.00792 37.5456 3.79549C37.5456 2.68244 38.122 1.54952 39.4935 1.54952C40.8848 1.5694 41.4413 2.74207 41.4015 3.93462ZM40.8649 3.49735C40.845 2.7222 40.3481 1.98679 39.4935 1.98679C38.6388 1.98679 38.1618 2.7222 38.0823 3.49735H40.8649ZM46.0525 1.68865H45.3568L42.9717 3.73586V0.0588379H42.455V5.90233H42.9717V4.29239L43.8264 3.59673L45.5357 5.90233H46.1916L44.2239 3.23897L46.0525 1.68865ZM47.8015 0.4166H47.2848V1.68865H46.5295V2.12592H47.2848V5.00792C47.2848 5.72345 47.5233 5.96196 48.2189 5.96196C48.3779 5.96196 48.5369 5.94208 48.696 5.94208V5.50481C48.5369 5.52469 48.3978 5.52469 48.2388 5.52469C47.8612 5.50481 47.8214 5.30605 47.8214 4.96817V2.10605H48.696V1.66878H47.8214V0.4166H47.8015ZM50.2661 2.68245L50.2463 1.68865H49.7693V5.92221H50.286V3.67624C50.286 2.8017 50.9419 2.10605 51.896 2.16567V1.62903C51.1208 1.58927 50.5444 1.98679 50.2661 2.68245ZM56.527 3.79549C56.527 5.00792 55.8115 6.04146 54.4798 6.04146C53.168 6.04146 52.4326 5.00792 52.4326 3.79549C52.4326 2.58306 53.1481 1.54952 54.4798 1.54952C55.8115 1.5694 56.527 2.58306 56.527 3.79549ZM56.0103 3.79549C56.0103 2.90108 55.5134 1.98679 54.4997 1.98679C53.486 1.98679 52.9891 2.8812 52.9891 3.79549C52.9891 4.6899 53.486 5.60419 54.4997 5.60419C55.5134 5.60419 56.0103 4.70978 56.0103 3.79549ZM61.4761 5.30605L60.4028 1.68865H59.8065L58.7531 5.30605H58.7332L57.6202 1.68865H57.0637L58.455 5.92221H59.0314L60.0848 2.36443H60.1047L61.1581 5.92221H61.7345L63.1258 1.68865H62.5892L61.4761 5.30605ZM67.6774 3.93462H64.3581C64.3581 4.6899 64.7755 5.60419 65.7693 5.60419C66.5444 5.60419 66.9618 5.16692 67.1208 4.5309H67.6575C67.4389 5.48494 66.8625 6.04146 65.7693 6.04146C64.3979 6.04146 63.8215 5.00792 63.8215 3.79549C63.8215 2.68244 64.3979 1.54952 65.7693 1.54952C67.1606 1.5694 67.7171 2.74207 67.6774 3.93462ZM67.1606 3.49735C67.1407 2.7222 66.6438 1.98679 65.7892 1.98679C64.9345 1.98679 64.4575 2.7222 64.378 3.49735H67.1606ZM69.2277 2.68245L69.2078 1.68865H68.7308V5.92221H69.2674V3.67624C69.2674 2.8017 69.9233 2.10605 70.8774 2.16567V1.62903C70.0823 1.58927 69.4861 1.98679 69.2277 2.68245ZM75.3097 1.68865H74.614L72.2289 3.73586V0.0588379H71.6923V5.90233H72.2289V4.29239L73.0836 3.59673L74.7929 5.90233H75.4488L73.4811 3.23897L75.3097 1.68865ZM79.3246 2.04642V1.66878H76.0252V2.10605H78.6488L75.8265 5.48493V5.90233H79.424V5.46506H76.4625L79.3246 2.04642ZM83.9755 3.93462H80.6563C80.6563 4.6899 81.0737 5.60419 82.0675 5.60419C82.8426 5.60419 83.26 5.16692 83.419 4.5309H83.9557C83.737 5.48494 83.1606 6.04146 82.0675 6.04146C80.696 6.04146 80.1196 5.00792 80.1196 3.79549C80.1196 2.68244 80.696 1.54952 82.0675 1.54952C83.4588 1.5694 84.0153 2.74207 83.9755 3.93462ZM83.4588 3.49735C83.4389 2.7222 82.942 1.98679 82.0873 1.98679C81.2327 1.98679 80.7557 2.7222 80.6762 3.49735H83.4588ZM87.9905 3.91475C87.9905 4.76941 87.5929 5.60419 86.6985 5.60419C85.8637 5.60419 85.5656 5.20668 85.5457 4.43152V1.66878H85.029V4.41164C85.029 5.40543 85.4464 6.02158 86.5395 6.02158C87.1755 6.02158 87.7519 5.70357 88.0302 5.12717H88.0501V5.88245H88.5271V1.6489H88.0103V3.91475H87.9905ZM92.86 1.68865H93.3768V5.56444C93.3768 6.83649 92.8799 7.59177 91.4687 7.59177C90.6141 7.59177 89.7594 7.21413 89.6799 6.31972H90.1967C90.3159 6.93587 90.8725 7.15451 91.4489 7.15451C92.4228 7.15451 92.8402 6.59798 92.8402 5.56444V4.98804H92.8203C92.5818 5.50481 92.065 5.86258 91.4489 5.86258C90.0774 5.86258 89.501 4.88866 89.501 3.69611C89.501 2.52344 90.1967 1.5694 91.4489 1.5694C92.0849 1.5694 92.6016 1.94704 92.8203 2.42406H92.8402V1.68865H92.86ZM92.86 3.75574C92.86 2.92095 92.4625 2.00667 91.4687 2.00667C90.4749 2.00667 90.0575 2.8812 90.0575 3.75574C90.0575 4.6104 90.5147 5.44518 91.4687 5.44518C92.383 5.42531 92.86 4.6104 92.86 3.75574ZM98.3656 3.93462H95.0464C95.0464 4.6899 95.4638 5.60419 96.4576 5.60419C97.2327 5.60419 97.6501 5.16692 97.8091 4.5309H98.3259C98.1072 5.48494 97.5308 6.04146 96.4377 6.04146C95.0662 6.04146 94.4899 5.00792 94.4899 3.79549C94.4899 2.68244 95.0662 1.54952 96.4377 1.54952C97.8489 1.5694 98.4054 2.74207 98.3656 3.93462ZM97.829 3.49735C97.8091 2.7222 97.3122 1.98679 96.4576 1.98679C95.6029 1.98679 95.1259 2.7222 95.0464 3.49735H97.829ZM103.454 2.20542L104.149 3.23897H103.812L103.156 2.20542H102.679V3.23897H102.4V0.913496H103.295C103.812 0.913496 104.05 1.13213 104.05 1.54952C104.03 1.96692 103.772 2.1458 103.454 2.20542ZM103.752 1.54952C103.752 1.23151 103.474 1.15201 103.195 1.15201H102.679V1.96691H103.056C103.394 1.96691 103.752 1.94704 103.752 1.54952ZM105.123 2.06629C105.123 3.19922 104.249 4.07375 103.116 4.07375C101.983 4.07375 101.108 3.19922 101.108 2.06629C101.108 0.933372 101.983 0.0588379 103.116 0.0588379C104.249 0.0588379 105.123 0.933372 105.123 2.06629ZM104.805 2.06629C104.805 1.11225 104.09 0.337098 103.116 0.337098C102.142 0.337098 101.427 1.09238 101.427 2.06629C101.427 3.02033 102.142 3.79549 103.116 3.79549C104.09 3.79549 104.805 3.04021 104.805 2.06629Z" fill="black"/>
</svg>
