<svg width="119" height="28" viewBox="0 0 119 28" fill="none" xmlns="http://www.w3.org/2000/svg"><path fill-rule="evenodd" clip-rule="evenodd" d="M111.255.826a1.96 1.96 0 0 1 1.419-.602c.535 0 1.038.216 1.419.602.377.39.588.905.588 1.453 0 1.133-.9 2.054-2.007 2.054a1.954 1.954 0 0 1-1.419-.602 2.063 2.063 0 0 1-.593-1.452c0-.548.211-1.067.593-1.453zm1.419 3.735c.596 0 1.152-.236 1.577-.668a2.31 2.31 0 0 0 .653-1.614c0-.61-.235-1.183-.653-1.61A2.194 2.194 0 0 0 112.674 0c-1.229 0-2.23 1.021-2.23 2.279 0 .61.231 1.183.652 1.614a2.19 2.19 0 0 0 1.578.668zm-7.867 18.209h-3.755l2.968-7.617h3.755l-2.968 7.617zm-61.485 0h-3.755l2.968-7.617h3.755l-2.968 7.617zm67.336-.175l4.279-12.028h-11.529c-3.581.087-4.802 4.155-4.802 4.155l-2.883 7.873h-6.115l2.883-8.222h3.496l1.31-4.067h-3.228l2.096-5.711h-5.503l-2.36 5.885h-3.406l-1.4 3.98h3.581l-3.057 8.222h-6.111l4.278-12.198h-5.329l-4.716 12.244-4.716.041-1.136-4.499 7.685-7.703H67.6l-6.11 5.973 4.103-11.945h-5.329l-6.727 18.087h-4.364l4.194-12.115H41.574c-3.062 0-4.367 3.374-4.367 3.374L33.8 22.595h-4.363l4.278-12.028h-9.347l1.046-3.03h-9.258l.961-2.942H0v5.018h9.781L3.325 27.078h5.588l5.495-14.697h3.67l-5.15 14.697h5.588l4.364-11.929h4.018L22.36 27.078h7.527c.186-.133 1.598-1.162 3.78-2.798 0 0 .514 2.13 2.193 2.798h3.95c.09-.108.64-.631 3.333-2.885 0 0 .13 2.005 1.971 2.885h4.77c.105-.125.843-.96 3.13-2.86l-1.087 2.86h5.633l3.138-8.38 2.53 8.38h5.783l2.868-2.84c.446 2.354 2.088 2.77 2.57 2.84h6.355l2.952-2.756c.243 1.838 2.194 2.644 2.49 2.756h6.347l2.867-2.84c.348 2.425 2.794 2.84 2.794 2.84h3.844l2.709-2.84c.438 2.425 3.053 2.84 3.053 2.84H119v-4.483h-8.342zm-26.464-18h-5.328l-1.574 4.499h5.329l1.573-4.5zm27.786-3.25h.929c.187 0 .495.033.495.41 0 .362-.288.424-.56.424h-.864v-.834zm0 1.116h.901c.45 0 .494.233.494.436l.065.61h.454v-.054l-.133-.24-.025-.44c-.016-.34-.174-.399-.328-.461.17-.091.377-.224.377-.585 0-.52-.454-.66-.904-.66h-1.27V3.51h.369V2.46z" fill="#E31E24"/></svg>