<svg width="119" height="28" viewBox="0 0 119 28" fill="none" xmlns="http://www.w3.org/2000/svg">
<path fill-rule="evenodd" clip-rule="evenodd" d="M111.255 0.825944C111.632 0.4358 112.139 0.224126 112.674 0.224126C113.209 0.224126 113.712 0.43995 114.093 0.825944C114.47 1.21609 114.681 1.73075 114.681 2.27861C114.681 3.41169 113.781 4.33309 112.674 4.33309C112.135 4.33309 111.632 4.12142 111.255 3.73128C110.873 3.34113 110.662 2.82647 110.662 2.27861C110.662 1.73075 110.873 1.21194 111.255 0.825944ZM112.674 4.56137C113.27 4.56137 113.826 4.32479 114.251 3.89314C114.669 3.4615 114.904 2.88873 114.904 2.27861C114.904 1.66849 114.669 1.09573 114.251 0.668226C113.826 0.236577 113.27 0 112.674 0C111.445 0 110.444 1.02102 110.444 2.27861C110.444 2.88873 110.675 3.4615 111.096 3.89314C111.518 4.32479 112.078 4.56137 112.674 4.56137ZM104.807 22.7695H101.052L104.02 15.1534H107.775L104.807 22.7695ZM43.3218 22.7695H39.5666L42.535 15.1534H46.2902L43.3218 22.7695ZM110.658 22.5952L114.937 10.5671H103.408C99.827 10.6543 98.6064 14.7217 98.6064 14.7217L95.7231 22.5952H89.6079L92.4911 14.3731H95.9867L97.2965 10.3056H94.0686L96.1651 4.59457H90.6622L88.3021 10.4799H84.8957L83.4967 14.4603H87.0774L84.0198 22.6823H77.9086L82.1868 10.4841H76.8583L72.1421 22.728L67.4259 22.7695L66.2904 18.2704L73.9751 10.5671H67.6003L61.4891 16.5396L65.5929 4.59457H60.2644L53.5368 22.6823H49.1734L53.3665 10.5671H41.574C38.5123 10.5671 37.2065 13.9414 37.2065 13.9414L33.8001 22.5952H29.4367L33.715 10.5671H24.3677L25.414 7.53726H16.1559L17.117 4.59457H0V9.6125H9.78115L3.32527 27.0777H8.91334L14.4081 12.3809H18.0781L12.928 27.0777H18.5161L22.8795 15.1492H26.8982L22.3604 27.0777H29.8869C30.0734 26.9449 31.4846 25.9156 33.6663 24.2803C33.6663 24.2803 34.1813 26.4095 35.8602 27.0777H39.81C39.8992 26.9698 40.4507 26.4468 43.1433 24.1931C43.1433 24.1931 43.2731 26.1978 45.1142 27.0777H49.8831C49.9885 26.9532 50.7266 26.1189 53.0137 24.218L51.9269 27.0777H57.5596L60.6983 18.6979L63.2288 27.0777H69.0115L71.8785 24.2388C72.3246 26.5921 73.9669 27.0071 74.4495 27.0777H80.804L83.7562 24.3218C83.9995 26.1604 85.9501 26.9656 86.2461 27.0777H92.5925L95.4595 24.2388C95.8083 26.6626 98.2536 27.0777 98.2536 27.0777H102.098L104.807 24.2388C105.245 26.6626 107.86 27.0777 107.86 27.0777H119V22.5952H110.658ZM84.1942 4.59457H78.8656L77.2922 9.09369H82.6208L84.1942 4.59457ZM111.98 1.34475H112.909C113.096 1.34475 113.404 1.37796 113.404 1.75565C113.404 2.11674 113.116 2.179 112.844 2.179H111.98V1.34475ZM111.98 2.46123H112.881C113.331 2.46123 113.375 2.69366 113.375 2.89703L113.44 3.50715H113.894V3.45319L113.761 3.21247L113.736 2.77252C113.72 2.43218 113.562 2.37407 113.408 2.31181C113.578 2.2205 113.785 2.08769 113.785 1.7266C113.785 1.20779 113.331 1.06667 112.881 1.06667H111.611V3.5113H111.98V2.46538V2.46123Z" fill="#E31E24"/>
</svg>
