<svg width="130" height="18" viewBox="0 0 130 18" fill="none" xmlns="http://www.w3.org/2000/svg">
<path d="M4.03611 0.541748L0 17.1974H6.74448C6.74448 17.1974 7.97876 12.031 8.0246 11.8503H18.8563L18.8863 11.7731C19.6297 10.0261 20.2334 8.2235 20.6919 6.38203C21.148 4.51913 21.4225 2.6168 21.5118 0.701443V0.547013H4.03611V0.541748ZM14.2824 3.15829C14.3138 4.20857 14.1951 5.25796 13.9298 6.27498C13.6701 7.41346 13.2548 8.51113 12.6955 9.53733C10.5566 9.55839 9.32589 9.53733 8.73344 9.53733H8.59943C8.67701 9.2039 10.1053 3.31623 10.144 3.15303C10.4896 3.12671 11.7239 3.12671 14.2824 3.15829Z" fill="#FD6B0A"/>
<path d="M34.0115 0.541748H30.7724L18.2197 17.1974H21.6316L22.9664 15.4039H30.6648L31.1321 17.1974H38.4814L34.0115 0.541748ZM30.1217 12.9488H24.7791C25.0718 12.5575 28.4978 8.01584 28.7993 7.61572C28.9174 8.1264 30.0512 12.6663 30.1217 12.9488Z" fill="#FD6B0A"/>
<path d="M59.0799 0.541748L55.0438 17.1974H61.7883L63.0684 11.8485H63.9501L66.8524 17.1974H74.2158C74.2158 17.1974 71.3417 12.2118 71.1336 11.8485H74.6813L74.713 11.7766C75.4833 10.0331 76.1062 8.22862 76.575 6.38203C77.0188 4.51788 77.2815 2.61561 77.3597 0.701443V0.547013H59.0799V0.541748ZM70.1885 3.01264C70.2069 4.09188 70.0884 5.16911 69.8358 6.21883C69.5606 7.35245 69.1423 8.44684 68.591 9.47591H63.6538C63.7349 9.13721 65.1791 3.17409 65.2196 3.00737C65.6974 2.9828 67.4836 2.9828 70.1938 3.00737L70.1885 3.01264Z" fill="#FD6B0A"/>
<path d="M81.8715 0.541748L77.8654 17.2009H84.0332L88.0394 0.541748H81.8715Z" fill="#FD6B0A"/>
<path d="M110.585 2.44281C108.365 0.866917 105.17 0 101.585 0C98.0375 0 94.4369 0.854633 91.4729 2.40069L91.4235 2.42526L88.3202 15.236L88.4031 15.2939C90.6495 16.8733 93.8533 17.735 97.4292 17.735C100.97 17.735 104.551 16.8821 107.517 15.336L107.564 15.3097L110.666 2.49897L110.585 2.44106V2.44281ZM98.0657 2.74641C99.0678 2.42849 100.112 2.26168 101.164 2.25153C102.099 2.24438 103.029 2.39327 103.914 2.69201C103.853 2.94296 100.961 14.8604 100.929 14.9938C99.9294 15.3206 98.8836 15.4865 97.8312 15.4852C96.896 15.4932 95.9661 15.3443 95.0805 15.0447C95.137 14.7938 98.0375 2.88329 98.0622 2.74816L98.0657 2.74641Z" fill="#FD6B0A"/>
<path d="M113.348 0.541748L112.743 3.10389H117.645C117.562 3.45487 114.245 17.2009 114.245 17.2009H121.055C121.055 17.2009 124.405 3.29167 124.456 3.10389H129.393L130 0.541748H113.355" fill="#FD6B0A"/>
<path d="M40.3788 0.542084L39.774 3.10423H44.6759C44.5789 3.45696 41.2605 17.1978 41.2605 17.1978H48.0737C48.0737 17.1978 51.4239 3.28849 51.4715 3.10072H56.3998L57.0064 0.538574H40.3788" fill="#FD6B0A"/>
</svg>
