<svg width="130" height="18" viewBox="0 0 130 18" fill="none" xmlns="http://www.w3.org/2000/svg"><path d="M4.036.542L0 17.197h6.744s1.235-5.166 1.28-5.347h10.832l.03-.077a35.953 35.953 0 0 0 1.806-5.391c.456-1.863.73-3.765.82-5.68V.546H4.036V.542zm10.246 2.616a11.04 11.04 0 0 1-.352 3.117 12.735 12.735 0 0 1-1.235 3.262c-2.138.021-3.37 0-3.962 0H8.6c.078-.333 1.506-6.22 1.545-6.384.346-.026 1.58-.026 4.138.005zM34.011.542h-3.239L18.22 17.197h3.412l1.334-1.793h7.699l.467 1.793h7.35L34.011.542zm-3.89 12.407H24.78c.293-.392 3.719-4.933 4.02-5.333.118.51 1.252 5.05 1.323 5.333zM59.08.542l-4.036 16.655h6.744l1.28-5.348h.882l2.902 5.348h7.364s-2.874-4.985-3.082-5.348h3.547l.032-.072a34.13 34.13 0 0 0 1.862-5.395c.444-1.864.706-3.766.785-5.68V.546H59.08V.542zm11.109 2.47c.018 1.08-.1 2.157-.353 3.207a13.783 13.783 0 0 1-1.245 3.257h-4.937c.08-.339 1.525-6.302 1.566-6.469.477-.024 2.264-.024 4.974 0l-.005.006zM81.871.542L77.865 17.2h6.168L88.04.54h-6.168zm28.714 1.901C108.365.867 105.17 0 101.585 0c-3.547 0-7.148.855-10.112 2.4l-.05.025-3.103 12.811.083.058c2.246 1.58 5.45 2.441 9.026 2.441 3.541 0 7.122-.853 10.088-2.399l.047-.026 3.102-12.811-.081-.058v.002zm-12.52.303a10.583 10.583 0 0 1 3.099-.494 8.4 8.4 0 0 1 2.75.44l-2.985 12.302a9.93 9.93 0 0 1-3.098.491 8.36 8.36 0 0 1-2.75-.44c.056-.251 2.956-12.162 2.981-12.297l.004-.002zM113.348.542l-.605 2.562h4.902c-.083.35-3.4 14.097-3.4 14.097h6.81s3.35-13.91 3.401-14.097h4.937L130 .542h-16.645m-72.976 0l-.605 2.562h4.902c-.097.353-3.416 14.094-3.416 14.094h6.814s3.35-13.91 3.398-14.097H56.4l.606-2.562H40.38" fill="#FD6B0A"/></svg>