<svg width="129" height="62" viewBox="0 0 129 62" fill="none" xmlns="http://www.w3.org/2000/svg">
<g clip-path="url(#clip0_18_9648)">
<path d="M129 20.3401L95.0173 33.0528L96.9934 28.8562L50.94 44.3561L53.4904 39.1598L0.0122326 59.4032L40.1664 49.4756L36.8763 55.7146L86.6579 37.4557L83.8129 42.894L129 20.3401ZM121.405 4.94568C121.646 4.94568 121.872 4.92661 121.872 4.6389C121.872 4.40641 121.653 4.36568 121.453 4.36568H121.064V4.94568H121.405ZM121.064 5.99555H120.772V4.12601H121.5C121.945 4.12601 122.166 4.28894 122.166 4.65582C122.166 4.99115 121.957 5.13974 121.675 5.171L122.213 5.99555H121.894L121.39 5.18535H121.064L121.064 5.99555ZM121.412 6.41263C122.157 6.41263 122.748 5.83735 122.748 5.05598C122.748 4.28894 122.157 3.70894 121.412 3.70894C120.658 3.70894 120.069 4.28894 120.069 5.05598C120.069 5.83735 120.658 6.41263 121.412 6.41263ZM119.735 5.05598C119.735 4.12601 120.502 3.43815 121.412 3.43815C122.31 3.43815 123.076 4.12601 123.076 5.05598C123.076 5.99541 122.31 6.68585 121.412 6.68585C120.502 6.68585 119.735 5.99555 119.735 5.05598ZM30.0014 10.3313L24.1097 15.2302C24.1097 15.2302 21.7661 12.637 21.5836 12.4356C21.3792 12.6081 16.5582 16.6348 16.5582 16.6348L17.2445 9.95005L0 24.2614L11.7761 18.6936L8.75114 43.6968C8.75114 43.6968 12.3577 46.3237 12.6571 46.5228C12.9614 44.1378 15.8718 21.2342 16.0301 19.9879L16.0398 19.9377L19.4493 17.1045L20.1745 17.8093L17.4318 40.617C17.4318 40.617 21.0968 43.3111 21.3305 43.4669C21.3572 43.2414 23.8127 22.5715 24.3968 17.6415L27.7844 14.818L28.5047 15.5202L25.8569 37.7602L29.7556 40.5906L32.9435 13.5237L30.0014 10.3313ZM39.5727 15.3335L35.5038 16.0142L34.9999 19.94L39.064 19.1827L39.5727 15.3335ZM61.4434 16.98L59.808 29.448L58.9051 30.4021L57.3744 29.1508L58.8955 17.4258L54.8241 18.4013L53.2568 30.601L52.0545 32.1781L50.7697 31.0588L52.298 18.7823L48.2119 19.6237L46.8466 30.7879L45.153 33.0554L43.958 32.1014L46.596 11.0936L42.6073 11.7288L40.1471 31.912L38.1173 34.6636L37.1099 33.8391L38.7989 21.5364L34.7274 22.3561L32.8414 36.6148L36.426 39.3829L39.9547 34.6876L43.6417 37.5926L47.1922 32.8374L50.9984 36.0969L54.7534 31.2027L57.8052 33.8487L63.0837 28.1995L64.7045 16.2804L61.4434 16.98ZM71.1048 25.177L69.4622 27.1615L68.5836 26.4162L69.9219 16.0406L72.1341 17.1958L71.1048 25.177ZM106.884 10.3267L108.808 12.5315L106.419 13.8282L106.884 10.3267ZM117.117 8.26524L118.888 10.348L116.696 11.5705L117.117 8.26524ZM117.377 16.443L116.204 15.4725L116.445 13.5694L121.921 10.5181L117.504 5.13013L113.476 8.59368L112.529 16.079L107.163 18.9884L105.886 17.9556L106.149 15.9422L112.101 12.7088L107.305 7.00698L102.926 10.6762L102.002 17.7803L100.057 19.6356L96.9958 13.6821L103.854 7.51972L100.741 7.96548L95.5771 12.2965L96.8108 2.59668L93.0777 3.10483L90.9945 19.7194L88.7337 22.1664L88.2007 21.7255L89.5563 11.1845L85.536 12.0928L84.2802 21.6248L82.494 23.7532L81.7324 23.1012L83.0804 12.6466L79.031 13.4397L77.7777 23.2162L75.9038 25.5652L75.0813 24.8556L76.4781 13.9384L72.4385 14.7939L72.3459 15.6426L69.5254 14.3027L65.5611 19.2881L64.4149 28.1919L68.2478 31.4013L71.7667 26.9336L74.7892 29.4625L78.0891 25.2896L80.9268 27.7365L84.0417 23.7148L87.0107 26.2554L91.0311 21.9532L94.0924 24.3427L95.0099 17.0398L98.2297 23.5447L102.501 19.4462L105.272 21.7445L113.529 17.2531L115.64 19.0459L123.223 14.679L123.429 13.0755L117.377 16.443Z" fill="#C8091D"/>
</g>
<defs>
<clipPath id="clip0_18_9648">
<rect width="129" height="62" fill="white"/>
</clipPath>
</defs>
</svg>
