<svg width="129" height="62" viewBox="0 0 129 62" fill="none" xmlns="http://www.w3.org/2000/svg"><g clip-path="url(#a)"><path d="M129 20.34L95.017 33.053l1.976-4.197-46.053 15.5 2.55-5.196L.012 59.403l40.154-9.927-3.29 6.239 49.782-18.26-2.845 5.439L129 20.34zm-7.595-15.394c.241 0 .467-.02.467-.307 0-.233-.219-.273-.419-.273h-.389v.58h.341zm-.341 1.05h-.292v-1.87h.728c.445 0 .666.163.666.53 0 .335-.209.484-.491.515l.538.825h-.319l-.504-.81h-.326v.81zm.348.417c.745 0 1.336-.576 1.336-1.357 0-.767-.591-1.347-1.336-1.347-.754 0-1.343.58-1.343 1.347 0 .781.589 1.357 1.343 1.357zm-1.677-1.357c0-.93.767-1.618 1.677-1.618.898 0 1.664.688 1.664 1.618 0 .94-.766 1.63-1.664 1.63-.91 0-1.677-.69-1.677-1.63zm-89.734 5.275l-5.891 4.9-2.526-2.795-5.026 4.199.686-6.685L0 24.261l11.776-5.567-3.025 25.003s3.607 2.627 3.906 2.826l3.373-26.535.01-.05 3.41-2.833.724.704-2.742 22.808s3.665 2.694 3.899 2.85c.026-.226 2.482-20.895 3.066-25.825l3.387-2.824.72.702-2.647 22.24 3.899 2.83 3.188-27.066L30 10.33zm9.572 5.003l-4.07.68L35 19.94l4.064-.757.509-3.85zm21.87 1.646l-1.635 12.468-.903.954-1.53-1.251 1.52-11.725-4.07.975-1.568 12.2-1.203 1.577-1.284-1.12 1.528-12.276-4.086.842-1.365 11.164-1.694 2.267-1.195-.954 2.638-21.007-3.989.635-2.46 20.183-2.03 2.752-1.007-.825 1.689-12.303-4.072.82-1.886 14.259 3.585 2.768 3.529-4.695 3.687 2.905 3.55-4.756 3.806 3.26 3.755-4.894 3.052 2.646 5.279-5.65 1.62-11.919-3.26.7zm9.662 8.197l-1.643 1.985-.878-.746 1.338-10.375 2.212 1.155-1.03 7.981zm35.779-14.85l1.924 2.204-2.389 1.297.465-3.501zm10.233-2.062l1.771 2.083-2.192 1.222.421-3.305zm.26 8.178l-1.173-.97.241-1.904 5.476-3.05-4.417-5.389-4.028 3.464-.947 7.485-5.366 2.91-1.277-1.033.263-2.014 5.952-3.233-4.796-5.702-4.379 3.67-.924 7.103-1.945 1.856-3.061-5.954 6.858-6.162-3.113.445-5.164 4.332 1.234-9.7-3.733.508-2.084 16.614-2.26 2.447-.533-.44 1.355-10.541-4.02.908-1.256 9.532-1.786 2.128-.762-.652 1.348-10.454-4.049.793-1.253 9.776-1.874 2.35-.823-.71 1.397-10.918-4.04.856-.092.849-2.82-1.34-3.965 4.985-1.146 8.904 3.833 3.21 3.519-4.468 3.022 2.528 3.3-4.172 2.838 2.447 3.115-4.022 2.969 2.54 4.02-4.302 3.061 2.39.918-7.303 3.22 6.505 4.271-4.099 2.771 2.298 8.257-4.49 2.111 1.792 7.583-4.367.206-1.604-6.052 3.368z" fill="#C8091D"/></g><defs><clipPath id="a"><path fill="#fff" d="M0 0h129v62H0z"/></clipPath></defs></svg>