<svg width="92" height="44" viewBox="0 0 92 44" fill="none" xmlns="http://www.w3.org/2000/svg">
<g clip-path="url(#clip0_1_604)">
<path d="M18.534 1.24449C19.0753 1.23925 19.3512 1.85537 19.3512 1.85537L28.7705 23.3408C29.1924 24.3006 30.165 24.5573 31.0794 24.7763C31.5467 24.8884 31.8754 25.4155 31.9241 25.9981C31.9674 26.4958 31.7644 27.0124 31.294 27.2921C30.8204 27.5729 30.8616 27.5027 30.3003 27.5897C30.2474 27.597 22.0766 27.5928 22.0766 27.5928C21.5152 27.5928 21.4148 27.3403 21.2213 26.9945L19.5098 23.1553C19.3797 22.9437 19.2994 22.8054 18.9495 22.8012H9.65909C9.26794 22.8159 9.06813 22.8054 8.93282 23.104L8.40212 24.375C8.22346 24.8329 9.0565 24.6998 9.45823 24.9754C9.79123 25.2038 10.1052 25.5004 10.1327 26.1259C10.1581 26.7263 9.81978 27.6044 8.68544 27.6044H2.06123C1.51045 27.5509 1.2155 27.2775 1.01358 26.8217C0.803204 26.3438 0.898348 25.7141 1.22818 25.3589C1.909 24.6265 2.69025 25.0226 3.96625 24.0942C4.44092 23.7505 4.5942 23.3282 4.88387 22.7436L12.2914 6.74447L11.4034 4.81754C10.6285 3.64713 8.89793 4.47071 8.72667 2.82145C8.6495 2.08589 9.18019 1.28641 10.0238 1.24135L18.534 1.24449ZM14.5717 12.1323C14.5104 11.9186 14.225 11.9217 14.152 12.1355L11.193 18.1782C10.9932 18.5303 11.2692 18.8404 11.5334 18.8038L17.0688 18.8132C17.3056 18.8216 17.4525 18.5125 17.3796 18.2903L14.5717 12.1323Z" fill="#EE2528"/>
<path d="M82.2958 1.77062C82.9174 2.06087 83.5581 0.992094 84.5666 1.25719C86.3585 1.72871 86.8829 4.02761 87.4717 5.49141C87.6715 6.35795 88.0024 6.96359 87.9443 7.89196C87.9052 8.56989 87.2381 9.17867 86.6091 9.2363C85.9261 9.29812 85.3151 8.84023 84.9906 8.48921C83.1204 6.47112 81.0198 4.62592 77.9815 4.85434C75.0564 5.07648 73.3723 7.59962 72.8056 10.1228C72.1544 13.021 71.8468 16.7366 73.5213 20.5831C74.5859 23.0287 77.1305 24.3343 79.6656 24.0147C80.3369 23.9298 81.2588 23.7758 81.4438 22.8809V17.01C81.5643 16.3447 80.8052 16.395 80.2449 15.9214C79.7946 15.54 79.6857 14.7426 79.9003 14.1453C80.1308 13.5103 80.6741 13.1939 81.3772 13.1646L89.6157 13.1625C90.5586 13.1625 91.0999 13.9871 91.0978 14.5278C91.0936 15.2455 90.7341 15.6678 90.3282 15.9151C89.8186 16.2231 89.5956 16.1194 89.6157 16.9681V21.1416C89.5956 21.7001 90.8631 21.3249 90.7859 22.795C90.7415 23.6448 89.6537 24.1603 88.3862 24.8802C83.6575 27.5699 78.508 28.2699 74.8259 27.5291C71.1311 26.7851 68.3433 24.876 66.1666 22.0322C64.0269 19.2377 63.0575 15.0506 64.195 10.5607C65.0608 7.14696 67.3612 4.83234 69.7409 3.19879C71.6618 1.99066 73.7455 1.02143 76.455 0.90303C78.7586 0.80349 81.8222 1.54848 82.2958 1.77062Z" fill="#EE2528"/>
<path d="M56.4343 1.24212C57.3339 1.22745 57.5379 1.73983 57.7673 2.02379L60.5065 5.77602C60.7993 6.28945 60.7327 6.78402 60.4906 7.21048C60.183 7.748 59.6036 7.99215 58.9429 7.92089C58.5105 7.87479 58.1691 7.66523 57.8826 7.42318C56.6193 6.54302 54.8633 5.3024 52.9107 5.17667H45.3858C45.1099 5.18505 45.0401 5.36003 45.0401 5.62513L45.038 12.1153C45.0443 12.3091 45.1997 12.3636 45.4334 12.3469L52.9308 12.3542C53.7237 12.3469 54.0112 12.327 54.2406 12.2117C54.8622 11.8984 55.2481 11.3588 55.9046 10.8904C56.2461 10.6452 56.8434 10.5415 57.3223 10.7196C57.6331 10.8359 58.1278 11.1848 58.3118 11.8292C58.5116 12.5281 58.1109 13.1432 57.7388 13.7185L55.2069 17.4497C54.8274 17.8898 54.3865 18.2628 53.4573 18.0386C52.8705 17.8982 52.6031 17.3921 52.3853 16.6701C52.2954 16.3705 52.1178 16.3149 51.8758 16.3149L45.2642 16.3181C45.0496 16.3202 44.9608 16.4836 44.9661 16.6806L44.9629 23.3227C44.9629 23.4684 45.0465 23.5784 45.2833 23.5679L52.3367 23.5595C53.4456 23.5595 54.1476 23.2431 54.3749 23.154C56.0854 22.4918 57.3001 21.5111 58.2642 20.8729C58.907 20.4475 59.7622 20.5177 60.2633 21.1558C60.9632 22.0454 60.6428 22.8292 60.1259 23.483L57.4301 26.9943C57.1426 27.3139 56.7588 27.5863 56.337 27.601H36.0066C35.1693 27.4773 34.7222 26.7428 34.6704 26.266C34.59 25.5441 34.9273 25.0296 35.3427 24.732C35.7286 24.4533 36.5785 24.2836 36.6515 23.768L36.6631 4.8026C36.6378 4.23992 35.9738 4.19801 35.6155 4.01254C35.1831 3.79041 34.7613 3.32727 34.7845 2.73421C34.8067 2.17992 35.1387 1.22745 36.1472 1.24212H56.4343Z" fill="#EE2528"/>
<path d="M3.69002 37.3338H3.09801V39.0732H3.67945C4.34547 39.0732 4.65205 38.8007 4.65205 38.214C4.65205 37.6167 4.3349 37.3338 3.69002 37.3338ZM3.97546 40.5391H3.09801V42.8547H1.36426V35.8679H3.81688C5.36035 35.8679 6.45874 36.4861 6.45874 38.1825C6.45874 39.7333 5.44386 40.5391 3.97546 40.5391Z" fill="#231F20"/>
<path d="M10.5401 37.4182C9.50407 37.4182 8.65833 38.2973 8.65833 39.3776C8.65833 40.4663 9.50407 41.336 10.5401 41.336C11.5761 41.336 12.4218 40.4663 12.4218 39.3776C12.4218 38.2973 11.5761 37.4182 10.5401 37.4182ZM10.5507 43.1057C8.42576 43.1057 6.84106 41.5141 6.84106 39.387C6.84106 37.261 8.42576 35.6683 10.5401 35.6683C12.6639 35.6683 14.2497 37.261 14.2497 39.387C14.2497 41.5141 12.6639 43.1057 10.5507 43.1057Z" fill="#231F20"/>
<path d="M22.3371 42.8545H20.5611L19.3464 38.811L18.0566 42.8545H16.2922L14.2942 35.8677H16.1115L17.2743 40.3827L18.6909 35.8677H20.0758L21.3962 40.3827L22.6648 35.8677H24.4726L22.3371 42.8545Z" fill="#231F20"/>
<path d="M24.865 42.8545V35.8677H28.6697V37.4069H26.5977V38.57H28.564V40.1103H26.5977V41.3142H28.6697V42.8545H24.865Z" fill="#231F20"/>
<path d="M31.7573 37.2712H31.4296V39.0001H31.7573C32.4339 39.0001 32.825 38.6742 32.825 38.1304C32.825 37.5855 32.4339 37.2712 31.7573 37.2712ZM33.0893 42.855L31.4296 40.1726V42.855H29.6958V35.8682H32.159C32.9202 35.8682 33.6908 36.0557 34.0926 36.4853C34.452 36.8835 34.6317 37.376 34.6317 37.9837C34.6317 38.9362 34.0397 39.7859 33.1104 39.9211L35.2554 42.855H33.0893Z" fill="#231F20"/>
<path d="M40.3626 43.0432C39.4852 43.0432 38.7134 42.7393 37.9956 42.2888L38.724 40.8428C39.1151 41.1792 39.7812 41.5134 40.2675 41.5134C40.7538 41.5134 41.0815 41.2735 41.0815 40.8543C41.0815 40.54 40.8066 40.2676 40.1089 40.0266C39.3372 39.7541 38.8509 39.4293 38.5866 39.0311C38.4185 38.7587 38.2906 38.3501 38.2906 37.9414C38.2906 36.6327 39.2843 35.7211 40.7115 35.7211C41.3775 35.7211 42.0858 35.9097 42.6873 36.245L41.9801 37.6899C41.6312 37.3861 41.2189 37.2184 40.8278 37.2184C40.4155 37.2184 40.13 37.4594 40.13 37.7947C40.13 37.9414 40.1723 38.0462 40.2569 38.13C40.3943 38.2557 40.6692 38.4024 41.3458 38.6539C42.4124 39.0416 42.9305 39.7122 42.9305 40.6856C42.9305 42.0478 41.8426 43.0432 40.3626 43.0432Z" fill="#231F20"/>
<path d="M47.075 37.4182C46.039 37.4182 45.1932 38.2973 45.1932 39.3776C45.1932 40.4663 46.039 41.336 47.075 41.336C48.111 41.336 48.9568 40.4663 48.9568 39.3776C48.9568 38.2973 48.111 37.4182 47.075 37.4182ZM47.0856 43.1057C44.9607 43.1057 43.376 41.5141 43.376 39.387C43.376 37.261 44.9607 35.6683 47.075 35.6683C49.1989 35.6683 50.7846 37.261 50.7846 39.387C50.7846 41.5141 49.1989 43.1057 47.0856 43.1057Z" fill="#231F20"/>
<path d="M51.5371 42.8545V35.8677H53.2698V41.3142H55.363V42.8545H51.5371Z" fill="#231F20"/>
<path d="M61.0292 42.0481C60.4794 42.7083 59.6971 43.0331 58.714 43.0331C57.7001 43.0331 56.8015 42.6454 56.3258 41.9853C55.977 41.5033 55.8501 40.9479 55.8501 39.9001V35.8681H57.5839V39.6497C57.5839 40.4764 57.605 40.5812 57.7741 40.906C57.9539 41.2413 58.3239 41.4404 58.7467 41.4404C59.1897 41.4404 59.5914 41.2204 59.7711 40.8746C59.9297 40.5812 59.9403 40.4031 59.9403 39.6497V35.8681H61.6846V39.9001C61.6846 40.9375 61.5155 41.4718 61.0292 42.0481Z" fill="#231F20"/>
<path d="M65.3852 37.4075V42.8551H63.6515V37.4075H62.2253V35.8672H66.823V37.4075H65.3852Z" fill="#231F20"/>
<path d="M67.4155 35.8682H69.1493V42.855H67.4155V35.8682Z" fill="#231F20"/>
<path d="M73.5993 37.4182C72.5632 37.4182 71.7175 38.2973 71.7175 39.3776C71.7175 40.4663 72.5632 41.336 73.5993 41.336C74.6353 41.336 75.481 40.4663 75.481 39.3776C75.481 38.2973 74.6353 37.4182 73.5993 37.4182ZM73.6098 43.1057C71.4849 43.1057 69.8992 41.5141 69.8992 39.387C69.8992 37.261 71.4849 35.6683 73.5993 35.6683C75.7231 35.6683 77.3089 37.261 77.3089 39.387C77.3089 41.5141 75.7231 43.1057 73.6098 43.1057Z" fill="#231F20"/>
<path d="M82.9967 42.8545L79.7945 38.5805V42.8545H78.0608V35.8677H79.7945L82.9967 40.1417V35.8677H84.741V42.8545H82.9967Z" fill="#231F20"/>
<path d="M87.8817 43.0432C87.0043 43.0432 86.2325 42.7393 85.5137 42.2888L86.2431 40.8428C86.6343 41.1792 87.3003 41.5134 87.7866 41.5134C88.2729 41.5134 88.6006 41.2735 88.6006 40.8543C88.6006 40.54 88.3257 40.2676 87.628 40.0266C86.8563 39.7541 86.37 39.4293 86.1057 39.0311C85.9365 38.7587 85.8097 38.3501 85.8097 37.9414C85.8097 36.6327 86.8034 35.7211 88.2306 35.7211C88.8966 35.7211 89.6049 35.9097 90.2064 36.245L89.4992 37.6899C89.1503 37.3861 88.738 37.2184 88.3469 37.2184C87.9346 37.2184 87.6491 37.4594 87.6491 37.7947C87.6491 37.9414 87.6914 38.0462 87.776 38.13C87.9134 38.2557 88.1883 38.4024 88.8649 38.6539C89.9326 39.0416 90.4496 39.7122 90.4496 40.6856C90.4496 42.0478 89.3618 43.0432 87.8817 43.0432Z" fill="#231F20"/>
</g>
<defs>
<clipPath id="clip0_1_604">
<rect width="92" height="44" fill="white"/>
</clipPath>
</defs>
</svg>
