<svg width="92" height="44" viewBox="0 0 92 44" fill="none" xmlns="http://www.w3.org/2000/svg"><g clip-path="url(#a)"><path d="M18.534 1.244c.541-.005.817.611.817.611l9.42 21.486c.421.96 1.394 1.216 2.308 1.435.468.112.796.64.845 1.222.043.498-.16 1.014-.63 1.294-.474.28-.432.21-.994.298-.053.007-8.223.003-8.223.003-.562 0-.662-.253-.856-.599l-1.711-3.839c-.13-.211-.21-.35-.56-.354H9.66c-.392.015-.592.004-.727.303l-.53 1.271c-.18.458.653.325 1.055.6.333.229.647.525.675 1.15.025.601-.313 1.48-1.448 1.48H2.061c-.55-.054-.845-.328-1.047-.783-.21-.478-.116-1.108.214-1.463.681-.733 1.462-.336 2.738-1.265.475-.344.628-.766.918-1.35l7.407-16-.888-1.926c-.774-1.17-2.505-.347-2.676-1.997-.078-.735.453-1.535 1.297-1.58l8.51.003zm-3.962 10.888c-.062-.213-.347-.21-.42.004l-2.959 6.042c-.2.352.076.662.34.626l5.536.01c.237.008.384-.302.31-.524l-2.807-6.158zM82.296 1.77c.621.29 1.262-.778 2.27-.513 1.793.472 2.317 2.77 2.906 4.234.2.867.53 1.473.472 2.401-.039.678-.706 1.287-1.335 1.344-.683.062-1.294-.396-1.618-.747-1.87-2.018-3.971-3.863-7.01-3.635-2.925.222-4.609 2.746-5.175 5.269-.652 2.898-.96 6.614.715 10.46 1.065 2.446 3.61 3.751 6.145 3.432.67-.085 1.593-.24 1.778-1.134V17.01c.12-.665-.639-.615-1.2-1.089-.45-.381-.558-1.178-.344-1.776.23-.635.774-.951 1.477-.98l8.239-.002c.943 0 1.484.824 1.482 1.365-.004.717-.364 1.14-.77 1.387-.51.308-.732.204-.712 1.053v4.174c-.02.558 1.247.183 1.17 1.653-.044.85-1.132 1.365-2.4 2.085-4.728 2.69-9.878 3.39-13.56 2.65-3.695-.745-6.483-2.654-8.66-5.498-2.14-2.794-3.108-6.981-1.971-11.471.866-3.414 3.166-5.729 5.546-7.362C71.66 1.99 73.746 1.02 76.455.903c2.304-.1 5.367.645 5.84.868zm-25.862-.528c.9-.015 1.104.498 1.333.782l2.74 3.752c.292.513.226 1.008-.016 1.434-.308.538-.887.782-1.548.71-.432-.045-.774-.255-1.06-.497-1.264-.88-3.02-2.12-4.972-2.246h-7.525c-.276.008-.346.183-.346.448l-.002 6.49c.006.194.162.249.395.232l7.498.007c.793-.007 1.08-.027 1.31-.142.621-.314 1.007-.853 1.664-1.322.341-.245.938-.349 1.417-.17.311.116.806.465.99 1.11.2.698-.201 1.313-.573 1.889l-2.532 3.73c-.38.44-.82.814-1.75.59-.587-.14-.854-.647-1.072-1.369-.09-.3-.267-.355-.51-.355l-6.61.003c-.215.002-.304.166-.299.363l-.003 6.642c0 .145.084.255.32.245l7.054-.009c1.109 0 1.81-.316 2.038-.405 1.71-.662 2.925-1.643 3.89-2.281.642-.425 1.497-.355 1.998.283.7.89.38 1.673-.137 2.327l-2.696 3.511c-.287.32-.671.592-1.093.607h-20.33c-.838-.124-1.285-.858-1.337-1.335a1.605 1.605 0 0 1 .673-1.534c.386-.279 1.235-.448 1.308-.964l.012-18.965c-.025-.563-.69-.605-1.047-.79-.433-.223-.855-.686-.831-1.279.022-.554.354-1.507 1.362-1.492h20.287z" fill="#EE2528"/><path d="M3.69 37.334h-.592v1.74h.581c.666 0 .973-.273.973-.86 0-.597-.317-.88-.962-.88zm.285 3.205h-.877v2.316H1.364v-6.987h2.453c1.543 0 2.642.618 2.642 2.314 0 1.551-1.015 2.357-2.484 2.357zm6.565-3.121c-1.036 0-1.882.88-1.882 1.96 0 1.088.846 1.958 1.882 1.958s1.882-.87 1.882-1.958c0-1.08-.846-1.96-1.882-1.96zm.01 5.688c-2.124 0-3.709-1.592-3.709-3.719 0-2.126 1.585-3.719 3.7-3.719 2.123 0 3.709 1.593 3.709 3.719 0 2.127-1.586 3.719-3.7 3.719zm11.787-.251h-1.776l-1.215-4.044-1.29 4.044h-1.764l-1.998-6.987h1.817l1.163 4.515 1.417-4.515h1.385l1.32 4.515 1.269-4.515h1.808l-2.136 6.986zm2.528 0v-6.987h3.805v1.539h-2.072v1.163h1.966v1.54h-1.966v1.204h2.072v1.54h-3.805zm6.892-5.584h-.327v1.73h.327c.677 0 1.068-.327 1.068-.87 0-.545-.391-.86-1.068-.86zm1.332 5.584l-1.66-2.682v2.682h-1.733v-6.987h2.463c.761 0 1.532.188 1.934.617.359.398.539.891.539 1.499 0 .952-.592 1.802-1.522 1.937l2.145 2.934H33.09zm7.274.188c-.878 0-1.65-.304-2.367-.754l.728-1.446c.391.336 1.057.67 1.544.67.486 0 .813-.24.813-.659 0-.314-.274-.586-.972-.827-.772-.273-1.258-.598-1.522-.996a2.177 2.177 0 0 1-.296-1.09c0-1.308.993-2.22 2.42-2.22.666 0 1.375.189 1.976.524l-.707 1.445c-.349-.304-.761-.472-1.152-.472-.413 0-.698.241-.698.577a.44.44 0 0 0 .127.335c.137.126.412.272 1.089.524 1.066.388 1.585 1.058 1.585 2.032 0 1.362-1.088 2.357-2.568 2.357zm6.712-5.625c-1.036 0-1.882.88-1.882 1.96 0 1.088.846 1.958 1.882 1.958s1.882-.87 1.882-1.958c0-1.08-.846-1.96-1.882-1.96zm.01 5.688c-2.124 0-3.709-1.592-3.709-3.719 0-2.126 1.585-3.719 3.699-3.719 2.124 0 3.71 1.593 3.71 3.719 0 2.127-1.586 3.719-3.7 3.719zm4.452-.251v-6.987h1.733v5.446h2.093v1.54h-3.826zm9.493-.807c-.55.66-1.333.985-2.316.985-1.014 0-1.913-.388-2.388-1.048-.349-.482-.476-1.037-.476-2.085v-4.032h1.734v3.782c0 .826.021.931.19 1.256.18.335.55.534.973.534.443 0 .844-.22 1.024-.565.159-.294.17-.472.17-1.225v-3.782h1.744V39.9c0 1.038-.17 1.572-.656 2.148zm4.355-4.641v5.448h-1.734v-5.447h-1.426v-1.54h4.598v1.54h-1.438zm2.03-1.539h1.734v6.987h-1.734v-6.987zm6.185 1.55c-1.037 0-1.882.88-1.882 1.96 0 1.088.845 1.958 1.881 1.958s1.882-.87 1.882-1.958c0-1.08-.846-1.96-1.882-1.96zm.01 5.688c-2.125 0-3.71-1.592-3.71-3.719 0-2.126 1.585-3.719 3.7-3.719 2.123 0 3.709 1.593 3.709 3.719 0 2.127-1.586 3.719-3.7 3.719zm9.387-.251l-3.203-4.274v4.273h-1.733v-6.986h1.733l3.203 4.274v-4.274h1.744v6.986h-1.744zm4.885.188c-.878 0-1.65-.304-2.368-.754l.73-1.446c.39.336 1.056.67 1.543.67.486 0 .814-.24.814-.659 0-.314-.275-.586-.973-.827-.772-.273-1.258-.598-1.522-.996a2.166 2.166 0 0 1-.296-1.09c0-1.308.993-2.22 2.42-2.22.667 0 1.375.189 1.976.524L89.5 37.69c-.349-.304-.761-.472-1.152-.472-.412 0-.698.241-.698.577a.44.44 0 0 0 .127.335c.137.126.412.272 1.089.524 1.068.388 1.585 1.058 1.585 2.032 0 1.362-1.088 2.357-2.568 2.357z" fill="#231F20"/></g><defs><clipPath id="a"><path fill="#fff" d="M0 0h92v44H0z"/></clipPath></defs></svg>