<svg width="115" height="29" viewBox="0 0 115 29" fill="none" xmlns="http://www.w3.org/2000/svg"><path fill-rule="evenodd" clip-rule="evenodd" d="M112.786 22.856v.68h.25c.177.01.355-.007.528-.048a.247.247 0 0 0 .15-.105.314.314 0 0 0 .035-.313.278.278 0 0 0-.08-.104c-.059-.077-.241-.108-.51-.108l-.373-.002zm-.239-.2h.721a.87.87 0 0 1 .587.155.471.471 0 0 1 .17.368.45.45 0 0 1-.044.214.48.48 0 0 1-.138.171.664.664 0 0 1-.39.155.569.569 0 0 1 .17.108c.057.056.109.117.154.183.059.092.119.165.149.233l.196.353h-.301l-.198-.33a1.317 1.317 0 0 0-.315-.446.694.694 0 0 0-.36-.077h-.152v.847h-.238v-1.934h-.011zm2.214 1.032a1.498 1.498 0 0 1-.467 1.125 1.417 1.417 0 0 1-.495.357c-.19.083-.396.123-.605.12-.21.002-.418-.04-.61-.122a1.47 1.47 0 0 1-.503-.355 1.535 1.535 0 0 1-.451-1.125 1.604 1.604 0 0 1 .451-1.14 1.542 1.542 0 0 1 1.113-.462 1.46 1.46 0 0 1 1.1.462 1.55 1.55 0 0 1 .467 1.141zm.195 0a1.83 1.83 0 0 1-.51 1.278 1.725 1.725 0 0 1-.57.387 1.764 1.764 0 0 1-1.362 0 1.71 1.71 0 0 1-.569-.387 1.863 1.863 0 0 1-.511-1.278c0-.473.182-.929.511-1.278.16-.165.354-.297.569-.387a1.765 1.765 0 0 1 1.362 0c.215.09.409.222.57.387.332.347.514.805.51 1.278zM96.961 3.621h17.706l.015.046v6.054h-4.697V25.49h-8.355V9.72h-4.7V3.683l.031-.06zm-11.94 0V25.49h14.831v-6.907h-6.505V3.62H85.02zm-11.823 8.763l-1.021 4.496h2.043l-1.022-4.496zM61.891 25.49L68.87 3.62h8.643l6.98 21.869h-8.401l-.756-3.44-2.139.015-2.136-.015-.758 3.44H61.89zM34.14 3.62l5.788 21.869h7.754l2.29-9.44v-.078l.016.048v.03l2.288 9.44h7.754L65.82 3.62h-8.266l-1.974 9.255-1.972-9.255h-7.273l-1.971 9.255-1.98-9.255H34.14zm-.752 10.642v4.927h-4.867v1.417h5.618v4.883H22.196V7.965h11.94v4.88H28.52v1.418h4.87zM8.147 10.011h1.085c1.236 0 3.372.555 3.372 3.798v1.093c-.046 3.159-2.152 3.696-3.372 3.696H8.146V10.01zM.316 3.621v21.852H11.7c5.135 0 9.32-4.311 9.32-9.577v-3.093c-.195-5.08-4.306-9.177-9.305-9.177l-11.4-.005zm-.317 22.622h115V29H.001v-2.756l-.002-.002zM-.001 0h115v2.757H.001L-.001 0z" fill="#000"/></svg>