<svg width="115" height="29" viewBox="0 0 115 29" fill="none" xmlns="http://www.w3.org/2000/svg">
<path fill-rule="evenodd" clip-rule="evenodd" d="M112.786 22.8559V23.5362H113.036C113.213 23.5454 113.391 23.5293 113.564 23.4883C113.626 23.4733 113.68 23.4354 113.714 23.3826C113.754 23.3282 113.775 23.2629 113.775 23.196C113.776 23.1525 113.768 23.1093 113.749 23.0695C113.731 23.0297 113.704 22.9945 113.669 22.9665C113.61 22.8889 113.428 22.8575 113.159 22.8575L112.786 22.8559ZM112.547 22.6561H113.268C113.476 22.6358 113.686 22.6911 113.855 22.8113C113.909 22.857 113.952 22.9137 113.982 22.9772C114.011 23.0408 114.026 23.1098 114.025 23.1795C114.028 23.253 114.013 23.326 113.981 23.3928C113.949 23.4596 113.902 23.5183 113.843 23.5643C113.734 23.6565 113.597 23.7111 113.453 23.7195C113.516 23.7453 113.574 23.7816 113.623 23.8268C113.68 23.883 113.732 23.9443 113.777 24.0101C113.836 24.1025 113.896 24.1752 113.926 24.2429L114.122 24.5963H113.821L113.623 24.266C113.551 24.0982 113.444 23.9465 113.308 23.8202C113.198 23.7625 113.073 23.7357 112.948 23.7426H112.796V24.5897H112.558V22.6561H112.547ZM114.761 23.6881C114.766 23.8965 114.728 24.1038 114.648 24.2972C114.567 24.4906 114.447 24.666 114.294 24.8126C114.158 24.9656 113.989 25.0877 113.799 25.1702C113.609 25.2527 113.403 25.2935 113.194 25.2898C112.984 25.2921 112.776 25.2507 112.584 25.1684C112.392 25.0861 112.221 24.9647 112.081 24.8126C111.933 24.6634 111.817 24.4871 111.739 24.2941C111.662 24.1011 111.625 23.8951 111.63 23.6881C111.622 23.2655 111.784 22.8566 112.081 22.5471C112.223 22.3995 112.396 22.2822 112.588 22.2027C112.779 22.1231 112.986 22.0829 113.194 22.0848C113.401 22.0816 113.606 22.1212 113.796 22.2009C113.985 22.2806 114.155 22.3987 114.294 22.5471C114.446 22.6978 114.565 22.8763 114.646 23.0722C114.726 23.2681 114.765 23.4774 114.761 23.6881ZM114.956 23.6881C114.96 24.1616 114.777 24.6185 114.446 24.9661C114.285 25.1315 114.091 25.2633 113.876 25.3533C113.661 25.4434 113.429 25.4899 113.195 25.4899C112.961 25.4899 112.729 25.4434 112.514 25.3533C112.299 25.2633 112.105 25.1315 111.945 24.9661C111.616 24.6169 111.434 24.161 111.434 23.6881C111.434 23.2152 111.616 22.7593 111.945 22.4101C112.105 22.2447 112.299 22.1129 112.514 22.0228C112.729 21.9328 112.961 21.8863 113.195 21.8863C113.429 21.8863 113.661 21.9328 113.876 22.0228C114.091 22.1129 114.285 22.2447 114.446 22.4101C114.778 22.7574 114.96 23.2145 114.956 23.6881ZM96.9614 3.62108H114.667L114.682 3.66732V9.7206H109.985V25.4896H101.63V9.7206H96.9307V3.68218L96.9614 3.62108ZM85.0203 3.62108V25.4896H99.8522V18.5826H93.347V3.62108H85.0203ZM73.1983 12.384L72.1768 16.8802H74.2198L73.1983 12.384ZM61.8905 25.4896L68.8707 3.62108H77.5141L84.4942 25.4896H76.0925L75.3366 22.0501L73.1983 22.065L71.0617 22.0501L70.3041 25.4896H61.8905ZM34.1403 3.62108L39.9287 25.4896H47.6834L49.9733 16.0497V15.972L49.9886 16.0199V16.0497L52.2767 25.4896H60.0314L65.8198 3.62108H57.5543L55.5795 12.876L53.608 3.62108H46.3351L44.3636 12.876L42.3837 3.62108H34.1403ZM33.3895 14.2631V19.1902H28.5222V20.607H34.1403V25.4896H22.1958V7.96539H34.1369V12.8447H28.5188V14.2631H33.3895ZM8.14703 10.0112H9.2315C10.4675 10.0112 12.6041 10.566 12.6041 13.809V14.9021C12.5581 18.0608 10.4522 18.5975 9.2315 18.5975H8.14703V10.0112ZM0.31568 3.62108V25.473H11.7001C16.8347 25.473 21.0194 21.1618 21.0194 15.8961V12.8034C20.8253 7.72266 16.7138 3.62604 11.7154 3.62604L0.31568 3.62108ZM-0.000976562 26.2425H114.999V29H0.000722372V26.2442L-0.000976562 26.2425ZM-0.000976562 0H114.999V2.7575H0.000722372L-0.000976562 0Z" fill="black"/>
</svg>
