<svg width="100" height="24" viewBox="0 0 100 24" fill="none" xmlns="http://www.w3.org/2000/svg">
<g clip-path="url(#clip0_1_666)">
<path fill-rule="evenodd" clip-rule="evenodd" d="M64.6899 10.2334L65.9319 24H70.8091L73.8752 5.65322H70.0717L68.2993 18.2683L67.135 5.65322H64.7029H62.2707L61.1064 18.2683L59.334 5.65322H55.5306L58.5966 24H63.4739L64.7158 10.2334H64.6899ZM29.0356 24H33.2272V16.8942H36.5132C38.4408 16.8942 40.6013 14.1461 40.6013 12.0785C40.7177 9.43512 40.1485 8.29663 39.4628 7.38059C37.988 5.771 36.6296 5.66631 35.6076 5.66631H29.0356V24.0131V24ZM34.3657 9.09488C35.6076 9.09488 36.1769 10.1287 36.1769 11.1625C36.1769 12.7721 35.4912 13.6881 34.3657 13.6881H33.2272V9.10797H34.3657V9.09488ZM42.7488 19.7601C42.7488 20.9117 42.9817 22.1679 43.9908 23.084C44.6764 23.6729 45.9443 24 47.8719 24H49.8512C51.3907 24 52.1152 23.8299 53.0596 22.9662C54.418 21.7099 54.198 19.9826 54.198 18.373V11.2672C54.198 9.43512 54.198 7.48528 52.5033 6.3337C51.6365 5.71865 50.8862 5.64014 49.6184 5.64014H47.2768C45.7502 5.64014 44.5471 5.70557 43.4345 7.13196C42.6453 8.28354 42.7488 9.65758 42.7488 11.4896V19.747V19.7601ZM49.89 19.9956C49.89 20.6892 49.6572 21.2519 48.5317 21.2519C47.3932 21.2519 47.0568 20.5583 47.0568 19.9956V10.2465C47.0568 9.5529 47.3932 8.87242 48.4152 8.87242C49.5537 8.87242 49.89 9.67067 49.89 10.2465V19.9956ZM75.5052 5.66631V24.0131H85.7125V20.6892H79.9297V16.3315H85.0268V12.8899H79.9297V9.33043H85.7125V5.66631H75.5052ZM87.6401 5.66631V24.0131H91.9481V16.9073H93.6558C94.1086 16.9073 94.6778 17.4831 94.6778 18.3991V21.3828C94.6778 22.8746 94.445 23.7906 95.467 24.0131H99.9949C99.4257 23.5551 98.9729 23.2148 98.9729 22.4035L98.8565 18.1636C98.8565 16.9073 98.9729 16.554 97.3816 15.1799C98.6236 13.8059 99.1928 12.1963 99.0764 10.3642C98.96 8.07416 97.9379 6.34679 96.0103 5.88877C95.2212 5.65322 93.6299 5.65322 92.4915 5.65322H87.6142L87.6401 5.66631ZM93.5394 9.33043C94.445 9.33043 94.6778 10.2465 94.6778 11.5027C94.6778 12.9946 94.5614 13.5703 93.5394 13.5703H91.9481V9.33043H93.5394Z" fill="#D10429"/>
<path fill-rule="evenodd" clip-rule="evenodd" d="M26.0858 19.6685L20.911 10.6129L15.6586 1.4133C15.1929 0.562704 14.3002 0 13.2653 0C12.2433 0 11.3506 0.575791 10.8849 1.4133L5.63246 10.6129L0.367115 19.8386C0.13425 20.2443 -0.00805664 20.7154 -0.00805664 21.2257C-0.00805664 22.7437 1.20802 23.9869 2.72164 23.9869H23.8218C25.3355 23.9869 26.5515 22.7437 26.5515 21.2257C26.5515 20.6499 26.3704 20.1134 26.0729 19.6685H26.0858Z" fill="#D10429"/>
<path fill-rule="evenodd" clip-rule="evenodd" d="M15.9564 7.91711C15.9564 9.42202 14.7532 10.639 13.2655 10.639C11.7777 10.639 10.5746 9.42202 10.5746 7.91711C10.5746 6.4122 11.7777 5.19519 13.2655 5.19519C14.7532 5.19519 15.9564 6.4122 15.9564 7.91711Z" fill="white"/>
<path fill-rule="evenodd" clip-rule="evenodd" d="M15.814 22.3905V12.8507L16.7195 11.6467H13.2783H9.85002L10.7556 12.8507V22.3905L9.4231 23.4635H13.2783H17.1335L15.814 22.3905Z" fill="white"/>
</g>
<defs>
<clipPath id="clip0_1_666">
<rect width="100" height="24" fill="white"/>
</clipPath>
</defs>
</svg>
