<svg width="100" height="24" viewBox="0 0 100 24" fill="none" xmlns="http://www.w3.org/2000/svg"><g clip-path="url(#a)" fill-rule="evenodd" clip-rule="evenodd"><path d="M64.69 10.233L65.932 24h4.877l3.066-18.347h-3.803l-1.773 12.615-1.164-12.615h-4.864l-1.165 12.615-1.772-12.615h-3.803L58.597 24h4.877l1.242-13.767h-.026zM29.036 24h4.191v-7.106h3.286c1.928 0 4.088-2.748 4.088-4.815.117-2.644-.453-3.782-1.138-4.698-1.475-1.61-2.833-1.715-3.855-1.715h-6.572v18.347V24zm5.33-14.905c1.242 0 1.81 1.034 1.81 2.067 0 1.61-.685 2.526-1.81 2.526h-1.139v-4.58h1.139v-.013zm8.383 10.665c0 1.152.233 2.408 1.242 3.324.685.589 1.953.916 3.88.916h1.98c1.54 0 2.264-.17 3.209-1.034 1.358-1.256 1.138-2.983 1.138-4.593v-7.106c0-1.832 0-3.782-1.695-4.933-.867-.615-1.617-.694-2.885-.694h-2.341c-1.527 0-2.73.066-3.843 1.492-.789 1.152-.685 2.526-.685 4.358v8.27zm7.141.236c0 .693-.233 1.256-1.358 1.256-1.139 0-1.475-.694-1.475-1.256v-9.75c0-.693.336-1.374 1.358-1.374 1.139 0 1.475.799 1.475 1.374v9.75zm25.615-14.33v18.347h10.208V20.69H79.93v-4.358h5.097V12.89H79.93V9.33h5.782V5.666H75.506zm12.135 0v18.347h4.308v-7.106h1.708c.453 0 1.022.576 1.022 1.492v2.984c0 1.492-.233 2.408.789 2.63h4.528c-.57-.458-1.022-.798-1.022-1.61l-.117-4.24c0-1.256.117-1.609-1.474-2.983 1.242-1.374 1.81-2.984 1.694-4.816-.116-2.29-1.138-4.017-3.066-4.475-.789-.236-2.38-.236-3.519-.236h-4.877l.026.013zm5.9 3.664c.905 0 1.138.916 1.138 2.173 0 1.492-.117 2.067-1.139 2.067h-1.59V9.33h1.59zM26.086 19.669l-5.175-9.056-5.252-9.2A2.711 2.711 0 0 0 13.265 0a2.732 2.732 0 0 0-2.38 1.413l-5.253 9.2-5.265 9.226a2.776 2.776 0 0 0-.375 1.387c0 1.518 1.216 2.76 2.73 2.76h21.1c1.514 0 2.73-1.242 2.73-2.76a2.8 2.8 0 0 0-.48-1.557h.014z" fill="#D10429"/><path d="M15.956 7.917c0 1.505-1.203 2.722-2.69 2.722-1.488 0-2.691-1.217-2.691-2.722s1.203-2.722 2.69-2.722c1.488 0 2.691 1.217 2.691 2.722zm-.142 14.473v-9.54l.905-1.203H9.85l.906 1.204v9.54l-1.333 1.073h7.711l-1.32-1.073z" fill="#fff"/></g><defs><clipPath id="a"><path fill="#fff" d="M0 0h100v24H0z"/></clipPath></defs></svg>