<svg width="107" height="35" viewBox="0 0 107 35" fill="none" xmlns="http://www.w3.org/2000/svg"><g clip-path="url(#a)"><path d="M107 0H0v35h107V0z" fill="#F77D00"/><path fill-rule="evenodd" clip-rule="evenodd" d="M26.595 7.403l-3.252 7.272a5.73 5.73 0 0 0 .318-1.726 6.256 6.256 0 0 0-1.462-3.762 6.867 6.867 0 0 0-4.6-2.081H9.393l-.027 11.867H17.4c.268 0 2.693.043 4.472-1.722.308-.326.573-.693.789-1.09l-1.133 2.577h4.487l3.961-8.898 2.882 6.082h-5.525l1.51 2.835 9.46.03-5.154-11.365h-6.553v-.019zm-7.893 7.724a4.537 4.537 0 0 1-2.999 1.012h-2.107V9.925h2.126a4.468 4.468 0 0 1 2.991 1.031c.282.264.505.588.653.948.148.361.218.75.205 1.141.011.391-.06.78-.209 1.14-.15.36-.373.683-.656.946l-.004-.004zm71.409 4.595a12.39 12.39 0 0 1-3.358-.529 6.11 6.11 0 0 1-2.862-2.01 6.325 6.325 0 0 1-1.33-3.28 6.32 6.32 0 0 1-1.335 3.273 6.105 6.105 0 0 1-2.864 2.002 12.63 12.63 0 0 1-3.361.506 12.733 12.733 0 0 1-3.362-.518 6.159 6.159 0 0 1-3.067-2.29 6.384 6.384 0 0 1-1.166-3.696 7.423 7.423 0 0 1 .31-1.93l-3.105 7.576h-3.327l-2.266-5.085-2.293 5.078h-3.523l-3.35-8.666-7.444-.02v1.63h6.594v2.704h-6.605v1.64h7.42v2.704H38.315l.026-11.346 14.378.027 2.7 7.287 2.047-4.549-1.212-2.73h5.616l-1.231 2.703 1.949 4.399 2.749-7.106h3.931l-1.087 2.66a6.323 6.323 0 0 1 3.497-2.958 11.42 11.42 0 0 1 6.722 0 6.13 6.13 0 0 1 2.855 2.023 6.345 6.345 0 0 1 1.322 3.284 6.343 6.343 0 0 1 1.343-3.281 6.127 6.127 0 0 1 2.872-2.006 11.424 11.424 0 0 1 6.711 0A6.149 6.149 0 0 1 96.598 9.5a6.376 6.376 0 0 1 1.178 3.711 6.374 6.374 0 0 1-1.192 3.707 6.147 6.147 0 0 1-3.104 2.27 12.578 12.578 0 0 1-3.358.514l-.011.02zm-11.764-5.217c.123-.451.184-.918.18-1.386a4.54 4.54 0 0 0-.271-1.545 3.554 3.554 0 0 0-1.271-1.606 3.436 3.436 0 0 0-1.929-.617 3.434 3.434 0 0 0-1.94.58 3.55 3.55 0 0 0-1.3 1.581 4.262 4.262 0 0 0-.328 1.746c.012.577.133 1.146.355 1.676a3.525 3.525 0 0 0 1.374 1.6 3.411 3.411 0 0 0 3.966-.258 3.554 3.554 0 0 0 1.164-1.767v-.004zm8.569-2.966a4.264 4.264 0 0 0-.333 1.742c.018.582.146 1.155.378 1.688a3.5 3.5 0 0 0 1.273 1.543c.562.377 1.22.577 1.892.577a3.443 3.443 0 0 0 2.08-.711 3.574 3.574 0 0 0 1.255-1.838c.123-.451.183-.918.177-1.386a4.47 4.47 0 0 0-.28-1.545 3.557 3.557 0 0 0-1.273-1.587 3.44 3.44 0 0 0-1.916-.608 3.437 3.437 0 0 0-1.928.571 3.552 3.552 0 0 0-1.303 1.562l-.022-.008z" fill="#fff"/><path d="M10.952 22.9h-1.7v4.635h.945v-1.587h.755a1.461 1.461 0 0 0 1.103-.418 1.527 1.527 0 0 0 .464-1.106 1.556 1.556 0 0 0-.464-1.105 1.487 1.487 0 0 0-1.103-.418zm-.755.89h.668a.539.539 0 0 1 .457.159.565.565 0 0 1 .159.466.596.596 0 0 1-.164.473.569.569 0 0 1-.463.168h-.657v-1.267zm7.308-.95a2.296 2.296 0 0 0-1.307.387c-.388.26-.692.632-.873 1.068-.18.437-.23.919-.142 1.384.088.466.31.894.637 1.23.327.336.745.565 1.2.657a2.28 2.28 0 0 0 1.354-.138 2.346 2.346 0 0 0 1.048-.887c.256-.396.39-.86.386-1.335a2.394 2.394 0 0 0-.17-.906 2.352 2.352 0 0 0-.498-.77 2.294 2.294 0 0 0-.75-.513 2.25 2.25 0 0 0-.885-.178zm0 3.86a1.364 1.364 0 0 1-.983-.453 1.426 1.426 0 0 1-.37-1.037 1.4 1.4 0 0 1 .278-.736c.16-.213.378-.373.626-.461.249-.089.517-.101.771-.036.255.065.486.204.665.401a1.411 1.411 0 0 1 .249 1.491 1.376 1.376 0 0 1-.497.604 1.33 1.33 0 0 1-.74.228zm8.995-.849l-.762-2.912h-.793l-.767 2.9-.676-2.907h-.974l1.14 4.618h.956l.717-2.715.695 2.723H27l1.19-4.615-.978-.004-.71 2.912zm5.62-.161l1.492.003v-.888L32.12 24.8v-.962h1.832v-.888h-2.776l-.007 4.623h2.874l.007-.885h-1.933l.003-1zm7.535-.059c.207-.126.377-.306.494-.522a1.41 1.41 0 0 0 .167-.706 1.382 1.382 0 0 0-.202-.793 1.337 1.337 0 0 0-.61-.532 2.22 2.22 0 0 0-.843-.115H37.2v4.634h.944v-1.703h.597l.872 1.695h1.073l-1.02-1.93a.12.12 0 0 1-.011-.028zm-1.51-1.78h.494c.166-.011.333.017.487.08a.507.507 0 0 1 .23.491.54.54 0 0 1-.143.43.515.515 0 0 1-.416.157h-.653v-1.158zm11.329-.861h-1.703v4.634h.948v-1.587h.755c.355-.058.678-.244.911-.523.234-.28.362-.635.362-1.003a1.56 1.56 0 0 0-.362-1.002 1.502 1.502 0 0 0-.91-.523v.004zm-.755.884h.668a.548.548 0 0 1 .456.161.573.573 0 0 1 .164.465.595.595 0 0 1-.164.473.568.568 0 0 1-.463.168h-.661v-1.267zm7.727 1.8c.208-.125.38-.305.498-.521.118-.216.176-.46.17-.707a1.378 1.378 0 0 0-.2-.798 1.334 1.334 0 0 0-.616-.53 2.135 2.135 0 0 0-.838-.113h-1.454v4.634h.948v-1.707h.6l.873 1.692h1.076l-1.027-1.931a.329.329 0 0 0-.03-.02zm-1.51-1.78h.49c.164-.014.328.013.48.077a.532.532 0 0 1 .242.494.543.543 0 0 1-.145.426.517.517 0 0 1-.414.157h-.654v-1.155zm7.522-.943a2.247 2.247 0 0 0-.89.17 2.262 2.262 0 0 0-.755.507 2.35 2.35 0 0 0-.506.767 2.388 2.388 0 0 0-.175.908 2.415 2.415 0 0 0 .645 1.741c.217.23.477.414.765.54a2.279 2.279 0 0 0 2.586-.54c.216-.23.385-.504.496-.803.111-.3.162-.618.15-.938a2.388 2.388 0 0 0-.174-.905 2.345 2.345 0 0 0-.502-.767 2.284 2.284 0 0 0-.753-.509 2.243 2.243 0 0 0-.887-.17zm0 3.843a1.36 1.36 0 0 1-.983-.452 1.424 1.424 0 0 1-.369-1.035 1.412 1.412 0 0 1 .37-1.025 1.327 1.327 0 0 1 1.962 0 1.387 1.387 0 0 1 .368 1.025 1.446 1.446 0 0 1-.369 1.035c-.126.138-.278.25-.447.327a1.36 1.36 0 0 1-.536.125h.004zm7.006-3.75h-1.556v4.634h1.556c1.412 0 2.292-.884 2.292-2.317 0-1.433-.883-2.317-2.292-2.317zm-.62.9h.575a1.229 1.229 0 0 1 1.015.377 1.31 1.31 0 0 1 .352 1.044 1.315 1.315 0 0 1-.352 1.045 1.231 1.231 0 0 1-1.015.38h-.578l.004-2.846zm8.686 2.031a.9.9 0 0 1-.273.592.862.862 0 0 1-1.193 0 .9.9 0 0 1-.274-.592v-2.916h-.94v2.939c.02.479.222.93.56 1.261a1.8 1.8 0 0 0 1.258.516c.468 0 .919-.185 1.257-.516.339-.33.54-.782.561-1.261v-2.939h-.948l-.007 2.916zm7.498.378a1.648 1.648 0 0 1-1.134.495 1.349 1.349 0 0 1-.991-.45 1.412 1.412 0 0 1-.364-1.045 1.375 1.375 0 0 1 .365-1.028 1.317 1.317 0 0 1 .99-.412c.397.007.778.154 1.08.417l.155.15.491-.772-.102-.097a2.222 2.222 0 0 0-1.677-.614 2.222 2.222 0 0 0-.886.169 2.258 2.258 0 0 0-.752.508 2.342 2.342 0 0 0-.665 1.675 2.362 2.362 0 0 0 .648 1.711c.215.226.473.405.757.526.285.122.59.183.899.18.327.009.653-.052.956-.178a2.38 2.38 0 0 0 .807-.555l.099-.112-.53-.718-.147.15zm3.176-2.379h1.423l-.007 3.727.944.004.011-3.727h1.42l.004-.884-3.8-.008.005.888zm8.127 1.001c-.453-.201-.733-.333-.729-.587.004-.255.253-.43.578-.437.291.017.569.133.79.328l.165.155.442-.819-.09-.1a1.904 1.904 0 0 0-1.307-.49 1.384 1.384 0 0 0-1.039.361 1.47 1.47 0 0 0-.472 1.013c0 .83.688 1.14 1.246 1.383.476.22.756.386.756.645 0 .258-.287.44-.54.436a1.467 1.467 0 0 1-.93-.386l-.15-.155-.54.746.094.112c.2.2.435.358.695.465.259.107.536.16.816.157a1.362 1.362 0 0 0 1.046-.356 1.449 1.449 0 0 0 .464-1.023c-.015-.896-.725-1.205-1.295-1.448z" fill="#000"/></g><defs><clipPath id="a"><path fill="#fff" d="M0 0h107v35H0z"/></clipPath></defs></svg>