<svg width="107" height="35" viewBox="0 0 107 35" fill="none" xmlns="http://www.w3.org/2000/svg">
<g clip-path="url(#clip0_1_571)">
<path d="M107 0H0V35H107V0Z" fill="#F77D00"/>
<path fill-rule="evenodd" clip-rule="evenodd" d="M26.5952 7.40317L23.3435 14.675C23.5373 14.1203 23.6444 13.5377 23.6607 12.9488C23.6003 11.5627 23.0855 10.2378 22.1991 9.18735C20.9745 7.9295 19.3332 7.18679 17.5992 7.10581H9.39253L9.36609 18.9733H17.399C17.6672 18.9733 20.0918 19.0158 21.8706 17.2509C22.179 16.9247 22.4444 16.5585 22.6599 16.1619L21.5269 18.7377H26.0136L29.9753 9.84L32.8568 15.9224H27.3316L28.8423 18.757L38.3028 18.7879L33.1476 7.42248H26.5952V7.40317ZM18.702 15.1269C17.8503 15.8151 16.7883 16.1735 15.7033 16.1387H13.5959V9.92496H15.7222C16.8078 9.89104 17.8693 10.257 18.7133 10.9561C18.9955 11.2202 19.2183 11.5437 19.3663 11.9044C19.5143 12.2651 19.584 12.6544 19.5706 13.0453C19.5825 13.4362 19.5114 13.8251 19.3621 14.1851C19.2128 14.5452 18.9888 14.8678 18.7057 15.1307L18.702 15.1269ZM90.1108 19.7225C88.9735 19.7013 87.8442 19.5234 86.7534 19.1934C85.6291 18.8206 84.6347 18.1223 83.8906 17.1833C83.1466 16.2442 82.6848 15.1047 82.5613 13.9027C82.4349 15.103 81.9709 16.2401 81.2256 17.1764C80.4802 18.1126 79.4855 18.8079 78.3617 19.178C77.268 19.4975 76.1378 19.6676 75.0005 19.6839C73.8627 19.6626 72.7327 19.4886 71.6392 19.1664C70.4061 18.7531 69.3325 17.9515 68.572 16.8763C67.8115 15.8011 67.4033 14.5074 67.4056 13.1805C67.4233 12.5255 67.5275 11.876 67.7153 11.2496L64.6109 18.8265H61.2837L59.0177 13.7405L56.7253 18.8188H53.2016L49.8518 10.1528L42.408 10.1335V11.7632H49.002V14.4665H42.3967V16.1078H49.8178V18.8111H38.3141L38.3405 7.46496L52.7182 7.49199L55.4185 14.7793L57.4655 10.2301L56.2532 7.49972H61.8691L60.6379 10.203L62.5866 14.6017L65.336 7.49586H69.2675L68.1798 10.1567C68.9448 8.75981 70.1918 7.70498 71.677 7.19849C73.8693 6.524 76.2072 6.524 78.3994 7.19849C79.5218 7.57703 80.5133 8.2793 81.2544 9.22073C81.9954 10.1622 82.4546 11.3026 82.5764 12.5047C82.7047 11.3014 83.171 10.1618 83.9189 9.22364C84.6668 8.28545 85.6644 7.58879 86.7911 7.2178C88.9799 6.54586 91.3135 6.54586 93.5023 7.2178C94.7449 7.62327 95.829 8.42283 96.5975 9.50059C97.3659 10.5784 97.7788 11.8783 97.7763 13.2122C97.7738 14.546 97.356 15.8443 96.5835 16.919C95.8109 17.9938 94.7238 18.789 93.4796 19.1896C92.3876 19.512 91.2586 19.6847 90.1222 19.7032L90.1108 19.7225ZM78.3466 14.5051C78.4696 14.0538 78.5306 13.5872 78.5278 13.1187C78.5273 12.5914 78.4352 12.0684 78.2559 11.574C77.9965 10.9221 77.5543 10.3632 76.985 9.9676C76.4157 9.57203 75.7447 9.35744 75.0564 9.35083C74.3682 9.34423 73.6934 9.5459 73.1169 9.93048C72.5405 10.3151 72.0881 10.8654 71.8167 11.5122C71.5861 12.0632 71.474 12.6585 71.4882 13.2577C71.5002 13.8345 71.6208 14.4036 71.8432 14.9338C72.13 15.5987 72.6096 16.1576 73.2171 16.5348C73.8246 16.912 74.5306 17.0895 75.2399 17.0432C75.9492 16.9968 76.6274 16.729 77.183 16.2757C77.7386 15.8225 78.1448 15.2058 78.3466 14.509V14.5051ZM86.9158 11.5392C86.6844 12.0888 86.5711 12.6827 86.5834 13.2809C86.601 13.8632 86.7293 14.4364 86.9611 14.9685C87.2291 15.5989 87.6714 16.1355 88.2337 16.5121C88.796 16.8888 89.4537 17.0892 90.1259 17.0887C90.8757 17.086 91.6047 16.8368 92.2052 16.3778C92.8057 15.9188 93.2459 15.2744 93.4607 14.5399C93.5844 14.0888 93.6441 13.6219 93.6382 13.1535C93.6368 12.6256 93.5421 12.1022 93.3587 11.6087C93.0952 10.964 92.6524 10.4125 92.0854 10.0224C91.5183 9.63239 90.8519 9.421 90.1685 9.41443C89.4851 9.40785 88.8149 9.60638 88.2408 9.98542C87.6666 10.3645 87.2138 10.9074 86.9384 11.5469L86.9158 11.5392Z" fill="white"/>
<path d="M10.9523 22.9009H9.25281V27.5351H10.197V25.9479H10.9523C11.1543 25.9583 11.3562 25.9266 11.5458 25.8547C11.7354 25.7828 11.9088 25.6723 12.0553 25.5298C12.2019 25.3873 12.3185 25.2158 12.3983 25.0258C12.478 24.8358 12.5191 24.6311 12.5191 24.4244C12.5191 24.2176 12.478 24.013 12.3983 23.8229C12.3185 23.6329 12.2019 23.4614 12.0553 23.3189C11.9088 23.1764 11.7354 23.0659 11.5458 22.994C11.3562 22.9222 11.1543 22.8905 10.9523 22.9009ZM10.197 23.7891H10.8654C10.9484 23.7785 11.0326 23.7874 11.1118 23.8151C11.1909 23.8427 11.2628 23.8884 11.3221 23.9487C11.3814 24.009 11.4266 24.0822 11.4541 24.163C11.4816 24.2437 11.4908 24.3298 11.481 24.4147C11.4899 24.5011 11.4798 24.5885 11.4515 24.6704C11.4231 24.7523 11.3772 24.8267 11.3171 24.8882C11.2571 24.9496 11.1843 24.9966 11.1042 25.0256C11.0241 25.0546 10.9386 25.0649 10.8541 25.0558H10.197V23.7891Z" fill="black"/>
<path d="M17.5047 22.8391C17.0411 22.8329 16.5861 22.9682 16.198 23.2275C15.8098 23.4869 15.5059 23.8586 15.3252 24.2953C15.1445 24.7319 15.095 25.2137 15.1832 25.6792C15.2714 26.1447 15.4931 26.5728 15.8202 26.909C16.1473 27.2451 16.5648 27.4739 17.0196 27.5663C17.4744 27.6588 17.9458 27.6106 18.3738 27.4279C18.8017 27.2452 19.1667 26.9364 19.4222 26.5407C19.6777 26.1451 19.8122 25.6805 19.8085 25.2064C19.811 24.8958 19.7532 24.5877 19.6384 24.3001C19.5237 24.0125 19.3543 23.751 19.14 23.5308C18.9257 23.3107 18.6709 23.1361 18.3902 23.0174C18.1095 22.8986 17.8085 22.838 17.5047 22.8391ZM17.5047 26.7009C17.3196 26.696 17.1372 26.6533 16.9684 26.5753C16.7996 26.4973 16.6478 26.3855 16.5218 26.2466C16.3958 26.1078 16.2983 25.9445 16.2349 25.7666C16.1715 25.5886 16.1436 25.3994 16.1527 25.2102C16.1732 24.9424 16.2697 24.6865 16.4302 24.4738C16.5906 24.2611 16.8083 24.1008 17.0564 24.0126C17.3046 23.9243 17.5725 23.9119 17.8274 23.9768C18.0823 24.0418 18.3132 24.1813 18.4919 24.3782C18.6706 24.5752 18.7892 24.8211 18.8334 25.086C18.8776 25.3508 18.8453 25.6231 18.7406 25.8695C18.6359 26.1158 18.4632 26.3257 18.2437 26.4734C18.0243 26.621 17.7675 26.7001 17.5047 26.7009Z" fill="black"/>
<path d="M26.5007 25.8512L25.7379 22.9394H24.9448L24.1781 25.8396L23.5021 22.9316H22.5277L23.6683 27.5504H24.6237L25.3413 24.8355L26.0362 27.5581H26.9993L28.1889 22.9432L27.2108 22.9394L26.5007 25.8512Z" fill="black"/>
<path d="M32.1204 25.6891L33.6122 25.693V24.8047L32.1204 24.8009V23.8393H33.9521V22.951H31.1763L31.1687 27.5737H34.0427L34.0503 26.6893H32.1166L32.1204 25.6891Z" fill="black"/>
<path d="M39.6548 25.6311C39.862 25.5053 40.0325 25.325 40.1487 25.1091C40.2649 24.8932 40.3226 24.6494 40.3157 24.4031C40.3301 24.1237 40.2599 23.8465 40.1145 23.6095C39.9692 23.3724 39.7559 23.187 39.5037 23.0785C39.2326 22.9859 38.9469 22.9466 38.6615 22.9626H37.2V27.5968H38.1441V25.8937H38.7408L39.6132 27.5891H40.6858L39.6661 25.6582C39.6613 25.6497 39.6574 25.6406 39.6548 25.6311ZM38.1441 23.8508H38.6389C38.8051 23.84 38.9717 23.8677 39.126 23.9319C39.2058 23.9831 39.2698 24.0563 39.3106 24.1431C39.3513 24.2299 39.3672 24.3267 39.3564 24.4224C39.3651 24.5003 39.3567 24.5792 39.3319 24.6534C39.3072 24.7276 39.2665 24.7952 39.213 24.8514C39.1596 24.9076 39.0945 24.9509 39.0226 24.9782C38.9508 25.0055 38.8739 25.0162 38.7975 25.0094H38.1441V23.8508Z" fill="black"/>
<path d="M49.4741 22.9896H47.7709V27.6238H48.7188V26.0366H49.4741C49.829 25.9787 50.1521 25.7933 50.3853 25.5137C50.6186 25.2341 50.7467 24.8786 50.7467 24.5112C50.7467 24.1437 50.6186 23.7882 50.3853 23.5086C50.1521 23.229 49.829 23.0436 49.4741 22.9857V22.9896ZM48.7188 23.8739H49.3873C49.4703 23.8643 49.5543 23.8737 49.6332 23.9016C49.7121 23.9296 49.784 23.9752 49.8434 24.0352C49.9028 24.0952 49.9483 24.1681 49.9765 24.2484C50.0048 24.3288 50.0151 24.4146 50.0067 24.4996C50.0156 24.586 50.0055 24.6734 49.9771 24.7553C49.9488 24.8372 49.9029 24.9116 49.8428 24.973C49.7827 25.0345 49.7099 25.0814 49.6298 25.1104C49.5497 25.1394 49.4642 25.1497 49.3797 25.1406H48.7188V23.8739Z" fill="black"/>
<path d="M56.4458 25.6737C56.6544 25.5488 56.8265 25.369 56.944 25.153C57.0616 24.937 57.1204 24.6927 57.1143 24.4456C57.1298 24.165 57.0596 23.8864 56.9134 23.6484C56.7673 23.4104 56.5524 23.2248 56.2985 23.1171C56.0289 23.0242 55.7441 22.9861 55.4601 23.0051H54.0061V27.6394H54.954V25.9324H55.5545L56.4269 27.6239H57.5033L56.476 25.693C56.4663 25.686 56.4562 25.6796 56.4458 25.6737ZM54.9352 23.8933H55.4261C55.5897 23.8801 55.7541 23.9066 55.9058 23.9706C55.9873 24.0215 56.0532 24.0949 56.0959 24.1823C56.1387 24.2697 56.1565 24.3676 56.1475 24.4649C56.1555 24.5425 56.1467 24.621 56.1217 24.6947C56.0966 24.7684 56.0559 24.8355 56.0025 24.8913C55.9491 24.947 55.8842 24.99 55.8127 25.0171C55.7411 25.0442 55.6646 25.0547 55.5885 25.048H54.9352V23.8933Z" fill="black"/>
<path d="M62.4582 22.9511C62.1537 22.9464 61.8513 23.0039 61.5687 23.1201C61.2862 23.2364 61.0291 23.409 60.8125 23.6279C60.5959 23.8469 60.4242 24.1078 60.3073 24.3954C60.1904 24.683 60.1307 24.9915 60.1318 25.3029C60.1192 25.6226 60.1698 25.9416 60.2808 26.2408C60.3917 26.54 60.5606 26.8131 60.7774 27.0439C60.9941 27.2746 61.2542 27.4582 61.5421 27.5837C61.83 27.7091 62.1396 27.7737 62.4525 27.7737C62.7654 27.7737 63.0751 27.7091 63.3629 27.5837C63.6508 27.4582 63.9109 27.2746 64.1277 27.0439C64.3444 26.8131 64.5133 26.54 64.6243 26.2408C64.7352 25.9416 64.7859 25.6226 64.7733 25.3029C64.7748 24.9923 64.7158 24.6845 64.5999 24.3975C64.4839 24.1104 64.3131 23.8499 64.0977 23.631C63.8822 23.412 63.6262 23.2392 63.3448 23.1225C63.0633 23.0057 62.7619 22.9475 62.4582 22.9511ZM62.4582 26.7936C62.2732 26.7892 62.0909 26.747 61.9221 26.6694C61.7534 26.5918 61.6015 26.4804 61.4755 26.3418C61.3495 26.2032 61.2519 26.0403 61.1884 25.8625C61.125 25.6847 61.097 25.4958 61.1061 25.3068C61.0964 25.1193 61.1242 24.9318 61.1876 24.7557C61.2511 24.5796 61.349 24.4185 61.4753 24.2823C61.6017 24.1461 61.7538 24.0377 61.9224 23.9635C62.0911 23.8894 62.2727 23.8512 62.4563 23.8512C62.6399 23.8512 62.8215 23.8894 62.9902 23.9635C63.1588 24.0377 63.3109 24.1461 63.4373 24.2823C63.5636 24.4185 63.6615 24.5796 63.7249 24.7557C63.7884 24.9318 63.8161 25.1193 63.8064 25.3068C63.8156 25.4958 63.7876 25.6847 63.7242 25.8625C63.6607 26.0403 63.5631 26.2032 63.4371 26.3418C63.3111 26.4804 63.1592 26.5918 62.9905 26.6694C62.8217 26.747 62.6394 26.7892 62.4544 26.7936H62.4582Z" fill="black"/>
<path d="M69.4639 23.0437H67.908V27.6779H69.4639C70.8764 27.6779 71.7564 26.7936 71.7564 25.3608C71.7564 23.9281 70.8726 23.0437 69.4639 23.0437ZM68.8446 23.9435H69.4186C69.6046 23.925 69.7923 23.9493 69.968 24.0145C70.1436 24.0797 70.3028 24.1843 70.4338 24.3205C70.5649 24.4567 70.6645 24.6212 70.7254 24.8019C70.7863 24.9825 70.8069 25.1748 70.7858 25.3647C70.8068 25.5547 70.7861 25.7471 70.7253 25.9279C70.6644 26.1088 70.5648 26.2734 70.4339 26.4099C70.3029 26.5464 70.1438 26.6514 69.9682 26.7171C69.7926 26.7828 69.6048 26.8076 69.4186 26.7897H68.8408L68.8446 23.9435Z" fill="black"/>
<path d="M77.5308 25.9748C77.5162 26.2007 77.4182 26.4126 77.2565 26.5673C77.0949 26.7221 76.8817 26.8082 76.6603 26.8082C76.4388 26.8082 76.2257 26.7221 76.064 26.5673C75.9024 26.4126 75.8043 26.2007 75.7897 25.9748V23.0591H74.8494V25.998C74.8707 26.4765 75.0716 26.9281 75.4103 27.259C75.749 27.5899 76.1994 27.7746 76.6678 27.7746C77.1363 27.7746 77.5867 27.5899 77.9253 27.259C78.264 26.9281 78.4649 26.4765 78.4863 25.998V23.0591H77.5383L77.5308 25.9748Z" fill="black"/>
<path d="M85.0275 26.3533C84.7255 26.6601 84.3201 26.8369 83.8945 26.8476C83.708 26.8454 83.5239 26.8044 83.3534 26.7271C83.183 26.6498 83.0296 26.5378 82.9028 26.398C82.776 26.2582 82.6783 26.0935 82.6157 25.9138C82.5531 25.7342 82.5269 25.5434 82.5387 25.3531C82.5259 25.1651 82.5518 24.9766 82.6147 24.7995C82.6777 24.6224 82.7762 24.4608 82.9039 24.3251C83.0317 24.1894 83.1858 24.0825 83.3564 24.0115C83.5271 23.9404 83.7104 23.9067 83.8945 23.9126C84.2908 23.9201 84.6724 24.0674 84.9746 24.3297L85.1295 24.4803L85.6204 23.7079L85.5185 23.6114C85.294 23.3985 85.0297 23.2344 84.7415 23.1288C84.4533 23.0233 84.1472 22.9786 83.8416 22.9973C83.538 22.9921 83.2365 23.0494 82.9549 23.1657C82.6733 23.282 82.4175 23.4549 82.2026 23.6743C81.9877 23.8937 81.8181 24.155 81.7039 24.4428C81.5898 24.7305 81.5333 25.0387 81.5379 25.3492C81.5277 25.6643 81.5799 25.9782 81.6913 26.2722C81.8027 26.5661 81.971 26.834 82.1861 27.0598C82.4013 27.2856 82.6588 27.4646 82.9433 27.586C83.2278 27.7075 83.5333 27.769 83.8416 27.7667C84.1691 27.775 84.4948 27.7141 84.7983 27.5878C85.1017 27.4616 85.3765 27.2727 85.6053 27.033L85.7035 26.921L85.1748 26.2027L85.0275 26.3533Z" fill="black"/>
<path d="M88.2036 23.9744H89.6274L89.6199 27.7011L90.564 27.705L90.5753 23.9783H91.9954L91.9991 23.0939L88.1998 23.0862L88.2036 23.9744Z" fill="black"/>
<path d="M96.331 24.9746C95.8778 24.7738 95.5983 24.6425 95.6021 24.3876C95.6058 24.1327 95.8551 23.9589 96.1799 23.9512C96.4713 23.9682 96.7489 24.0837 96.9692 24.2795L97.1354 24.4339L97.5773 23.6152L97.4866 23.5148C97.1259 23.1908 96.66 23.0159 96.1799 23.0244C95.9919 23.0108 95.8032 23.0358 95.6248 23.0979C95.4464 23.16 95.282 23.2581 95.1412 23.3862C95.0004 23.5143 94.8861 23.6699 94.8051 23.8439C94.724 24.0179 94.6778 24.2067 94.6692 24.3992C94.6692 25.2295 95.3566 25.5384 95.9155 25.7817C96.3914 26.0018 96.6709 26.1679 96.6709 26.4266C96.6709 26.6854 96.3838 26.8669 96.1308 26.863C95.7867 26.8484 95.4582 26.7119 95.2017 26.4769L95.0507 26.3224L94.5106 27.0677L94.605 27.1797C94.8043 27.3801 95.0403 27.5382 95.2996 27.6449C95.5589 27.7516 95.8362 27.8048 96.1157 27.8015C96.3047 27.8184 96.495 27.7956 96.675 27.7345C96.8551 27.6733 97.0209 27.5752 97.1624 27.446C97.304 27.3169 97.4181 27.1595 97.4979 26.9835C97.5777 26.8075 97.6214 26.6167 97.6264 26.4228C97.6112 25.5268 96.9012 25.2179 96.331 24.9746Z" fill="black"/>
</g>
<defs>
<clipPath id="clip0_1_571">
<rect width="107" height="35" fill="white"/>
</clipPath>
</defs>
</svg>
