<svg width="102" height="30" viewBox="0 0 102 30" fill="none" xmlns="http://www.w3.org/2000/svg"><g clip-path="url(#a)" fill="#000"><path d="M52.644 5.323c-6.22 0-10.868 3.306-12.174 8.976h-4.64V8.207a3.16 3.16 0 0 1 .901-2.219c.286-.291.626-.522.999-.679a3.008 3.008 0 0 1 1.176-.235h2.885V0h-5.957c-1-.005-1.992.192-2.918.58a7.586 7.586 0 0 0-2.476 1.679 7.775 7.775 0 0 0-1.656 2.521 7.909 7.909 0 0 0-.583 2.978v6.54h-4.426v4.766H28.2v10.555h7.633V19.064h4.334c.612 7.098 5.99 10.932 13.047 10.932 5.165 0 10.244-2.48 11.524-7.939h-7.724c-.886 1.534-2.121 2.122-3.84 2.122-3.32 0-5.036-1.805-5.036-5.145h16.91v-.845c0-7.916-4.548-12.866-12.406-12.866zm-4.372 8.976c.487-2.39 2.428-3.653 4.77-3.653 2.161 0 4.146 1.444 4.544 3.653h-9.314zm-35-10.605H0L7.241 16.66 0 29.627h13.22l7.294-12.968-7.242-12.965zm75.087 1.629c-7.282 0-13.649 4.463-13.649 12.361 0 7.898 6.404 12.312 13.649 12.312 7.245 0 13.648-4.463 13.648-12.312 0-7.849-6.363-12.361-13.648-12.361zm0 18.095c-3.6 0-5.696-2.484-5.696-5.719 0-3.133 2.095-5.768 5.696-5.768 3.6 0 5.695 2.64 5.695 5.768 0 3.22-2.095 5.704-5.695 5.704v.015zM66.178.008l.003 29.619h7.633L73.81.004l-7.632.004z"/></g><defs><clipPath id="a"><path fill="#fff" d="M0 0h102v30H0z"/></clipPath></defs></svg>