<svg width="102" height="30" viewBox="0 0 102 30" fill="none" xmlns="http://www.w3.org/2000/svg">
<g clip-path="url(#clip0_1_589)">
<path d="M52.6435 5.32291C46.4241 5.32291 41.7762 8.62902 40.4703 14.2988H35.8298V8.2068C35.8298 7.79446 35.9094 7.38617 36.0642 7.00535C36.2189 6.62454 36.4457 6.27869 36.7315 5.98764C37.0174 5.6966 37.3566 5.46608 37.7298 5.30931C38.103 5.15255 38.5028 5.07262 38.9063 5.07411H41.7909V-3.05118e-05H35.8335C34.8332 -0.00499509 33.8419 0.191982 32.9164 0.5796C31.9909 0.967218 31.1494 1.53784 30.4402 2.2587C29.7311 2.97957 29.1682 3.83648 28.784 4.78023C28.3998 5.72399 28.2017 6.73601 28.2013 7.75819V14.2988H23.7747V19.0638H28.2013V29.6192H35.8335V19.0638H40.1678C40.7802 26.1623 46.1585 29.9962 53.2153 29.9962C58.3796 29.9962 63.4592 27.5157 64.7392 22.057H57.0148C56.1294 23.5913 54.8937 24.1794 53.1747 24.1794C49.8547 24.1794 48.1394 22.3737 48.1394 19.0336H65.049V18.1892C65.049 10.2727 60.5007 5.32291 52.6435 5.32291ZM48.2722 14.2988C48.7591 11.9087 50.6995 10.6459 53.0419 10.6459C55.2035 10.6459 57.1881 12.0897 57.5865 14.2988H48.2722Z" fill="black"/>
<path d="M13.2724 3.69434H0L7.24118 16.6586L0 29.6267H13.2208L20.5136 16.6586L13.2724 3.69434Z" fill="black"/>
<path d="M88.3587 5.323C81.0769 5.323 74.71 9.78643 74.71 17.6841C74.71 25.5819 81.1138 29.9963 88.3587 29.9963C95.6035 29.9963 102.007 25.5329 102.007 17.6841C102.007 9.83544 95.6441 5.323 88.3587 5.323ZM88.3587 23.418C84.7583 23.418 82.6631 20.9337 82.6631 17.6992C82.6631 14.5665 84.7583 11.9314 88.3587 11.9314C91.959 11.9314 94.0542 14.5703 94.0542 17.6992C94.0542 20.9186 91.959 23.4029 88.3587 23.4029V23.418Z" fill="black"/>
<path d="M66.1777 0.00755397L66.1814 29.6268H73.8136L73.8099 0.00378418L66.1777 0.00755397Z" fill="black"/>
</g>
<defs>
<clipPath id="clip0_1_589">
<rect width="102" height="30" fill="white"/>
</clipPath>
</defs>
</svg>
