<svg width="103" height="44" viewBox="0 0 103 44" fill="none" xmlns="http://www.w3.org/2000/svg">
<g clip-path="url(#clip0_1_676)">
<path d="M0.0233154 44H102.977V0H0.0233154V44Z" fill="#E31E24"/>
<path d="M76.5691 15.7246H87.928V19.4033H80.8377V22.1443H87.4215V25.7508H80.8377V29.141H88.145V33.1082H76.5691V15.7246Z" fill="#FEFEFE"/>
<path d="M60.5798 15.7246H64.5591L69.7682 25.3181V15.7246H73.7474V33.1082H69.7682L64.6314 23.5148V33.1082H60.5798V15.7246Z" fill="#FEFEFE"/>
<path d="M48.3528 24.4524C48.3528 26.1836 48.6422 27.4819 49.1487 28.2754C49.6551 29.0688 50.3786 29.4295 51.2468 29.4295C52.1874 29.4295 52.8385 29.0688 53.345 28.2754C53.8514 27.5541 54.0685 26.1836 54.0685 24.236C54.0685 22.577 53.7791 21.4229 53.2726 20.6295C52.7662 19.9082 52.0427 19.4754 51.1745 19.4754C50.3063 19.4754 49.6551 19.836 49.1487 20.6295C48.6422 21.4229 48.3528 22.6491 48.3528 24.4524ZM44.0842 24.4524C44.0842 21.6393 44.7354 19.4032 45.9653 17.8164C47.1953 16.2295 48.9316 15.436 51.1745 15.436C53.4897 15.436 55.2261 16.2295 56.456 17.7442C57.6859 19.3311 58.3371 21.4951 58.3371 24.3082C58.3371 26.3278 58.0477 27.9869 57.5412 29.2852C57.0348 30.5836 56.2389 31.5934 55.2261 32.3147C54.2132 33.036 52.9109 33.3967 51.3915 33.3967C49.8722 33.3967 48.5699 33.1082 47.557 32.459C46.5441 31.8098 45.7483 30.8721 45.0971 29.5016C44.446 28.1311 44.1566 26.4721 44.1566 24.4524H44.0842Z" fill="#FEFEFE"/>
<path d="M40.9731 10.6033H33.7382V21.9279L40.9731 10.6033Z" fill="#2B2A29"/>
<path d="M21.077 10.6033H26.2138H28.3843H32.3635V33.3967H27.1544L26.2138 31.8098V18.6098L21.077 10.6033Z" fill="#FEFEFE"/>
<path d="M20.1365 21.7836V33.3967H14.855V10.6033H19.413L24.6222 18.5377V29.141L20.1365 21.7836Z" fill="#2B2A29"/>
</g>
<defs>
<clipPath id="clip0_1_676">
<rect width="103" height="44" fill="white"/>
</clipPath>
</defs>
</svg>
