<svg width="103" height="44" viewBox="0 0 103 44" fill="none" xmlns="http://www.w3.org/2000/svg"><g clip-path="url(#a)"><path d="M.023 44h102.954V0H.023v44z" fill="#E31E24"/><path d="M76.57 15.725h11.358v3.678h-7.09v2.741h6.584v3.607h-6.584v3.39h7.307v3.967H76.569V15.725zm-15.99 0h3.98l5.208 9.593v-9.593h3.98v17.383h-3.98l-5.137-9.593v9.593H60.58V15.725zm-12.227 8.727c0 1.732.29 3.03.796 3.823.506.794 1.23 1.155 2.098 1.155.94 0 1.592-.361 2.098-1.155.506-.72.724-2.091.724-4.039 0-1.659-.29-2.813-.796-3.607-.507-.72-1.23-1.154-2.099-1.154-.868 0-1.519.361-2.025 1.154-.507.794-.796 2.02-.796 3.823zm-4.269 0c0-2.813.651-5.049 1.881-6.636 1.23-1.586 2.967-2.38 5.21-2.38 2.315 0 4.051.794 5.281 2.308 1.23 1.587 1.881 3.751 1.881 6.564 0 2.02-.29 3.679-.796 4.977-.506 1.299-1.302 2.308-2.315 3.03-1.013.721-2.315 1.082-3.834 1.082-1.52 0-2.822-.289-3.835-.938-1.013-.65-1.809-1.587-2.46-2.957-.651-1.37-.94-3.03-.94-5.05h-.073z" fill="#FEFEFE"/><path d="M40.973 10.603h-7.235v11.325l7.235-11.325z" fill="#2B2A29"/><path d="M21.077 10.603h11.287v22.794h-5.21l-.94-1.587v-13.2l-5.137-8.007z" fill="#FEFEFE"/><path d="M20.137 21.784v11.613h-5.282V10.603h4.558l5.21 7.935V29.14l-4.486-7.357z" fill="#2B2A29"/></g><defs><clipPath id="a"><path fill="#fff" d="M0 0h103v44H0z"/></clipPath></defs></svg>