<svg width="124" height="15" viewBox="0 0 124 15" fill="none" xmlns="http://www.w3.org/2000/svg">
<path d="M21.7746 0.285889H18.4157V14.4756H21.7746V0.285889Z" fill="#F18200"/>
<path d="M96.1601 14.4794H100.226L94.7395 8.51073C96.6864 8.3473 99.3766 7.55681 99.3766 4.42506C99.3818 0.744397 95.686 0.280762 93.8242 0.280762H82.8947C82.4801 0.280762 82.0826 0.4492 81.7894 0.749022C81.4963 1.04884 81.3316 1.45549 81.3316 1.8795V14.4723H84.6888V8.55158H90.698L96.1549 14.4794H96.1601ZM84.6923 2.62558H93.5672C94.736 2.62558 96.0177 2.98086 96.0177 4.41795C96.0177 5.85504 94.736 6.21209 93.5672 6.21209H84.6923V2.62558Z" fill="#F18200"/>
<path d="M72.2401 1.87946C71.4065 0.710599 70.8212 0.140381 69.562 0.140381C68.3028 0.140381 67.7245 0.714152 66.8909 1.87946C66.2535 2.76765 61.6441 9.63158 59.4957 12.8326L52.7501 5.50682L60.3919 0.318019H55.7564L45.3358 7.39511V0.280715H41.9804V14.4704H45.3393V10.5429L50.0876 7.31695L56.6787 14.4793H62.212L64.2596 11.4168H74.8626L76.912 14.4793H80.7329C80.7329 14.4793 73.0738 3.05364 72.2401 1.87946ZM65.8245 9.07379L69.562 3.4782L73.2978 9.07379H65.8245Z" fill="#F18200"/>
<path d="M1.56212 0.280762C1.14756 0.280762 0.749979 0.4492 0.456843 0.749022C0.163706 1.04884 -0.000976562 1.45549 -0.000976562 1.8795V14.4723H3.35793V8.54981H16.6998V6.21209H3.35793V2.62558H16.6998V0.280762H1.56212Z" fill="#F18200"/>
<path d="M113.188 6.28813L106.258 5.69126C104.243 5.51362 103.682 5.14058 103.682 4.36431C103.682 2.44937 107.699 2.29305 109.254 2.29305C111.473 2.29305 114.424 2.85261 116.46 3.75146L117.292 1.34624C115.063 0.390547 111.77 0.0032959 109.323 0.0032959C106.254 0.0032959 100.292 0.571737 100.292 4.70537C100.292 6.75531 101.972 7.93305 105.273 8.21905L112.205 8.80703C114.221 8.98467 114.983 9.48738 114.983 10.3916C114.983 12.3065 110.907 12.4628 109.167 12.4628C106.173 12.4628 103.033 11.5498 101.004 10.3489L100.195 12.8661C102.48 14.0243 106.027 14.7561 109.342 14.7561C112.411 14.7561 118.374 14.1859 118.374 10.0558C118.374 7.50317 116.173 6.54037 113.184 6.2828" fill="#F18200"/>
<path d="M35.9152 6.28813L28.9855 5.69126C26.9691 5.51362 26.4098 5.14058 26.4098 4.36431C26.4098 2.44937 30.4253 2.29305 31.9814 2.29305C34.1992 2.29305 37.15 2.85261 39.1855 3.74968L40.0174 1.34624C37.7892 0.390547 34.4962 0.0032959 32.0509 0.0032959C28.982 0.0032959 23.0197 0.571738 23.0197 4.7036C23.0197 6.75531 24.6991 7.93305 28.0007 8.21905L34.9304 8.80703C36.9468 8.98467 37.7093 9.48738 37.7093 10.3916C37.7093 12.3065 33.6313 12.4628 31.8928 12.4628C28.8969 12.4628 25.7568 11.5498 23.73 10.3472L22.9207 12.8661C25.208 14.0225 28.7527 14.7561 32.07 14.7561C35.1371 14.7561 41.1012 14.1859 41.1012 10.0558C41.1012 7.50139 38.9007 6.54037 35.9134 6.2828" fill="#F18200"/>
<path d="M121.343 0C120.818 1.14907e-07 120.305 0.159341 119.868 0.457866C119.431 0.756392 119.091 1.18069 118.89 1.67709C118.689 2.1735 118.636 2.7197 118.739 3.24662C118.842 3.77354 119.095 4.25749 119.466 4.63727C119.838 5.01705 120.311 5.2756 120.826 5.3802C121.342 5.4848 121.876 5.43075 122.361 5.22491C122.846 5.01906 123.261 4.67066 123.552 4.22377C123.844 3.77688 123.999 3.25157 123.999 2.71431C123.998 1.99427 123.718 1.30388 123.221 0.794895C122.723 0.285914 122.047 -1.53997e-07 121.343 0ZM121.343 5.02538C120.897 5.02538 120.46 4.88994 120.089 4.63619C119.718 4.38244 119.428 4.02178 119.257 3.59981C119.087 3.17784 119.042 2.71352 119.129 2.26556C119.216 1.8176 119.431 1.40613 119.747 1.08317C120.063 0.760207 120.465 0.540268 120.903 0.451164C121.341 0.362059 121.795 0.407791 122.207 0.582576C122.62 0.757361 122.973 1.05335 123.221 1.43311C123.469 1.81287 123.601 2.25935 123.601 2.71608C123.601 3.32855 123.363 3.91592 122.94 4.349C122.516 4.78208 121.942 5.02538 121.343 5.02538Z" fill="#F18200"/>
<path d="M122.144 4.04863H122.935L121.87 2.89043C122.249 2.85846 122.77 2.7128 122.77 2.09462C122.77 1.38406 122.054 1.28992 121.689 1.28992H120.3C120.26 1.28992 120.22 1.29802 120.183 1.31375C120.146 1.32948 120.113 1.35254 120.085 1.38159C120.056 1.41065 120.034 1.44513 120.019 1.48305C120.004 1.52097 119.996 1.56159 119.996 1.60256V4.04863H120.651V2.89754H121.128L122.148 4.04863H122.144ZM120.651 1.73934H121.643C121.872 1.73934 122.12 1.80862 122.12 2.09462C122.12 2.38061 121.872 2.44989 121.643 2.44989H120.651V1.73934Z" fill="#F18200"/>
</svg>
