<svg width="124" height="15" viewBox="0 0 124 15" fill="none" xmlns="http://www.w3.org/2000/svg"><path d="M21.775.286h-3.36v14.19h3.36V.286zM96.16 14.48h4.066L94.74 8.51c1.946-.163 4.637-.953 4.637-4.085.005-3.68-3.691-4.144-5.553-4.144h-10.93c-.414 0-.811.168-1.105.468-.293.3-.457.706-.457 1.13v12.593h3.357v-5.92h6.009l5.457 5.927h.005zM84.692 2.625h8.875c1.169 0 2.45.355 2.45 1.792s-1.281 1.794-2.45 1.794h-8.875V2.626zM72.24 1.88C71.406.71 70.821.14 69.562.14c-1.26 0-1.837.574-2.671 1.74-.638.888-5.247 7.752-7.395 10.953L52.75 5.507 60.392.318h-4.636l-10.42 7.077V.281H41.98v14.19h3.36v-3.928l4.748-3.226 6.59 7.162h5.534l2.048-3.062h10.603l2.049 3.062h3.82S73.075 3.054 72.24 1.88zm-6.415 7.194l3.737-5.596 3.736 5.596h-7.474zM1.562.28C1.148.28.75.45.457.75c-.293.3-.458.706-.458 1.13v12.593h3.359V8.55H16.7V6.212H3.358V2.626H16.7V.28H1.562zm111.626 6.008l-6.93-.597c-2.015-.177-2.576-.55-2.576-1.327 0-1.915 4.017-2.071 5.572-2.071 2.219 0 5.17.56 7.206 1.458l.832-2.405C115.063.391 111.77.003 109.323.003c-3.069 0-9.031.569-9.031 4.702 0 2.05 1.68 3.228 4.981 3.514l6.932.588c2.016.178 2.778.68 2.778 1.585 0 1.915-4.076 2.07-5.816 2.07-2.994 0-6.134-.912-8.163-2.113l-.809 2.517c2.285 1.158 5.832 1.89 9.147 1.89 3.069 0 9.032-.57 9.032-4.7 0-2.553-2.201-3.516-5.19-3.773m-77.269.005l-6.93-.597c-2.016-.177-2.575-.55-2.575-1.327 0-1.915 4.015-2.071 5.571-2.071 2.218 0 5.169.56 7.204 1.457l.832-2.404C37.79.391 34.497.003 32.051.003c-3.069 0-9.031.569-9.031 4.7 0 2.052 1.68 3.23 4.98 3.516l6.93.588c2.017.178 2.78.68 2.78 1.585 0 1.915-4.079 2.07-5.817 2.07-2.996 0-6.136-.912-8.163-2.115l-.81 2.52c2.288 1.155 5.833 1.89 9.15 1.89 3.067 0 9.031-.571 9.031-4.701 0-2.555-2.2-3.516-5.188-3.773M121.343 0c-.525 0-1.038.16-1.475.458a2.702 2.702 0 0 0-.978 1.22 2.77 2.77 0 0 0-.151 1.569c.103.527.356 1.01.727 1.39.372.38.845.639 1.36.743.516.105 1.05.05 1.535-.155.485-.206.9-.554 1.191-1.001a2.76 2.76 0 0 0-.331-3.43A2.628 2.628 0 0 0 121.343 0zm0 5.025a2.22 2.22 0 0 1-1.254-.389 2.302 2.302 0 0 1-.832-1.036 2.367 2.367 0 0 1-.128-1.334c.087-.448.302-.86.618-1.183a2.243 2.243 0 0 1 1.156-.632 2.208 2.208 0 0 1 1.304.132c.413.174.766.47 1.014.85a2.347 2.347 0 0 1-.281 2.916 2.234 2.234 0 0 1-1.597.676z" fill="#F18200"/><path d="M122.144 4.049h.791L121.87 2.89c.379-.032.9-.177.9-.795 0-.71-.716-.805-1.081-.805H120.3a.3.3 0 0 0-.281.193.325.325 0 0 0-.023.12v2.446h.655V2.898h.477l1.02 1.15h-.004zm-1.493-2.31h.992c.229 0 .477.07.477.356s-.248.355-.477.355h-.992v-.71z" fill="#F18200"/></svg>