<svg width="126" height="27" viewBox="0 0 126 27" fill="none" xmlns="http://www.w3.org/2000/svg"><path d="M123.245 6.79h.37c.196 0 .392.044.392.261 0 .283-.218.283-.457.283h-.305V6.79zm-.283 1.546h.283v-.762h.283l.479.762h.305l-.501-.784c.261-.022.479-.152.479-.479 0-.348-.196-.5-.631-.5h-.697v1.763zm-.653-.893c0-.718.544-1.284 1.263-1.284.696 0 1.24.566 1.24 1.284 0 .74-.544 1.306-1.24 1.306-.719 0-1.263-.566-1.263-1.306zm-.283 0c0 .87.697 1.524 1.524 1.524.827 0 1.524-.653 1.524-1.524 0-.849-.697-1.502-1.524-1.502-.827 0-1.524.653-1.524 1.502zM43.04 10.206c-.696-2.873-2.742-3.896-3.809-4.244-.435-.13-1.175-.37-2.285-.37-2.982 0-5.42 1.589-6.42 4.418-.501 1.393-.523 2.655-.523 3.178 0 1.959.413 3.787 1.763 5.289 1.262 1.415 2.655 1.741 3.373 1.828.349.066.871.087 1.241.087 1.328 0 2.655-.24 3.635-1.175.522-.5.675-.936.74-1.219.022.805.261 1.306.413 2.111h1.916v-7.857h-6.138v2.59h3.483a4.146 4.146 0 0 1-.131.588c-.152.435-.697 1.676-2.09 2.154a4.091 4.091 0 0 1-1.197.175c-1.697 0-2.59-.85-3.003-1.415-.414-.588-.893-1.654-.893-3.374 0-2.372.871-3.526 1.785-4.135.849-.544 1.741-.588 2.068-.588 1.415 0 2.59.653 2.96 2.068l3.112-.109zm5.9 4.484l1.653-5.855 1.633 5.855h-3.287zm-.305-8.794L43.89 20.11h3.417l.892-2.873h4.789l.87 2.873h3.483L52.639 5.896h-4.005zm12.774 6.007V8.595h2.634c.805 0 1.218.022 1.588.196.327.152.784.544.784 1.415 0 .217-.065 1.197-.936 1.545-.413.174-.827.152-1.741.13h-2.33v.022zm-3.156-6.007V20.11h3.134v-5.703h.892c1.59 0 2.351-.021 3.026.544.457.392.696.893.783 2.068l.066 1.154c.043.457.022 1.371.392 1.763.065.087.174.13.195.152h3.178c-.174-.174-.261-.283-.326-.413-.261-.501-.305-1.48-.327-1.48-.043-.675-.087-2.373-.218-3.048-.304-1.545-1.349-1.871-1.98-2.024.326-.087.805-.217 1.415-.761a3.1 3.1 0 0 0 .5-.588c.544-.784.588-1.829.588-2.111 0-.414-.065-1.437-.827-2.351-1.219-1.48-3.09-1.458-4.789-1.437h-5.702v.022zm16.521 11.493v-8.75h1.633c1.175 0 1.785.087 2.307.327.196.109.588.326.958.761.74.936.936 2.155.936 3.287 0 .283.021 2.242-1.002 3.374-.74.848-1.85.936-2.176.957-.523.022-1.045.022-1.567.022h-1.089v.022zM71.597 5.897V20.11h4.048c1.937 0 2.808-.044 3.722-.305 2.938-.849 3.852-3.46 4.114-4.418a8.866 8.866 0 0 0 .348-2.525c0-3.265-1.458-4.985-2.569-5.79-1.545-1.132-3.373-1.197-5.201-1.197h-4.462v.022zm13.753-.001V20.11h10.71v-2.7h-7.553v-3.482h6.507V11.38h-6.507V8.595h7.4V5.896H85.35zm12.344.001V20.11h2.917v-5.246c0-1.72-.022-3.373-.087-5.071.217.675.348.87.675 1.48.304.653.653 1.262.979 1.893l3.874 6.922h3.265V5.875h-2.938v6.181c0 .632-.022 1.241 0 1.872.021.74.065 1.48.13 2.198a19.65 19.65 0 0 0-.435-1c-.414-.893-.914-1.742-1.371-2.569l-3.7-6.66h-3.309zm17.454 8.793l1.654-5.855 1.632 5.855h-3.286zm-.283-8.794L110.12 20.11h3.417l.893-2.873h4.788l.871 2.873h3.482L118.87 5.896h-4.005z" fill="#000"/><path d="M13.012 5.59a7.394 7.394 0 0 0-7.4 7.4c0 4.092 3.309 7.4 7.4 7.4 4.092 0 7.4-3.308 7.4-7.4 0-4.092-3.308-7.4-7.4-7.4zm2.502-1.459C16.951 3 18.452 2.695 19.562 2.608c.631-.044.762-.196.762-.48 0-.543-1.915-2.11-4.397-2.11-3.504 0-5.245 2.698-5.658 4.179a9.542 9.542 0 0 1 5.245-.066zm-5.006 17.718C9.072 22.98 7.57 23.285 6.46 23.372c-.631.044-.762.196-.762.479 0 .544 1.916 2.111 4.397 2.111 3.504 0 5.245-2.699 5.659-4.179-1.676.523-3.548.566-5.246.066zM8.505 4.96c.218-1.807 1.067-3.091 1.785-3.94.414-.5.414-.675.218-.87-.37-.37-2.851-.131-4.593 1.61-2.48 2.481-1.806 5.615-1.044 6.943A9.39 9.39 0 0 1 8.505 4.96zm8.991 16.084c-.218 1.807-1.067 3.091-1.785 3.94-.414.5-.414.675-.218.87.37.37 2.852.131 4.593-1.61 2.481-2.481 1.806-5.616 1.045-6.943-.784 1.523-2.09 2.873-3.635 3.743zM4.219 15.713a9.461 9.461 0 0 1-.065-5.223C3.022 9.053 2.717 7.552 2.63 6.44c-.043-.63-.196-.761-.479-.761C1.607 5.68.04 7.595.04 10.076c0 3.483 2.699 5.224 4.179 5.637zm17.585-5.42c.5 1.632.544 3.504.065 5.224 1.132 1.436 1.436 2.938 1.524 4.048.043.631.195.762.478.762.545 0 2.112-1.916 2.112-4.397-.022-3.482-2.721-5.223-4.18-5.637zM8.702 21.132a9.392 9.392 0 0 1-3.743-3.635c-1.807-.218-3.091-1.067-3.94-1.785-.5-.413-.675-.413-.87-.218-.37.37-.131 2.852 1.61 4.593 2.481 2.481 5.615 1.806 6.943 1.045zM17.3 4.872a9.39 9.39 0 0 1 3.743 3.634c1.807.218 3.091 1.067 3.94 1.785.5.414.675.414.87.218.37-.37.131-2.851-1.61-4.593-2.46-2.48-5.615-1.806-6.943-1.044z" fill="#F15922"/></svg>