<svg width="126" height="27" viewBox="0 0 126 27" fill="none" xmlns="http://www.w3.org/2000/svg">
<path d="M123.245 6.79025H123.615C123.811 6.79025 124.007 6.83379 124.007 7.05144C124.007 7.33439 123.789 7.33439 123.55 7.33439H123.245V6.79025ZM122.962 8.33559H123.245V7.57381H123.528L124.007 8.33559H124.312L123.811 7.55204C124.072 7.53027 124.29 7.39968 124.29 7.0732C124.29 6.72495 124.094 6.5726 123.659 6.5726H122.962V8.33559ZM122.309 7.44321C122.309 6.72496 122.853 6.15906 123.572 6.15906C124.268 6.15906 124.812 6.72496 124.812 7.44321C124.812 8.18323 124.268 8.74913 123.572 8.74913C122.853 8.74913 122.309 8.18323 122.309 7.44321ZM122.026 7.44321C122.026 8.31383 122.723 8.96679 123.55 8.96679C124.377 8.96679 125.074 8.31383 125.074 7.44321C125.074 6.59436 124.377 5.94141 123.55 5.94141C122.723 5.94141 122.026 6.59436 122.026 7.44321Z" fill="black"/>
<path d="M43.0404 10.206C42.3439 7.33303 40.2979 6.31006 39.2314 5.96181C38.7961 5.83122 38.0561 5.5918 36.9461 5.5918C33.9642 5.5918 31.5265 7.18066 30.5253 10.0102C30.0247 11.4031 30.0029 12.6655 30.0029 13.1879C30.0029 15.1468 30.4165 16.9751 31.7659 18.4769C33.0283 19.8916 34.4213 20.2181 35.1395 20.3052C35.4878 20.3705 36.0102 20.3922 36.3802 20.3922C37.7079 20.3922 39.0355 20.1528 40.015 19.2169C40.5373 18.7163 40.6897 18.281 40.755 17.998C40.7768 18.8034 41.0162 19.304 41.1685 20.1093H43.0839V12.252H36.9461V14.8421H40.4285C40.385 15.125 40.3415 15.2774 40.2979 15.4297C40.1456 15.865 39.6014 17.1057 38.2085 17.5845C38.0126 17.6498 37.5555 17.7586 37.0114 17.7586C35.3137 17.7586 34.4213 16.9098 34.0077 16.3439C33.5942 15.7562 33.1154 14.6897 33.1154 12.9702C33.1154 10.5978 33.986 9.44426 34.9001 8.83483C35.749 8.2907 36.6414 8.24717 36.9678 8.24717C38.3826 8.24717 39.5579 8.90013 39.9279 10.3149L43.0404 10.206Z" fill="black"/>
<path d="M48.9392 14.6897L50.5934 8.8348L52.2258 14.6897H48.9392ZM48.6345 5.89648L43.8896 20.1092H47.3068L48.1992 17.2362H52.9876L53.8582 20.1092H57.3406L52.6393 5.89648H48.6345Z" fill="black"/>
<path d="M61.4089 11.9034V8.59505H64.0425C64.8478 8.59505 65.2614 8.61682 65.6314 8.79094C65.9579 8.9433 66.4149 9.33507 66.4149 10.2057C66.4149 10.4233 66.3496 11.4028 65.479 11.751C65.0655 11.9251 64.6519 11.9034 63.7378 11.8816H61.4089V11.9034ZM58.2529 5.89615V20.1089H61.3871V14.4064H62.2795C63.8684 14.4064 64.6302 14.3846 65.3049 14.9505C65.762 15.3423 66.0014 15.8429 66.0884 17.0182L66.1537 18.1718C66.1973 18.6289 66.1755 19.543 66.5455 19.9348C66.6108 20.0218 66.7196 20.0654 66.7414 20.0871H69.9191C69.745 19.913 69.658 19.8042 69.5927 19.6736C69.3315 19.173 69.288 18.1936 69.2662 18.1936C69.2227 17.5188 69.1791 15.8211 69.0485 15.1464C68.7438 13.6011 67.6991 13.2746 67.0679 13.1222C67.3944 13.0352 67.8732 12.9046 68.4826 12.3605C68.7438 12.121 68.8962 11.9034 68.9832 11.7728C69.5274 10.9892 69.5709 9.9445 69.5709 9.66155C69.5709 9.24801 69.5056 8.22504 68.7438 7.31089C67.525 5.83085 65.6531 5.85262 63.9554 5.87438H58.2529V5.89615Z" fill="black"/>
<path d="M74.7744 17.3889V8.6392H76.4068C77.5821 8.6392 78.1916 8.72626 78.7139 8.96568C78.9098 9.07451 79.3016 9.29216 79.6716 9.72747C80.4116 10.6634 80.6075 11.8822 80.6075 13.014C80.6075 13.297 80.6293 15.2559 79.6063 16.3877C78.8663 17.2365 77.7563 17.3236 77.4298 17.3453C76.9074 17.3671 76.385 17.3671 75.8627 17.3671H74.7744V17.3889ZM71.5967 5.89677V20.1095H75.645C77.5821 20.1095 78.4528 20.066 79.3669 19.8048C82.3052 18.956 83.2194 16.3441 83.4805 15.3865C83.72 14.5594 83.8288 13.754 83.8288 12.8617C83.8288 9.59687 82.3705 7.87741 81.2605 7.07209C79.7151 5.9403 77.8869 5.875 76.0586 5.875H71.5967V5.89677Z" fill="black"/>
<path d="M85.3506 5.89648V20.1092H96.0591V17.4103H88.5066V13.9279H95.0144V11.3814H88.5066V8.59538H95.9068V5.89648H85.3506Z" fill="black"/>
<path d="M97.6943 5.89677V20.1095H100.611V14.8641C100.611 13.1446 100.589 11.4905 100.524 9.79276C100.741 10.4675 100.872 10.6634 101.199 11.2728C101.503 11.9258 101.852 12.5352 102.178 13.1664L106.052 20.0878H109.317V5.875H106.379V12.0564C106.379 12.6876 106.357 13.297 106.379 13.9282C106.4 14.6682 106.444 15.4082 106.509 16.1265C106.379 15.8 106.226 15.4517 106.074 15.1253C105.66 14.2329 105.16 13.384 104.703 12.557L101.003 5.89677H97.6943Z" fill="black"/>
<path d="M115.148 14.6897L116.802 8.8348L118.434 14.6897H115.148ZM114.865 5.89648L110.12 20.1092H113.537L114.43 17.2362H119.218L120.089 20.1092H123.571L118.87 5.89648H114.865Z" fill="black"/>
<path d="M13.0125 5.58984C8.92063 5.58984 5.6123 8.89817 5.6123 12.9901C5.6123 17.0819 8.92063 20.3903 13.0125 20.3903C17.1044 20.3903 20.4127 17.0819 20.4127 12.9901C20.4127 8.89817 17.1044 5.58984 13.0125 5.58984Z" fill="#F15922"/>
<path d="M15.514 4.13122C16.9505 2.99943 18.4523 2.69472 19.5623 2.60765C20.1935 2.56412 20.3241 2.41177 20.3241 2.12882C20.3241 1.58468 18.4088 0.0175781 15.9275 0.0175781C12.4233 0.0175781 10.6821 2.71648 10.2686 4.19652C11.9227 3.69592 13.7945 3.65239 15.514 4.13122Z" fill="#F15922"/>
<path d="M10.5084 21.8485C9.07187 22.9803 7.57006 23.285 6.46003 23.3721C5.82883 23.4156 5.69824 23.568 5.69824 23.8509C5.69824 24.395 7.61359 25.9621 10.0948 25.9621C13.5991 25.9621 15.3403 23.2632 15.7538 21.7832C14.0779 22.3056 12.2061 22.3491 10.5084 21.8485Z" fill="#F15922"/>
<path d="M8.50547 4.95952C8.72312 3.15299 9.57197 1.86884 10.2902 1.01999C10.7038 0.519389 10.7038 0.345266 10.5079 0.149378C10.1379 -0.220632 7.65662 0.0187849 5.91539 1.76001C3.43414 4.24126 4.10887 7.37546 4.87065 8.70315C5.67597 7.17958 6.96013 5.83013 8.50547 4.95952Z" fill="#F15922"/>
<path d="M17.4958 21.0444C17.2781 22.8509 16.4293 24.1351 15.711 24.9839C15.2975 25.4845 15.2975 25.6587 15.4934 25.8546C15.8634 26.2246 18.3446 25.9852 20.0859 24.2439C22.5671 21.7627 21.8924 18.6285 21.1306 17.3008C20.347 18.8244 19.0411 20.1738 17.4958 21.0444Z" fill="#F15922"/>
<path d="M4.21898 15.7135C3.71838 14.0811 3.67485 12.2093 4.15369 10.4898C3.02189 9.05331 2.71718 7.55151 2.63012 6.44147C2.58658 5.81028 2.43422 5.67969 2.15128 5.67969C1.60714 5.67969 0.0400391 7.59504 0.0400391 10.0763C0.0400391 13.5587 2.73894 15.3 4.21898 15.7135Z" fill="#F15922"/>
<path d="M21.8037 10.293C22.3043 11.9254 22.3478 13.7972 21.869 15.5166C23.0008 16.9532 23.3055 18.455 23.3926 19.565C23.4361 20.1962 23.5885 20.3268 23.8714 20.3268C24.4156 20.3268 25.9827 18.4114 25.9827 15.9302C25.9609 12.4477 23.262 10.7065 21.8037 10.293Z" fill="#F15922"/>
<path d="M8.70218 21.1316C7.1786 20.3262 5.82915 19.0421 4.95854 17.4968C3.15202 17.2791 1.86786 16.4303 1.01901 15.712C0.518412 15.2985 0.344289 15.2985 0.148401 15.4943C-0.221609 15.8644 0.0178113 18.3456 1.75904 20.0868C4.24028 22.5681 7.37449 21.8934 8.70218 21.1316Z" fill="#F15922"/>
<path d="M17.2998 4.87163C18.8234 5.67695 20.1728 6.9611 21.0434 8.50644C22.85 8.72409 24.1341 9.57294 24.983 10.2912C25.4836 10.7047 25.6577 10.7047 25.8536 10.5088C26.2236 10.1388 25.9842 7.65759 24.2429 5.91636C21.7835 3.43512 18.6275 4.10984 17.2998 4.87163Z" fill="#F15922"/>
</svg>
