<svg width="125" height="36" viewBox="0 0 125 36" fill="none" xmlns="http://www.w3.org/2000/svg"><g clip-path="url(#a)"><path d="M125 18a18.18 18.18 0 0 1-5.213 12.714A17.679 17.679 0 0 1 107.248 36H17.752A17.629 17.629 0 0 1 5.2 30.728 18.128 18.128 0 0 1 0 18c0-4.774 1.87-9.352 5.2-12.728A17.629 17.629 0 0 1 17.751 0h89.496a17.679 17.679 0 0 1 12.539 5.286A18.18 18.18 0 0 1 125 18z" fill="#EDBF18"/><path d="M13.615 8.793v17.591h4.697v-6.782h2.168v6.782h4.881v-6.782a9.214 9.214 0 0 0 3.536 5.513 8.983 8.983 0 0 0 6.262 1.712 9.031 9.031 0 0 0 5.79-2.963 9.274 9.274 0 0 0 2.361-6.124 9.277 9.277 0 0 0-2.273-6.16 9.036 9.036 0 0 0-5.747-3.047 8.98 8.98 0 0 0-6.286 1.62 9.208 9.208 0 0 0-3.614 5.461V8.788h-4.91v6.6h-2.168V8.793h-4.697zm16.177 8.885c0-.885.257-1.75.742-2.487a4.426 4.426 0 0 1 1.979-1.65 4.356 4.356 0 0 1 2.55-.256 4.393 4.393 0 0 1 2.26 1.223 4.493 4.493 0 0 1 1.208 2.29c.17.868.084 1.768-.25 2.586a4.461 4.461 0 0 1-1.625 2.008 4.368 4.368 0 0 1-5.57-.554 4.506 4.506 0 0 1-1.294-3.16zm68.765 8.706V8.794h4.877v7.417l.365-.274 2.979-7.144h4.611l-3.705 8.702 3.525 8.89h-5.152l-2.258-7.332-.365-.182v7.513h-4.877z" fill="#1D5CA4"/><path d="M62.863 13.007V8.793h-8.691l1.19-2.66h-12.11l-2.079 4.31h6.87l-8.767 19.424h11.75l2.169-4.402h-6.51l7.23-16.11v17.03h8.948V22.17h-3.886v-2.568h3.345v-4.214h-3.345v-2.381h3.886zm17.078 9.048a4.365 4.365 0 0 1-2.447-.752 4.456 4.456 0 0 1-1.623-2.003 4.526 4.526 0 0 1-.253-2.58 4.49 4.49 0 0 1 1.202-2.288 4.39 4.39 0 0 1 2.253-1.227 4.351 4.351 0 0 1 2.545.249 4.421 4.421 0 0 1 1.98 1.64c.487.732.748 1.595.75 2.478a4.5 4.5 0 0 1-1.29 3.16 4.377 4.377 0 0 1-3.117 1.309v.014zm15.542-9.202a3.69 3.69 0 0 1 2.035.481v-4.04a8.198 8.198 0 0 0-3.027-.732c-1.807 0-4.89 1.063-6.38 4.96v.057a9.191 9.191 0 0 0-2.19-2.937 9.045 9.045 0 0 0-3.149-1.833 8.958 8.958 0 0 0-7.09.6 9.105 9.105 0 0 0-2.807 2.337 9.248 9.248 0 0 0-1.678 3.265 9.328 9.328 0 0 0 .879 7.16h-3.16V8.793H64.04v17.591h8.492v-3.492a9.102 9.102 0 0 0 3.608 3.054 8.961 8.961 0 0 0 9.041-.834 9.169 9.169 0 0 0 3.006-3.663v.096a7.117 7.117 0 0 0 2.415 3.578 6.958 6.958 0 0 0 4.014 1.492c1.627 0 2.395-.365 2.893-1.005v-4.036c-.18.322-1.423.731-1.67.731-.246 0-3.32.323-3.344-4.536-.024-4.858 2.529-4.853 2.98-4.901" fill="#1D5CA4"/></g><defs><clipPath id="a"><path fill="#fff" d="M0 0h125v36H0z"/></clipPath></defs></svg>