<svg width="125" height="36" viewBox="0 0 125 36" fill="none" xmlns="http://www.w3.org/2000/svg">
<g clip-path="url(#clip0_18_9605)">
<path d="M125 18C124.987 22.77 123.113 27.341 119.787 30.7139C116.46 34.0868 111.952 35.9873 107.248 36H17.7521C13.0439 36 8.52863 34.1036 5.19947 30.7279C1.8703 27.3523 0 22.7739 0 18C0 13.2261 1.8703 8.64773 5.19947 5.27208C8.52863 1.89642 13.0439 7.11366e-08 17.7521 0H107.248C111.952 0.0126963 116.46 1.9132 119.787 5.2861C123.113 8.65901 124.987 13.23 125 18Z" fill="#EDBF18"/>
<path d="M13.6154 8.79318V26.3843H18.3119V19.6018H20.4799V26.3843H25.3615V19.6018C25.8301 21.8184 27.0892 23.7815 28.8972 25.1149C30.7052 26.4482 32.935 27.058 35.159 26.8272C37.3831 26.5965 39.4449 25.5415 40.9491 23.8644C42.4533 22.1874 43.2941 20.0064 43.3103 17.7396C43.3265 15.4728 42.5169 13.2797 41.0368 11.5808C39.5566 9.88183 37.5101 8.79665 35.2896 8.53329C33.0691 8.26992 30.8308 8.84689 29.004 10.1536C27.1771 11.4603 25.8902 13.4047 25.39 15.6141V8.78837H20.4799V15.388H18.3119V8.79318H13.6154ZM29.7924 17.6777C29.7915 16.7927 30.0495 15.9274 30.5337 15.1911C31.0179 14.4548 31.7066 13.8806 32.5127 13.5413C33.3188 13.202 34.206 13.1127 35.0622 13.2848C35.9183 13.4568 36.7049 13.8825 37.3224 14.5079C37.9399 15.1334 38.3606 15.9305 38.5312 16.7984C38.7018 17.6663 38.6147 18.566 38.2809 19.3838C37.9471 20.2015 37.3816 20.9004 36.656 21.3922C35.9304 21.884 35.0772 22.1465 34.2044 22.1465C33.0351 22.1465 31.9136 21.6758 31.0863 20.8379C30.2591 20 29.7937 18.8634 29.7924 17.6777Z" fill="#1D5CA4"/>
<path d="M98.5569 26.3843V8.79321H103.434V16.2106L103.799 15.9365L106.778 8.79321H111.389L107.684 17.495L111.209 26.3843H106.057L103.799 19.0535L103.434 18.8707V26.3843H98.5569Z" fill="#1D5CA4"/>
<path d="M62.8629 13.0069V8.79313H54.1718L55.3626 6.13306H43.2511L41.1732 10.4431H48.0426L39.2756 29.8669H51.0266L53.1946 25.4655H46.6858L53.9157 9.35593V26.3843H62.8629V22.1705H58.9775V19.6018H62.3221V15.388H58.9775V13.0069H62.8629Z" fill="#1D5CA4"/>
<path d="M79.9414 22.0552C79.0703 22.0551 78.2188 21.7934 77.4943 21.303C76.7699 20.8126 76.205 20.1156 75.871 19.2998C75.537 18.4841 75.4489 17.5864 75.6178 16.7199C75.7867 15.8535 76.2051 15.0572 76.82 14.4316C77.4349 13.8061 78.2189 13.3794 79.0729 13.2053C79.9268 13.0313 80.8125 13.1177 81.6181 13.4537C82.4236 13.7897 83.1129 14.3603 83.5989 15.0932C84.0849 15.8262 84.3457 16.6888 84.3485 17.572C84.3485 18.7572 83.8842 19.8938 83.0577 20.7319C82.2312 21.5699 81.1102 22.0407 79.9414 22.0407V22.0552ZM95.4827 12.8531C96.1925 12.8138 96.8985 12.9806 97.5179 13.3341V9.29353C96.5636 8.85836 95.5366 8.61027 94.4913 8.56237C92.6838 8.56237 89.6002 9.62544 88.1105 13.5217V13.5795C87.5836 12.4607 86.8391 11.4614 85.9218 10.6416C85.0044 9.82179 83.9332 9.19843 82.7723 8.80892C81.6114 8.41941 80.3849 8.27178 79.1664 8.3749C77.9479 8.47802 76.7624 8.82977 75.6813 9.40901C74.6002 9.98826 73.6457 10.7831 72.875 11.7457C72.1044 12.7083 71.5336 13.8189 71.1968 15.0108C70.8601 16.2027 70.7644 17.4514 70.9154 18.6817C71.0665 19.9121 71.4611 21.0988 72.0758 22.1706H68.9163V8.79326H64.0394V26.3844H72.5312V22.8921C73.4485 24.2137 74.693 25.2669 76.1393 25.9456C77.5857 26.6243 79.1829 26.9046 80.7702 26.7583C82.3574 26.612 83.8786 26.0442 85.1805 25.1122C86.4825 24.1801 87.5193 22.9167 88.1865 21.4491V21.5453C88.6046 22.9634 89.4486 24.2139 90.6008 25.1227C91.7531 26.0315 93.1561 26.5532 94.6146 26.6153C96.2418 26.6153 97.0103 26.2497 97.5084 25.6099V21.5741C97.3282 21.8964 96.0852 22.3053 95.8386 22.3053C95.5919 22.3053 92.5177 22.6276 92.494 17.7692C92.4703 12.9108 95.0226 12.9157 95.4733 12.8676" fill="#1D5CA4"/>
</g>
<defs>
<clipPath id="clip0_18_9605">
<rect width="125" height="36" fill="white"/>
</clipPath>
</defs>
</svg>
