<svg width="134" height="40" viewBox="0 0 134 40" fill="none" xmlns="http://www.w3.org/2000/svg">
<path d="M51.1298 16.0913H48.2342V22.9656C48.2342 24.9085 47.436 25.897 45.8047 25.897C45.1697 25.897 44.7036 25.6513 44.3715 25.3256C43.952 24.9142 43.7539 24.2285 43.7539 23.2399V16.0913H40.8759V23.4742C40.8759 25.097 41.2546 26.2627 42.0352 27.0285C42.781 27.7599 43.6899 28.1142 45.193 28.1142C46.2417 28.1142 47.5351 27.4113 48.2692 26.4856V27.7999H51.1298V16.0913Z" fill="#273A60"/>
<path d="M90.8402 25.8058C90.8228 25.8058 90.8111 25.8058 90.7936 25.8058C89.7158 25.7887 88.7895 25.4058 88.7079 24.5201C88.6322 23.6401 89.1507 23.0058 90.5198 22.7772C90.8752 22.7087 91.2481 22.6744 91.6035 22.623C92.1453 22.543 92.7862 22.3944 93.3396 22.0287V23.823C93.3396 25.2572 91.9064 25.8058 90.8402 25.8058ZM91.6442 15.783C91.6326 15.783 91.6209 15.783 91.6035 15.783C89.8906 15.7887 87.0008 16.1315 86.6688 19.3258H89.5643C89.5294 18.063 90.9218 17.9658 91.3413 17.9658C91.417 17.9658 91.4578 17.9658 91.4578 17.9658C92.0695 17.9658 92.6347 18.1544 93.0425 18.4744C93.293 18.6744 93.462 18.9772 93.4853 19.4687C93.5144 20.263 93.1299 20.6458 90.4149 20.903C88.3234 21.103 85.824 21.6572 85.824 24.6115C85.824 25.5544 86.1561 26.3715 86.7736 26.9772C87.5252 27.7144 88.6555 28.1201 89.9605 28.1201C91.685 28.1201 92.6871 27.6972 93.5727 26.7201L93.7125 27.8058H96.4915V27.3658C96.1303 27.0915 96.2119 25.9258 96.2119 25.9258V19.2515C96.2119 18.3772 95.9148 17.6401 95.3263 17.063C94.5107 16.2515 93.3338 15.783 91.6442 15.783Z" fill="#273A60"/>
<path d="M68.9984 25.8001C68.1827 25.8001 67.6525 25.5487 67.1457 25.0458C66.4582 24.3715 66.0795 23.2687 66.0795 21.9372C66.0795 20.6687 66.4931 19.5372 67.2156 18.8287C67.7399 18.3144 68.2468 18.0572 68.9984 18.0572C70.6879 18.0572 71.5735 19.1201 71.8357 21.0458C71.8764 21.3372 71.8881 22.4001 71.8706 22.6001C71.6842 24.6687 70.7811 25.8001 68.9984 25.8001ZM68.6488 15.783C65.2056 15.783 63.2014 18.1658 63.2014 22.0115C63.2014 23.9715 63.8365 25.7144 64.9376 26.8001C65.829 27.6744 66.8369 28.1144 68.2177 28.1144C69.7849 28.1144 70.9268 27.4115 71.8007 26.3601V30.983L74.7021 30.9772V16.103L71.958 16.0915V17.5601C71.2064 16.5544 70.1752 15.783 68.6488 15.783Z" fill="#273A60"/>
<path d="M39.2154 12.1772H36.0752V18.1601H29.4917V12.1772H26.3514V27.8058H29.4917V20.8572H36.0752V27.8058H39.2154V12.1772Z" fill="#273A60"/>
<path d="M57.4278 15.783C57.3928 15.783 57.352 15.783 57.3171 15.783C55.0973 15.8115 52.4581 16.6744 52.4581 19.2001C52.4581 21.5772 54.1302 22.2972 56.146 22.7201C56.414 22.783 56.6878 22.8401 56.9558 22.8972C58.459 23.2058 59.5892 23.4972 59.6125 24.4744C59.6358 25.4458 58.7969 25.8287 57.5559 25.863C57.521 25.863 57.486 25.863 57.4511 25.863C56.2625 25.863 55.342 25.3373 55.1731 24.3144H52.26C52.394 27.2115 55.2954 28.1258 57.3753 28.1258C57.4219 28.1258 57.4744 28.1258 57.521 28.1258C59.6184 28.0858 60.568 27.5944 61.506 26.6744C62.1644 26.0344 62.4964 25.2172 62.4964 24.2515C62.4964 21.9658 60.7311 21.2172 58.7153 20.7487L58.0861 20.6058C56.5247 20.303 55.2371 20.0001 55.3129 19.1144C55.3828 18.2287 56.3674 18.0344 57.1364 18.0115C57.1889 18.0115 57.2355 18.0115 57.2879 18.0115C57.9871 18.0115 58.5755 18.1715 59.0066 19.0115H62.0071C61.7041 16.7715 59.6417 15.783 57.4278 15.783Z" fill="#273A60"/>
<path d="M86.5932 16.0913H83.5985L81.0351 25.1027L78.3784 16.0913H75.2498L79.3921 27.8056H82.4916L86.5932 16.0913Z" fill="#273A60"/>
<path d="M103.71 15.6687C103.518 15.6687 103.302 15.6801 103.087 15.7144C102.149 15.8516 101.03 16.8973 100.547 18.143V16.0973H97.8199V27.8116H100.716V22.2173C100.716 20.943 100.797 19.983 101.397 19.2287C101.84 18.6687 102.621 18.1144 103.401 18.1144C103.413 18.1144 103.43 18.1144 103.448 18.1144C104.24 18.1373 104.701 18.2973 104.701 18.2973V15.7658C104.695 15.7658 104.269 15.6687 103.71 15.6687Z" fill="#273A60"/>
<path d="M111.791 15.783C110.375 15.783 109.309 16.5201 108.453 17.8458V16.0915H105.726V27.8058H108.604V20.8972C108.604 20.0515 108.79 19.2744 109.326 18.7487C109.787 18.2915 110.445 18.0344 111.237 18.0344C111.261 18.0344 111.29 18.0344 111.313 18.0344C112.642 18.0572 113.09 18.8058 113.143 20.4858V27.8115H116.026V19.8001C116.026 18.5715 115.665 17.5944 114.949 16.8972C114.197 16.1658 113.148 15.783 111.791 15.783Z" fill="#273A60"/>
<path d="M121.946 25.8114C121.928 25.8114 121.917 25.8114 121.899 25.8114C120.822 25.7943 119.895 25.4057 119.819 24.5257C119.744 23.6457 120.262 23.0114 121.631 22.7829C121.987 22.7143 122.36 22.68 122.715 22.6286C123.257 22.5486 123.898 22.4 124.451 22.04V23.8286C124.445 25.2571 123.018 25.8114 121.946 25.8114ZM122.558 15.7886H122.523C120.81 15.7943 117.92 16.1429 117.588 19.3314H120.484C120.449 18.0629 121.841 17.9714 122.255 17.9714C122.33 17.9714 122.371 17.9771 122.371 17.9771C122.989 17.9771 123.746 18.1657 124.154 18.4914C124.405 18.6914 124.574 18.9886 124.591 19.4857C124.62 20.28 124.236 20.6571 121.521 20.9143C119.429 21.1143 116.93 21.6743 116.93 24.6229C116.93 25.5657 117.256 26.3829 117.874 26.9886C118.625 27.72 119.755 28.1314 121.06 28.1314C122.785 28.1314 123.781 27.7029 124.673 26.7314L124.812 27.8171H127.591V27.3771C127.23 27.0971 127.312 25.9371 127.312 25.9371V19.2571C127.312 18.3771 127.015 17.64 126.426 17.0686C125.616 16.2629 124.253 15.7886 122.558 15.7886Z" fill="#273A60"/>
<path d="M129.071 15.8285C128.226 15.8285 127.539 15.1542 127.539 14.3256C127.539 13.497 128.226 12.8228 129.071 12.8228C129.916 12.8228 130.603 13.497 130.603 14.3256C130.603 15.1542 129.916 15.8285 129.071 15.8285ZM129.071 13.0113C128.325 13.0113 127.725 13.5999 127.725 14.3313C127.725 15.0628 128.325 15.6513 129.071 15.6513C129.817 15.6513 130.417 15.0628 130.417 14.3313C130.411 13.5942 129.811 13.0113 129.071 13.0113ZM129.665 13.9713C129.665 14.1256 129.59 14.2628 129.461 14.337C129.386 14.3828 129.304 14.3999 129.188 14.417C129.409 14.497 129.467 14.5485 129.724 15.1313H129.479C129.205 14.5485 129.141 14.4456 128.739 14.4456H128.646V15.1313H128.442V13.5542H129.112C129.665 13.5542 129.665 13.9256 129.665 13.9713ZM128.652 14.2799H128.92C129.182 14.2799 129.432 14.257 129.432 13.9885C129.432 13.7313 129.223 13.7142 128.955 13.7142H128.652V14.2799Z" fill="#273A60"/>
<path d="M13.4407 8.53711C14.4254 8.53711 15.072 8.70854 15.3459 8.76568C15.2119 10.0057 15.2468 11 15.3459 11.2857C15.6721 12.24 17.5481 12.6857 18.2997 12.2457C19.1328 11.7485 18.9406 10.2457 18.9406 9.25139C18.9406 9.25139 20.1699 9.53711 20.9214 9.81711C21.5332 10.04 22.4362 10.4857 22.4362 10.4857C22.6168 11.7428 22.442 13.6 21.1894 14.2285C22.1391 15.1657 22.4595 16.2685 22.8615 18.3085C23.1878 20.1371 23.112 21.4171 23.0946 22.4857C22.9955 23.9371 22.9955 24.72 22.6518 26.0342C22.1507 27.5428 21.8536 28.2514 20.834 29.2971C18.7658 31.4228 15.3925 31.3028 13.4524 31.2971C11.5123 31.2971 8.139 31.4228 6.07074 29.2971C5.05118 28.2514 4.75405 27.5428 4.253 26.0342C3.90344 24.72 3.90344 23.9371 3.81022 22.4857C3.79274 21.4171 3.71118 20.1371 4.04326 18.3085C4.45109 16.2685 4.7657 15.16 5.71535 14.2285C4.45692 13.6 4.28796 11.7428 4.46857 10.4857C4.46857 10.4857 5.37161 10.0457 5.98335 9.81711C6.73492 9.53711 7.96422 9.25139 7.96422 9.25139C7.96422 10.2457 7.77196 11.7485 8.60509 12.2457C9.36248 12.6857 11.2327 12.24 11.5589 11.2857C11.658 11 11.6929 10.0057 11.5589 8.76568C11.8094 8.70854 12.4503 8.53711 13.4407 8.53711ZM13.4349 28.5714C15.7013 28.5714 16.4237 28.5714 17.5423 28.2685C17.9327 28.1371 18.626 27.9428 19.1328 27.16C20.065 25.5942 20.065 22.6571 20.065 21.2457C20.065 19.8342 20.065 17.3371 19.1328 15.7885C18.6318 14.9885 17.9385 14.7657 17.5423 14.6628C16.3946 14.3657 15.6605 14.3828 13.4349 14.3771C11.2094 14.3828 10.4694 14.3657 9.32753 14.6628C8.93135 14.7657 8.24387 14.9885 7.737 15.7885C6.81066 17.3314 6.81066 19.8342 6.81066 21.2457C6.81066 22.6571 6.81066 25.5942 7.737 27.16C8.23805 27.9428 8.93718 28.1314 9.32753 28.2685C10.452 28.5714 11.1744 28.5714 13.4349 28.5714Z" fill="#273A60"/>
<path d="M13.4408 22.2458C15.3751 22.2458 15.3343 22.2458 15.3343 22.8572V26.7029H17.9677V16.0515H15.3343V19.2458C15.3343 19.8744 15.3751 19.8744 13.4408 19.8744C11.5065 19.8744 11.5473 19.8744 11.5473 19.2458V16.0515H8.91394V26.6972H11.5473V22.8572C11.5473 22.2458 11.5065 22.2458 13.4408 22.2458Z" fill="#273A60"/>
</svg>
