<svg width="134" height="40" viewBox="0 0 134 40" fill="none" xmlns="http://www.w3.org/2000/svg"><path d="M51.13 16.091h-2.896v6.875c0 1.942-.798 2.931-2.43 2.931a1.98 1.98 0 0 1-1.433-.571c-.419-.412-.617-1.098-.617-2.086v-7.15h-2.878v7.383c0 1.623.379 2.789 1.16 3.555.745.73 1.654 1.085 3.157 1.085 1.049 0 2.342-.703 3.076-1.628V27.8h2.86V16.09zm39.71 9.715h-.046c-1.078-.017-2.004-.4-2.086-1.286-.076-.88.443-1.514 1.812-1.743.355-.068.728-.103 1.084-.154.541-.08 1.182-.229 1.736-.594v1.794c0 1.434-1.434 1.983-2.5 1.983zm.804-10.023h-.04c-1.713.006-4.603.348-4.935 3.543h2.895c-.035-1.263 1.358-1.36 1.777-1.36h.117c.612 0 1.177.188 1.585.508.25.2.419.503.442.995.03.794-.355 1.177-3.07 1.434-2.092.2-4.591.754-4.591 3.709 0 .942.332 1.76.95 2.365.751.737 1.882 1.143 3.186 1.143 1.725 0 2.727-.423 3.613-1.4l.14 1.086h2.779v-.44c-.362-.274-.28-1.44-.28-1.44v-6.674c0-.875-.297-1.612-.886-2.189-.815-.811-1.992-1.28-3.682-1.28zM68.998 25.8c-.815 0-1.346-.251-1.852-.754-.688-.674-1.067-1.777-1.067-3.109 0-1.268.414-2.4 1.137-3.108.524-.515 1.03-.772 1.782-.772 1.69 0 2.575 1.063 2.838 2.989.04.291.052 1.354.035 1.554-.187 2.069-1.09 3.2-2.873 3.2zm-.35-10.017c-3.442 0-5.447 2.383-5.447 6.229 0 1.96.636 3.702 1.737 4.788.891.874 1.899 1.314 3.28 1.314 1.567 0 2.709-.703 3.583-1.754v4.623l2.901-.006V16.103l-2.744-.012v1.47c-.752-1.007-1.783-1.778-3.31-1.778zm-29.433-3.606h-3.14v5.983h-6.583v-5.983h-3.14v15.629h3.14v-6.949h6.583v6.949h3.14V12.177zm18.213 3.606h-.11c-2.22.029-4.86.891-4.86 3.417 0 2.377 1.672 3.097 3.688 3.52.268.063.542.12.81.177 1.503.309 2.633.6 2.656 1.577.024.972-.815 1.355-2.056 1.389h-.105c-1.188 0-2.109-.526-2.278-1.549H52.26c.134 2.898 3.035 3.812 5.115 3.812h.146c2.097-.04 3.047-.532 3.985-1.452.658-.64.99-1.457.99-2.422 0-2.286-1.765-3.035-3.78-3.503l-.63-.143c-1.561-.303-2.849-.606-2.773-1.492.07-.885 1.054-1.08 1.823-1.102h.152c.7 0 1.288.16 1.719 1h3c-.303-2.24-2.365-3.229-4.58-3.229zm29.165.308h-2.995l-2.563 9.012-2.657-9.012H75.25l4.142 11.715h3.1l4.101-11.715zm17.117-.422c-.192 0-.408.011-.623.045-.938.138-2.057 1.183-2.54 2.429v-2.046H97.82v11.715h2.896v-5.595c0-1.274.081-2.234.681-2.988.443-.56 1.224-1.115 2.004-1.115h.047c.792.023 1.253.183 1.253.183v-2.531c-.006 0-.432-.097-.991-.097zm8.081.114c-1.416 0-2.482.737-3.338 2.063V16.09h-2.727v11.715h2.878v-6.909c0-.845.186-1.623.722-2.148.461-.457 1.119-.715 1.911-.715h.076c1.329.023 1.777.772 1.83 2.452v7.325h2.883V19.8c0-1.23-.361-2.207-1.077-2.904-.752-.731-1.801-1.114-3.158-1.114zm10.155 10.028h-.047c-1.077-.017-2.004-.405-2.08-1.285-.075-.88.443-1.515 1.812-1.743.356-.069.729-.103 1.084-.154.542-.08 1.183-.229 1.736-.589v1.789c-.006 1.428-1.433 1.982-2.505 1.982zm.612-10.022h-.035c-1.713.005-4.603.354-4.935 3.542h2.896c-.035-1.268 1.357-1.36 1.771-1.36.075 0 .116.006.116.006.618 0 1.375.189 1.783.514.251.2.42.498.437.995.029.794-.355 1.171-3.07 1.428-2.092.2-4.591.76-4.591 3.709 0 .943.326 1.76.944 2.366.751.731 1.881 1.142 3.186 1.142 1.725 0 2.721-.428 3.613-1.4l.139 1.086h2.779v-.44c-.361-.28-.279-1.44-.279-1.44v-6.68c0-.88-.297-1.617-.886-2.188-.81-.806-2.173-1.28-3.868-1.28zm6.513.04c-.845 0-1.532-.675-1.532-1.503 0-.829.687-1.503 1.532-1.503s1.532.674 1.532 1.503c0 .828-.687 1.502-1.532 1.502zm0-2.818a1.33 1.33 0 0 0-1.346 1.32c0 .732.6 1.32 1.346 1.32a1.33 1.33 0 0 0 1.346-1.32 1.334 1.334 0 0 0-1.346-1.32zm.594.96a.414.414 0 0 1-.204.366.693.693 0 0 1-.273.08c.221.08.279.132.536.714h-.245c-.274-.582-.338-.685-.74-.685h-.093v.685h-.204v-1.577h.67c.553 0 .553.372.553.417zm-1.013.309h.268c.262 0 .512-.023.512-.291 0-.258-.209-.275-.477-.275h-.303v.566zM13.44 8.537c.985 0 1.632.172 1.906.229-.134 1.24-.1 2.234 0 2.52.326.954 2.202 1.4 2.954.96.833-.498.64-2 .64-2.995 0 0 1.23.286 1.981.566.612.223 1.515.669 1.515.669.18 1.257.006 3.114-1.247 3.742.95.938 1.27 2.04 1.672 4.08.327 1.83.251 3.11.234 4.178-.1 1.451-.1 2.234-.443 3.548-.501 1.509-.798 2.217-1.818 3.263-2.068 2.126-5.441 2.006-7.382 2-1.94 0-5.313.126-7.381-2-1.02-1.046-1.317-1.754-1.818-3.263-.35-1.314-.35-2.097-.443-3.548-.017-1.069-.099-2.349.233-4.178.408-2.04.723-3.148 1.672-4.08-1.258-.628-1.427-2.485-1.246-3.742 0 0 .903-.44 1.514-.669.752-.28 1.981-.566 1.981-.566 0 .995-.192 2.498.641 2.995.757.44 2.628-.006 2.954-.96.099-.286.134-1.28 0-2.52.25-.057.891-.229 1.882-.229zm-.005 20.034c2.266 0 2.989 0 4.107-.303.39-.13 1.084-.325 1.59-1.108.933-1.566.933-4.503.933-5.914 0-1.412 0-3.909-.932-5.457-.501-.8-1.194-1.023-1.59-1.126-1.148-.297-1.882-.28-4.108-.286-2.226.006-2.966-.011-4.107.286-.397.103-1.084.325-1.591 1.126-.926 1.542-.926 4.045-.926 5.457 0 1.411 0 4.348.926 5.914.501.783 1.2.971 1.59 1.108 1.125.303 1.847.303 4.108.303z" fill="#273A60"/><path d="M13.44 22.246c1.935 0 1.894 0 1.894.611v3.846h2.634V16.052h-2.634v3.194c0 .628.041.628-1.893.628s-1.894 0-1.894-.628v-3.194H8.914v10.645h2.633v-3.84c0-.611-.04-.611 1.894-.611z" fill="#273A60"/></svg>