<svg width="84" height="71" viewBox="0 0 84 71" fill="none" xmlns="http://www.w3.org/2000/svg"><path d="M82.231 34.565H72.62a12.412 12.412 0 0 0 1.211-5.377v-1.162c0-1.032-.791-1.869-1.768-1.869h-5.394a12.184 12.184 0 0 0 1.922-4.147c.78-3.075.379-6.286-1.127-9.041l-.55-1.008a1.785 1.785 0 0 0-1.074-.87 1.684 1.684 0 0 0-1.342.186l-4.67 2.85c.184-1.522.088-3.08-.299-4.607-.78-3.074-2.647-5.644-5.255-7.235l-.952-.58a1.686 1.686 0 0 0-1.342-.188c-.453.128-.84.441-1.074.87l-2.697 4.936A11.982 11.982 0 0 0 45.77 3.49C43.638 1.24 40.806 0 37.795 0h-1.1c-.977 0-1.768.837-1.768 1.868v5.708c-3.511-2.824-8.43-3.32-12.486-.847l-.952.58c-.845.517-1.134 1.659-.646 2.552l2.697 4.935a10.68 10.68 0 0 0-4.361.315c-2.91.824-5.343 2.796-6.849 5.553l-.55 1.005a1.96 1.96 0 0 0-.177 1.418c.121.479.418.887.824 1.135l4.672 2.85a11.268 11.268 0 0 0-3.628 2.576 11.991 11.991 0 0 0-2.803 4.917h-8.9c-.976 0-1.768.837-1.768 1.869v9.342c0 1.032.792 1.868 1.768 1.868h2.21v21.488c0 1.031.793 1.868 1.77 1.868h72.504c.977 0 1.769-.837 1.769-1.868V47.644h2.21c.977 0 1.769-.837 1.769-1.868v-9.343c0-1.031-.792-1.868-1.769-1.868zm-66.26-2.275c1.465-1.545 3.41-2.396 5.476-2.396.81 0 1.515-.58 1.714-1.409.02-.085.043-.17.064-.253l.03-.113c.21-.818-.128-1.683-.822-2.107l-6.682-4.077c1.042-1.58 2.562-2.71 4.343-3.215a7.334 7.334 0 0 1 5.848.801 1.7 1.7 0 0 0 2.179-.29c.08-.086.162-.17.25-.262.576-.597.697-1.53.293-2.268l-3.86-7.065c3.583-1.77 7.925-.39 9.957 3.275.12.233.285.44.49.603a1.694 1.694 0 0 0 1.547.309l.354-.102c.773-.218 1.311-.959 1.311-1.805v-8.15c1.815.163 3.502.989 4.806 2.365 1.463 1.547 2.268 3.601 2.268 5.785 0 .846.538 1.586 1.312 1.805.115.033.231.065.346.1.78.235 1.611-.12 2.017-.862L53.07 5.9c1.496 1.1 2.566 2.706 3.043 4.587a8.528 8.528 0 0 1-.773 6.207 1.947 1.947 0 0 0 .29 2.275c.083.087.165.173.247.262a1.699 1.699 0 0 0 2.147.31l6.687-4.079a8.54 8.54 0 0 1 .463 5.581c-.535 2.11-1.816 3.874-3.606 4.967a1.795 1.795 0 0 0-.368.299 1.942 1.942 0 0 0-.45 1.833l.095.368c.207.816.908 1.384 1.708 1.384h7.714a8.352 8.352 0 0 1-1.879 4.671H53.903c.022-.31.034-.622.034-.934 0-6.954-5.355-12.612-11.937-12.612-6.582 0-11.937 5.658-11.937 12.612 0 .312.012.624.034.934H14.449a8.207 8.207 0 0 1 1.523-2.275zM50.4 33.631c0 .313-.015.625-.046.934H33.646a9.529 9.529 0 0 1-.046-.934c0-4.894 3.768-8.875 8.4-8.875 4.632 0 8.4 3.981 8.4 8.875zm26.084 25.682h-8.819c-.977 0-1.768.836-1.768 1.868s.791 1.868 1.768 1.868h8.819v4.214H7.516V55.595h8.818c.977 0 1.769-.837 1.769-1.868 0-1.032-.792-1.869-1.769-1.869H7.516v-4.213h68.968v11.668zm3.979-15.406H3.537v-5.605h76.926v5.605z" fill="#A9A9A9"/></svg>