<svg width="84" height="71" viewBox="0 0 84 71" fill="none" xmlns="http://www.w3.org/2000/svg">
<path d="M82.2314 34.5651H72.62C73.4101 32.9177 73.8314 31.0872 73.8314 29.1878V28.0255C73.8314 26.9936 73.0397 26.1571 72.063 26.1571H66.6686C67.549 24.9378 68.2036 23.5359 68.5906 22.0099C69.3701 18.9354 68.9699 15.7245 67.4639 12.9686L66.9139 11.9615C66.6795 11.5323 66.2933 11.2189 65.8401 11.0906C65.3867 10.962 64.9042 11.0292 64.4979 11.2773L59.8271 14.1265C60.0125 12.6054 59.916 11.0461 59.529 9.52032C58.749 6.44563 56.8823 3.87604 54.2737 2.28531L53.3223 1.70427C52.9163 1.45622 52.4333 1.38897 51.9803 1.51707C51.527 1.64516 51.1406 1.95839 50.906 2.38758L48.2085 7.32307C47.6492 5.9081 46.8276 4.60771 45.7701 3.48932C43.6382 1.2392 40.8059 1.32247e-07 37.795 1.32247e-07H36.6951C35.7185 1.32247e-07 34.9267 0.836536 34.9267 1.86843V7.57597C31.4156 4.7521 26.4967 4.25548 22.4408 6.72852L21.4894 7.30955C20.6443 7.82575 20.3549 8.96789 20.843 9.86128L23.5396 14.7963C22.1 14.6004 20.6233 14.7023 19.179 15.1112C16.2684 15.9353 13.8357 17.9075 12.3301 20.6636L11.7802 21.6688C11.5454 22.0978 11.4817 22.6081 11.603 23.0867C11.7242 23.5657 12.0207 23.9739 12.4269 24.2218L17.0989 27.0723C15.76 27.6632 14.5295 28.5313 13.4711 29.6483C12.1542 31.0416 11.2022 32.7201 10.6675 34.5653H1.76875C0.791764 34.5653 0 35.4018 0 36.4337V45.7758C0 46.8077 0.791764 47.6442 1.76843 47.6442H3.97884V69.1316C3.97884 70.1635 4.7706 71 5.74726 71H78.2524C79.2291 71 80.0208 70.1635 80.0208 69.1316V47.6441H82.2316C83.2082 47.6441 84 46.8075 84 45.7756V36.4335C83.9998 35.4016 83.2081 34.5651 82.2314 34.5651ZM15.9718 32.2902C17.4357 30.745 19.3802 29.8939 21.4472 29.8939C22.2562 29.8939 22.9621 29.3138 23.1613 28.4852C23.1817 28.4004 23.2038 28.3157 23.2255 28.2318L23.2548 28.1188C23.465 27.3006 23.1274 26.4355 22.4326 26.0117L15.7514 21.9351C16.7929 20.3547 18.3129 19.2246 20.094 18.7203C22.0818 18.1576 24.1577 18.4423 25.9423 19.5213C26.6407 19.9684 27.5437 19.8531 28.1209 19.2318C28.2011 19.1455 28.283 19.0607 28.3714 18.9691C28.9471 18.3722 29.0677 17.4392 28.6643 16.7013L24.8039 9.63646C28.3872 7.86562 32.7294 9.24662 34.7615 12.9114C34.8803 13.144 35.0458 13.3504 35.2507 13.5142C35.6924 13.8673 36.2646 13.9816 36.7982 13.8228C36.9161 13.7876 37.0341 13.7543 37.1519 13.7212C37.9254 13.5026 38.4634 12.7621 38.4634 11.9164V3.76615C40.2784 3.92926 41.9651 4.75487 43.2691 6.13101C44.7316 7.6779 45.5371 9.73232 45.5371 11.9162C45.5371 12.7621 46.0751 13.5024 46.8486 13.721C46.9644 13.7538 47.0803 13.7864 47.1945 13.821C47.9746 14.0564 48.8064 13.7013 49.2121 12.959L53.0705 5.90013C54.5663 7.00048 55.6359 8.60613 56.1132 10.4872C56.6484 12.5974 56.3737 14.8016 55.3396 16.6936C55.3219 16.7259 55.3016 16.7663 55.2858 16.7997C54.9428 17.5248 55.0813 18.4012 55.6289 18.9689C55.7127 19.0557 55.7948 19.1424 55.877 19.231C56.4418 19.8397 57.3251 19.9673 58.024 19.5411L64.7106 15.4624C65.4849 17.2055 65.6518 19.1615 65.1745 21.0431C64.6394 23.1535 63.3585 24.9172 61.5678 26.0098C61.4339 26.0914 61.3091 26.193 61.1998 26.3086C60.746 26.7882 60.5736 27.4901 60.7498 28.1422C60.7813 28.2588 60.8111 28.3767 60.8449 28.5098C61.0521 29.3264 61.7528 29.8941 62.553 29.8941H70.2669C70.1274 31.628 69.4749 33.2514 68.388 34.5651H53.9031C53.9248 34.2548 53.9368 33.9431 53.9368 33.631C53.9368 26.6768 48.5819 21.0191 41.9999 21.0191C35.4179 21.0191 30.0631 26.6768 30.0631 33.631C30.0631 33.9431 30.0751 34.2548 30.0967 34.5651H14.4494C14.825 33.7294 15.3372 32.9619 15.9718 32.2902ZM50.3999 33.631C50.3999 33.9438 50.3845 34.2557 50.3538 34.5651H33.6459C33.6154 34.2555 33.5999 33.9437 33.5999 33.631C33.5999 28.7374 37.3683 24.756 41.9999 24.756C46.6316 24.756 50.3999 28.7374 50.3999 33.631ZM76.4838 59.3126H67.665C66.6883 59.3126 65.8966 60.1491 65.8966 61.181C65.8966 62.2129 66.6883 63.0494 67.665 63.0494H76.4838V67.263H7.51552V55.595H16.3342C17.3109 55.595 18.1026 54.7584 18.1026 53.7265C18.1026 52.6947 17.3109 51.8581 16.3342 51.8581H7.51552V47.6446H76.4838V59.3126ZM80.463 43.9072H3.53685V38.3019H80.463V43.9072Z" fill="#A9A9A9"/>
</svg>
