<svg width="84" height="65" viewBox="0 0 84 65" fill="none" xmlns="http://www.w3.org/2000/svg">
<path fill-rule="evenodd" clip-rule="evenodd" d="M23.6923 31.9614H10.2307C9.24354 31.9614 8.43584 32.7694 8.43584 33.757V43.094C8.43584 44.0816 9.24354 44.8896 10.2307 44.8896H23.6923C24.6794 44.8896 25.4871 44.0816 25.4871 43.094V33.757C25.4871 32.7694 24.6794 31.9614 23.6923 31.9614ZM21.8974 41.2984H12.0256V35.5526H21.8974V41.2984Z" fill="#A9A9A9"/>
<path fill-rule="evenodd" clip-rule="evenodd" d="M60.3075 31.9614H73.769C74.7562 31.9614 75.5639 32.7694 75.5639 33.757V43.094C75.5639 44.0816 74.7562 44.8896 73.769 44.8896H60.3075C59.3203 44.8896 58.5126 44.0816 58.5126 43.094V33.757C58.5126 32.7694 59.3203 31.9614 60.3075 31.9614ZM62.1023 41.2984H71.9741V35.5526H62.1023V41.2984Z" fill="#A9A9A9"/>
<path d="M50.6691 39.5028H33.3307C32.3435 39.5028 31.5358 40.3108 31.5358 41.2984C31.5358 42.286 32.3435 43.094 33.3307 43.094H50.6691C51.6563 43.094 52.464 42.286 52.464 41.2984C52.464 40.3108 51.6563 39.5028 50.6691 39.5028Z" fill="#A9A9A9"/>
<path d="M33.3307 33.9364H50.6691C51.6563 33.9364 52.464 34.7445 52.464 35.732C52.464 36.7196 51.6563 37.5276 50.6691 37.5276H33.3307C32.3435 37.5276 31.5358 36.7196 31.5358 35.732C31.5358 34.7445 32.3435 33.9364 33.3307 33.9364Z" fill="#A9A9A9"/>
<path fill-rule="evenodd" clip-rule="evenodd" d="M80.7872 24.1506L78.9564 22.2113L72.5308 4.88398C71.4359 1.95718 68.6359 0.0179558 65.5128 0H19.618C16.4949 0 13.6949 1.95718 12.6 4.88398L6.2641 21.9959L3.62564 24.4378C1.32821 26.395 0 29.268 0 32.2845V57.5304C0.0179487 61.6602 3.37436 65 7.50256 65H12.241C16.3692 65 19.7256 61.6602 19.7436 57.5304V53.8674H64.2564V57.5304C64.2744 61.6602 67.6308 65 71.759 65H76.4974C80.6256 65 83.9821 61.6602 84 57.5304V31.6202C83.9821 28.8011 82.8333 26.1077 80.7872 24.1506ZM15.9744 6.10497C16.5487 4.57873 18.0026 3.59116 19.618 3.59116H65.5308C67.1462 3.59116 68.6 4.59669 69.1744 6.10497L74.7744 21.1878H70.5923C69.6051 14.4544 63.341 9.80387 56.6103 10.8094C51.2436 11.5994 47.0256 15.8191 46.2359 21.1878H10.3744L15.9744 6.10497ZM66.9308 21.1878H49.8615C50.8487 16.4655 55.4795 13.4489 60.2 14.4365C63.5744 15.1547 66.2128 17.7942 66.9308 21.1878ZM16.1538 57.5304C16.1359 59.6851 14.3949 61.4088 12.241 61.4088H7.50256C5.34872 61.4088 3.60769 59.6851 3.58974 57.5304V52.826C4.66667 53.5262 6.08462 53.8674 7.50256 53.8674H16.1538V57.5304ZM80.4103 57.5304C80.3923 59.6851 78.6513 61.4088 76.4974 61.4088H71.759C69.6051 61.4088 67.8641 59.6671 67.8462 57.5304V53.8674H76.4974C77.9154 53.8674 79.3333 53.5262 80.4103 52.826V57.5304ZM76.4974 50.2762H7.50256C5.36667 50.2942 3.60769 48.5884 3.58974 46.4337V32.2845C3.58974 30.3094 4.46923 28.424 5.97692 27.1492L6.04872 27.0774L8.48974 24.779H76.4615L78.1846 26.6285C78.1936 26.6464 78.2115 26.6599 78.2295 26.6733C78.2474 26.6868 78.2654 26.7003 78.2744 26.7182C79.6205 27.9931 80.3923 29.7707 80.3923 31.6202V46.4337H80.4103C80.3923 48.5704 78.6333 50.2942 76.4974 50.2762Z" fill="#A9A9A9"/>
</svg>
