<svg width="84" height="65" viewBox="0 0 84 65" fill="none" xmlns="http://www.w3.org/2000/svg"><path fill-rule="evenodd" clip-rule="evenodd" d="M23.692 31.961H10.231a1.8 1.8 0 0 0-1.795 1.796v9.337a1.8 1.8 0 0 0 1.795 1.796h13.461a1.8 1.8 0 0 0 1.795-1.796v-9.337a1.8 1.8 0 0 0-1.795-1.796zm-1.795 9.337h-9.871v-5.745h9.871v5.745zm38.41-9.337H73.77a1.8 1.8 0 0 1 1.795 1.796v9.337a1.8 1.8 0 0 1-1.795 1.796H60.307a1.8 1.8 0 0 1-1.794-1.796v-9.337a1.8 1.8 0 0 1 1.794-1.796zm1.795 9.337h9.872v-5.745h-9.872v5.745z" fill="#A9A9A9"/><path d="M50.67 39.503H33.33a1.8 1.8 0 0 0-1.794 1.795 1.8 1.8 0 0 0 1.795 1.796h17.338a1.8 1.8 0 0 0 1.795-1.796 1.8 1.8 0 0 0-1.795-1.795zm-17.34-5.567h17.34a1.8 1.8 0 0 1 1.794 1.796 1.8 1.8 0 0 1-1.795 1.796H33.331a1.8 1.8 0 0 1-1.795-1.796 1.8 1.8 0 0 1 1.795-1.796z" fill="#A9A9A9"/><path fill-rule="evenodd" clip-rule="evenodd" d="M80.787 24.15l-1.83-1.939L72.53 4.884A7.537 7.537 0 0 0 65.513 0H19.618A7.511 7.511 0 0 0 12.6 4.884L6.264 21.996l-2.638 2.442A10.319 10.319 0 0 0 0 32.285V57.53A7.505 7.505 0 0 0 7.503 65h4.738a7.505 7.505 0 0 0 7.503-7.47v-3.663h44.512v3.663A7.505 7.505 0 0 0 71.76 65h4.738A7.505 7.505 0 0 0 84 57.53V31.62a10.414 10.414 0 0 0-3.213-7.47zM15.974 6.106a3.882 3.882 0 0 1 3.644-2.514h45.913a3.908 3.908 0 0 1 3.643 2.514l5.6 15.083h-4.182c-.987-6.734-7.251-11.384-13.982-10.379a12.301 12.301 0 0 0-10.374 10.379H10.374l5.6-15.083zm50.957 15.083H49.86c.988-4.723 5.619-7.74 10.339-6.751a8.742 8.742 0 0 1 6.73 6.75zM16.154 57.53a3.904 3.904 0 0 1-3.913 3.879H7.503A3.904 3.904 0 0 1 3.59 57.53v-4.704c1.077.7 2.495 1.041 3.913 1.041h8.65v3.663zm64.256 0a3.904 3.904 0 0 1-3.913 3.879H71.76a3.915 3.915 0 0 1-3.913-3.879v-3.663h8.651c1.418 0 2.836-.34 3.913-1.041v4.704zm-3.913-7.254H7.503a3.873 3.873 0 0 1-3.913-3.842v-14.15c0-1.975.88-3.86 2.387-5.135l.072-.072 2.44-2.298h67.972l1.724 1.85a.142.142 0 0 0 .044.044c.018.014.036.027.045.045a6.769 6.769 0 0 1 2.118 4.902v14.814h.018a3.885 3.885 0 0 1-3.913 3.842z" fill="#A9A9A9"/></svg>