<svg width="74" height="74" viewBox="0 0 74 74" fill="none" xmlns="http://www.w3.org/2000/svg">
<path d="M36.9993 17.8145C26.4203 17.8145 17.8145 26.4203 17.8145 36.9993C17.8145 47.5784 26.4203 56.1841 36.9993 56.1841C47.5784 56.1841 56.1841 47.5784 56.1841 36.9993C56.1841 26.4203 47.5784 17.8145 36.9993 17.8145ZM36.9993 53.4435C27.9317 53.4435 20.5552 46.0669 20.5552 36.9993C20.5552 27.9317 27.9317 20.5552 36.9993 20.5552C46.0669 20.5552 53.4435 27.9317 53.4435 36.9993C53.4435 46.0669 46.0669 53.4435 36.9993 53.4435Z" fill="#A9A9A9"/>
<path d="M70.1891 28.7772H67.4237C66.718 26.1571 65.6806 23.6494 64.3267 21.2993L66.2808 19.3452C67.0003 18.6257 67.3963 17.6679 67.3963 16.6511C67.3963 15.6329 67.0003 14.6764 66.2808 13.9556L60.0417 7.71641C58.6028 6.27892 56.0937 6.27618 54.6521 7.71641L52.698 9.67053C50.3465 8.318 47.8401 7.28064 45.2214 6.57492V3.80956C45.2214 1.70882 43.5126 0 41.4118 0H32.5868C30.4861 0 28.7772 1.70882 28.7772 3.80956V6.57492C26.1585 7.28064 23.6522 8.318 21.2993 9.6719L19.3452 7.71778C17.9049 6.27618 15.3945 6.27892 13.9556 7.71778L7.71641 13.957C6.99698 14.6764 6.60095 15.6343 6.60095 16.6524C6.60095 17.6692 6.99698 18.6257 7.71641 19.3465L9.67053 21.3006C8.318 23.6494 7.27927 26.1571 6.57492 28.7772H3.80956C1.70882 28.7772 0 30.4861 0 32.5868V41.4105C0 43.5126 1.70882 45.2214 3.80956 45.2214H6.57492C7.28064 47.8401 8.318 50.3465 9.6719 52.6994L7.71778 54.6535C6.99835 55.3729 6.60232 56.3308 6.60232 57.3476C6.60232 58.3657 6.99835 59.3222 7.71778 60.043L13.957 66.2822C15.3958 67.7225 17.9063 67.7238 19.3465 66.2822L21.3006 64.3281C23.6535 65.6806 26.1599 66.7194 28.7786 67.4251V70.1904C28.7786 72.2912 30.4874 74 32.5882 74H41.4118C43.5126 74 45.2214 72.2912 45.2214 70.1904V67.4251C47.8401 66.7194 50.3465 65.682 52.6994 64.3281L54.6535 66.2822C56.0951 67.7238 58.6028 67.7211 60.043 66.2822L66.2822 60.043C67.0016 59.3236 67.3977 58.3657 67.3977 57.3476C67.3977 56.3308 67.0016 55.3743 66.2822 54.6535L64.3281 52.6994C65.6806 50.3465 66.7194 47.8401 67.4251 45.2214H70.1904C72.2912 45.2214 74 43.5126 74 41.4118V32.5868C73.9986 30.4861 72.2898 28.7772 70.1891 28.7772ZM71.2579 41.4118C71.2579 42.0011 70.7783 42.4807 70.1891 42.4807H65.2668L65.0201 43.54C64.3062 46.6054 63.103 49.5147 61.4394 52.1882L60.8639 53.1118L64.3432 56.5911C64.7611 57.0091 64.7611 57.6874 64.3432 58.104L58.104 64.3432C57.6874 64.7598 57.0091 64.7625 56.5911 64.3432L53.1118 60.8639L52.1882 61.4394C49.516 63.103 46.6068 64.3076 43.54 65.0201L42.4807 65.2668V70.1891C42.4807 70.7783 42.0011 71.2579 41.4118 71.2579H32.5868C31.9976 71.2579 31.5179 70.7783 31.5179 70.1891V65.2668L30.4587 65.0201C27.3932 64.3062 24.484 63.103 21.8104 61.4394L20.8868 60.8639L17.4075 64.3432C16.9882 64.7625 16.3098 64.7598 15.8946 64.3432L9.65545 58.104C9.2375 57.6861 9.2375 57.0077 9.65545 56.5911L13.1348 53.1118L12.5592 52.1882C10.8956 49.516 9.69108 46.6068 8.9785 43.54L8.73184 42.4807H3.80956C3.22031 42.4807 2.74069 42.0011 2.74069 41.4118V32.5868C2.74069 31.9976 3.22031 31.5179 3.80956 31.5179H8.73184L8.9785 30.4587C9.69245 27.3918 10.8956 24.4826 12.5592 21.8104L13.1348 20.8868L9.65545 17.4075C9.2375 16.9895 9.2375 16.3112 9.65545 15.8946L15.8946 9.65545C16.3112 9.23887 16.9895 9.23613 17.4075 9.65545L20.8868 13.1348L21.8104 12.5592C24.4826 10.8956 27.3918 9.69108 30.4587 8.9785L31.5179 8.73184V3.80956C31.5179 3.22031 31.9976 2.74069 32.5868 2.74069H41.4105C42.0011 2.74069 42.4807 3.22031 42.4807 3.80956V8.73184L43.54 8.9785C46.6054 9.69245 49.5147 10.8956 52.1882 12.5592L53.1118 13.1348L56.5911 9.65545C57.0105 9.23613 57.6888 9.23887 58.104 9.65545L64.3432 15.8946C64.7611 16.3126 64.7611 16.9909 64.3432 17.4075L60.8639 20.8868L61.4394 21.8104C63.103 24.4812 64.3076 27.3905 65.0201 30.4587L65.2668 31.5179H70.1891C70.7783 31.5179 71.2579 31.9976 71.2579 32.5868V41.4118Z" fill="#A9A9A9"/>
<path d="M36.9993 23.2959C29.4432 23.2959 23.2959 29.4432 23.2959 36.9993C23.2959 44.5554 29.4432 50.7028 36.9993 50.7028C44.5554 50.7028 50.7028 44.5554 50.7028 36.9993C50.7028 29.4432 44.5554 23.2959 36.9993 23.2959ZM36.9993 47.9621C30.9547 47.9621 26.0366 43.0439 26.0366 36.9993C26.0366 30.9547 30.9547 26.0366 36.9993 26.0366C43.0439 26.0366 47.9621 30.9547 47.9621 36.9993C47.9621 43.0439 43.0439 47.9621 36.9993 47.9621Z" fill="#A9A9A9"/>
</svg>
