<svg width="74" height="74" viewBox="0 0 74 74" fill="none" xmlns="http://www.w3.org/2000/svg"><path d="M37 17.814c-10.58 0-19.186 8.606-19.186 19.185 0 10.58 8.606 19.185 19.185 19.185 10.58 0 19.185-8.606 19.185-19.185 0-10.579-8.606-19.185-19.185-19.185zm0 35.63c-9.068 0-16.445-7.377-16.445-16.445 0-9.067 7.377-16.444 16.444-16.444 9.068 0 16.444 7.377 16.444 16.444 0 9.068-7.376 16.444-16.444 16.444z" fill="#A9A9A9"/><path d="M70.19 28.777h-2.766a31.23 31.23 0 0 0-3.097-7.478l1.954-1.954a3.787 3.787 0 0 0 1.115-2.694 3.79 3.79 0 0 0-1.115-2.695l-6.24-6.24c-1.438-1.437-3.947-1.44-5.389 0l-1.954 1.955a31.321 31.321 0 0 0-7.477-3.096V3.81A3.813 3.813 0 0 0 41.411 0h-8.824c-2.1 0-3.81 1.709-3.81 3.81v2.765A31.302 31.302 0 0 0 21.3 9.672l-1.954-1.954c-1.44-1.442-3.95-1.44-5.39 0l-6.239 6.239a3.787 3.787 0 0 0-1.115 2.695c0 1.017.396 1.974 1.115 2.694l1.955 1.955a31.196 31.196 0 0 0-3.096 7.476H3.81A3.815 3.815 0 0 0 0 32.587v8.823a3.814 3.814 0 0 0 3.81 3.811h2.765A31.303 31.303 0 0 0 9.672 52.7l-1.954 1.955a3.787 3.787 0 0 0-1.116 2.694 3.79 3.79 0 0 0 1.116 2.695l6.239 6.24c1.439 1.44 3.95 1.44 5.39 0l1.954-1.955a31.36 31.36 0 0 0 7.478 3.097v2.765a3.813 3.813 0 0 0 3.81 3.81h8.823c2.1 0 3.81-1.709 3.81-3.81v-2.765a31.302 31.302 0 0 0 7.477-3.097l1.955 1.954c1.441 1.442 3.949 1.44 5.389 0l6.24-6.239a3.788 3.788 0 0 0 1.115-2.695 3.79 3.79 0 0 0-1.116-2.694L64.328 52.7a31.36 31.36 0 0 0 3.097-7.478h2.765a3.813 3.813 0 0 0 3.81-3.81v-8.824a3.816 3.816 0 0 0-3.81-3.81zm1.068 12.635c0 .59-.48 1.069-1.069 1.069h-4.922l-.247 1.059a28.619 28.619 0 0 1-3.58 8.648l-.576.924 3.48 3.48a1.07 1.07 0 0 1 0 1.512l-6.24 6.24a1.07 1.07 0 0 1-1.513 0l-3.48-3.48-.923.575a28.555 28.555 0 0 1-8.648 3.581l-1.06.247v4.922a1.07 1.07 0 0 1-1.068 1.069h-8.825a1.07 1.07 0 0 1-1.07-1.069v-4.922l-1.058-.247a28.62 28.62 0 0 1-8.649-3.58l-.923-.576-3.48 3.48a1.07 1.07 0 0 1-1.512 0l-6.24-6.24a1.07 1.07 0 0 1 0-1.513l3.48-3.48-.576-.923a28.557 28.557 0 0 1-3.58-8.648l-.247-1.06H3.81a1.07 1.07 0 0 1-1.07-1.068v-8.825c0-.59.48-1.07 1.07-1.07h4.922l.247-1.058a28.591 28.591 0 0 1 3.58-8.649l.576-.923-3.48-3.48a1.07 1.07 0 0 1 0-1.512l6.24-6.24a1.07 1.07 0 0 1 1.512 0l3.48 3.48.923-.576a28.556 28.556 0 0 1 8.649-3.58l1.059-.247V3.81c0-.59.48-1.07 1.069-1.07h8.823c.591 0 1.07.48 1.07 1.07v4.922l1.06.247a28.62 28.62 0 0 1 8.648 3.58l.924.576 3.48-3.48a1.07 1.07 0 0 1 1.512 0l6.24 6.24a1.07 1.07 0 0 1 0 1.512l-3.48 3.48.575.923a28.526 28.526 0 0 1 3.581 8.649l.247 1.059h4.922c.59 0 1.069.48 1.069 1.069v8.825z" fill="#A9A9A9"/><path d="M37 23.296c-7.557 0-13.704 6.147-13.704 13.703 0 7.556 6.147 13.704 13.703 13.704 7.556 0 13.704-6.148 13.704-13.704 0-7.556-6.148-13.703-13.704-13.703zm0 24.666c-6.045 0-10.963-4.918-10.963-10.963 0-6.044 4.918-10.962 10.962-10.962 6.045 0 10.963 4.918 10.963 10.962 0 6.045-4.918 10.963-10.963 10.963z" fill="#A9A9A9"/></svg>