<svg width="75" height="75" viewBox="0 0 75 75" fill="none" xmlns="http://www.w3.org/2000/svg">
<path fill-rule="evenodd" clip-rule="evenodd" d="M53.5712 63.8242C53.5712 61.0298 55.9677 58.8188 59.0053 58.8188C62.0429 58.8188 64.4394 61.0298 64.4394 63.8242C64.4394 66.6186 62.0429 68.8242 59.0053 68.8242C58.2927 68.8327 57.5853 68.7094 56.9247 68.4617C56.264 68.2139 55.6631 67.8465 55.1573 67.3811C54.6514 66.9156 54.2506 66.3613 53.9782 65.7506C53.7059 65.1399 53.5675 64.4851 53.5712 63.8242ZM56.2882 63.8242C56.2882 65.1492 57.5644 66.3242 59.0053 66.3242C60.6049 66.177 61.7223 65.1492 61.7223 63.8242C61.7223 62.502 60.4432 61.3243 59.0053 61.3243C57.5674 61.3243 56.2882 62.502 56.2882 63.8242Z" fill="#A9A9A9"/>
<path fill-rule="evenodd" clip-rule="evenodd" d="M10.3859 0.000161266H64.7599C70.5175 0.000161266 75.1548 4.26677 74.996 9.55836V58.2354C74.996 60.7354 73.3964 63.0854 70.9998 64.2631C70.6793 70.1464 65.5657 74.8463 59.3258 74.9963C52.9271 75.1435 47.493 70.8769 46.8489 64.9992H22.2217L19.0313 72.2019C18.3873 73.9685 16.6258 74.9963 14.7056 74.9963C12.7914 74.9963 11.1917 73.9685 10.3859 72.2019L7.19555 64.9992C3.19036 64.9992 0 61.9104 0 58.2354V9.55836C0.00234364 8.29768 0.273152 7.04985 0.796883 5.88646C1.32061 4.72308 2.08696 3.66705 3.05193 2.77898C4.01691 1.89091 5.16152 1.18828 6.42008 0.711416C7.67863 0.234554 9.02636 -0.00715523 10.3859 0.000161266ZM12.1474 37.4996H2.71705V39.9968H12.1474V37.4968V37.4996ZM16.4641 45.1745C14.1065 45.1328 12.5398 45.0273 12.4619 42.5023H9.4303V55.8855C9.4303 56.7632 10.0744 57.4966 11.03 57.4966L48.6973 57.6771C52.7564 52.4494 58.7626 51.2994 64.724 53.8383C65.368 52.8105 65.5657 51.6189 65.5657 50.2967V42.644H38.6948C38.6948 44.1162 37.4186 45.1495 35.819 45.1495L16.4671 45.1773L16.4641 45.1745ZM14.7086 72.4991C15.1181 72.5014 15.5192 72.3909 15.861 72.1818C16.2028 71.9726 16.47 71.6741 16.6288 71.3241L19.3459 65.002H9.91559L12.7944 71.3241C12.9525 71.6735 13.2187 71.9715 13.5594 72.1807C13.9001 72.3898 14.3 72.5006 14.7086 72.4991ZM7.36031 62.5048H47.0107C47.1725 61.6159 47.3342 60.7382 47.6548 60.0048H11.03C8.63346 60.0048 6.71325 58.0882 6.71325 55.8882V42.4995H2.71705V58.2327C2.71705 60.5826 4.79004 62.4993 7.35731 62.4993L7.36031 62.5048ZM36.3043 42.3579V37.4996H14.8644V42.3607C14.8644 42.5051 36.3013 42.5051 36.3013 42.3607L36.3043 42.3579ZM2.72005 34.9997H72.4408V22.4971H2.71705V34.9969L2.72005 34.9997ZM50.3688 67.0547C51.036 68.6718 52.2214 70.0605 53.7655 71.0339C55.3096 72.0072 57.1382 72.5186 59.0053 72.4991C64.2866 72.4991 68.4416 68.527 68.4416 63.677C68.4416 60.1437 66.2008 56.9132 62.6899 55.5882C60.9706 54.9369 59.0821 54.7706 57.2613 55.1101C55.4404 55.4495 53.7681 56.2797 52.4538 57.4966C51.1311 58.7231 50.2278 60.284 49.857 61.9841C49.4861 63.6842 49.6642 65.448 50.3688 67.0547ZM70.8411 61.4659C71.7967 60.5854 72.4408 59.4104 72.4408 58.2354V42.5023H68.4446V50.1467C68.4446 51.9133 68.0342 53.5494 67.0755 55.1688C69.0141 56.8482 70.3318 59.0518 70.8411 61.4659ZM38.8565 39.994H72.4378V37.4996H38.8565V39.9996V39.994ZM65.8773 18.8221C65.8773 16.0277 63.4808 13.825 60.4432 13.825H14.8644C14.1517 13.8161 13.4442 13.9391 12.7833 14.1867C12.1224 14.4344 11.5215 14.8017 11.0155 15.2672C10.5095 15.7328 10.1087 16.2872 9.83654 16.898C9.56436 17.5089 9.42625 18.164 9.4303 18.8249V19.9971H65.8773V18.8221ZM22.8658 8.82781C21.4279 8.82781 20.1487 10.0028 20.1487 11.3278H33.5812C33.5812 9.85558 32.2931 8.82781 30.8552 8.82781H22.8658ZM68.4446 19.9971H72.4408V9.55836C72.4408 5.58897 68.9179 2.50013 64.7599 2.50013H10.3889C6.23095 2.50013 2.71705 5.58897 2.71705 9.55558V19.9999H6.71025V18.8249C6.71025 14.7083 10.2331 11.3306 14.7026 11.3306H17.4287C17.4287 8.53615 19.8252 6.32507 22.8628 6.32507H30.8552C33.8958 6.32507 36.3013 8.53615 36.3013 11.3306H60.4462C64.7599 11.3306 68.4446 14.7083 68.4446 18.8249V19.9971Z" fill="#A9A9A9"/>
</svg>
