<svg width="75" height="75" viewBox="0 0 75 75" fill="none" xmlns="http://www.w3.org/2000/svg">
<path d="M74.0759 0.101493C73.8319 0.000492789 73.5637 -0.0258651 73.3048 0.0257415C73.046 0.077348 72.8082 0.204609 72.6214 0.391485L0.390598 72.7364C0.204057 72.9219 0.0769498 73.1589 0.0255334 73.4172C-0.025883 73.6755 0.00072925 73.9433 0.101966 74.1863C0.203203 74.4293 0.374462 74.6366 0.593839 74.7815C0.813215 74.9265 1.07074 75.0025 1.33346 74.9999L73.666 74.914C73.8414 74.9154 74.0153 74.8819 74.1776 74.8154C74.3399 74.7489 74.4874 74.6507 74.6115 74.5265C74.7356 74.4023 74.8339 74.2547 74.9006 74.0921C74.9673 73.9295 75.001 73.7553 75 73.5795L74.9035 1.33396C74.9034 1.06935 74.8249 0.81075 74.678 0.590881C74.5312 0.371011 74.3225 0.199761 74.0785 0.0988078L74.0759 0.101493ZM4.56919 72.339L14.33 62.5625L15.5916 63.8245C15.8455 64.0575 16.1794 64.1832 16.5235 64.1756C16.8677 64.1679 17.1956 64.0275 17.4391 63.7835C17.6825 63.5395 17.8226 63.2107 17.8302 62.8657C17.8378 62.5207 17.7124 62.1861 17.48 61.9315L16.2211 60.6695L20.772 56.1102L23.5122 58.8651C23.6362 58.9894 23.7834 59.088 23.9454 59.1553C24.1074 59.2225 24.281 59.2572 24.4564 59.2572C24.6317 59.2572 24.8054 59.2225 24.9674 59.1553C25.1294 59.088 25.2766 58.9894 25.4006 58.8651C25.5246 58.7408 25.6229 58.5933 25.69 58.4309C25.7571 58.2685 25.7917 58.0944 25.7917 57.9186C25.7917 57.7428 25.7571 57.5688 25.69 57.4064C25.6229 57.244 25.5246 57.0964 25.4006 56.9721L22.6604 54.2199L27.23 49.6418L28.4863 50.9011C28.6103 51.0254 28.7575 51.124 28.9195 51.1912C29.0815 51.2585 29.2552 51.2931 29.4305 51.2931C29.6059 51.2931 29.7795 51.2585 29.9415 51.1912C30.1035 51.124 30.2507 51.0254 30.3747 50.9011C30.4987 50.7768 30.5971 50.6292 30.6642 50.4668C30.7313 50.3044 30.7658 50.1304 30.7658 49.9546C30.7658 49.7788 30.7313 49.6047 30.6642 49.4423C30.5971 49.2799 30.4987 49.1324 30.3747 49.0081L29.1211 47.7488L34.2721 42.5907L37.0096 45.3348C37.26 45.5859 37.5996 45.7269 37.9538 45.7269C38.3079 45.7269 38.6476 45.5859 38.898 45.3348C39.1484 45.0838 39.2891 44.7434 39.2891 44.3883C39.2891 44.0333 39.1484 43.6929 38.898 43.4418L36.1605 40.695L41.3757 35.4724L42.49 36.5868C42.7423 36.8285 43.079 36.9617 43.4281 36.9579C43.7772 36.9541 44.1109 36.8135 44.3579 36.5662C44.6049 36.319 44.7456 35.9846 44.75 35.6347C44.7543 35.2848 44.6219 34.9471 44.381 34.6938L43.2667 33.5794L48.4203 28.4187L51.1525 31.1575C51.2765 31.2818 51.4237 31.3804 51.5857 31.4476C51.7477 31.5149 51.9214 31.5495 52.0967 31.5495C52.2721 31.5495 52.4457 31.5149 52.6077 31.4476C52.7697 31.3804 52.9169 31.2818 53.0409 31.1575C53.1649 31.0332 53.2633 30.8856 53.3304 30.7232C53.3975 30.5608 53.432 30.3867 53.432 30.211C53.432 30.0352 53.3975 29.8611 53.3304 29.6987C53.2633 29.5363 53.1649 29.3888 53.0409 29.2645L50.3088 26.5257L54.8811 21.9502L55.9874 23.0592C56.2413 23.2921 56.5751 23.4179 56.9193 23.4103C57.2635 23.4026 57.5914 23.2621 57.8348 23.0181C58.0783 22.7741 58.2184 22.4454 58.226 22.1004C58.2336 21.7554 58.1082 21.4208 57.8758 21.1662L56.7695 20.0572L61.3231 15.4979L64.0472 18.2314C64.3012 18.4643 64.635 18.5901 64.9792 18.5824C65.3233 18.5748 65.6513 18.4343 65.8947 18.1903C66.1381 17.9463 66.2782 17.6176 66.2859 17.2726C66.2935 16.9276 66.168 16.5929 65.9356 16.3384L63.2088 13.6076L72.2357 4.56414L72.3294 72.2504L4.56919 72.339Z" fill="#A9A9A9"/>
<path d="M58.4409 36.5116C58.1967 36.41 57.9279 36.3833 57.6685 36.4349C57.4091 36.4866 57.1708 36.6142 56.9838 36.8016L36.348 57.4903C36.1342 57.4948 35.9248 57.5516 35.738 57.6556C35.5511 57.7597 35.3924 57.908 35.2757 58.0875C35.159 58.267 35.0878 58.4724 35.0683 58.6859C35.0488 58.8993 35.0817 59.1142 35.1639 59.312C35.2462 59.5098 35.3754 59.6845 35.5403 59.8208C35.7052 59.9571 35.9009 60.051 36.1102 60.0943C36.3196 60.1376 36.5364 60.129 36.7416 60.0692C36.9469 60.0094 37.1345 59.9002 37.2881 59.7512L57.8838 59.77C58.0571 59.7758 58.2299 59.7465 58.3917 59.6838C58.5535 59.6212 58.701 59.5266 58.8255 59.4055C58.95 59.2845 59.0489 59.1395 59.1163 58.9793C59.1837 58.8191 59.2182 58.6469 59.2177 58.4731L59.2633 37.744C59.2639 37.48 59.1859 37.2217 59.0395 37.0022C58.893 36.7827 58.6847 36.6119 58.4409 36.5116ZM56.5499 57.1413L40.5078 57.1037L56.5847 40.9877L56.5499 57.1413Z" fill="#A9A9A9"/>
</svg>
