<svg width="75" height="75" viewBox="0 0 75 75" fill="none" xmlns="http://www.w3.org/2000/svg"><path d="M74.076.101a1.334 1.334 0 0 0-1.455.29L.391 72.736A1.325 1.325 0 0 0 1.333 75l72.333-.086A1.321 1.321 0 0 0 75 73.579l-.097-72.245a1.339 1.339 0 0 0-.825-1.235L74.077.1zM4.569 72.34l9.761-9.776 1.262 1.261a1.335 1.335 0 0 0 2.238-.958 1.342 1.342 0 0 0-.35-.934l-1.259-1.263 4.551-4.559 2.74 2.755a1.336 1.336 0 0 0 1.889 0 1.338 1.338 0 0 0 0-1.893l-2.74-2.752 4.569-4.578 1.256 1.26a1.334 1.334 0 0 0 2.28-.947 1.342 1.342 0 0 0-.391-.947l-1.254-1.26 5.151-5.157 2.738 2.744a1.333 1.333 0 0 0 2.28-.947c0-.355-.142-.695-.392-.946l-2.738-2.747 5.216-5.223 1.114 1.115a1.335 1.335 0 0 0 2.26-.952 1.341 1.341 0 0 0-.369-.941l-1.114-1.115 5.153-5.16 2.733 2.738a1.334 1.334 0 0 0 2.279-.946 1.342 1.342 0 0 0-.391-.946l-2.732-2.74 4.572-4.575 1.106 1.11a1.335 1.335 0 0 0 2.239-.96 1.342 1.342 0 0 0-.35-.934l-1.106-1.109 4.553-4.56 2.724 2.734a1.335 1.335 0 0 0 2.239-.958 1.342 1.342 0 0 0-.35-.935l-2.727-2.73 9.027-9.044.093 67.686-67.76.089z" fill="#A9A9A9"/><path d="M58.44 36.512a1.333 1.333 0 0 0-1.456.29L36.348 57.49a1.31 1.31 0 0 0-1.28 1.196 1.319 1.319 0 0 0 1.042 1.408 1.31 1.31 0 0 0 1.178-.343l20.596.019a1.287 1.287 0 0 0 1.232-.79c.068-.16.102-.333.102-.507l.045-20.729a1.332 1.332 0 0 0-.822-1.232zm-1.89 20.63l-16.042-.038 16.077-16.116-.035 16.153z" fill="#A9A9A9"/></svg>