<svg width="38" height="76" viewBox="0 0 38 76" fill="none" xmlns="http://www.w3.org/2000/svg">
<path d="M30.2791 39.9949C30.0701 39.5515 29.6242 39.2691 29.1341 39.2691H23.1832L27.8256 21.8624C27.9789 21.286 27.7102 20.6819 27.1808 20.4095C26.6513 20.1359 26.0028 20.2701 25.6241 20.73L7.89071 42.2637C7.57914 42.6411 7.51457 43.1656 7.72357 43.6088C7.93257 44.0522 8.37848 44.3347 8.86863 44.3347H14.8195L10.1771 61.7413C10.0238 62.3177 10.2925 62.9219 10.8219 63.1942C11.0056 63.2892 11.2045 63.3348 11.4008 63.3348C11.7708 63.3348 12.1318 63.1739 12.3788 62.8738L30.1123 41.3402C30.4235 40.9627 30.4881 40.4383 30.2791 39.9949ZM14.1265 56.767L17.6921 43.3948C17.7935 43.0148 17.7125 42.6094 17.473 42.2966C17.2336 41.985 16.8625 41.8014 16.4685 41.8014H11.5525L23.8773 26.8357L20.3116 40.2079C20.2102 40.5879 20.2913 40.9933 20.5307 41.3061C20.7701 41.6177 21.1412 41.8014 21.5352 41.8014H26.4512L14.1265 56.767Z" fill="#A9A9A9"/>
<path d="M26.6015 0H11.4014C10.7022 0 10.1348 0.567481 10.1348 1.26663V6.33328C10.1348 7.03243 10.7022 7.59991 11.4014 7.59991H26.6015C27.3007 7.59991 27.8681 7.03243 27.8681 6.33328V1.26663C27.8681 0.567481 27.3007 0 26.6015 0ZM25.3349 5.06666H12.6682V2.5334H25.3349V5.06666Z" fill="#A9A9A9"/>
<path d="M33.1477 5.06274H4.85261C2.17611 5.06274 0 7.24019 0 9.9155V71.1441C0 73.8192 2.17863 75.9967 4.85261 75.9967H33.1477C35.8228 75.9967 38.0003 73.8192 38.0003 71.1441V9.9155C38.0003 7.24019 35.8228 5.06274 33.1477 5.06274ZM35.4657 71.1441C35.4657 72.4235 34.4257 73.4634 33.1463 73.4634H4.85142C3.57203 73.4634 2.53207 72.4235 2.53207 71.1441V9.9155C2.53207 8.63611 3.57321 7.59615 4.85142 7.59615H33.1463C34.4257 7.59615 35.4657 8.63611 35.4657 9.9155V71.1441Z" fill="#A9A9A9"/>
</svg>
