<svg width="38" height="76" viewBox="0 0 38 76" fill="none" xmlns="http://www.w3.org/2000/svg">
<path d="M36.8199 0H28.4016H9.59833H1.18012C0.550725 0 0 0.542857 0 1.16327V14.0367C0 14.6571 0.550725 15.2 1.18012 15.2H8.41821V74.8367C8.41821 75.4571 8.96893 76 9.59833 76H28.4016C29.031 76 29.5818 75.4571 29.5818 74.8367V15.2H36.8199C37.4493 15.2 38 14.6571 38 14.0367V1.16327C38 0.542857 37.4493 0 36.8199 0ZM10.7785 53.7428L27.2215 55.5265V58.6286L10.7785 56.8449V53.7428ZM10.7785 51.4163V48.3143L27.2215 50.0979V53.2L10.7785 51.4163ZM27.2215 47.7714L10.7785 45.9877V42.8857L27.2215 44.6694V47.7714ZM10.7785 59.1714L27.2215 60.9551V64.0571L10.7785 62.2735V59.1714ZM27.2215 42.3428L10.7785 40.5592V37.4571L27.2215 39.2408V42.3428ZM10.7785 64.6776L27.2215 66.4612V69.5633L10.7785 67.7796V64.6776ZM27.2215 36.9143L10.7785 35.1306V15.2H27.2215V36.9143ZM10.7785 73.6735V70.1061L27.2215 71.8898V73.6735H10.7785ZM35.6398 12.8735H29.5818H28.4016H9.59833H8.41821H2.36025V2.32653H8.41821H29.5818H35.6398V12.8735Z" fill="#A9A9A9"/>
</svg>
