<svg width="38" height="76" viewBox="0 0 38 76" fill="none" xmlns="http://www.w3.org/2000/svg"><path d="M36.82 0H1.18C.55 0 0 .543 0 1.163v12.874c0 .62.55 1.163 1.18 1.163h7.238v59.637c0 .62.55 1.163 1.18 1.163h18.804c.629 0 1.18-.543 1.18-1.163V15.2h7.238c.63 0 1.18-.543 1.18-1.163V1.163C38 .543 37.45 0 36.82 0zM10.779 53.743l16.442 1.783v3.103L10.78 56.845v-3.102zm0-2.327v-3.102l16.442 1.784V53.2L10.78 51.416zm16.442-3.645L10.78 45.988v-3.102l16.442 1.783v3.102zm-16.442 11.4l16.442 1.784v3.102L10.78 62.273v-3.102zM27.22 42.343l-16.44-1.784v-3.102l16.442 1.784v3.102zM10.78 64.678l16.44 1.782v3.102L10.78 67.78v-3.102zm16.44-27.764l-16.44-1.783V15.2h16.44v21.714zm-16.44 36.76v-3.568l16.44 1.784v1.784H10.78zm24.86-60.8H2.36V2.326h33.28v10.546z" fill="#A9A9A9"/></svg>