<svg width="82" height="68" viewBox="0 0 82 68" fill="none" xmlns="http://www.w3.org/2000/svg"><path fill-rule="evenodd" clip-rule="evenodd" d="M23.128 33.437H9.988c-.965 0-1.753.845-1.753 1.878v9.768c0 1.033.788 1.878 1.752 1.878h13.141c.964 0 1.752-.845 1.752-1.878v-9.768c0-1.033-.788-1.878-1.752-1.878zm-1.752 9.768h-9.637v-6.012h9.637v6.012zm37.496-9.768h13.14c.964 0 1.753.845 1.753 1.878v9.768c0 1.033-.789 1.878-1.752 1.878H58.872c-.964 0-1.753-.845-1.753-1.878v-9.768c0-1.033.789-1.878 1.753-1.878zm1.752 9.768h9.636v-6.012h-9.636v6.012z" fill="#A9A9A9"/><path d="M49.463 41.326H32.537c-.964 0-1.752.845-1.752 1.879 0 1.033.788 1.878 1.752 1.878h16.926c.963 0 1.752-.845 1.752-1.878 0-1.034-.789-1.879-1.752-1.879zm-16.926-5.823h16.926c.963 0 1.752.845 1.752 1.878s-.789 1.879-1.752 1.879H32.537c-.964 0-1.752-.846-1.752-1.879s.788-1.878 1.752-1.878z" fill="#A9A9A9"/><path fill-rule="evenodd" clip-rule="evenodd" d="M78.864 25.265l-1.788-2.029L70.804 5.11C69.735 2.048 67.002.02 63.953 0H19.151c-3.049 0-5.782 2.048-6.851 5.11l-6.185 17.9-2.576 2.555C1.297 27.613 0 30.619 0 33.775v26.41C.018 64.507 3.294 68 7.324 68h4.626c4.03 0 7.306-3.494 7.323-7.814v-3.832h43.454v3.832C62.744 64.506 66.02 68 70.05 68h4.626c4.03 0 7.306-3.494 7.324-7.814V33.08c-.017-2.95-1.139-5.767-3.136-7.815zM15.594 6.387c.56-1.597 1.98-2.63 3.557-2.63h44.82c1.576 0 2.996 1.052 3.556 2.63l5.467 15.779h-4.082c-.964-7.045-7.08-11.91-13.65-10.858-5.239.827-9.356 5.241-10.127 10.858H10.127l5.467-15.78zm49.743 15.779H48.674c.964-4.94 5.485-8.096 10.093-7.063 3.294.751 5.87 3.513 6.57 7.063zM15.77 60.186c-.017 2.254-1.717 4.057-3.82 4.057H7.325c-2.103 0-3.802-1.803-3.82-4.057v-4.922c1.052.733 2.436 1.09 3.82 1.09h8.445v3.832zm62.727 0c-.018 2.254-1.717 4.057-3.82 4.057H70.05c-2.102 0-3.802-1.822-3.82-4.057v-3.832h8.446c1.384 0 2.768-.357 3.82-1.09v4.922zm-3.82-7.59H7.324c-2.085.02-3.802-1.765-3.82-4.02v-14.8c0-2.067.859-4.04 2.33-5.373l.07-.075 2.384-2.404H74.64l1.682 1.935a.147.147 0 0 0 .044.046c.017.015.035.029.044.047 1.314 1.334 2.067 3.194 2.067 5.129v15.497h.018c-.018 2.235-1.735 4.038-3.82 4.02z" fill="#A9A9A9"/></svg>