<svg width="82" height="68" viewBox="0 0 82 68" fill="none" xmlns="http://www.w3.org/2000/svg">
<path fill-rule="evenodd" clip-rule="evenodd" d="M23.1282 33.4365H9.98713C9.02345 33.4365 8.23499 34.2818 8.23499 35.315V45.0829C8.23499 46.1161 9.02345 46.9614 9.98713 46.9614H23.1282C24.0918 46.9614 24.8803 46.1161 24.8803 45.0829V35.315C24.8803 34.2818 24.0918 33.4365 23.1282 33.4365ZM21.376 43.2045H11.7393V37.1934H21.376V43.2045Z" fill="#A9A9A9"/>
<path fill-rule="evenodd" clip-rule="evenodd" d="M58.8716 33.4365H72.0126C72.9763 33.4365 73.7647 34.2818 73.7647 35.315V45.0829C73.7647 46.1161 72.9763 46.9614 72.0126 46.9614H58.8716C57.9079 46.9614 57.1194 46.1161 57.1194 45.0829V35.315C57.1194 34.2818 57.9079 33.4365 58.8716 33.4365ZM60.6237 43.2045H70.2605V37.1934H60.6237V43.2045Z" fill="#A9A9A9"/>
<path d="M49.4627 41.326H32.5371C31.5734 41.326 30.7849 42.1713 30.7849 43.2045C30.7849 44.2376 31.5734 45.0829 32.5371 45.0829H49.4627C50.4264 45.0829 51.2149 44.2376 51.2149 43.2045C51.2149 42.1713 50.4264 41.326 49.4627 41.326Z" fill="#A9A9A9"/>
<path d="M32.5371 35.5027H49.4627C50.4264 35.5027 51.2149 36.348 51.2149 37.3812C51.2149 38.4143 50.4264 39.2596 49.4627 39.2596H32.5371C31.5734 39.2596 30.7849 38.4143 30.7849 37.3812C30.7849 36.348 31.5734 35.5027 32.5371 35.5027Z" fill="#A9A9A9"/>
<path fill-rule="evenodd" clip-rule="evenodd" d="M78.8637 25.2652L77.0765 23.2365L70.8038 5.10939C69.735 2.04751 67.0017 0.0187845 63.953 0H19.1509C16.1021 0 13.3688 2.04751 12.3 5.10939L6.11496 23.0111L3.53932 25.5657C1.29658 27.6133 0 30.6188 0 33.7746V60.1856C0.0175214 64.5061 3.29402 68 7.32393 68H11.9496C15.9795 68 19.256 64.5061 19.2735 60.1856V56.3536H62.7265V60.1856C62.744 64.5061 66.0205 68 70.0504 68H74.6761C78.706 68 81.9825 64.5061 82 60.1856V33.0796C81.9825 30.1304 80.8611 27.3127 78.8637 25.2652ZM15.594 6.38674C16.1547 4.79006 17.5739 3.75691 19.1509 3.75691H63.9705C65.5474 3.75691 66.9667 4.80884 67.5274 6.38674L72.994 22.1657H68.9115C67.9479 15.1215 61.8329 10.2564 55.2624 11.3083C50.0235 12.1348 45.906 16.5492 45.135 22.1657H10.1274L15.594 6.38674ZM65.3372 22.1657H48.6744C49.638 17.2254 54.1586 14.0696 58.7667 15.1028C62.0607 15.8541 64.6363 18.6155 65.3372 22.1657ZM15.7692 60.1856C15.7517 62.4398 14.0521 64.2431 11.9496 64.2431H7.32393C5.22137 64.2431 3.52179 62.4398 3.50427 60.1856V55.2641C4.55556 55.9967 5.93974 56.3536 7.32393 56.3536H15.7692V60.1856ZM78.4957 60.1856C78.4782 62.4398 76.7786 64.2431 74.6761 64.2431H70.0504C67.9479 64.2431 66.2483 62.421 66.2308 60.1856V56.3536H74.6761C76.0603 56.3536 77.4444 55.9967 78.4957 55.2641V60.1856ZM74.6761 52.5967H7.32393C5.23889 52.6155 3.52179 50.8309 3.50427 48.5768V33.7746C3.50427 31.7083 4.36282 29.7359 5.83462 28.4022L5.9047 28.3271L8.28761 25.9227H74.641L76.3231 27.8575C76.3318 27.8762 76.3494 27.8903 76.3669 27.9044C76.3844 27.9185 76.4019 27.9326 76.4107 27.9514C77.7248 29.2851 78.4782 31.1448 78.4782 33.0796V48.5768H78.4957C78.4782 50.8122 76.7611 52.6155 74.6761 52.5967Z" fill="#A9A9A9"/>
</svg>
