<svg width="38" height="76" viewBox="0 0 38 76" fill="none" xmlns="http://www.w3.org/2000/svg">
<path d="M30.2792 39.9948C30.0702 39.5514 29.6243 39.2689 29.1341 39.2689H23.1832L27.8256 21.8623C27.979 21.2859 27.7103 20.6817 27.1808 20.4094C26.6513 20.1358 26.0028 20.27 25.6241 20.7298L7.89077 42.2635C7.5792 42.641 7.51463 43.1654 7.72363 43.6087C7.93264 44.0521 8.37854 44.3345 8.86869 44.3345H14.8196L10.1772 61.7412C10.0238 62.3176 10.2925 62.9217 10.822 63.1941C11.0056 63.2891 11.2045 63.3347 11.4009 63.3347C11.7708 63.3347 12.1318 63.1738 12.3788 62.8736L30.1123 41.3401C30.4236 40.9626 30.4882 40.4382 30.2792 39.9948ZM14.1265 56.7669L17.6922 43.3946C17.7936 43.0146 17.7125 42.6092 17.4731 42.2965C17.2337 41.9849 16.8626 41.8013 16.4686 41.8013H11.5526L23.8773 26.8356L20.3117 40.2078C20.2103 40.5878 20.2913 40.9932 20.5308 41.306C20.7702 41.6175 21.1413 41.8013 21.5353 41.8013H26.4512L14.1265 56.7669Z" fill="#A9A9A9"/>
<path d="M26.6015 0H11.4014C10.7022 0 10.1347 0.567481 10.1347 1.26663V6.33328C10.1347 7.03243 10.7022 7.59991 11.4014 7.59991H26.6015C27.3006 7.59991 27.8681 7.03243 27.8681 6.33328V1.26663C27.8681 0.567481 27.3006 0 26.6015 0ZM25.3349 5.06666H12.6681V2.5334H25.3349V5.06666Z" fill="#A9A9A9"/>
<path d="M33.1477 5.06262H4.85261C2.17611 5.06262 0 7.24007 0 9.91538V71.1439C0 73.8191 2.17863 75.9966 4.85261 75.9966H33.1477C35.8228 75.9966 38.0003 73.8191 38.0003 71.1439V9.91538C38.0003 7.24007 35.8228 5.06262 33.1477 5.06262ZM35.4657 71.1439C35.4657 72.4233 34.4257 73.4633 33.1463 73.4633H4.85142C3.57203 73.4633 2.53207 72.4233 2.53207 71.1439V9.91538C2.53207 8.63599 3.57321 7.59602 4.85142 7.59602H33.1463C34.4257 7.59602 35.4657 8.63599 35.4657 9.91538V71.1439Z" fill="#A9A9A9"/>
</svg>
