<svg width="38" height="76" viewBox="0 0 38 76" fill="none" xmlns="http://www.w3.org/2000/svg"><path d="M30.28 39.995a1.265 1.265 0 0 0-1.146-.726h-5.95l4.642-17.407a1.267 1.267 0 0 0-2.202-1.132L7.891 42.264a1.266 1.266 0 0 0 .978 2.07h5.95l-4.642 17.407a1.267 1.267 0 0 0 2.202 1.133L30.112 41.34c.312-.377.376-.902.167-1.345zM14.125 56.767l3.566-13.372A1.268 1.268 0 0 0 16.47 41.8h-4.916l12.324-14.965-3.565 13.372a1.268 1.268 0 0 0 1.223 1.593h4.916L14.126 56.767zM26.602 0h-15.2c-.7 0-1.267.567-1.267 1.267v5.066c0 .7.567 1.267 1.266 1.267h15.2c.7 0 1.267-.568 1.267-1.267V1.267c0-.7-.567-1.267-1.266-1.267zm-1.267 5.067H12.668V2.533h12.667v2.534z" fill="#A9A9A9"/><path d="M33.148 5.063H4.853A4.858 4.858 0 0 0 0 9.915v61.229a4.86 4.86 0 0 0 4.853 4.853h28.295A4.859 4.859 0 0 0 38 71.144V9.915a4.859 4.859 0 0 0-4.852-4.852zm2.318 66.08c0 1.28-1.04 2.32-2.32 2.32H4.851a2.321 2.321 0 0 1-2.319-2.32V9.916a2.322 2.322 0 0 1 2.32-2.319h28.294c1.28 0 2.32 1.04 2.32 2.32v61.228z" fill="#A9A9A9"/></svg>