<svg width="75" height="75" viewBox="0 0 75 75" fill="none" xmlns="http://www.w3.org/2000/svg"><path fill-rule="evenodd" clip-rule="evenodd" d="M53.571 63.824c0-2.794 2.397-5.005 5.434-5.005 3.038 0 5.434 2.21 5.434 5.005s-2.396 5-5.434 5a5.738 5.738 0 0 1-2.08-.362 5.418 5.418 0 0 1-1.768-1.08 4.971 4.971 0 0 1-1.179-1.631 4.66 4.66 0 0 1-.407-1.927zm2.717 0c0 1.325 1.276 2.5 2.717 2.5 1.6-.147 2.717-1.175 2.717-2.5 0-1.322-1.279-2.5-2.717-2.5-1.438 0-2.717 1.178-2.717 2.5z" fill="#A9A9A9"/><path fill-rule="evenodd" clip-rule="evenodd" d="M10.386 0H64.76c5.757 0 10.395 4.267 10.236 9.558v48.677c0 2.5-1.6 4.85-3.996 6.028-.32 5.883-5.434 10.583-11.674 10.733-6.399.148-11.833-4.12-12.477-9.997H22.222l-3.19 7.203c-.645 1.767-2.406 2.794-4.326 2.794-1.915 0-3.514-1.027-4.32-2.794l-3.19-7.203C3.19 65 0 61.91 0 58.235V9.558a8.976 8.976 0 0 1 .797-3.672A9.568 9.568 0 0 1 3.052 2.78c.965-.888 2.11-1.59 3.368-2.068a11.038 11.038 0 0 1 3.966-.71zm1.761 37.5h-9.43v2.497h9.43v-2.5.003zm4.317 7.675c-2.357-.042-3.924-.148-4.002-2.673H9.43v13.383c0 .878.644 1.612 1.6 1.612l37.667.18c4.06-5.228 10.066-6.378 16.027-3.839.644-1.028.842-2.22.842-3.541v-7.653H38.695c0 1.472-1.276 2.506-2.876 2.506l-19.352.027-.003-.002zM14.71 72.499c.41.002.81-.108 1.152-.317.342-.21.609-.508.768-.858l2.717-6.322h-9.43l2.878 6.322c.159.35.425.648.765.857.341.209.741.32 1.15.318zm-7.35-9.994h39.65c.163-.89.324-1.767.645-2.5H11.03c-2.397 0-4.317-1.917-4.317-4.117V42.5H2.717v15.734c0 2.35 2.073 4.266 4.64 4.266l.003.006zm28.944-20.147V37.5h-21.44v4.86c0 .145 21.437.145 21.437 0l.003-.002zM2.72 35h69.72V22.497H2.718v12.5L2.72 35zm47.65 32.055c.667 1.617 1.852 3.005 3.397 3.979a9.655 9.655 0 0 0 5.24 1.465c5.28 0 9.436-3.972 9.436-8.822 0-3.533-2.241-6.764-5.752-8.089a10.127 10.127 0 0 0-5.429-.478c-1.82.34-3.493 1.17-4.807 2.387-1.323 1.226-2.226 2.787-2.597 4.487a8.223 8.223 0 0 0 .512 5.07zm20.472-5.59c.956-.88 1.6-2.055 1.6-3.23V42.502h-3.996v7.645c0 1.766-.41 3.402-1.37 5.022 1.94 1.68 3.257 3.883 3.766 6.297zm-31.985-21.47h33.58V37.5h-33.58V40v-.006zm27.02-21.172c0-2.794-2.396-4.997-5.434-4.997H14.864a5.735 5.735 0 0 0-2.08.362 5.416 5.416 0 0 0-1.769 1.08 4.967 4.967 0 0 0-1.178 1.631 4.66 4.66 0 0 0-.407 1.927v1.172h56.447v-1.175zM22.866 8.828c-1.438 0-2.717 1.175-2.717 2.5H33.58c0-1.472-1.288-2.5-2.726-2.5h-7.99zm45.579 11.17h3.996V9.557c0-3.969-3.523-7.058-7.681-7.058H10.389C6.23 2.5 2.717 5.59 2.717 9.556V20H6.71v-1.175c0-4.117 3.523-7.494 7.993-7.494h2.726c0-2.795 2.396-5.006 5.434-5.006h7.992c3.04 0 5.446 2.211 5.446 5.006h24.145c4.314 0 7.999 3.377 7.999 7.494v1.172z" fill="#A9A9A9"/></svg>