<svg width="35" height="11" viewBox="0 0 35 11" fill="none" xmlns="http://www.w3.org/2000/svg"><path d="M14.307.01L12.55 10.69h2.808L17.114.01h-2.807zm8.469 4.35c-.981-.473-1.583-.792-1.583-1.277.012-.44.509-.891 1.618-.891a4.984 4.984 0 0 1 2.091.396l.255.11.382-2.234a7.234 7.234 0 0 0-2.52-.44c-2.773 0-4.725 1.408-4.737 3.423-.023 1.486 1.397 2.311 2.46 2.806 1.087.508 1.456.837 1.456 1.288-.012.693-.878 1.012-1.686 1.012-1.12 0-1.722-.164-2.635-.55l-.37-.165-.392 2.322c.66.287 1.872.539 3.131.552 2.947 0 4.864-1.387 4.888-3.534.01-1.178-.74-2.08-2.358-2.818zM32.737.043h-2.172c-.67 0-1.178.188-1.468.86l-4.17 9.787h2.946l.811-2.119h3.297l.421 2.128h2.599L32.737.043zm-3.235 6.39c.056.005 1.13-3.46 1.13-3.46l.856 3.46h-1.986zM10.204.01l-2.75 7.256-.3-1.43C6.645 4.183 5.05 2.39 3.27 1.497l2.52 9.183h2.97L13.175.01h-2.97z" fill="#A9A9A9"/><path d="M6.228 1.385C6.014.571 5.33.022 4.401.01H.045L0 .208c3.398.818 6.25 3.337 7.176 5.706l-.948-4.529z" fill="#A9A9A9"/></svg>