<svg width="35" height="11" viewBox="0 0 35 11" fill="none" xmlns="http://www.w3.org/2000/svg">
<path d="M14.3069 0.00976562L12.5503 10.6905H15.358L17.1136 0.00976562H14.3069ZM22.776 4.36048C21.7948 3.88706 21.1934 3.56753 21.1934 3.08333C21.2053 2.64307 21.702 2.19204 22.811 2.19204C23.7232 2.16965 24.3937 2.37911 24.9023 2.58751L25.1571 2.69863L25.5389 0.463966C24.9843 0.254506 24.105 0.0237135 23.0188 0.0237135C20.2461 0.0237135 18.2937 1.43226 18.2816 3.4468C18.2587 4.93342 19.6794 5.75836 20.7427 6.25324C21.8288 6.76088 22.1985 7.09002 22.1985 7.54106C22.1865 8.23355 21.3203 8.55307 20.512 8.55307C19.392 8.55307 18.7904 8.38851 17.8771 8.00264L17.5074 7.83807L17.1148 10.1604C17.7743 10.4469 18.9872 10.699 20.2462 10.7119C23.1929 10.7119 25.1102 9.32469 25.1344 7.17769C25.1439 5.99994 24.3948 5.09787 22.776 4.36048ZM32.737 0.0428194H30.5647C29.8953 0.0428194 29.3867 0.230947 29.0968 0.902108L24.9262 10.6905H27.8728L28.6844 8.57124H31.9811L32.4021 10.699H35.001L32.737 0.0428194ZM29.5016 6.43257C29.5584 6.43796 30.6326 2.97315 30.6326 2.97315L31.4879 6.43257C31.4879 6.43257 30.0562 6.43257 29.5016 6.43257ZM10.2042 0.00976562L7.45336 7.26631L7.15369 5.83525C6.64505 4.18407 5.05039 2.38978 3.27075 1.49849L5.78972 10.6798H8.76046L13.175 0.0109371H10.2042V0.00976562Z" fill="#A9A9A9"/>
<path d="M6.22796 1.3853C6.01359 0.5709 5.32992 0.0216395 4.40141 0.00991821H0.0448659L0 0.207539C3.39841 1.02616 6.25087 3.54506 7.17626 5.91441L6.22796 1.3853Z" fill="#A9A9A9"/>
</svg>
