<svg width="30" height="18" viewBox="0 0 30 18" fill="none" xmlns="http://www.w3.org/2000/svg"><path d="M20.606.01a8.886 8.886 0 0 0-5.904 2.223A8.884 8.884 0 0 0 8.8.012h-.056C3.912.042 0 3.882 0 8.608c0 4.746 3.943 8.596 8.801 8.596 2.27 0 4.338-.841 5.9-2.221a8.58 8.58 0 0 1-.9-.94h1.818a8.67 8.67 0 0 1-.893.92h-.002v.002l-.022.018a8.881 8.881 0 0 0 5.908 2.224c4.86-.001 8.799-3.852 8.797-8.598v-.005c0-4.746-3.942-8.594-8.801-8.594zm-6.704 3.11h1.672c.248.291.476.599.683.92h-2.983c.19-.307.402-.622.628-.92zm-1.15 1.824h4.011c.144.298.27.605.38.92h-4.866c.048-.088.218-.447.476-.92zm-4.434 5.724H7.273l.622-3.184-1.43 3.184H5.52l-.174-3.163-.622 3.163H3.78l.809-4.14h1.629l.074 2.564L7.448 6.53H9.14l-.822 4.14zm3.694-1.789l-.224 1.196-.037.214-.025.171-.013.115-.012.092h-.87l.025-.348c-.26.277-.622.406-1.094.406-.56 0-.946-.376-.946-.919 0-.82.672-1.299 1.828-1.299.112 0 .261.01.422.026.025-.11.038-.157.038-.218 0-.223-.187-.306-.671-.306-.3 0-.635.035-.858.093l-.15.037-.087.022.137-.759c.522-.129.858-.177 1.244-.177.895 0 1.368.342 1.368.988 0 .167-.012.292-.075.666zm2.078-1.662c.857 0 1.405.477 1.405 1.223 0 .25-.038.491-.126.833h-2.063c-.013.052-.013.075-.013.107 0 .39.311.588.908.588.373 0 .71-.065 1.082-.213l-.174.843a4.13 4.13 0 0 1-1.057.136c-1.169 0-1.778-.518-1.778-1.51 0-1.155.77-2.005 1.816-2.007zm2.178 5.941h-3.123c-.19-.296-.367-.6-.52-.92h4.155a8.53 8.53 0 0 1-.512.92zm1.913-5.084a7.182 7.182 0 0 0-.759-.05c-.336 0-.51.093-.51.274 0 .158.05.196.485.367.534.204.747.475.747.937 0 .769-.51 1.124-1.63 1.124-.136 0-.323-.01-.571-.028a2.692 2.692 0 0 1-.287-.03l-.187-.034-.05-.01.15-.776a3.4 3.4 0 0 0 .946.133c.41 0 .596-.094.596-.304 0-.154-.062-.204-.485-.372-.56-.22-.808-.514-.808-.939 0-.622.41-1.14 1.58-1.14.249 0 .66.03.932.067l-.149.78zm1.63 1.84a.96.96 0 0 0 .273-.032l-.136.747c-.286.077-.51.11-.747.11-.535 0-.82-.262-.82-.74 0-.094.012-.195.024-.302l.063-.331.05-.267.484-2.571h1.032l-.149.773h.534l-.149.82h-.535l-.273 1.405c-.013.06-.013.107-.013.138 0 .175.112.25.363.25zm2.544-1.665c-.497 0-.658.362-1.031 2.421h-1.045l.634-3.368h.946l-.1.51c.324-.397.571-.547.908-.547.037 0 .075.004.112.009 0 .002.038.008.089.02.012.003.024.003.112.037l-.372.952-.125-.025a1.03 1.03 0 0 0-.128-.01zm1.846 2.51c-1.184 0-1.656-.699-1.656-1.554 0-1.192.808-2.002 2.052-2.002 1.083 0 1.655.666 1.655 1.52 0 .209 0 .223-.024.419-.163 1.12-.959 1.618-2.027 1.617zm2.138-.09a.27.27 0 0 1-.274-.264.27.27 0 0 1 .274-.262.27.27 0 0 1 .274.262.27.27 0 0 1-.274.263z" fill="#A9A9A9"/><path d="M26.34 10.207c-.112 0-.212.09-.212.2 0 .112.1.201.212.201.113 0 .2-.09.2-.201 0-.11-.087-.2-.2-.2zm.1.317h-.064l-.037-.09H26.3v.09h-.05v-.233h.1a.14.14 0 0 1 .063.014.085.085 0 0 1 .025.058c0 .025-.013.05-.038.06l.038.101z" fill="#A9A9A9"/><path d="M26.363 10.336c0-.006-.025-.006-.037-.006H26.3v.06h.038s.012 0 .024-.004c.013-.006.013-.017.013-.027 0-.009 0-.018-.012-.023zM14.077 7.988c-.336 0-.572.214-.672.604l1.157.003V8.42c0-.273-.174-.432-.485-.432zm-3.372 1.167c-.584-.001-.882.172-.882.512 0 .21.137.343.373.343.423 0 .721-.345.746-.843a1.995 1.995 0 0 0-.237-.012zm13.867-1.127c-.535 0-.858.614-.858 1.155 0 .457.223.765.597.758.224 0 .708-.302.796-.826.024-.123.037-.257.037-.404 0-.351-.149-.684-.572-.683z" fill="#A9A9A9"/></svg>