<svg width="30" height="18" viewBox="0 0 30 18" fill="none" xmlns="http://www.w3.org/2000/svg">
<path d="M20.6059 0.00976562C18.3331 0.0103587 16.2625 0.851914 14.7019 2.23256C13.1402 0.852507 11.0708 0.011545 8.80099 0.011545C8.78217 0.011545 8.76334 0.011545 8.74452 0.011545C3.91229 0.0423842 0 3.88187 0 8.60798C0 13.3537 3.94326 17.2038 8.80099 17.2038C11.0708 17.2038 13.1395 16.3629 14.7013 14.9828C14.3752 14.6952 14.0801 14.3767 13.8014 14.0434H15.6194C15.345 14.372 15.0456 14.6792 14.7256 14.9638H14.7238C14.7244 14.965 14.7244 14.965 14.7244 14.965C14.7171 14.9715 14.7092 14.9763 14.7019 14.9834C16.2631 16.3658 18.3361 17.2074 20.6095 17.2068C25.4709 17.2056 29.4087 13.3554 29.4075 8.60858C29.4075 8.6068 29.4075 8.60561 29.4075 8.60443C29.4063 3.85755 25.4648 0.00976562 20.6059 0.00976562ZM13.9016 3.12097H15.5739C15.8216 3.41216 16.0505 3.71996 16.257 4.0414H13.2737C13.4644 3.7336 13.6757 3.41869 13.9016 3.12097ZM12.7528 4.94464H16.7634C16.9073 5.24295 17.0336 5.55015 17.1429 5.86566H12.2773C12.3253 5.7767 12.4953 5.41849 12.7528 4.94464ZM8.31765 10.6695H7.27323L7.89502 7.48472L6.46503 10.6695H5.5202L5.34593 7.50607L4.72414 10.6695H3.77871L4.58752 6.52871H6.21668L6.29137 9.09311L7.44811 6.52871H9.13982L8.31765 10.6695ZM12.0119 8.8802L11.7879 10.0764L11.7508 10.2905L11.7259 10.4613L11.7132 10.5764L11.7011 10.6677H10.8309L10.8558 10.3196C10.5953 10.5971 10.234 10.7258 9.76161 10.7258C9.20175 10.7258 8.81617 10.3504 8.81617 9.80716C8.81617 8.98754 9.48775 8.50835 10.6439 8.50835C10.7556 8.50835 10.905 8.51843 11.0665 8.53444C11.0914 8.42354 11.1042 8.37728 11.1042 8.3156C11.1042 8.09321 10.9171 8.01018 10.4326 8.01018C10.1338 8.01018 9.79804 8.04517 9.57458 8.10329L9.42521 8.14006L9.33838 8.162L9.475 7.40347C9.99721 7.27419 10.333 7.22615 10.7186 7.22615C11.6136 7.22615 12.0866 7.56835 12.0866 8.2136C12.0866 8.38084 12.0745 8.50598 12.0119 8.8802ZM14.0898 7.21844C14.9472 7.21844 15.4949 7.69467 15.4949 8.44133C15.4949 8.69101 15.4573 8.93239 15.3692 9.27399H13.3059C13.2932 9.32559 13.2932 9.34872 13.2932 9.38074C13.2932 9.77039 13.6041 9.96906 14.201 9.96906C14.5744 9.96906 14.9102 9.90382 15.283 9.75556L15.1094 10.5989C14.7608 10.6902 14.4129 10.7347 14.0522 10.7347C12.8833 10.7347 12.2737 10.217 12.2737 9.22477C12.2737 8.07008 13.0448 7.21962 14.0898 7.21844ZM16.2679 13.1591H13.145C12.9556 12.8626 12.7776 12.5584 12.6252 12.2387H16.7804C16.628 12.5572 16.4574 12.8632 16.2679 13.1591ZM18.1813 8.07482C17.9074 8.04398 17.6342 8.0256 17.4222 8.0256C17.0858 8.0256 16.9122 8.11811 16.9122 8.299C16.9122 8.45675 16.962 8.49471 17.3973 8.66551C17.9311 8.87012 18.1436 9.14115 18.1436 9.60314C18.1436 10.3718 17.6336 10.727 16.5138 10.727C16.3778 10.727 16.1914 10.7169 15.9425 10.6991C15.818 10.6902 15.719 10.6807 15.6559 10.6683L15.4694 10.6351L15.4196 10.6256L15.569 9.84867C15.9048 9.94119 16.192 9.98152 16.5145 9.98152C16.9249 9.98152 17.1113 9.88781 17.1113 9.67787C17.1113 9.52367 17.0488 9.47386 16.6262 9.30602C16.0669 9.08599 15.818 8.79183 15.818 8.3672C15.818 7.74508 16.2285 7.22733 17.398 7.22733C17.6469 7.22733 18.0574 7.25699 18.33 7.29376L18.1813 8.07482ZM19.8116 9.91569C19.9228 9.91569 20.0096 9.90501 20.0843 9.88307L19.9477 10.6303C19.6617 10.7068 19.4382 10.7406 19.2014 10.7406C18.6664 10.7406 18.3804 10.4779 18.3804 10.0005C18.3804 9.9056 18.3926 9.80478 18.4053 9.69803L18.4679 9.36651L18.5171 9.10023L19.0022 6.52871H20.0339L19.8851 7.30206H20.4195L20.2701 8.12167H19.7351L19.4619 9.52664C19.4491 9.58772 19.4491 9.63398 19.4491 9.66541C19.4491 9.84037 19.5615 9.9145 19.8116 9.91569ZM22.3553 8.24977C21.858 8.24977 21.697 8.61154 21.3236 10.6712H20.2786L20.9131 7.30265H21.8586L21.759 7.81387C22.0826 7.41593 22.3304 7.26648 22.6668 7.26648C22.7044 7.26648 22.7421 7.27003 22.7791 7.27478C22.7791 7.27656 22.8174 7.28308 22.8678 7.29494C22.8799 7.2985 22.892 7.2985 22.9795 7.33171L22.6079 8.28358L22.4834 8.25867C22.4336 8.25274 22.3966 8.24977 22.3553 8.24977ZM24.2006 10.7596C23.0165 10.7596 22.5453 10.061 22.5453 9.20638C22.5453 8.01374 23.3535 7.20421 24.5971 7.20421C25.6804 7.20421 26.2524 7.86962 26.2524 8.72363C26.2524 8.93298 26.2524 8.94721 26.2275 9.14293C26.0654 10.2632 25.2693 10.7608 24.2006 10.7596ZM26.3392 10.6695C26.1898 10.6695 26.0654 10.5514 26.0654 10.4056C26.0654 10.262 26.1898 10.144 26.3392 10.144C26.4886 10.144 26.6131 10.262 26.6131 10.4056C26.6131 10.552 26.4886 10.6695 26.3392 10.6695Z" fill="#A9A9A9"/>
<path d="M26.34 10.2075C26.2281 10.2075 26.1284 10.297 26.1284 10.4068C26.1284 10.5194 26.2281 10.6084 26.34 10.6084C26.4525 10.6084 26.5395 10.5183 26.5395 10.4068C26.5395 10.2976 26.4525 10.2075 26.34 10.2075ZM26.4392 10.5242H26.3765L26.3388 10.4334H26.3011V10.5242H26.2513V10.2911H26.351C26.3644 10.2911 26.3893 10.2923 26.4142 10.3048C26.4264 10.316 26.4392 10.3391 26.4392 10.3629C26.4392 10.3878 26.4264 10.4127 26.4015 10.4234L26.4392 10.5242Z" fill="#A9A9A9"/>
<path d="M26.3625 10.3358C26.3631 10.3304 26.3384 10.3304 26.3264 10.3304H26.3005V10.3903H26.3378C26.3378 10.3903 26.3504 10.3903 26.3625 10.3856C26.3751 10.3803 26.3751 10.369 26.3751 10.3589C26.3751 10.35 26.3751 10.3405 26.3625 10.3358Z" fill="#A9A9A9"/>
<path d="M14.0769 7.98807C13.7411 7.98807 13.5049 8.20216 13.4053 8.5924L14.562 8.59477C14.562 8.52123 14.562 8.4643 14.562 8.42041C14.562 8.14701 14.3877 7.98807 14.0769 7.98807Z" fill="#A9A9A9"/>
<path d="M10.705 9.15457C10.1215 9.15398 9.82275 9.32656 9.82275 9.66698C9.82275 9.87633 9.95998 10.0104 10.1956 10.0104C10.6188 10.0104 10.917 9.6652 10.9419 9.16703C10.8295 9.15576 10.7797 9.15457 10.705 9.15457Z" fill="#A9A9A9"/>
<path d="M24.5719 8.0279C24.0369 8.0279 23.7139 8.64172 23.7139 9.18259C23.7139 9.64043 23.9373 9.94764 24.3108 9.94052C24.5354 9.94052 25.0194 9.63865 25.1068 9.11498C25.1311 8.99222 25.1439 8.85759 25.1439 8.7111C25.1439 8.36001 24.9951 8.02671 24.5719 8.0279Z" fill="#A9A9A9"/>
</svg>
