<svg width="30" height="18" viewBox="0 0 30 18" fill="none" xmlns="http://www.w3.org/2000/svg"><path d="M20.605.01a8.882 8.882 0 0 0-5.902 2.223A8.888 8.888 0 0 0 8.802.012h-.057C3.913.042 0 3.882 0 8.608c0 4.745 3.943 8.596 8.801 8.596 2.27 0 4.34-.84 5.9-2.221a8.58 8.58 0 0 1-.9-.94h1.818a8.682 8.682 0 0 1-.894.921h-.001l-.023.02a8.886 8.886 0 0 0 5.908 2.223c4.86-.002 8.8-3.852 8.798-8.599v-.004c.001-4.747-3.94-8.595-8.802-8.594zm-6.703 3.11h1.673c.247.292.476.6.683.92h-2.984c.192-.306.404-.623.628-.92zm-1.148 1.823h4.012c.143.298.269.606.38.921h-4.868c.049-.088.219-.447.476-.92zm-9.16 5.855l.533-3.287-1.204 3.287h-.646L2.193 7.51l-.57 3.287H.72l.75-4.36h1.367l.048 2.675.923-2.674h1.484l-.74 4.359h-.958zm3.196-.008l.031-.348c-.014.002-.3.42-.961.42-.346 0-.905-.184-.905-.985 0-1.02.851-1.358 1.662-1.358.128 0 .403.023.403.023s.03-.063.03-.231c0-.277-.254-.315-.604-.315-.615 0-1.02.16-1.02.16l.135-.788s.493-.202 1.135-.202c.332 0 1.287.035 1.287 1.104l-.368 2.52H6.79zm3.488-1.11c0 1.217-1.207 1.164-1.418 1.164-.786 0-1.029-.106-1.051-.112l.125-.8c0-.007.394.14.832.14.253 0 .58-.025.58-.32 0-.441-1.173-.336-1.173-1.384 0-.924.704-1.195 1.397-1.195.536 0 .865.072.865.072l-.119.808s-.508-.041-.64-.041c-.333 0-.515.071-.515.299 0 .458 1.117.234 1.117 1.37zm1.448.32c.084 0 .178-.029.242-.029l-.117.778c-.094.025-.36.118-.703.12-.436.004-.747-.235-.747-.775 0-.363.533-3.354.554-3.374h.937l-.096.535h.468l-.12.862h-.496l-.263 1.588c-.02.126.015.294.341.294zm2.061-2.846c1.03 0 1.337.736 1.337 1.339 0 .241-.124.834-.124.834h-1.904s-.176.733.83.733c.472 0 .995-.226.995-.226l-.165.882s-.302.151-.99.151c-.745 0-1.619-.308-1.619-1.6 0-1.121.698-2.113 1.64-2.113zm2.482 6.004h-3.122c-.19-.297-.368-.6-.52-.92h4.155a8.757 8.757 0 0 1-.513.92zm-.21-2.354h-.961l.585-3.548h.872l-.084.515s.311-.56.73-.56c.123 0 .182.012.182.012-.125.248-.235.475-.349 1.062-.65-.226-.7 1.004-.974 2.52zm3.665-.055s-.504.126-.82.126c-1.118 0-1.686-.754-1.686-1.896 0-1.721 1.053-2.638 2.134-2.638.489 0 1.056.224 1.056.224l-.154.97s-.383-.262-.86-.262c-.637 0-1.209.594-1.209 1.674 0 .532.267 1.028.932 1.028.316 0 .775-.225.775-.225l-.168.999zm2.256.043l.032-.35c-.015.002-.3.42-.961.42-.346 0-.905-.184-.905-.986 0-1.02.851-1.358 1.661-1.358.128 0 .404.023.404.023s.031-.062.031-.23c0-.277-.255-.315-.605-.315-.615 0-1.02.16-1.02.16l.136-.788s.492-.202 1.135-.202c.332 0 1.287.035 1.287 1.104l-.368 2.52c0 .002-.827.002-.827.002zm1.948.012h-.962l.585-3.548h.873l-.084.515s.312-.56.731-.56c.122 0 .18.012.18.012-.123.248-.235.475-.348 1.062-.652-.226-.701 1.004-.975 2.52zm2.871-.01l.041-.326s-.31.383-.873.383c-.78 0-1.161-.735-1.161-1.486 0-1.16.715-2.173 1.574-2.173.552 0 .905.477.905.477l.203-1.225.94-.001-.717 4.352h-.912zm1.854-.122a.277.277 0 0 1-.105.104.29.29 0 0 1-.282 0 .277.277 0 0 1 .001-.484.294.294 0 0 1 .14-.037.29.29 0 0 1 .246.14.268.268 0 0 1 0 .277z" fill="#A9A9A9"/><path d="M6.694 9.197c-.687 0-.826.301-.826.552 0 .13.076.345.366.345.565 0 .682-.722.664-.876-.027-.005-.044-.02-.204-.021zm7.096-1.223c-.51 0-.608.567-.608.627h1.04c0-.046.098-.627-.431-.627zm12.753.096c-.412 0-.738.468-.738 1.178 0 .433.158.71.496.71.507 0 .752-.646.752-1.129 0-.532-.173-.758-.51-.758zm2.07 2.346a.227.227 0 0 0-.089-.086.237.237 0 0 0-.353.202c0 .04.01.079.03.115a.246.246 0 0 0 .207.119.243.243 0 0 0 .206-.119.226.226 0 0 0-.001-.23zm-.132.268l-.027-.046a.241.241 0 0 0-.052-.07.063.063 0 0 0-.04-.011h-.028v.127h-.05v-.3h.106a.22.22 0 0 1 .078.01.087.087 0 0 1 .038.029.07.07 0 0 1 .014.044.08.08 0 0 1-.024.057.098.098 0 0 1-.063.027.1.1 0 0 1 .026.015c.013.013.027.03.045.06l.038.058h-.061zm-6.595-1.487c-.687 0-.826.301-.826.552 0 .13.075.345.367.345.564 0 .68-.722.663-.876-.028-.005-.045-.02-.204-.021z" fill="#A9A9A9"/><path d="M28.457 10.449a.054.054 0 0 0-.02-.015.173.173 0 0 0-.05-.006h-.055v.091h.06c.028 0 .047-.004.059-.012a.046.046 0 0 0 .014-.034.039.039 0 0 0-.008-.024z" fill="#A9A9A9"/></svg>