<svg width="30" height="18" viewBox="0 0 30 18" fill="none" xmlns="http://www.w3.org/2000/svg">
<path d="M20.6055 0.0097659C18.3338 0.010359 16.2631 0.851321 14.7025 2.23256C13.1407 0.853101 11.0712 0.0115452 8.80196 0.0115452C8.78314 0.0115452 8.7637 0.0115452 8.74549 0.0115452C3.91306 0.0423845 0 3.88187 0 8.60798C0 13.3531 3.94342 17.2038 8.80135 17.2038C11.0706 17.2038 13.1401 16.3635 14.7013 14.9828C14.3752 14.6952 14.0801 14.3767 13.8014 14.0434H15.6189C15.345 14.3714 15.0462 14.6786 14.725 14.9644H14.7238C14.7165 14.9721 14.7086 14.9769 14.7013 14.9834C16.2637 16.3652 18.3356 17.2074 20.6086 17.2068C25.4695 17.205 29.4087 13.3549 29.4075 8.60798C29.4075 8.6062 29.4075 8.60502 29.4075 8.60383C29.4081 3.85696 25.4665 0.00857977 20.6055 0.0097659ZM13.9022 3.12038H15.5751C15.8217 3.41216 16.0506 3.71937 16.2583 4.04081H13.2737C13.4662 3.7336 13.6775 3.4175 13.9022 3.12038ZM12.7539 4.94345H16.7659C16.9086 5.24117 17.0349 5.54897 17.1455 5.86448H12.2784C12.327 5.77552 12.497 5.41731 12.7539 4.94345ZM3.59305 10.7976L4.12681 7.51082L2.92265 10.7976H2.27715L2.19336 7.51082L1.62316 10.7976H0.718974L1.46831 6.43856H2.83582L2.88379 9.11327L3.8074 6.43856H5.29089L4.55188 10.7976H3.59305ZM6.79017 10.7905L6.82114 10.4423C6.80657 10.4441 6.52116 10.8628 5.85988 10.8628C5.51375 10.8628 4.95509 10.6784 4.95509 9.87654C4.95509 8.85707 5.80644 8.51902 6.61711 8.51902C6.74463 8.51902 7.01971 8.54156 7.01971 8.54156C7.01971 8.54156 7.05068 8.47929 7.05068 8.31086C7.05068 8.0339 6.79564 7.99594 6.44647 7.99594C5.83134 7.99594 5.42509 8.15666 5.42509 8.15666L5.56111 7.36789C5.56111 7.36789 6.05419 7.16625 6.69605 7.16625C7.02821 7.16625 7.9834 7.20065 7.9834 8.26994L7.61541 10.7905H6.79017ZM10.2776 9.68024C10.2776 10.8966 9.07097 10.8444 8.86026 10.8444C8.07388 10.8444 7.83098 10.7383 7.80851 10.7323L7.93361 9.9317C7.93482 9.92458 8.32831 10.0711 8.76613 10.0711C9.01875 10.0711 9.34666 10.0468 9.34666 9.752C9.34666 9.31076 8.17347 9.41633 8.17347 8.36839C8.17347 7.4438 8.87665 7.17337 9.57012 7.17337C10.1057 7.17337 10.4348 7.24513 10.4348 7.24513L10.3164 8.05288C10.3164 8.05288 9.80816 8.01196 9.67639 8.01196C9.34301 8.01196 9.16145 8.08312 9.16145 8.31086C9.16084 8.7687 10.2776 8.54452 10.2776 9.68024ZM11.7264 9.99931C11.8096 9.99931 11.9037 9.97143 11.9681 9.97143L11.8509 10.7489C11.7568 10.7744 11.4902 10.867 11.1483 10.8693C10.7117 10.8729 10.4014 10.6345 10.4014 10.0936C10.4014 9.73065 10.934 6.73984 10.9546 6.72027H11.8916L11.7963 7.25521H12.2638L12.1442 8.11693H11.6481L11.3846 9.70455C11.3645 9.83088 11.4003 9.99931 11.7264 9.99931ZM13.7874 7.15439C14.8161 7.15439 15.1239 7.88978 15.1239 8.49293C15.1239 8.73431 15.0001 9.32737 15.0001 9.32737H13.0958C13.0958 9.32737 12.9197 10.0598 13.9259 10.0598C14.3977 10.0598 14.9211 9.83444 14.9211 9.83444L14.756 10.7163C14.756 10.7163 14.4536 10.867 13.7662 10.867C13.0211 10.867 12.1473 10.5592 12.1473 9.26628C12.1479 8.14599 12.845 7.15439 13.7874 7.15439ZM16.2692 13.158H13.1468C12.9567 12.8614 12.7794 12.5572 12.627 12.2375H16.7823C16.6293 12.5554 16.4581 12.8626 16.2692 13.158ZM16.0597 10.8041H15.0978L15.6826 7.25639H16.5552L16.4714 7.77058C16.4714 7.77058 16.7823 7.21132 17.2019 7.21132C17.324 7.21132 17.3829 7.22318 17.3829 7.22318C17.2584 7.47108 17.1485 7.69823 17.0343 8.28476C16.3834 8.0594 16.3336 9.28882 16.0597 10.8041ZM19.7244 10.7489C19.7244 10.7489 19.2204 10.8747 18.9046 10.8747C17.7861 10.8747 17.2183 10.1209 17.2183 8.97924C17.2183 7.25758 18.2707 6.34071 19.3522 6.34071C19.841 6.34071 20.4076 6.56488 20.4076 6.56488L20.2545 7.53454C20.2545 7.53454 19.8714 7.273 19.3947 7.273C18.7571 7.273 18.1851 7.86725 18.1851 8.94721C18.1851 9.47919 18.4516 9.97499 19.1172 9.97499C19.4335 9.97499 19.892 9.75022 19.892 9.75022L19.7244 10.7489ZM21.9803 10.7922L22.0119 10.4417C21.9967 10.4435 21.7113 10.8622 21.0506 10.8622C20.7045 10.8622 20.1458 10.6778 20.1458 9.87595C20.1458 8.85648 20.9972 8.51843 21.8072 8.51843C21.9348 8.51843 22.2105 8.54097 22.2105 8.54097C22.2105 8.54097 22.242 8.47929 22.242 8.31086C22.242 8.0339 21.987 7.99594 21.6372 7.99594C21.0221 7.99594 20.6164 8.15666 20.6164 8.15666L20.7525 7.36789C20.7525 7.36789 21.2455 7.16625 21.888 7.16625C22.2196 7.16625 23.1754 7.20065 23.1748 8.26994L22.8068 10.7905C22.8062 10.7922 21.9803 10.7922 21.9803 10.7922ZM23.9277 10.8041H22.9659L23.5506 7.25639H24.4238L24.34 7.77058C24.34 7.77058 24.6516 7.21132 25.0712 7.21132C25.1932 7.21132 25.2515 7.22318 25.2515 7.22318C25.1276 7.47108 25.0165 7.69823 24.903 8.28476C24.2514 8.0594 24.2016 9.28882 23.9277 10.8041ZM26.7994 10.7946L26.8401 10.4678C26.8401 10.4678 26.5292 10.8509 25.9668 10.8509C25.1878 10.8509 24.8058 10.1161 24.8058 9.36532C24.8058 8.20411 25.5211 7.19175 26.3798 7.19175C26.9324 7.19294 27.2852 7.66917 27.2852 7.66917L27.488 6.44449L28.4274 6.44271L27.7108 10.7946H26.7994V10.7946ZM28.6527 10.6718C28.6278 10.7157 28.5926 10.7495 28.5476 10.7756C28.5033 10.7999 28.4559 10.8124 28.4061 10.8124C28.3576 10.8124 28.3108 10.7999 28.2659 10.7756C28.2209 10.7495 28.1857 10.7157 28.1608 10.6718C28.1353 10.6274 28.1232 10.5823 28.1232 10.5342C28.1232 10.4856 28.1359 10.4394 28.1608 10.3955C28.1857 10.3516 28.2227 10.316 28.2671 10.2923C28.3132 10.268 28.3588 10.2555 28.4061 10.2555C28.4547 10.2555 28.5009 10.268 28.5458 10.2923C28.5919 10.3166 28.6272 10.3504 28.6527 10.3955C28.6788 10.44 28.6903 10.4862 28.6903 10.5342C28.6903 10.5823 28.6782 10.628 28.6527 10.6718Z" fill="#A9A9A9"/>
<path d="M6.69352 9.19678C6.00673 9.19678 5.86768 9.49805 5.86768 9.74892C5.86768 9.87821 5.94358 10.0941 6.23445 10.0941C6.79858 10.0941 6.91577 9.37173 6.89756 9.21813C6.87084 9.21279 6.85384 9.19737 6.69352 9.19678Z" fill="#A9A9A9"/>
<path d="M13.7907 7.97354C13.28 7.97354 13.1816 8.5411 13.1816 8.601H14.2218C14.2218 8.55534 14.3196 7.97354 13.7907 7.97354Z" fill="#A9A9A9"/>
<path d="M26.543 8.07095C26.1307 8.07095 25.8046 8.53829 25.8052 9.24818C25.8052 9.68112 25.9631 9.95867 26.3007 9.95867C26.8083 9.95867 27.0531 9.31164 27.0531 8.82948C27.0531 8.2975 26.88 8.07095 26.543 8.07095Z" fill="#A9A9A9"/>
<path d="M28.6129 10.4163C28.5916 10.3795 28.5618 10.3511 28.5241 10.3303C28.4864 10.3096 28.4481 10.2995 28.4079 10.2995C28.369 10.2995 28.3295 10.3101 28.2918 10.3303C28.2541 10.3493 28.2243 10.3789 28.203 10.4163C28.1817 10.4537 28.1708 10.4934 28.1708 10.5319C28.1708 10.5717 28.1817 10.6108 28.2018 10.647C28.2243 10.6838 28.2529 10.7116 28.2906 10.7336C28.3283 10.7538 28.3672 10.7656 28.4079 10.7656C28.4487 10.7656 28.4888 10.7538 28.5253 10.7336C28.563 10.7128 28.5922 10.6844 28.6141 10.647C28.6354 10.6102 28.6451 10.5717 28.6451 10.5319C28.6451 10.4928 28.6342 10.4537 28.6129 10.4163ZM28.4809 10.6844L28.4536 10.6381C28.4323 10.6007 28.4152 10.577 28.4025 10.5681C28.3921 10.5604 28.38 10.5569 28.3623 10.5569H28.3344V10.6838H28.2833V10.3849H28.3897C28.4256 10.3849 28.4523 10.3878 28.4675 10.3944C28.4827 10.3997 28.4961 10.4098 28.5065 10.4228C28.5168 10.4359 28.5204 10.4507 28.5204 10.4667C28.5204 10.4887 28.5119 10.507 28.4961 10.5236C28.4803 10.5408 28.4584 10.548 28.4329 10.5509C28.445 10.5557 28.4529 10.561 28.459 10.5663C28.4718 10.5788 28.4864 10.5966 28.504 10.6251L28.5417 10.6844C28.5417 10.6844 28.4809 10.6844 28.4809 10.6844Z" fill="#A9A9A9"/>
<path d="M21.8857 9.19678C21.1989 9.19678 21.0598 9.49805 21.0598 9.74892C21.0598 9.87821 21.1351 10.0941 21.4266 10.0941C21.9907 10.0941 22.1073 9.37173 22.0897 9.21813C22.0624 9.21279 22.0454 9.19737 21.8857 9.19678Z" fill="#A9A9A9"/>
<path d="M28.4573 10.449C28.4525 10.443 28.4458 10.4383 28.4368 10.4342C28.4265 10.4312 28.4114 10.4282 28.3872 10.4282V10.4288H28.3322V10.519H28.392C28.4204 10.519 28.4392 10.5154 28.4507 10.5065C28.4598 10.4976 28.4652 10.4863 28.4652 10.4733C28.4652 10.4632 28.4628 10.4573 28.4573 10.449Z" fill="#A9A9A9"/>
</svg>
