<svg width="35" height="11" viewBox="0 0 35 11" fill="none" xmlns="http://www.w3.org/2000/svg">
<path fill-rule="evenodd" clip-rule="evenodd" d="M9.49331 0.0102846V0.0146486C9.48895 0.0146486 8.11721 0.0102846 7.75142 1.32385C7.4161 2.52831 6.47113 5.85367 6.445 5.94531H6.18371C6.18371 5.94531 5.21696 2.54576 4.8773 1.31948C4.5115 0.00592058 3.1354 0.0102846 3.1354 0.0102846H0V10.0038H3.1354V4.0688H3.26605H3.39669L5.22567 10.0038H7.40304L9.23202 4.07316H9.49331V10.0038H12.6287V0.0102846H9.49331Z" fill="#A9A9A9"/>
<path fill-rule="evenodd" clip-rule="evenodd" d="M20.9471 0.00976562C20.9471 0.00976562 20.0282 0.0926814 19.5971 1.05712L17.3762 5.94479H17.1149V0.00976562H13.9795V10.0033H16.9407C16.9407 10.0033 17.9031 9.91602 18.3342 8.95595L20.5116 4.06828H20.7729V10.0033H23.9083V0.00976562H20.9471Z" fill="#A9A9A9"/>
<path fill-rule="evenodd" clip-rule="evenodd" d="M25.3005 4.54773V10.0027H28.4359V6.817H31.8326C33.3132 6.817 34.5674 5.87002 35.0334 4.54773H25.3005Z" fill="#A9A9A9"/>
<path fill-rule="evenodd" clip-rule="evenodd" d="M31.8335 0.00976562H24.8616C25.21 1.91247 26.6339 3.43986 28.476 3.93736C28.8941 4.05082 29.3339 4.11192 29.7868 4.11192H35.1605C35.2084 3.88499 35.2302 3.6537 35.2302 3.41368C35.2302 1.5328 33.7104 0.00976562 31.8335 0.00976562Z" fill="#A9A9A9"/>
</svg>
