<svg width="35" height="11" viewBox="0 0 35 11" fill="none" xmlns="http://www.w3.org/2000/svg"><path fill-rule="evenodd" clip-rule="evenodd" d="M9.493.01v.005C9.49.015 8.117.01 7.751 1.324c-.335 1.204-1.28 4.53-1.306 4.621h-.261s-.967-3.4-1.307-4.626C4.512.006 3.135.01 3.135.01H0v9.994h3.135V4.069h.261l1.83 5.935h2.177l1.829-5.93h.261v5.93h3.136V.01H9.493zm11.454 0s-.919.083-1.35 1.047l-2.22 4.888h-.262V.01H13.98v9.993h2.96s.963-.087 1.394-1.047l2.178-4.888h.26v5.935h3.136V.01h-2.96zM25.3 4.548v5.455h3.136V6.817h3.397c1.48 0 2.734-.947 3.2-2.27H25.3zM31.834.01h-6.972a5.015 5.015 0 0 0 4.925 4.102h5.373c.048-.227.07-.458.07-.698A3.4 3.4 0 0 0 31.834.01z" fill="#A9A9A9"/></svg>