<svg width="34" height="21" viewBox="0 0 34 21" fill="none" xmlns="http://www.w3.org/2000/svg">
<path d="M33.8966 7.31952V12.2092H32.1784V8.77919H30.5239V12.2092H28.8057V7.31918H33.8966V7.31952Z" fill="#A9A9A9"/>
<path fill-rule="evenodd" clip-rule="evenodd" d="M25.2767 12.3829C26.8148 12.3829 27.957 11.4245 27.957 9.97167C27.957 8.5655 27.1143 7.65249 25.7059 7.65249C25.0559 7.65249 24.5195 7.88499 24.1156 8.28616C24.212 7.45699 24.902 6.85165 25.6618 6.85165C25.8371 6.85165 27.1571 6.84882 27.1571 6.84882L27.9036 5.39731C27.9036 5.39731 26.2463 5.43564 25.4759 5.43564C23.7157 5.46681 22.5267 7.09265 22.5267 9.06733C22.5267 11.3678 23.6863 12.3829 25.2767 12.3829ZM25.286 8.93817C25.8571 8.93817 26.2531 9.3195 26.2531 9.97151C26.2531 10.5583 25.9012 11.0418 25.286 11.0432C24.6975 11.0432 24.3016 10.5952 24.3016 9.98151C24.3016 9.32933 24.6975 8.93817 25.286 8.93817Z" fill="#A9A9A9"/>
<path d="M21.1286 10.571C21.1286 10.571 20.7228 10.8087 20.1168 10.8537C19.42 10.8747 18.7992 10.4275 18.7992 9.63299C18.7992 8.85798 19.347 8.41381 20.0992 8.41381C20.5604 8.41381 21.1706 8.73865 21.1706 8.73865C21.1706 8.73865 21.6171 7.90614 21.8483 7.48981C21.4248 7.16364 20.8608 6.9848 20.2047 6.9848C18.5489 6.9848 17.2665 8.08181 17.2665 9.62315C17.2665 11.1842 18.4718 12.2557 20.2047 12.2233C20.689 12.205 21.3572 12.0322 21.7645 11.7663L21.1286 10.571Z" fill="#A9A9A9"/>
<path d="M0 4.36292L2.38351 8.69211V11.3328L0.0027883 15.6535L0 4.36292Z" fill="#A9A9A9"/>
<path d="M9.15161 7.11763L11.385 5.72662L15.9559 5.72229L9.15161 9.95799V7.11763Z" fill="#A9A9A9"/>
<path d="M9.13903 4.33763L9.15166 10.0693L6.76257 8.57766V0.00976562L9.13903 4.33763Z" fill="#A9A9A9"/>
<path d="M15.9559 5.72164L11.3849 5.72597L9.13903 4.33763L6.76257 0.00976562L15.9559 5.72164Z" fill="#A9A9A9"/>
<path d="M9.15166 15.6775V12.8966L6.76257 11.4333L6.76389 20.0097L9.15166 15.6775Z" fill="#A9A9A9"/>
<path d="M11.3796 14.2991L2.38334 8.69211L0 4.36292L15.9463 14.2935L11.3796 14.2991Z" fill="#A9A9A9"/>
<path d="M6.76416 20.0105L9.1516 15.6783L11.3795 14.2999L15.9462 14.2943L6.76416 20.0105Z" fill="#A9A9A9"/>
<path d="M0.00317383 15.654L6.78252 11.434L4.50333 10.013L2.38389 11.3333L0.00317383 15.654Z" fill="#A9A9A9"/>
</svg>
