<svg width="34" height="21" viewBox="0 0 34 21" fill="none" xmlns="http://www.w3.org/2000/svg"><path d="M33.897 7.32v4.89h-1.719V8.78h-1.654v3.43h-1.718V7.32h5.09z" fill="#A9A9A9"/><path fill-rule="evenodd" clip-rule="evenodd" d="M25.277 12.383c1.538 0 2.68-.958 2.68-2.411 0-1.406-.843-2.32-2.251-2.32-.65 0-1.186.233-1.59.634.096-.829.786-1.434 1.546-1.434l1.495-.003.747-1.452s-1.658.039-2.428.039c-1.76.03-2.95 1.657-2.95 3.631 0 2.3 1.16 3.316 2.75 3.316zm.009-3.445c.571 0 .967.381.967 1.034 0 .586-.352 1.07-.967 1.071-.588 0-.984-.448-.984-1.061 0-.653.396-1.044.984-1.044z" fill="#A9A9A9"/><path d="M21.129 10.571s-.406.238-1.012.283c-.697.02-1.318-.426-1.318-1.221 0-.775.548-1.22 1.3-1.22.461 0 1.072.326 1.072.326s.446-.833.677-1.25c-.423-.325-.987-.504-1.643-.504-1.656 0-2.938 1.097-2.938 2.638 0 1.561 1.205 2.633 2.938 2.6.484-.018 1.152-.19 1.56-.457l-.636-1.195zM0 4.363l2.384 4.33v2.64l-2.381 4.32L0 4.364zm9.152 2.755l2.233-1.391 4.57-.005-6.803 4.236v-2.84zm-.013-2.78l.013 5.731-2.39-1.491V.01L9.14 4.338z" fill="#A9A9A9"/><path d="M15.956 5.722l-4.571.004-2.246-1.388L6.763.01l9.193 5.712zm-6.804 9.956v-2.781l-2.39-1.464.002 8.577 2.388-4.333z" fill="#A9A9A9"/><path d="M11.38 14.3L2.383 8.691 0 4.362l15.946 9.931-4.566.006zm-4.616 5.71l2.388-4.332L11.38 14.3l4.566-.006-9.182 5.716z" fill="#A9A9A9"/><path d="M.003 15.654l6.78-4.22-2.28-1.421-2.12 1.32-2.38 4.321z" fill="#A9A9A9"/></svg>