<svg width="74" height="14" viewBox="0 0 74 14" fill="none" xmlns="http://www.w3.org/2000/svg"><path d="M2.552 13H.424V1h2.128v5.472L7.416 1h1.536v1.152L4.744 6.808l4.608 4.976V13h-1.68l-5.12-5.52V13zm7.36 0v-1.12L14.232 1h1.92l4.304 10.72V13h-1.712l-1.136-2.928H12.68L11.544 13H9.912zm5.232-9.424L13.32 8.328h3.648l-1.824-4.752zm8.496-.784h-3.68V1h9.488v1.792h-3.68V13H23.64V2.792zM28.896 13v-1.12L33.216 1h1.92l4.304 10.72V13h-1.712l-1.136-2.928h-4.928L30.528 13h-1.632zm5.232-9.424l-1.824 4.752h3.648l-1.824-4.752zm5.879 7.456h.416c.533 0 .933-.341 1.2-1.024.266-.683.421-1.803.464-3.36L42.23 1h7.664v12H47.75V2.792h-3.632l-.08 3.856a24.23 24.23 0 0 1-.224 2.736c-.118.79-.304 1.45-.56 1.984-.256.533-.592.939-1.008 1.216-.416.277-.934.416-1.552.416h-.688v-1.968zm17.977 2.16c-.895 0-1.712-.155-2.448-.464a5.509 5.509 0 0 1-1.872-1.296 6.022 6.022 0 0 1-1.2-1.968 7.1 7.1 0 0 1-.431-2.512c0-.896.143-1.717.431-2.464a5.839 5.839 0 0 1 1.2-1.952 5.429 5.429 0 0 1 1.872-1.264c.736-.31 1.553-.464 2.448-.464.896 0 1.707.155 2.432.464.737.299 1.36.72 1.873 1.264a5.707 5.707 0 0 1 1.215 1.952c.288.747.433 1.568.433 2.464a7.1 7.1 0 0 1-.432 2.512 5.883 5.883 0 0 1-1.217 1.968 5.309 5.309 0 0 1-1.871 1.296c-.726.31-1.537.464-2.433.464zm0-1.776c.587 0 1.115-.107 1.584-.32a3.53 3.53 0 0 0 1.2-.928c.331-.395.587-.864.768-1.408a5.789 5.789 0 0 0 .273-1.808c0-.64-.091-1.227-.273-1.76a4.108 4.108 0 0 0-.767-1.376 3.36 3.36 0 0 0-1.2-.912 3.786 3.786 0 0 0-1.585-.32c-.576 0-1.098.107-1.568.32a3.36 3.36 0 0 0-1.2.912c-.33.384-.586.843-.767 1.376a5.44 5.44 0 0 0-.273 1.76c0 .65.091 1.253.273 1.808a4.24 4.24 0 0 0 .768 1.408c.33.395.73.704 1.2.928.469.213.991.32 1.567.32zM66.08 1h7.072v1.792h-4.928V13H66.08V1z"/></svg>