<svg width="61" height="22" viewBox="0 0 61 22" fill="none" xmlns="http://www.w3.org/2000/svg"><g clip-path="url(#a)"><path d="M37.614 20.449l-6.201-7.657v7.657h-5.157V1.555h5.157V9.09l5.948-7.534h4.37V3.52l-5.69 7.005 6.48 7.93v1.994h-4.907zm11.574 0H44.03V1.555h5.157V12.59l6.634-11.034h5.161V20.45h-5.161V9.467l-6.634 10.982z" fill="#E63600"/><path fill-rule="evenodd" clip-rule="evenodd" d="M11.11 0c6.124 0 11.092 4.924 11.092 10.998 0 6.074-4.964 10.998-11.093 10.998-6.124 0-11.092-4.924-11.092-10.998C.017 4.924 4.98 0 11.11 0z" fill="#FEFEFE"/><path d="M11.114 0C5.447 0 .779 4.208.1 9.646h2.396a.53.53 0 0 0-.032.163c0 .055.02.111.032.163H.065c-.032.342-.052.684-.052 1.034 0 5.652 4.302 10.31 9.836 10.93l-1.16-3.392c-.24-.713.04-1.492.679-1.89l3.259-2.024-.362-1.003 1.417.024c.614 0 1.172-.51 1.525-1.006.04-.06.064-.124.096-.183l.932 2.573c.016.092.028.183.028.27 0 .538-.273 1.067-.767 1.373 0 0-2.079 1.273-3.307 2.037.413 1.213 1 2.927 1 2.927.015.052.028.107.04.16.618-.12 1.22-.291 1.802-.506l-1.076-2.98c.799-.496 1.63-.994 1.63-.994.525-.326.842-.89.842-1.507 0-.123-.016-.239-.044-.358h.004l1.53 4.232c2.608-2.013 4.29-5.155 4.29-8.687C22.206 4.928 17.237 0 11.11 0h.004zm-.667 6.173l3.11.044a6.36 6.36 0 0 1-.192.827c-1.16-.525-2.757.116-3.066 1.317-.887-.227-1.345-.97-1.521-1.866.514-.004 1.02.012 1.673-.322h-.004zM4.058 10.21H3.2a.41.41 0 0 1-.41-.405c0-.223.186-.402.41-.402h.86a.816.816 0 0 1 .697-.406H8.91c.414 0 .75.307.807.7H8.035c-.686 0-1.473.366-1.802.915H4.76a.808.808 0 0 1-.698-.402h-.004zm10.563 2.379c-.305.43-.802.684-1.332.684H7.915c-.899 0-1.63-.724-1.63-1.615 0-.89.731-1.615 1.63-1.615h3.054l-.229-.632a1.607 1.607 0 0 1-.096-.545c0-.664.417-1.285 1.08-1.52a1.634 1.634 0 0 1 2.087.98l1.007 2.791a1.602 1.602 0 0 1-.205 1.476l.008-.004z" fill="#003D9E"/><path d="M13.762 5c0-1.452-1.188-2.63-2.652-2.63a2.62 2.62 0 0 0-2.577 2.137c-.92.175-1.577.552-1.55.946.04.47 1.056.772 2.272.676.43-.035.823-.115 1.156-.226h3.347V5h.004z" fill="#FCC200"/></g><defs><clipPath id="a"><path fill="#fff" d="M0 0h61v22H0z"/></clipPath></defs></svg>