<svg width="61" height="22" viewBox="0 0 61 22" fill="none" xmlns="http://www.w3.org/2000/svg">
<g clip-path="url(#clip0_105_296)">
<path d="M37.6136 20.4487L31.413 12.7918V20.4487H26.2559V1.55518H31.413V9.08871L37.3608 1.55518H41.7313V3.5201L36.0404 10.5246L42.5219 18.4559V20.4487H37.6136Z" fill="#E63600"/>
<path d="M49.1879 20.4487H44.0308V1.55518H49.1879V12.589L55.822 1.55518H60.9831V20.4487H55.822V9.46658L49.1879 20.4487Z" fill="#E63600"/>
<path fill-rule="evenodd" clip-rule="evenodd" d="M11.1095 0C17.2338 0 22.2024 4.92425 22.2024 10.998C22.2024 17.0718 17.2378 21.996 11.1095 21.996C4.98512 21.996 0.0166016 17.0718 0.0166016 10.998C0.0166016 4.92425 4.9811 0 11.1095 0Z" fill="#FEFEFE"/>
<path d="M11.1136 0C5.44676 0 0.779244 4.20828 0.100989 9.64563H2.49695C2.4809 9.69734 2.46485 9.74905 2.46485 9.80871C2.46485 9.8644 2.48491 9.92009 2.49695 9.97179H0.0648688C0.032762 10.3139 0.0126953 10.6559 0.0126953 11.006C0.0126953 16.6581 4.315 21.3159 9.8494 21.9364L8.68954 18.5435C8.44874 17.8315 8.72967 17.0519 9.36779 16.6541L12.6266 14.6295L12.2654 13.6272L13.6821 13.6511C14.2962 13.6511 14.854 13.1419 15.2072 12.6447C15.2473 12.5851 15.2714 12.5214 15.3035 12.4618L16.2346 15.0353C16.2507 15.1267 16.2627 15.2182 16.2627 15.3057C16.2627 15.8427 15.9898 16.3717 15.4962 16.678C15.4962 16.678 13.4173 17.9508 12.1892 18.7145C12.6025 19.9277 13.1885 21.642 13.1885 21.642C13.2045 21.6937 13.2166 21.7494 13.2286 21.8011C13.8467 21.6818 14.4487 21.5108 15.0306 21.296L13.955 18.3168C14.7537 17.8196 15.5845 17.3224 15.5845 17.3224C16.1102 16.9962 16.4273 16.4314 16.4273 15.8149C16.4273 15.6916 16.4112 15.5762 16.3831 15.4569H16.3871L17.9162 19.689C20.5249 17.6764 22.2065 14.5341 22.2065 11.002C22.2065 4.92822 17.238 0 11.1096 0H11.1136ZM10.4474 6.1732L13.5577 6.21696C13.5336 6.38799 13.4253 6.88519 13.3651 7.04429C12.2052 6.51925 10.6079 7.15964 10.2989 8.36087C9.41194 8.13415 8.95442 7.39034 8.77783 6.49539C9.29154 6.49141 9.79722 6.50732 10.4514 6.1732H10.4474ZM4.05814 10.2104H3.19929C2.97454 10.2104 2.78993 10.0275 2.78993 9.80474C2.78993 9.58199 2.97454 9.403 3.19929 9.403H4.05814C4.19861 9.16435 4.45948 8.99729 4.75646 8.99729H8.91027C9.32365 8.99729 9.66077 9.30356 9.71695 9.69734C8.90626 9.69734 8.03536 9.69734 8.03536 9.69734C7.34908 9.69734 6.56247 10.0633 6.23337 10.6122H4.76048C4.45948 10.6122 4.20262 10.4491 4.06216 10.2104H4.05814ZM14.6213 12.589C14.3162 13.0186 13.8186 13.2732 13.2888 13.2732H7.91496C7.01598 13.2732 6.28555 12.5493 6.28555 11.6583C6.28555 10.7673 7.01598 10.0434 7.91496 10.0434C7.91496 10.0434 9.47214 10.0434 10.9691 10.0434C10.8889 9.82065 10.7404 9.41096 10.7404 9.41096C10.6761 9.23196 10.644 9.049 10.644 8.86603C10.644 8.20177 11.0614 7.58127 11.7236 7.34659C12.5745 7.04429 13.5055 7.48183 13.8106 8.32508L14.8179 11.1173C14.9945 11.6106 14.9223 12.1634 14.6132 12.593L14.6213 12.589Z" fill="#003D9E"/>
<path d="M13.7623 4.99979C13.7623 3.54797 12.5744 2.37061 11.1095 2.37061C9.8172 2.37061 8.7657 3.2934 8.53293 4.50657C7.61387 4.68158 6.95568 5.05945 6.98378 5.45323C7.02391 5.92259 8.03929 6.22488 9.25533 6.12942C9.68476 6.09362 10.0781 6.01407 10.4112 5.9027H13.7583V4.99979H13.7623Z" fill="#FCC200"/>
</g>
<defs>
<clipPath id="clip0_105_296">
<rect width="61" height="22" fill="white"/>
</clipPath>
</defs>
</svg>
