<svg width="134" height="30" viewBox="0 0 134 30" fill="none" xmlns="http://www.w3.org/2000/svg"><g clip-path="url(#a)"><path d="M44.222 12.79l-3.237-4.06v4.06h-2.686V2.785h2.686v3.99l3.1-3.99h2.286v1.04l-2.975 3.713 3.389 4.199v1.053h-2.563zm11.971-8.966l-4.711 8.966h-2.26v-1.04l1.172-2.05-3.155-5.862V2.785h2.576l2.108 4.074 1.997-4.074h2.273v1.04zm4.794 8.966H57.24V2.785h6.86v2.328h-4.16v1.261H61c1.24 0 2.205.305 2.894.9.688.597 1.046 1.331 1.046 2.204 0 .956-.344 1.746-1.046 2.37-.703.623-1.667.928-2.893.928l-.014.014zM59.87 8.425v2.092h1.102c.4 0 .703-.097.923-.277.22-.18.33-.443.33-.776a.922.922 0 0 0-.344-.748c-.22-.194-.537-.291-.923-.291h-1.102.014zm8.321 2.605l-.564 1.76h-2.232v-.929L68.55 2.8h2.989l3.14 8.938v1.067h-2.465l-.551-1.76h-3.458l-.014-.014zm.69-2.217h2.093L69.941 5.46l-1.06 3.353zm9.559 3.977h-2.686V2.785h2.686V6.5h3.306V2.785h2.7V12.79h-2.7V8.813H78.44v3.977zm11.434 0h-3.61V2.785h2.687v2.993h.91c1.267 0 2.258.333 2.975 1.012.716.679 1.074 1.496 1.074 2.452 0 1.026-.358 1.885-1.074 2.55-.717.665-1.708.998-2.962.998zm-.964-4.74v2.467h.95c.427 0 .758-.11 1.006-.332.248-.222.358-.527.358-.929 0-.36-.124-.651-.372-.873-.248-.221-.579-.346-.992-.346h-.95v.014zM40.985 26.951h-2.686V16.947h2.686v5.834l3.458-5.834h2.7V26.95h-2.7v-5.82l-3.458 5.82zm10.662 0h-2.7V16.947h2.7v3.7h3.306v-3.7h2.686V26.95h-2.686v-3.977h-3.306v3.977zm12.219.236c-1.474 0-2.659-.471-3.526-1.413-.882-.943-1.323-2.217-1.323-3.81 0-1.622.44-2.91 1.322-3.853.882-.942 2.053-1.413 3.527-1.413 1.143 0 2.039.235 2.672.706.634.471 1.02 1.04 1.171 1.69v1.04h-2.176a1.29 1.29 0 0 0-.524-.818c-.289-.207-.66-.304-1.13-.304-.66 0-1.184.249-1.583.748-.4.499-.593 1.22-.593 2.175 0 .929.193 1.65.593 2.148.4.499.923.748 1.584.748.454 0 .84-.11 1.143-.332.303-.222.496-.499.579-.845h2.176v1.039c-.165.707-.592 1.302-1.28 1.76-.69.47-1.571.706-2.632.706v.028zm10.028-.236h-2.7v-7.676h-2.617v-2.328h7.935v2.328h-2.618v7.676zm6.434 0H77.64V16.947h3.568c1.24 0 2.232.305 2.962.928.73.624 1.088 1.469 1.088 2.522 0 .984-.358 1.815-1.06 2.508-.703.693-1.709 1.053-2.99 1.053h-.881v2.993zm-.056-7.732v2.467h.91c.413 0 .743-.111.992-.36.247-.236.371-.54.371-.929 0-.36-.124-.651-.358-.873-.248-.208-.578-.319-1.005-.319h-.91v.014zm14.368-1.233l-4.697 8.965H87.67v-1.039l1.184-2.064L85.7 18v-1.053h2.562l2.108 4.06 2.011-4.06h2.26v1.039zm7.136 7.15h-1.79l-1.75-4.101v5.916h-2.549V16.947h3.279l1.997 4.739 1.97-4.74h3.292v10.005h-2.7v-5.916l-1.749 4.101zm12.88 1.815h-6.612V16.947h6.612v2.328h-3.926v1.482h3.402v2.107h-3.402v1.746h3.926v2.341zm4.27 0h-2.7V16.947h2.7v3.7h3.306v-3.7h2.7V26.95h-2.7v-3.977h-3.306v3.977zm12.44 0h-2.687v-7.676h-2.617v-2.328h7.935v2.328h-2.631v7.676z" fill="#E63600"/><path fill-rule="evenodd" clip-rule="evenodd" d="M14.908 0c8.238 0 14.905 6.72 14.905 15.007 0 8.286-6.667 15.007-14.905 15.007-8.237 0-14.905-6.72-14.905-15.007C.003 6.72 6.671 0 14.908 0z" fill="#FEFEFE"/><path d="M14.922 0C7.304 0 1.036 5.737.127 13.15h3.224c-.014.07-.042.139-.042.222 0 .083.028.152.042.222H.086c-.041.47-.069.928-.069 1.413 0 7.704 5.786 14.05 13.224 14.91l-1.556-4.628c-.33-.97.055-2.037.909-2.578l4.38-2.757-.482-1.372 1.901.028c.827 0 1.57-.693 2.053-1.372.055-.083.083-.166.138-.25l1.253 3.506c.028.125.042.25.042.374 0 .735-.359 1.455-1.034 1.871 0 0-2.796 1.732-4.435 2.771.55 1.65 1.35 3.991 1.35 3.991.027.07.041.139.055.222a14.62 14.62 0 0 0 2.424-.693l-1.446-4.06c1.074-.679 2.19-1.358 2.19-1.358a2.427 2.427 0 0 0 1.13-2.05c0-.167-.028-.333-.055-.486l2.052 5.779a14.989 14.989 0 0 0 5.772-11.848C29.882 6.72 23.202 0 14.963 0h-.04zm-.895 8.411l4.174.056c-.028.235-.18.914-.262 1.122-1.557-.72-3.706.152-4.119 1.801-1.185-.305-1.805-1.316-2.039-2.55.689 0 1.364.014 2.246-.443v.014zm-8.582 5.501H4.287a.554.554 0 0 1 0-1.108h1.158a1.08 1.08 0 0 1 .936-.555h5.58c.55 0 1.005.416 1.088.957h-2.26c-.922 0-1.983.498-2.424 1.247H6.381c-.4 0-.757-.222-.936-.555v.014zm14.188 3.243a2.19 2.19 0 0 1-1.79.928h-7.219a2.193 2.193 0 0 1-2.19-2.203c0-1.22.978-2.203 2.19-2.203h4.105c-.11-.305-.303-.86-.303-.86a2.236 2.236 0 0 1 1.322-2.827 2.169 2.169 0 0 1 2.797 1.331l1.35 3.81a2.217 2.217 0 0 1-.276 2.01l.014.014z" fill="#003D9E"/><path d="M18.476 6.817c0-1.981-1.598-3.588-3.568-3.588-1.736 0-3.154 1.26-3.457 2.91-1.24.235-2.122.748-2.08 1.288.055.638 1.418 1.053 3.058.915a6.336 6.336 0 0 0 1.556-.305h4.505V6.804l-.014.013z" fill="#FCC200"/></g><defs><clipPath id="a"><path fill="#fff" d="M0 0h134v30H0z"/></clipPath></defs></svg>