<svg width="40" height="41" viewBox="0 0 40 41" fill="none" xmlns="http://www.w3.org/2000/svg"><path fill-rule="evenodd" clip-rule="evenodd" d="M19.95 0c11.025 0 19.949 8.995 19.949 20.086 0 11.09-8.924 20.086-19.95 20.086C8.924 40.172 0 31.177 0 20.086 0 8.996 8.924 0 19.95 0z" fill="#FEFEFE"/><path d="M19.968 0C9.772 0 1.383 7.678.166 17.6H4.48c-.018.093-.055.186-.055.297 0 .112.037.204.055.297H.11c-.055.63-.091 1.243-.091 1.892 0 10.312 7.743 18.806 17.7 19.956l-2.084-6.195a2.96 2.96 0 0 1 1.217-3.45l5.863-3.69-.645-1.836 2.544.037c1.107 0 2.102-.927 2.747-1.836.074-.111.111-.223.185-.334l1.678 4.692c.037.167.055.334.055.501 0 .983-.48 1.947-1.383 2.504 0 0-3.743 2.318-5.937 3.71.738 2.206 1.807 5.34 1.807 5.34.037.093.055.186.074.297a19.649 19.649 0 0 0 3.245-.927l-1.936-5.434c1.438-.909 2.931-1.818 2.931-1.818a3.249 3.249 0 0 0 1.512-2.745c0-.222-.037-.445-.073-.649l2.747 7.734a20.062 20.062 0 0 0 7.725-15.857C39.991 8.996 31.05 0 20.023 0h-.055zM18.77 11.258l5.586.074c-.037.315-.24 1.224-.35 1.502-2.084-.964-4.96.204-5.513 2.411-1.586-.408-2.415-1.762-2.729-3.412.922 0 1.826.018 3.006-.594v.019zM7.283 18.62H5.734a.742.742 0 0 1 0-1.484h1.549a1.449 1.449 0 0 1 1.254-.742h7.467c.737 0 1.346.556 1.456 1.28h-3.023c-1.236 0-2.655.668-3.245 1.669H8.537a1.426 1.426 0 0 1-1.254-.742v.019zm18.99 4.34a2.931 2.931 0 0 1-2.396 1.242h-9.661a2.936 2.936 0 0 1-2.932-2.949 2.936 2.936 0 0 1 2.931-2.949h5.495c-.148-.408-.406-1.15-.406-1.15a2.992 2.992 0 0 1 1.77-3.784 2.903 2.903 0 0 1 3.743 1.781l1.807 5.1a2.97 2.97 0 0 1-.369 2.69l.019.019z" fill="#003D9E"/><path d="M24.724 9.124c0-2.652-2.139-4.803-4.775-4.803-2.323 0-4.222 1.687-4.628 3.894-1.66.316-2.84 1.002-2.784 1.725.074.853 1.9 1.41 4.093 1.224a8.477 8.477 0 0 0 2.084-.408h6.029v-1.65l-.019.018z" fill="#FCC200"/></svg>