<svg width="40" height="41" viewBox="0 0 40 41" fill="none" xmlns="http://www.w3.org/2000/svg">
<path fill-rule="evenodd" clip-rule="evenodd" d="M19.9494 0C30.9751 0 39.8988 8.99505 39.8988 20.0859C39.8988 31.1767 30.9751 40.1717 19.9494 40.1717C8.92376 40.1717 0 31.1767 0 20.0859C0 8.99505 8.92376 0 19.9494 0Z" fill="#FEFEFE"/>
<path d="M19.968 0C9.77201 0 1.38293 7.67825 0.166055 17.6006H4.48044C4.462 17.6934 4.42512 17.7861 4.42512 17.8974C4.42512 18.0087 4.462 18.1014 4.48044 18.1941H0.110742C0.0554297 18.8247 0.0185547 19.4367 0.0185547 20.0859C0.0185547 30.3977 7.76232 38.892 17.7186 40.0419L15.6351 33.8474C15.1926 32.5491 15.7089 31.121 16.852 30.3977L22.7152 26.707L22.0698 24.8709L24.6142 24.908C25.7205 24.908 26.7161 23.9806 27.3614 23.0718C27.4352 22.9606 27.472 22.8493 27.5458 22.738L29.2236 27.4303C29.2605 27.5972 29.2789 27.7641 29.2789 27.931C29.2789 28.914 28.7995 29.8784 27.8961 30.4348C27.8961 30.4348 24.1533 32.7531 21.9592 34.1441C22.6967 36.3511 23.7661 39.4855 23.7661 39.4855C23.803 39.5782 23.8214 39.671 23.8398 39.7822C24.9461 39.5597 26.0339 39.2629 27.0848 38.8549L25.1489 33.4208C26.587 32.512 28.0805 31.6032 28.0805 31.6032C29.0208 31.0098 29.5924 29.9711 29.5924 28.8584C29.5924 28.6358 29.5555 28.4132 29.5186 28.2092L32.2658 35.9431C36.9674 32.2709 39.9911 26.54 39.9911 20.0859C39.9911 8.99505 31.0489 0 20.0233 0H19.968ZM18.7695 11.2577L24.3561 11.3319C24.3192 11.6472 24.1164 12.556 24.0058 12.8342C21.9223 11.8698 19.0461 13.0382 18.493 15.2452C16.9073 14.8372 16.0776 13.4833 15.7642 11.8327C16.6861 11.8327 17.5895 11.8512 18.7695 11.2392V11.2577ZM7.28294 18.6207H5.73419C5.32856 18.6207 4.99669 18.2869 4.99669 17.8788C4.99669 17.4708 5.32856 17.137 5.73419 17.137H7.28294C7.54107 16.6919 8.00201 16.3951 8.53669 16.3951H16.0039C16.7414 16.3951 17.3498 16.9515 17.4605 17.6748C16.0039 17.6748 14.4367 17.6748 14.4367 17.6748C13.2014 17.6748 11.7817 18.3425 11.1917 19.344H8.53669C8.00201 19.344 7.52263 19.0473 7.28294 18.6021V18.6207ZM26.2736 22.9606C25.7205 23.7395 24.8355 24.2032 23.8767 24.2032H14.2155C12.593 24.2032 11.2839 22.8864 11.2839 21.2543C11.2839 19.6222 12.593 18.3054 14.2155 18.3054C14.2155 18.3054 17.018 18.3054 19.7098 18.3054C19.5623 17.8974 19.3042 17.1555 19.3042 17.1555C19.1936 16.8217 19.1383 16.4878 19.1383 16.154C19.1383 14.9485 19.8942 13.8171 21.0742 13.372C22.6045 12.8156 24.2823 13.6131 24.817 15.1525L26.6239 20.2528C26.9373 21.1616 26.8083 22.1631 26.2552 22.942L26.2736 22.9606Z" fill="#003D9E"/>
<path d="M24.7242 9.1241C24.7242 6.47195 22.5855 4.32056 19.9489 4.32056C17.6258 4.32056 15.7267 6.00829 15.3211 8.21532C13.6617 8.53061 12.4817 9.21683 12.537 9.94015C12.6108 10.7933 14.4361 11.3497 16.6302 11.1642C17.4045 11.1086 18.1052 10.9602 18.7136 10.7562H24.7427V9.10555L24.7242 9.1241Z" fill="#FCC200"/>
</svg>
