<svg width="134" height="30" viewBox="0 0 134 30" fill="none" xmlns="http://www.w3.org/2000/svg">
<g clip-path="url(#clip0_75_182)">
<path d="M44.2222 12.7898L40.985 8.72973V12.7898H38.2988V2.78516H40.985V6.77592L44.0845 2.78516H46.3712V3.82442L43.3957 7.53804L46.7845 11.7367V12.7898H44.2222Z" fill="#E63600"/>
<path d="M56.193 3.82442L51.4818 12.7898H49.2227V11.7505L50.3936 9.69971L47.239 3.83827V2.78516H49.815L51.9226 6.85906L53.9201 2.78516H56.193V3.82442Z" fill="#E63600"/>
<path d="M60.9869 12.7898H57.24V2.78516H64.1001V5.1131H59.94V6.37407H61.0007C62.2405 6.37407 63.2047 6.67892 63.8935 7.27476C64.5823 7.87061 64.9404 8.60502 64.9404 9.478C64.9404 10.4341 64.5961 11.224 63.8935 11.8475C63.191 12.4711 62.2267 12.7759 61.0007 12.7759L60.9869 12.7898ZM59.8711 8.42488V10.5173H60.9731C61.3726 10.5173 61.6757 10.4203 61.8961 10.2401C62.1165 10.06 62.2267 9.7967 62.2267 9.46414C62.2267 9.15929 62.1165 8.90987 61.8823 8.71587C61.6619 8.52188 61.3451 8.42488 60.9593 8.42488H59.8573H59.8711Z" fill="#E63600"/>
<path d="M68.1914 11.03L67.6266 12.7898H65.395V11.8614L68.5496 2.79907H71.5388L74.6796 11.7367V12.8037H72.2138L71.6628 11.0439H68.2052L68.1914 11.03ZM68.8802 8.81293H70.9741L69.9409 5.45958L68.8802 8.81293Z" fill="#E63600"/>
<path d="M78.4404 12.7898H75.7542V2.78516H78.4404V6.49878H81.7464V2.78516H84.4464V12.7898H81.7464V8.81287H78.4404V12.7898Z" fill="#E63600"/>
<path d="M89.874 12.7898H86.2649V2.78516H88.9511V5.77823H89.8603C91.1276 5.77823 92.1194 6.11079 92.8358 6.78977C93.5521 7.46876 93.9102 8.28631 93.9102 9.24243C93.9102 10.2678 93.5521 11.127 92.8358 11.7921C92.1194 12.4572 91.1276 12.7898 89.874 12.7898ZM88.9098 8.05074V10.5173H89.8603C90.2873 10.5173 90.6179 10.4064 90.8659 10.1847C91.1138 9.96298 91.224 9.65813 91.224 9.25629C91.224 8.89601 91.1001 8.60502 90.8521 8.38331C90.6041 8.1616 90.2735 8.03689 89.8603 8.03689H88.9098V8.05074Z" fill="#E63600"/>
<path d="M40.985 26.9514H38.2988V16.9468H40.985V22.7805L44.4427 16.9468H47.1426V26.9514H44.4427V21.1315L40.985 26.9514Z" fill="#E63600"/>
<path d="M51.6472 26.9514H48.9473V16.9468H51.6472V20.6465H54.9533V16.9468H57.6395V26.9514H54.9533V22.9745H51.6472V26.9514Z" fill="#E63600"/>
<path d="M63.866 27.1871C62.3921 27.1871 61.2074 26.716 60.3395 25.7737C59.4579 24.8315 59.0171 23.5566 59.0171 21.9631C59.0171 20.3419 59.4579 19.0532 60.3395 18.1109C61.2212 17.1686 62.3921 16.6975 63.866 16.6975C65.0094 16.6975 65.9048 16.9331 66.5385 17.4042C67.1721 17.8753 67.5578 18.4435 67.7094 19.0947V20.134H65.5329C65.464 19.8014 65.2987 19.5243 65.0094 19.3164C64.7201 19.1086 64.3482 19.0116 63.8798 19.0116C63.2186 19.0116 62.6951 19.261 62.2956 19.7599C61.8961 20.2587 61.7033 20.9793 61.7033 21.9354C61.7033 22.8638 61.8961 23.5843 62.2956 24.0832C62.6951 24.582 63.2186 24.8315 63.8798 24.8315C64.3344 24.8315 64.7201 24.7206 65.0232 24.4989C65.3262 24.2772 65.5191 24.0001 65.6017 23.6536H67.7782V24.6929C67.6129 25.3996 67.1859 25.9954 66.4971 26.4527C65.8084 26.9238 64.9267 27.1594 63.866 27.1594V27.1871Z" fill="#E63600"/>
<path d="M73.8945 26.9514H71.1945V19.2747H68.5771V16.9468H76.5118V19.2747H73.8945V26.9514Z" fill="#E63600"/>
<path d="M80.3276 26.9514H77.6414V16.9468H81.2092C82.449 16.9468 83.4408 17.2516 84.1709 17.8752C84.901 18.4987 85.2592 19.344 85.2592 20.3971C85.2592 21.381 84.901 22.2124 84.1984 22.9052C83.4959 23.598 82.4903 23.9583 81.2092 23.9583H80.3276V26.9514ZM80.2725 19.2193V21.6858H81.1816C81.5949 21.6858 81.9255 21.575 82.1735 21.3255C82.4214 21.09 82.5454 20.7851 82.5454 20.3971C82.5454 20.0368 82.4214 19.7459 82.1872 19.5241C81.9393 19.3163 81.6087 19.2054 81.1816 19.2054H80.2725V19.2193Z" fill="#E63600"/>
<path d="M94.6402 17.986L89.9428 26.9514H87.6698V25.9121L88.8545 23.8475L85.7 17.9999V16.9468H88.2622L90.3698 21.0068L92.381 16.9468H94.6402V17.986Z" fill="#E63600"/>
<path d="M101.776 25.1362H99.9852L98.2357 21.0345V26.9514H95.6873V16.9468H98.9658L100.963 21.6858L102.933 16.9468H106.225V26.9514H103.525V21.0345L101.776 25.1362Z" fill="#E63600"/>
<path d="M114.656 26.9514H108.044V16.9468H114.656V19.2747H110.73V20.7574H114.132V22.8636H110.73V24.6096H114.656V26.9514Z" fill="#E63600"/>
<path d="M118.926 26.9514H116.226V16.9468H118.926V20.6465H122.232V16.9468H124.932V26.9514H122.232V22.9745H118.926V26.9514Z" fill="#E63600"/>
<path d="M131.366 26.9514H128.679V19.2747H126.062V16.9468H133.997V19.2747H131.366V26.9514Z" fill="#E63600"/>
<path fill-rule="evenodd" clip-rule="evenodd" d="M14.9084 0C23.1461 0 29.8134 6.72055 29.8134 15.0069C29.8134 23.2933 23.1461 30.0139 14.9084 30.0139C6.67071 30.0139 0.00341797 23.2933 0.00341797 15.0069C0.00341797 6.72055 6.67071 0 14.9084 0Z" fill="#FEFEFE"/>
<path d="M14.9221 0C7.30427 0 1.03647 5.73672 0.127293 13.1501H3.35074C3.33696 13.2194 3.30941 13.2887 3.30941 13.3718C3.30941 13.455 3.33696 13.5242 3.35074 13.5935H0.0859668C0.0446406 14.0647 0.0170898 14.5219 0.0170898 15.0069C0.0170898 22.7113 5.80276 29.0577 13.2415 29.9169L11.6848 25.2887C11.3542 24.3187 11.74 23.2517 12.594 22.7113L16.9746 19.9538L16.4925 18.582L18.3935 18.6097C19.22 18.6097 19.9639 17.9169 20.446 17.2379C20.5011 17.1547 20.5287 17.0716 20.5838 16.9885L21.8373 20.4942C21.8649 20.6189 21.8786 20.7436 21.8786 20.8684C21.8786 21.6028 21.5205 22.3233 20.8455 22.739C20.8455 22.739 18.0491 24.4711 16.4098 25.5104C16.9608 27.1594 17.7598 29.5012 17.7598 29.5012C17.7873 29.5704 17.8011 29.6397 17.8149 29.7229C18.6414 29.5566 19.4542 29.3349 20.2394 29.03L18.793 24.97C19.8674 24.291 20.9832 23.612 20.9832 23.612C21.6858 23.1686 22.1128 22.3926 22.1128 21.5612C22.1128 21.3949 22.0853 21.2286 22.0577 21.0762L24.1103 26.8545C27.623 24.1109 29.8821 19.8291 29.8821 15.0069C29.8821 6.72055 23.2011 0 14.9634 0H14.9221ZM14.0267 8.41108L18.2006 8.46651C18.1731 8.70208 18.0215 9.38106 17.9389 9.58891C16.3823 8.86836 14.2333 9.74134 13.82 11.3903C12.6354 11.0854 12.0155 10.0739 11.7813 8.84065C12.47 8.84065 13.145 8.8545 14.0267 8.39723V8.41108ZM5.4446 13.9122H4.28746C3.9844 13.9122 3.73645 13.6628 3.73645 13.358C3.73645 13.0531 3.9844 12.8037 4.28746 12.8037H5.4446C5.63745 12.4711 5.98184 12.2494 6.38132 12.2494H11.9604C12.5114 12.2494 12.966 12.6651 13.0486 13.2055C11.9604 13.2055 10.7894 13.2055 10.7894 13.2055C9.8665 13.2055 8.80579 13.7044 8.36498 14.4527H6.38132C5.98184 14.4527 5.62368 14.2309 5.4446 13.8984V13.9122ZM19.6333 17.1547C19.22 17.7367 18.5588 18.0831 17.8425 18.0831H10.6241C9.41191 18.0831 8.43386 17.0993 8.43386 15.8799C8.43386 14.6605 9.41191 13.6767 10.6241 13.6767C10.6241 13.6767 12.718 13.6767 14.7292 13.6767C14.619 13.3718 14.4262 12.8176 14.4262 12.8176C14.3435 12.5681 14.3022 12.3187 14.3022 12.0693C14.3022 11.1686 14.867 10.3233 15.7486 9.99076C16.8919 9.57506 18.1455 10.1709 18.545 11.321L19.895 15.1316C20.1292 15.8106 20.0327 16.5589 19.6195 17.1409L19.6333 17.1547Z" fill="#003D9E"/>
<path d="M18.4761 6.81743C18.4761 4.83591 16.8781 3.22852 14.9082 3.22852C13.1725 3.22852 11.7537 4.48949 11.4506 6.13845C10.2108 6.37401 9.32921 6.88671 9.37053 7.42713C9.42564 8.06454 10.7894 8.48025 12.4287 8.34168C13.0072 8.30011 13.5307 8.18925 13.9853 8.03683H18.4898V6.80357L18.4761 6.81743Z" fill="#FCC200"/>
</g>
<defs>
<clipPath id="clip0_75_182">
<rect width="134" height="30" fill="white"/>
</clipPath>
</defs>
</svg>
