<svg width="108" height="39" viewBox="0 0 108 39" fill="none" xmlns="http://www.w3.org/2000/svg"><path d="M65.688 1.3h-1.336l-2.664 10.1c-.2.766-.35 1.543-.449 2.327a17.19 17.19 0 0 0-.137-1.05c-.073-.43-.17-.857-.291-1.277L58.227 1.325V1.3h-1.312l-.75 16.427v.034h1.008l.508-11.22c.033-.641.052-1.284.06-1.9.01-.618.013-1.148.013-1.563h.01c.063.568.143 1.095.238 1.567.096.473.211.976.348 1.478l2.39 9.01v.023h.944l2.42-9.035c.145-.548.264-1.068.349-1.549.085-.48.174-.982.249-1.518h.012v1.53c0 .52.016 1.148.049 1.87l.506 11.278v.03h1.176L65.69 1.338l-.002-.037zm9.18 15.47a10.54 10.54 0 0 1-.073-1.234V9.048c0-1.19-.272-2.068-.806-2.63-.534-.563-1.315-.85-2.318-.85a4.015 4.015 0 0 0-1.79.369 3.13 3.13 0 0 0-1.11.85l-.01.013.347 1.093.039-.054c.28-.4.658-.724 1.1-.945a3.146 3.146 0 0 1 1.433-.34c.661 0 1.166.205 1.495.612.329.406.5 1.083.5 1.997v1.455H72.38c-1.323 0-2.346.34-3.042.988-.696.648-1.044 1.635-1.044 2.914 0 1.088.263 1.948.78 2.55a2.73 2.73 0 0 0 3.609.418c.435-.341.79-.769 1.043-1.255a6.457 6.457 0 0 0 .282 1.498v.024h1.062l-.018-.043a4.422 4.422 0 0 1-.19-.948l.006.006zm-1.206-5.34v3.353a5.066 5.066 0 0 1-.922 1.642 1.78 1.78 0 0 1-.626.5c-.245.118-.514.18-.787.18a1.674 1.674 0 0 1-.787-.176 1.63 1.63 0 0 1-.605-.52c-.348-.466-.522-1.13-.522-1.97 0-1.046.249-1.816.738-2.287.489-.471 1.247-.716 2.248-.716l1.263-.005zm10.015-4.226a3.42 3.42 0 0 0-1.025-1.203 2.452 2.452 0 0 0-3.085.251 5.616 5.616 0 0 0-1.044 1.418l-.088-1.833v-.032h-1.006v15.64h1.152v-4.447c.235.282.527.513.858.68.388.2.82.302 1.26.299 1.148 0 2.087-.55 2.783-1.632.696-1.083 1.044-2.73 1.044-4.913a12.064 12.064 0 0 0-.217-2.38 6.732 6.732 0 0 0-.632-1.85v.002zM80.8 17.081a2.39 2.39 0 0 1-1.334-.34 2.686 2.686 0 0 1-.87-1.068V8.935c.127-.31.28-.61.454-.898.165-.275.362-.53.588-.761.203-.209.438-.386.696-.526.235-.127.5-.194.769-.195.708 0 1.27.437 1.674 1.302.404.865.612 2.108.612 3.667 0 1.889-.238 3.305-.708 4.21-.47.907-1.096 1.349-1.867 1.349M92.948 5.86l.037-.051h-1.143l-4.032 5.525V5.809h-1.152v11.955h1.152V11.68l4.168 6.07.008.014h1.286l-4.319-6.402 3.995-5.502zm7.251 6.116c.098-.925.09-1.857-.024-2.78a6.443 6.443 0 0 0-.583-2.002 3.048 3.048 0 0 0-1.044-1.216 2.655 2.655 0 0 0-2.85.012 3.567 3.567 0 0 0-1.121 1.226 6.941 6.941 0 0 0-.74 1.955 11.665 11.665 0 0 0-.266 2.614c0 1.962.305 3.504.908 4.58.604 1.076 1.567 1.633 2.866 1.633a3.68 3.68 0 0 0 1.257-.202c.318-.11.617-.266.887-.464a3.1 3.1 0 0 0 .708-.668l.012-.014-.393-.946-.035.05c-.156.246-.359.46-.597.631a2.98 2.98 0 0 1-.763.442c-.332.13-.687.193-1.044.187-.884 0-1.547-.432-1.975-1.278-.428-.847-.662-2.107-.696-3.732h5.503l-.01-.028zm-3.08-5.515c.306.002.603.096.853.268.302.221.542.514.696.85.213.466.35.962.407 1.47.081.688.098 1.382.05 2.073h-4.407c.05-1.515.31-2.68.767-3.47.458-.788 1.011-1.19 1.638-1.19m4.049-.653v.89h2.85v11.065h1.152V6.7H108v-.89h-6.828zm-74.222.074h-5.288v1.02c0 .723-.012 1.484-.037 2.283-.023.808-.09 1.614-.198 2.415-.11.817-.271 1.626-.484 2.423a9.995 9.995 0 0 1-.885 2.237h-.733v3.828h1.678v-2.507h5.394v2.507h1.491v-3.828h-.943l.005-10.378zM25.081 16.26h-3.375c.34-.563.6-1.168.777-1.798.213-.726.379-1.464.496-2.21.128-.789.215-1.583.26-2.38.048-.806.072-1.57.07-2.294v-.22h1.772v8.902zM32.85 5.59a2.65 2.65 0 0 0-1.7.567 4.31 4.31 0 0 0-1.167 1.497 8.14 8.14 0 0 0-.684 2.146c-.15.83-.222 1.673-.216 2.517 0 1.813.37 3.22 1.11 4.22.74 1 1.724 1.5 2.95 1.5a5.06 5.06 0 0 0 1.618-.24c.452-.152.89-.342 1.309-.567l-.213-1.316a6.85 6.85 0 0 1-.908.29 4.46 4.46 0 0 1-1.12.15c-.961 0-1.666-.357-2.115-1.072-.449-.715-.672-1.71-.671-2.987h5.075v-1.02c0-1.875-.299-3.292-.898-4.25-.598-.957-1.388-1.436-2.37-1.435zm1.323 5.145h-3.116c.03-.488.088-.973.174-1.454.066-.398.177-.788.33-1.163.114-.292.293-.555.522-.773.19-.18.444-.28.708-.277.377 0 .684.25.92.75.238.5.385 1.203.45 2.11 0 .106.003.206.01.3.009.092.012.17.012.253l-.01.254zm16.788 5.469a3.964 3.964 0 0 1-1.061.151 2.204 2.204 0 0 1-1.195-.306 2.134 2.134 0 0 1-.829-.894c-.442-.8-.662-1.9-.661-3.298 0-.591.046-1.181.14-1.765a7.69 7.69 0 0 1 .403-1.53c.145-.4.37-.769.66-1.084a1.231 1.231 0 0 1 .896-.415c.3.005.59.092.84.253.277.172.527.381.743.622l.969-1.59a4.299 4.299 0 0 0-2.534-.757 2.959 2.959 0 0 0-1.63.476 4.22 4.22 0 0 0-1.298 1.36 7.64 7.64 0 0 0-.87 2.123 11.138 11.138 0 0 0-.319 2.766c0 1.846.375 3.263 1.123 4.25.748.987 1.728 1.48 2.939 1.477a4.444 4.444 0 0 0 1.522-.243 7.18 7.18 0 0 0 1.218-.564l-.19-1.316c-.283.114-.573.21-.87.289" fill="#000"/><path d="M4.07.369a4.494 4.494 0 0 0-1.594 1.096A5.283 5.283 0 0 0 1.39 3.254a6.86 6.86 0 0 0-.402 2.443c0 1.2.24 2.234.72 3.102.481.868 1.28 1.564 2.397 2.088L0 17.58h2.147l3.776-6.395h1.218v6.395h1.866V0H5.994A5.082 5.082 0 0 0 4.07.369zm3.089 9.317h-.992a3.31 3.31 0 0 1-1.18-.215 2.726 2.726 0 0 1-1.014-.7 3.567 3.567 0 0 1-.72-1.228A5.35 5.35 0 0 1 2.98 5.72a6.38 6.38 0 0 1 .247-1.893c.136-.469.36-.908.661-1.296.25-.315.574-.567.945-.732.345-.152.72-.23 1.098-.23H7.15l.009 8.117z" fill="#F00"/><path d="M16.165 10.565h-2.684V5.883h-1.89v11.699h1.89v-5.448h2.684v5.448h1.866v-11.7h-1.866v4.683zm28.187-4.682h-2.008l-2.572 5.166-.212.231V5.883h-1.89V17.76h1.89v-6.11l.212.252 2.902 5.858h2.102l-3.4-6.527 2.976-5.35z" fill="#000"/><path d="M46.416 30.431c0 .112-.07.238-.21.378l-2.828 2.758.672 3.906v.168a.43.43 0 0 1-.084.266.28.28 0 0 1-.238.112.514.514 0 0 1-.308-.084l-3.514-1.848-3.5 1.848a.64.64 0 0 1-.322.098.27.27 0 0 1-.238-.126.472.472 0 0 1-.084-.266c0-.037.005-.093.014-.168l.672-3.906-2.842-2.758c-.13-.14-.196-.266-.196-.378 0-.196.145-.317.434-.364l3.92-.56 1.764-3.556c.103-.214.229-.322.378-.322.15 0 .28.108.392.322l1.75 3.556 3.92.56c.299.047.448.168.448.364zm14.763 0c0 .112-.07.238-.21.378l-2.828 2.758.672 3.906v.168a.43.43 0 0 1-.084.266.28.28 0 0 1-.238.112.514.514 0 0 1-.308-.084l-3.514-1.848-3.5 1.848a.64.64 0 0 1-.322.098.27.27 0 0 1-.238-.126.472.472 0 0 1-.084-.266c0-.037.005-.093.014-.168l.672-3.906-2.842-2.758c-.13-.14-.196-.266-.196-.378 0-.196.145-.317.434-.364l3.92-.56 1.764-3.556c.103-.214.229-.322.378-.322.15 0 .28.108.392.322l1.75 3.556 3.92.56c.298.047.448.168.448.364zm14.763 0c0 .112-.07.238-.21.378l-2.829 2.758.672 3.906v.168a.43.43 0 0 1-.084.266.28.28 0 0 1-.237.112.514.514 0 0 1-.309-.084l-3.513-1.848-3.5 1.848a.64.64 0 0 1-.323.098.27.27 0 0 1-.237-.126.472.472 0 0 1-.085-.266c0-.037.005-.093.014-.168l.672-3.906-2.841-2.758c-.131-.14-.197-.266-.197-.378 0-.196.145-.317.434-.364l3.92-.56 1.764-3.556c.103-.214.23-.322.379-.322s.28.108.391.322l1.75 3.556 3.92.56c.3.047.449.168.449.364zm15.538 0c0 .112-.07.238-.21.378l-2.827 2.758.672 3.906v.168a.43.43 0 0 1-.084.266.28.28 0 0 1-.238.112.514.514 0 0 1-.308-.084l-3.514-1.848-3.5 1.848a.64.64 0 0 1-.322.098.27.27 0 0 1-.238-.126.472.472 0 0 1-.084-.266c0-.037.004-.093.014-.168l.672-3.906-2.842-2.758c-.131-.14-.196-.266-.196-.378 0-.196.144-.317.434-.364l3.92-.56 1.764-3.556c.102-.214.228-.322.378-.322.149 0 .28.108.392.322l1.75 3.556 3.92.56c.298.047.448.168.448.364zm-59.826 0c0 .112-.07.238-.21.378l-2.828 2.758.672 3.906v.168a.43.43 0 0 1-.085.266.28.28 0 0 1-.238.112.514.514 0 0 1-.308-.084l-3.514-1.848-3.5 1.848a.64.64 0 0 1-.322.098.27.27 0 0 1-.238-.126.472.472 0 0 1-.083-.266c0-.037.004-.093.014-.168l.672-3.906-2.843-2.758c-.13-.14-.195-.266-.195-.378 0-.196.144-.317.433-.364l3.92-.56 1.764-3.556c.103-.214.23-.322.378-.322.15 0 .28.108.392.322l1.75 3.556 3.92.56c.3.047.449.168.449.364z" fill="#FBC02D"/></svg>