<svg width="108" height="39" viewBox="0 0 108 39" fill="none" xmlns="http://www.w3.org/2000/svg">
<path d="M65.6883 1.30078H64.352L61.688 11.4002C61.4878 12.1659 61.3378 12.9432 61.239 13.7275C61.206 13.3875 61.159 13.0356 61.1016 12.6769C61.0285 12.2465 60.9315 11.8203 60.811 11.4002L58.227 1.32458V1.30078H56.915L56.165 17.7275V17.7615H57.1725L57.6806 6.54176C57.7137 5.90087 57.7328 5.25829 57.7415 4.6412C57.7502 4.02412 57.7537 3.49373 57.7537 3.07894H57.7641C57.8268 3.64673 57.9068 4.17371 58.0025 4.6463C58.0982 5.11889 58.2131 5.62208 58.3505 6.12357L60.7396 15.1334V15.1572H61.6845L64.1049 6.12187C64.2493 5.57448 64.3676 5.05429 64.4529 4.5732C64.5382 4.09212 64.6269 3.59063 64.7017 3.05514H64.7139V4.58511C64.7139 5.10529 64.7296 5.73258 64.7626 6.45506L65.269 17.7326V17.7632H66.4453L65.6901 1.33818L65.6883 1.30078Z" fill="black"/>
<path d="M74.8679 16.7705C74.8194 16.3608 74.795 15.9488 74.7948 15.5364V9.0476C74.7948 7.85763 74.5233 6.98045 73.9891 6.41776C73.4549 5.85508 72.6737 5.56778 71.6714 5.56778C71.0532 5.55162 70.4398 5.67799 69.8809 5.93667C69.4496 6.13411 69.07 6.42477 68.7707 6.78665L68.7603 6.80025L69.1083 7.89333L69.1466 7.83893C69.4272 7.43961 69.8051 7.11478 70.2463 6.89375C70.6891 6.66886 71.181 6.55219 71.6801 6.55376C72.3413 6.55376 72.8459 6.75945 73.1748 7.16575C73.5037 7.57204 73.6759 8.24862 73.6759 9.1632V10.6184H72.3796C71.0571 10.6184 70.034 10.9584 69.338 11.606C68.642 12.2537 68.2939 13.2414 68.2939 14.5198C68.2939 15.6077 68.5567 16.4679 69.0735 17.0697C69.5117 17.569 70.1259 17.8891 70.7944 17.9666C71.4629 18.0441 72.1368 17.8732 72.6824 17.4879C73.1177 17.147 73.4736 16.7193 73.7264 16.2333C73.7467 16.5344 73.788 16.8337 73.8499 17.1292C73.9056 17.3706 73.9595 17.5746 74.0083 17.731V17.7548H75.0697L75.0523 17.7123C74.9545 17.4037 74.8909 17.0856 74.8626 16.7637L74.8679 16.7705ZM73.662 11.4309V14.7833C73.461 15.3816 73.1483 15.9384 72.7398 16.4254C72.573 16.6366 72.3589 16.8077 72.114 16.9255C71.8691 17.0434 71.5999 17.1049 71.3269 17.1054C71.0538 17.1115 70.7835 17.0509 70.5405 16.9292C70.2974 16.8075 70.0892 16.6285 69.9348 16.4084C69.5868 15.9426 69.4128 15.2797 69.4128 14.4382C69.4128 13.3927 69.6616 12.6226 70.1506 12.1517C70.6395 11.6808 71.3982 11.436 72.3987 11.436L73.662 11.4309Z" fill="black"/>
<path d="M83.6772 7.20421C83.4361 6.73059 83.0851 6.31848 82.6523 6.00064C82.1897 5.68193 81.6271 5.53247 81.063 5.57848C80.4989 5.62448 79.9693 5.86301 79.5672 6.25224C79.1456 6.66868 78.7933 7.14706 78.5232 7.67L78.4345 5.83745V5.80515H77.4287V21.4448H78.5806V16.9977C78.8156 17.2796 79.1077 17.5111 79.4385 17.6777C79.8267 17.8774 80.2595 17.9801 80.6983 17.9769C81.8467 17.9769 82.7863 17.4278 83.4823 16.3449C84.1784 15.262 84.5264 13.6148 84.5264 11.432C84.5329 10.6337 84.46 9.83664 84.3089 9.05207C84.1898 8.40926 83.9771 7.78641 83.6772 7.20251V7.20421ZM80.7992 17.081C80.3295 17.1008 79.8645 16.9823 79.4646 16.741C79.0849 16.4646 78.7852 16.0968 78.5945 15.6734V8.93477C78.7223 8.62473 78.8742 8.32467 79.0487 8.0372C79.2142 7.76212 79.4115 7.50658 79.6368 7.27561C79.8403 7.06709 80.075 6.88997 80.3329 6.75032C80.5683 6.62297 80.8328 6.55573 81.102 6.55483C81.8102 6.55483 82.3722 6.99172 82.7759 7.857C83.1796 8.72228 83.3884 9.96495 83.3884 11.5238C83.3884 13.4125 83.15 14.8285 82.6802 15.7346C82.2104 16.6407 81.5839 17.0827 80.8131 17.0827" fill="black"/>
<path d="M92.9485 5.85959L92.985 5.80859H91.8418L87.8101 11.3335V5.80859H86.6582V17.7644H87.8101V11.6803L91.9775 17.7508L91.9862 17.7644H93.2721L88.9533 11.3624L92.9485 5.85959Z" fill="black"/>
<path d="M100.199 11.9755C100.297 11.051 100.289 10.1188 100.175 9.19605C100.091 8.50246 99.894 7.82642 99.5917 7.1935C99.3604 6.70492 99 6.28536 98.5477 5.97803C98.1226 5.70987 97.6268 5.56822 97.1208 5.57034C96.6147 5.57245 96.1202 5.71823 95.6975 5.98993C95.2308 6.30703 94.8469 6.72688 94.5769 7.2156C94.2325 7.82783 93.9833 8.48669 93.8374 9.17055C93.65 10.0298 93.5607 10.9066 93.5711 11.7851C93.5711 13.7468 93.8756 15.2887 94.4794 16.3648C95.0832 17.4409 96.0455 17.9984 97.3453 17.9984C97.773 18.0043 98.1984 17.9358 98.6016 17.7962C98.9197 17.6861 99.2189 17.5296 99.489 17.3321C99.7595 17.147 99.9984 16.9215 100.197 16.664L100.209 16.6504L99.8162 15.7035L99.7814 15.7545C99.6249 15.9996 99.4224 16.2136 99.1845 16.3852C98.9537 16.5686 98.6963 16.7176 98.4206 16.8272C98.0888 16.9566 97.7339 17.0202 97.3766 17.0142C96.4927 17.0142 95.8297 16.5824 95.4017 15.7358C94.9736 14.8892 94.7404 13.6295 94.7056 12.0044H100.209L100.199 11.9755ZM97.1191 6.46082C97.4248 6.46286 97.7224 6.55662 97.9717 6.72941C98.2743 6.94996 98.5139 7.2426 98.6677 7.57939C98.8814 8.04511 99.0188 8.54075 99.0749 9.04816C99.1563 9.73654 99.1732 10.4307 99.1254 11.1221H94.7178C94.7683 9.60744 95.0276 8.44127 95.4852 7.65249C95.9428 6.86371 96.4962 6.46252 97.1226 6.46252" fill="black"/>
<path d="M101.172 5.80859V6.69937H104.022V17.7644H105.174V6.69937H108V5.80859H101.172Z" fill="black"/>
<path d="M26.9501 5.88281H21.6621V6.90279C21.6621 7.62584 21.6499 8.38685 21.6255 9.18583C21.6019 9.99384 21.5357 10.8001 21.4272 11.6015C21.3172 12.4179 21.1556 13.2269 20.9434 14.0239C20.7399 14.8013 20.4426 15.5522 20.0578 16.2611H19.3252V20.0894H21.0026V17.5819H26.3968V20.0894H27.888V16.2611H26.9449L26.9501 5.88281ZM25.0813 16.2611H21.7056C22.0452 15.6978 22.3067 15.093 22.4834 14.4625C22.6961 13.7368 22.8618 12.9987 22.9793 12.2526C23.1072 11.4641 23.1937 10.6697 23.2386 9.87262C23.2873 9.06684 23.3111 8.30242 23.3099 7.57937V7.35838H25.0813V16.2611Z" fill="black"/>
<path d="M32.8505 5.5905C32.2332 5.57678 31.6308 5.77736 31.1505 6.15659C30.6528 6.56537 30.2541 7.07686 29.9829 7.65426C29.6562 8.33568 29.4262 9.05744 29.2991 9.7996C29.1497 10.6307 29.0774 11.4734 29.0833 12.3172C29.0833 14.1305 29.4534 15.537 30.1935 16.5365C30.9336 17.5361 31.9167 18.0365 33.1429 18.0376C33.6923 18.0454 34.2391 17.9638 34.7611 17.7962C35.2132 17.6446 35.6509 17.4552 36.0696 17.2301L35.8574 15.9144C35.562 16.0316 35.2584 16.1282 34.949 16.2034C34.5838 16.3011 34.2071 16.352 33.8285 16.3547C32.8679 16.3547 32.1632 15.9971 31.7143 15.282C31.2654 14.5669 31.0415 13.5713 31.0426 12.2951H36.1184V11.2752C36.1184 9.39955 35.8191 7.98292 35.2205 7.02527C34.6219 6.06763 33.8319 5.58937 32.8505 5.5905ZM34.173 10.7346H31.0566C31.087 10.2473 31.145 9.76209 31.2306 9.28112C31.2968 8.88285 31.4076 8.49291 31.5612 8.11834C31.6755 7.8265 31.8537 7.56254 32.0832 7.34486C32.2729 7.16538 32.5273 7.06587 32.7914 7.06777C33.1684 7.06777 33.4752 7.31766 33.7119 7.81745C33.9485 8.31724 34.0964 9.02102 34.1608 9.9271C34.1608 10.0336 34.1643 10.1339 34.1712 10.228C34.1799 10.3198 34.1834 10.398 34.1834 10.4813L34.173 10.7346Z" fill="black"/>
<path d="M50.9611 16.2037C50.6162 16.3019 50.259 16.3528 49.8997 16.355C49.4795 16.3685 49.0644 16.2623 48.705 16.0491C48.3457 15.836 48.0576 15.5252 47.876 15.1548C47.434 14.3547 47.2136 13.2554 47.2148 11.8569C47.2141 11.266 47.2612 10.676 47.3557 10.0923C47.4366 9.57043 47.5713 9.05783 47.7577 8.56238C47.9032 8.16199 48.1279 7.79348 48.4189 7.4778C48.5297 7.35064 48.6669 7.24791 48.8214 7.1764C48.9759 7.1049 49.1441 7.06625 49.315 7.06301C49.6136 7.0676 49.9046 7.15548 50.1537 7.3163C50.4308 7.48761 50.6811 7.69718 50.8967 7.93849L51.866 6.34733C51.1262 5.83654 50.2381 5.57136 49.3324 5.59085C48.7526 5.58722 48.1848 5.75297 47.702 6.06683C47.1703 6.41915 46.7266 6.88398 46.4039 7.4268C46.0079 8.08856 45.7147 8.80412 45.5339 9.55005C45.3124 10.4558 45.2055 11.3847 45.2155 12.3159C45.2155 14.162 45.5896 15.5787 46.3378 16.5658C47.086 17.5529 48.0657 18.0453 49.2768 18.0431C49.795 18.0513 50.3107 17.969 50.7993 17.8C51.2227 17.65 51.6306 17.461 52.0173 17.2356L51.8277 15.9198C51.5442 16.034 51.2536 16.1305 50.9576 16.2088" fill="black"/>
<path d="M4.06998 0.368939C3.46294 0.616063 2.91884 0.990363 2.47609 1.46541C1.997 1.98576 1.62799 2.59354 1.3903 3.25377C1.10906 4.03831 0.972958 4.86549 0.988348 5.69662C0.988348 6.89679 1.22848 7.93093 1.70873 8.79904C2.18898 9.66716 2.98766 10.363 4.10478 10.8866L0 17.581H2.14722L5.92313 11.1858H7.14116V17.581H9.0065V4.83741e-05H5.99447C5.33429 -0.00282765 4.68011 0.122567 4.06998 0.368939V0.368939ZM7.15857 9.68642H6.16674C5.76316 9.68683 5.36305 9.61361 4.98698 9.47053C4.59815 9.31648 4.25098 9.07679 3.97253 8.77014C3.65138 8.4118 3.40649 7.99456 3.25215 7.54277C3.05681 6.95469 2.96503 6.33849 2.9807 5.72041C2.96771 5.08075 3.05096 4.44268 3.22779 3.82666C3.36375 3.35842 3.588 2.91911 3.88901 2.53129C4.13844 2.21578 4.46272 1.96431 4.83386 1.79861C5.1792 1.64736 5.55337 1.56915 5.93183 1.56911H7.14986L7.15857 9.68642Z" fill="#FF0000"/>
<path d="M16.1654 10.5645H13.4805V5.88281H11.5908V17.5819H13.4805V12.1336H16.1654V17.5819H18.0307V5.88281H16.1654V10.5645Z" fill="black"/>
<path d="M44.3517 5.88281H42.3437L39.7719 11.049L39.5596 11.2802V5.88281H37.6699V17.7604H39.5596V11.6491L39.7719 11.9024L42.6743 17.7604H44.7763L41.3762 11.2326L44.3517 5.88281Z" fill="black"/>
<path d="M46.4162 30.4313C46.4162 30.5433 46.3462 30.6693 46.2062 30.8093L43.3782 33.5673L44.0502 37.4733V37.6413C44.0502 37.744 44.0222 37.8327 43.9662 37.9073C43.9102 37.982 43.8308 38.0193 43.7282 38.0193C43.6348 38.0287 43.5322 38.0007 43.4202 37.9353L39.9062 36.0873L36.4062 37.9353C36.2942 38.0007 36.1868 38.0333 36.0842 38.0333C35.9815 38.0333 35.9022 37.9913 35.8462 37.9073C35.7902 37.8233 35.7622 37.7347 35.7622 37.6413C35.7622 37.604 35.7668 37.548 35.7762 37.4733L36.4482 33.5673L33.6062 30.8093C33.4755 30.6693 33.4102 30.5433 33.4102 30.4313C33.4102 30.2353 33.5548 30.114 33.8442 30.0673L37.7642 29.5073L39.5282 25.9513C39.6308 25.7367 39.7568 25.6293 39.9062 25.6293C40.0555 25.6293 40.1862 25.7367 40.2982 25.9513L42.0482 29.5073L45.9682 30.0673C46.2668 30.114 46.4162 30.2353 46.4162 30.4313Z" fill="#FBC02D"/>
<path d="M61.1789 30.4313C61.1789 30.5433 61.1089 30.6693 60.9689 30.8093L58.1409 33.5673L58.8129 37.4733V37.6413C58.8129 37.744 58.7849 37.8327 58.7289 37.9073C58.6729 37.982 58.5935 38.0193 58.4909 38.0193C58.3975 38.0287 58.2949 38.0007 58.1829 37.9353L54.6689 36.0873L51.1689 37.9353C51.0569 38.0007 50.9495 38.0333 50.8469 38.0333C50.7442 38.0333 50.6649 37.9913 50.6089 37.9073C50.5529 37.8233 50.5249 37.7347 50.5249 37.6413C50.5249 37.604 50.5295 37.548 50.5389 37.4733L51.2109 33.5673L48.3689 30.8093C48.2382 30.6693 48.1729 30.5433 48.1729 30.4313C48.1729 30.2353 48.3175 30.114 48.6069 30.0673L52.5269 29.5073L54.2909 25.9513C54.3935 25.7367 54.5195 25.6293 54.6689 25.6293C54.8182 25.6293 54.9489 25.7367 55.0609 25.9513L56.8109 29.5073L60.7309 30.0673C61.0295 30.114 61.1789 30.2353 61.1789 30.4313Z" fill="#FBC02D"/>
<path d="M75.9415 30.4313C75.9415 30.5433 75.8715 30.6693 75.7315 30.8093L72.9035 33.5673L73.5755 37.4733V37.6413C73.5755 37.744 73.5475 37.8327 73.4915 37.9073C73.4355 37.982 73.3562 38.0193 73.2535 38.0193C73.1602 38.0287 73.0575 38.0007 72.9455 37.9353L69.4315 36.0873L65.9315 37.9353C65.8195 38.0007 65.7122 38.0333 65.6095 38.0333C65.5069 38.0333 65.4275 37.9913 65.3715 37.9073C65.3155 37.8233 65.2875 37.7347 65.2875 37.6413C65.2875 37.604 65.2922 37.548 65.3015 37.4733L65.9735 33.5673L63.1315 30.8093C63.0009 30.6693 62.9355 30.5433 62.9355 30.4313C62.9355 30.2353 63.0802 30.114 63.3695 30.0673L67.2895 29.5073L69.0535 25.9513C69.1562 25.7367 69.2822 25.6293 69.4315 25.6293C69.5809 25.6293 69.7115 25.7367 69.8235 25.9513L71.5735 29.5073L75.4935 30.0673C75.7922 30.114 75.9415 30.2353 75.9415 30.4313Z" fill="#FBC02D"/>
<path d="M91.4806 30.4313C91.4806 30.5433 91.4106 30.6693 91.2706 30.8093L88.4426 33.5673L89.1146 37.4733V37.6413C89.1146 37.744 89.0866 37.8327 89.0306 37.9073C88.9746 37.982 88.8953 38.0193 88.7926 38.0193C88.6993 38.0287 88.5966 38.0007 88.4846 37.9353L84.9706 36.0873L81.4706 37.9353C81.3586 38.0007 81.2513 38.0333 81.1486 38.0333C81.0459 38.0333 80.9666 37.9913 80.9106 37.9073C80.8546 37.8233 80.8266 37.7347 80.8266 37.6413C80.8266 37.604 80.8313 37.548 80.8406 37.4733L81.5126 33.5673L78.6706 30.8093C78.5399 30.6693 78.4746 30.5433 78.4746 30.4313C78.4746 30.2353 78.6193 30.114 78.9086 30.0673L82.8286 29.5073L84.5926 25.9513C84.6953 25.7367 84.8213 25.6293 84.9706 25.6293C85.1199 25.6293 85.2506 25.7367 85.3626 25.9513L87.1126 29.5073L91.0326 30.0673C91.3313 30.114 91.4806 30.2353 91.4806 30.4313Z" fill="#FBC02D"/>
<path d="M31.6535 30.4313C31.6535 30.5433 31.5835 30.6693 31.4435 30.8093L28.6155 33.5673L29.2875 37.4733V37.6413C29.2875 37.744 29.2595 37.8327 29.2035 37.9073C29.1475 37.982 29.0681 38.0193 28.9655 38.0193C28.8721 38.0287 28.7695 38.0007 28.6575 37.9353L25.1435 36.0873L21.6435 37.9353C21.5315 38.0007 21.4241 38.0333 21.3215 38.0333C21.2188 38.0333 21.1395 37.9913 21.0835 37.9073C21.0275 37.8233 20.9995 37.7347 20.9995 37.6413C20.9995 37.604 21.0041 37.548 21.0135 37.4733L21.6855 33.5673L18.8435 30.8093C18.7128 30.6693 18.6475 30.5433 18.6475 30.4313C18.6475 30.2353 18.7921 30.114 19.0815 30.0673L23.0015 29.5073L24.7655 25.9513C24.8681 25.7367 24.9941 25.6293 25.1435 25.6293C25.2928 25.6293 25.4235 25.7367 25.5355 25.9513L27.2855 29.5073L31.2055 30.0673C31.5041 30.114 31.6535 30.2353 31.6535 30.4313Z" fill="#FBC02D"/>
</svg>
